<svg width="285" height="435" viewBox="0 0 285 435" fill="none" xmlns="http://www.w3.org/2000/svg">
<path d="M225.311 381.654C239.461 382.653 253.61 383.651 268.368 384.693C268.081 387.048 267.853 388.908 267.455 392.409C266.452 404.414 265.62 414.779 264.776 425.303C262.131 425.107 260.831 424.983 259.527 424.919C239.449 423.936 219.37 422.961 199.291 421.984C197.121 420.265 194.595 418.84 192.863 416.756C190.397 413.787 188.512 410.335 185.708 405.925C183.27 401.705 181.503 398.649 179.666 395.471C170.518 400.212 162.449 404.807 154.042 408.667C135.548 417.157 116.208 420.712 95.7509 418.666C82.9901 417.389 70.9554 413.956 58.723 408.856C52.5019 405.579 46.6875 402.802 40.8729 400.026C40.8729 400.026 40.9981 399.994 40.8677 399.523C40.1088 398.696 39.4803 398.339 38.8518 397.982C38.8518 397.982 39.0194 397.978 38.7974 397.524C37.8884 396.716 37.2012 396.363 36.5142 396.01C18.4255 380.635 5.99751 361.707 2.22029 338.069C-4.3792 296.768 8.43635 263.174 45.1203 240.898C52.7456 236.267 60.9356 232.566 69.9621 227.866C68.8134 225.392 67.8009 222.768 66.4339 220.343C59.4367 207.934 55.2546 194.347 55.611 180.411C56.1143 160.74 63.8026 143.625 80.2076 131.441C83.6741 128.866 87.2843 126.485 92.0636 123.384C104.213 120.913 104.885 121.336 109.101 131.002C110.524 134.265 110.919 138.663 116.851 139.438C115.549 132.969 114.401 127.263 113.122 120.906C119.387 119.005 125.348 117.197 132.154 115.499C139.219 116.587 145.439 117.565 151.515 119.277C150.06 124.893 146.905 129.862 152.199 134.746C154.016 131.898 155.735 129.204 157.234 126.855C164.729 125.458 170.753 126.9 176.071 131.831C179.436 134.95 183.412 137.41 187.365 140.609C188.731 142.325 189.844 143.597 191.088 145.579C191.866 146.868 192.513 147.447 193.083 148.01C193.006 147.995 193.04 147.842 192.938 148.616C199.667 163.183 201.849 177.841 200.81 193.463C200.648 193.855 200.412 194.671 200.355 194.669C200.297 194.667 200.129 194.821 199.747 195.492C192.911 204.113 186.255 211.998 176.154 215.328C166.539 218.498 156.692 220.964 147.298 223.189C151.64 218.644 158.178 216.973 159.052 210.092C159.052 210.049 159.126 210.002 159.607 209.677C160.416 208.258 160.743 207.164 161.102 205.198C162.342 196.252 158.789 189.07 156.968 180.814C157.975 174.777 156.343 170.229 152.932 165.458C142.376 152.431 122.012 150.462 110.05 160.651C102.496 167.086 99.9102 176.693 102.956 187.241C101.031 194.944 97.5919 201.969 97.7791 208.896C98.2089 224.785 116.442 251.917 138.705 250.99C154.415 276.513 170.233 301.151 186.897 326.552C187.975 324.112 188.356 323.249 188.738 322.385C193.378 312.874 198.545 303.577 202.507 293.791C206.332 284.345 208.914 274.395 212.478 263.307C233.325 264.539 254.278 265.777 275.508 267.032C275.508 270.212 275.508 272.103 275.33 275.55C274.323 287.168 273.494 297.23 272.674 307.196C261.736 306.643 252.196 306.161 242.088 305.651C234.193 326.649 224.861 346.321 210.465 363.397C213.09 367.484 215.138 371.291 217.794 374.612C219.916 377.266 222.778 379.329 225.311 381.654ZM65.4166 359.007C66.1585 359.389 66.9006 359.77 68.786 360.71C86.3464 383.332 134.042 385.649 154.844 359.158C142.669 339.515 130.499 319.68 118.113 299.981C111.939 290.161 105.37 280.59 98.9716 269.605C97.406 266.556 95.8403 263.508 93.8414 259.616C85.9335 264.133 78.8273 267.68 72.264 272.044C57.2221 282.045 48.8176 296.184 48.4072 314.381C48.0305 331.082 51.738 346.487 64.9801 358.023C64.9801 358.023 64.9677 357.84 65.4166 359.007Z" fill="#FD896E"/>
<path d="M138.455 250.342C116.442 251.917 98.2086 224.785 97.7788 208.896C97.5916 201.969 101.03 194.944 103.514 186.828C110.091 179.801 115.976 173.91 122.821 167.982C128.165 168.172 132.55 168.4 136.434 169.034C131.062 172.215 125.108 173.885 123.678 180.923C144.306 177.757 152.565 184.502 150.521 200.956C148.346 197.424 146.195 192.759 142.983 189.002C138.662 183.949 130.912 182.154 125.993 184.941C120.713 187.932 116.354 191.986 116.824 199.042C117.066 202.668 116.925 206.319 116.347 209.577C114.383 205.55 113.029 201.904 111.014 196.478C111.014 203.057 110.694 207.73 111.145 212.327C111.381 214.733 112.374 217.618 114.042 219.243C128.922 233.739 147.166 231.779 165.199 228.552C172.56 227.235 180.058 224.531 186.487 220.747C192.941 216.949 197.982 210.821 203.932 206.076C211.916 199.709 214.181 190.976 214.967 181.492C215.077 180.171 214.845 178.804 215.075 177.512C216.045 172.061 223.484 165.291 227.404 166.563C233.137 168.424 238.722 170.737 244.177 172.785C249.424 164.646 249.196 156.317 249.614 147.414C251.142 136.681 251.536 126.44 253.25 116.425C254.441 109.465 253.902 102.937 253.434 95.9955C252.111 76.383 239.733 64.4633 226.354 52.9179C224.468 51.2903 221.564 50.8422 218.792 49.2584C210.348 43.273 202.491 37.4429 194.049 32.6409C188.797 29.6531 182.659 28.2208 177.309 25.4028C181.707 20.0989 187.239 21.4914 191.742 22.3649C201.746 24.3054 211.645 27.0865 221.307 30.3543C225.243 31.6858 228.263 31.7315 232.126 29.9265C251.941 48.8588 265.345 70.271 265.521 98.1199C265.525 98.7743 266.922 99.4199 267.669 100.07C270.503 110.042 268.752 120.075 266.348 129.575C260.898 151.11 254.65 172.358 242.032 191.3C228.277 211.947 211.726 229.089 188.916 239.494C180.817 243.187 172.527 246.462 162.986 249.304C153.917 249.234 146.186 249.788 138.455 250.342ZM114.467 191.65C114.145 191.761 113.823 191.871 113.5 191.981C113.822 192.087 114.142 192.194 114.467 191.65Z" fill="#67A784"/>
<path d="M116.891 89.401C110.305 99.751 99.6251 102.275 87.2633 103.753C79.0262 102.975 72.1537 102.423 65.2747 102.325C43.4563 102.015 27.6941 90.6431 15.2837 74.5704C22.4935 74.2438 28.7454 73.8375 34.9666 74.1166C42.7834 74.4672 50.568 75.775 58.3801 75.9136C63.8744 76.0112 69.5853 75.3187 73.7698 69.6779C79.2646 66.9354 84.125 64.4836 89.6656 61.9514C93.3739 61.9703 96.402 62.0694 99.3632 62.8661C99.5319 65.3245 99.7675 67.0851 100.225 70.5081C106.734 62.2913 109.893 54.7847 109.896 46.0427C111.844 49.094 113.45 51.8561 114.274 54.8347C116.259 62.0063 121.592 66.1677 127.279 70.0355C129.52 71.5591 130.872 70.5757 131.841 68.0572C139.529 72.4252 147.284 73.7336 155.204 73.9385C165.148 74.196 175.102 74.0331 184.966 74.7405C180.912 80.2956 176.944 85.1619 172.1 90.0213C162.837 90.9147 155.141 89.0604 148.009 84.5066C145.842 83.123 143.346 82.2015 140.897 81.3787C140.591 81.2759 139.643 83.0817 138.6 84.3867C133.988 81.7364 129.847 78.587 125.527 75.7052C122.036 73.3766 118.479 70.6018 112.789 73.6667C114.164 78.9429 115.528 84.1719 116.891 89.401ZM51.4567 91.1537C45.7921 89.0231 40.957 84.5982 34.1221 85.1235C36.6866 88.1916 39.4286 91.0864 42.7848 92.7151C50.8268 96.6177 75.017 97.3614 86.1997 93.9706C79.0991 93.9706 73.8124 94.2604 68.5725 93.8889C63.3453 93.5183 58.1653 92.4852 51.4567 91.1537Z" fill="#88B883"/>
<path d="M225.121 380.957C222.778 379.329 219.916 377.266 217.794 374.612C215.138 371.291 213.09 367.484 210.465 363.397C224.861 346.321 234.193 326.649 242.088 305.651C252.196 306.161 261.736 306.643 272.674 307.196C273.495 297.23 274.323 287.168 275.329 276.327C278.427 275.726 281.346 275.905 284.594 276.106C283.657 289.783 282.764 302.821 281.828 316.493C274.093 315.802 267.535 315.374 261.019 314.594C252.18 313.536 251.198 313.984 247.754 322.426C240.708 339.704 232.667 356.411 219.805 371.329C221.418 374.139 223.174 377.2 225.121 380.957Z" fill="#4F2E2B"/>
<path d="M117.614 89.471C115.528 84.172 114.164 78.9429 112.788 73.6668C118.479 70.6018 122.036 73.3766 125.527 75.7052C129.847 78.5871 133.988 81.7364 139.146 84.7787C141.011 86.1257 141.665 87.8396 142.908 88.7396C149.277 93.3508 150.041 99.1466 146.321 106.059C140.858 109.261 136.084 112.324 131.309 115.388C125.348 117.197 119.386 119.005 113.122 120.906C114.401 127.263 115.549 132.969 116.851 139.438C110.919 138.663 110.524 134.265 109.101 131.002C104.885 121.336 104.213 120.913 92.7566 123.073C89.0515 122.592 85.8887 121.791 82.0132 120.81C85.9864 113.571 92.9242 111.743 99.3815 110.874C105.854 110.003 110.261 107.104 114.578 102.733C117.982 99.284 122.153 96.5915 126.594 93.0805C123.53 91.7671 120.933 90.654 117.614 89.471Z" fill="#70B28C"/>
<path d="M59.1296 409.357C70.9553 413.956 82.99 417.389 95.7509 418.666C116.208 420.712 135.548 417.157 154.042 408.667C162.449 404.807 170.518 400.212 179.666 395.471C181.503 398.649 183.27 401.705 185.187 405.246C169.962 414.948 154.058 422.842 136.21 426.174C110.654 430.945 86.2903 427.562 63.0647 415.907C61.2908 415.017 59.5309 414.099 57.5322 412.096C57.9098 410.45 58.5197 409.904 59.1296 409.357Z" fill="#4F2E2B"/>
<path d="M57.1045 22.118C67.2377 14.2988 77.3368 6.41519 89.7615 2.40341C92.249 1.60025 94.7578 0.676667 97.326 0.345246C105.093 -0.656951 108.792 2.16367 110.231 11.2226C104.554 12.1819 104.279 16.202 102.829 19.4715C98.7576 28.6513 96.1182 39.1584 83.8148 41.2976C82.7588 41.4812 81.9431 43.0458 80.7506 43.3454C77.066 35.908 71.7351 31.2057 64.9117 27.8557C62.0582 26.4548 59.6923 24.0606 57.1045 22.118Z" fill="#67A784"/>
<path d="M56.3241 22.0681C59.692 24.0606 62.058 26.4548 64.9115 27.8557C71.7349 31.2057 77.0658 35.908 80.823 44.0969C81.8033 47.9252 82.5869 50.3519 83.0532 52.8381C83.6807 56.1829 85.6158 57.8178 88.9476 58.6676C88.9738 60.2373 88.9795 61.1345 88.9852 62.0317C84.1249 64.4836 79.2645 66.9354 72.9924 69.6512C68.1241 70.5299 64.6678 71.1446 61.1595 71.0248C61.8016 66.9265 62.4956 63.5627 63.8412 60.1185C66.655 58.7098 68.8173 57.3814 70.9963 56.0329C71.0132 56.0127 71.0537 55.979 71.621 55.4613C74.5138 49.5403 72.7576 44.3086 70.5253 39.6376C68.2592 34.896 64.6954 30.7738 58.7605 30.0055C49.5337 28.8112 41.6387 34.5908 39.2635 44.3322C37.4935 51.5918 43.0674 59.1322 52.0966 61.3922C54.306 61.9453 56.6818 61.834 58.4491 62.5905C48.6169 65.8909 41.1844 62.3036 34.3816 56.327C27.8147 50.5575 27.6372 50.6358 19.9475 55.4817C17.1732 57.2301 14.2583 58.7554 11.2828 60.2668C11.158 60.1512 10.9067 59.9216 10.9067 59.9216C14.2352 54.195 17.3745 48.3469 20.9512 42.7798C23.8909 38.204 27.8734 35.0232 33.5555 33.7339C36.4779 33.0708 39.327 30.8217 41.5515 28.6238C45.5227 24.6999 49.8068 21.959 56.3241 22.0681Z" fill="#98BC89"/>
<path d="M199.558 422.632C219.37 422.961 239.449 423.936 259.527 424.919C260.831 424.983 262.131 425.107 264.776 425.303C265.62 414.779 266.452 404.414 267.368 393.156C270.077 392.263 272.7 392.263 276.602 392.263C275.791 406.364 275.014 419.887 274.193 434.175C258.062 433.204 242.692 432.302 227.326 431.339C222.078 431.011 216.835 430.16 211.598 430.22C206.045 430.285 202.215 428.198 199.558 422.632Z" fill="#4F2E2B"/>
<path d="M14.3121 74.795C27.6941 90.6431 43.4563 102.015 65.2747 102.325C72.1537 102.423 79.0262 102.975 86.4805 103.926C81.3998 110.927 73.5428 110.228 66.6019 109.38C55.4657 108.019 43.6638 106.808 33.754 102.125C22.7615 96.9298 12.6708 88.7099 9.92871 74.6044C10.3977 73.826 11.2252 73.6259 11.7117 73.8921C12.9028 74.3705 13.6074 74.5828 14.3121 74.795Z" fill="#FEC275"/>
<path d="M88.9275 57.9952C85.616 57.8178 83.6808 56.1829 83.0533 52.8381C82.587 50.3519 81.8035 47.9252 81.0884 44.7205C81.943 43.0458 82.7587 41.4812 83.8147 41.2977C96.118 39.1584 98.7574 28.6514 102.828 19.4715C104.278 16.202 104.554 12.1819 110.14 11.9911C111.009 14.0665 111.139 16.1755 110.696 19.5264C109.666 22.7457 109.209 24.723 108.22 27.1221C106.802 33.6881 105.972 39.8413 105.008 45.9733C104.468 49.4026 103.705 52.7968 102.235 56.1409C97.2606 56.7152 93.094 57.3553 88.9275 57.9952Z" fill="#88B883"/>
<path d="M267.988 99.2024C266.922 99.4199 265.525 98.7743 265.521 98.1199C265.345 70.271 251.941 48.8588 231.759 29.3611C225.975 24.3455 221.137 20.2202 216.677 16.0118C217.056 15.9287 217.788 15.6729 217.788 15.6729C234.225 22.0043 246.243 33.4565 254.848 48.5012C258.287 54.5122 260.376 61.2792 263.544 67.4644C268.576 77.289 270.149 87.5158 267.988 99.2024Z" fill="#FEC275"/>
<path d="M138.705 250.99C146.186 249.788 153.917 249.234 162.202 249.203C157.443 252.004 152.13 254.281 145.99 256.914C160.074 278.889 173.8 300.307 188.132 322.055C188.356 323.249 187.975 324.112 186.897 326.552C170.233 301.151 154.415 276.513 138.705 250.99Z" fill="#4C2F31"/>
<path d="M108.753 26.7004C109.209 24.723 109.666 22.7457 110.748 20.3201C126.351 15.0892 141.093 9.21216 156.39 5.91235C166.42 3.7489 177.253 5.31231 188.313 6.03814C188.901 6.86969 188.749 7.69427 187.865 7.69134C171.683 7.15814 156.93 10.6761 142.263 14.2208C130.434 17.0793 118.809 20.8643 109.61 29.4879C109.183 28.3146 108.968 27.5075 108.753 26.7004Z" fill="#FEC275"/>
<path d="M58.723 408.856C58.5198 409.904 57.9099 410.45 57.0946 411.58C51.7034 408.543 46.5178 404.923 41.1025 400.665C46.6875 402.802 52.502 405.579 58.723 408.856Z" fill="#7A5D64"/>
<path d="M188.749 7.69427C188.749 7.69427 188.9 6.86969 188.983 6.45886C196.1 7.64728 203.134 9.24658 210.507 11.5494C210.847 12.2529 210.57 12.618 209.805 12.4671C202.276 10.7755 195.513 9.23492 188.749 7.69427Z" fill="#98BC89"/>
<path d="M213.564 13.4309C214.672 13.9008 215.78 14.3707 217.338 15.2567C217.788 15.6729 217.056 15.9287 216.166 15.9708C214.43 15.4376 213.585 14.8624 212.944 14.0711C213.148 13.855 213.564 13.4309 213.564 13.4309Z" fill="#98BC89"/>
<path d="M210.998 12.0795C211.836 11.9477 212.447 12.186 213.273 13.0259C213.565 13.4309 213.149 13.855 212.541 13.8497C211.423 13.498 210.969 13.0892 210.57 12.618C210.57 12.618 210.848 12.2529 210.998 12.0795Z" fill="#98BC89"/>
<path d="M39.0273 398.498C39.48 398.339 40.1085 398.696 40.874 399.588C40.4084 399.753 39.8058 399.383 39.0273 398.498Z" fill="#7A5D64"/>
<path d="M36.7471 396.552C37.2012 396.363 37.8883 396.716 38.8035 397.607C38.3477 397.795 37.6637 397.445 36.7471 396.552Z" fill="#7A5D64"/>
<path d="M172.975 90.0282C176.944 85.1619 180.912 80.2956 185.65 74.656C191.401 69.9224 196.383 65.9621 201.471 61.917C208.376 67.5956 209.055 74.6547 209.023 82.8098C208.594 87.2462 207.927 90.8386 207.861 94.4421C207.815 96.9487 208.594 99.4705 208.427 102.428C205.575 111.137 203.303 119.404 200.307 127.871C191.503 127.511 189.151 119.847 183.973 115.107C181.789 116.429 179.733 117.673 176.739 119.485C180.429 122.457 183.274 124.591 185.93 126.938C188.106 128.86 190.566 130.737 191.995 133.167C194.48 137.392 193.209 138.946 187.113 140.165C183.411 137.41 179.435 134.95 176.071 131.831C170.752 126.9 164.729 125.458 157.234 126.855C155.735 129.204 154.016 131.898 152.199 134.746C146.905 129.862 150.059 124.893 151.991 118.876C155.337 114.521 158.063 111.302 161.481 107.973C164.288 105.581 166.304 103.195 168.554 101.055C169.84 99.8318 171.505 99.0089 173.032 98.5142C173.374 99.5671 173.685 100.112 173.995 100.657C174.353 99.7899 174.712 98.923 175.519 97.8574C176.531 97.2727 176.919 96.7555 177.562 95.894C178.527 95.2878 178.905 94.7783 179.555 93.9279C180.506 93.2933 180.89 92.7803 181.611 91.8096C182.445 90.3478 182.805 89.2407 183.584 87.9053C184.526 87.272 184.894 86.7577 185.412 85.9927C185.435 85.8679 185.155 85.8844 184.453 86.1248C183.506 86.7444 183.125 87.2485 182.407 88.2046C181.553 89.6461 181.181 90.744 180.384 92.0763C179.424 92.7133 179.051 93.2331 178.416 94.0945C177.463 94.7221 177.098 95.2402 176.463 96.1027C175.505 96.7568 175.146 97.2922 174.465 97.959C173.978 97.9792 173.005 98.0005 173.001 97.2029C172.991 94.2795 172.983 92.1538 172.975 90.0282Z" fill="#70B28C"/>
<path d="M249.043 148.002C249.196 156.317 249.424 164.646 244.177 172.785C238.723 170.737 233.137 168.424 227.405 166.563C223.484 165.291 216.046 172.061 215.075 177.512C214.845 178.804 215.077 180.171 214.968 181.492C214.181 190.976 211.916 199.709 203.932 206.076C197.983 210.821 192.942 216.949 186.487 220.747C180.058 224.531 172.561 227.235 165.199 228.552C147.166 231.779 128.922 233.739 114.043 219.243C112.375 217.618 111.381 214.733 111.145 212.327C110.694 207.73 111.014 203.057 111.014 196.478C113.03 201.904 114.384 205.55 116.371 209.6C117.003 210.004 117.048 210.05 116.999 210.764C116.937 214.257 118.024 216.011 121.081 215.946C121.072 215.973 121.055 215.936 121.234 216.441C121.967 217.391 122.521 217.836 123.61 218.744C131.397 222.473 138.878 224.586 146.947 223.739C156.692 220.964 166.539 218.498 176.154 215.328C186.255 211.998 192.911 204.113 199.785 195.451C200.205 194.74 200.412 194.671 200.412 194.671C200.412 194.671 200.648 193.855 201.385 192.994C204.587 187.988 207.052 183.844 209.945 179.209C211.264 175.798 212.156 172.878 213.649 169.383C214.534 161.247 214.946 153.688 215.062 146.125C215.147 140.559 216.137 135.344 219.466 129.081C224.642 134.987 229.069 140.039 233.533 145.131C235.789 144.776 238.363 144.37 241.53 144.224C244.429 145.656 246.736 146.829 249.043 148.002Z" fill="#98BC89"/>
<path d="M116.98 209.981C116.925 206.319 117.066 202.668 116.824 199.042C116.354 191.986 120.713 187.932 125.993 184.941C130.912 182.154 138.662 183.949 142.983 189.002C146.195 192.759 148.346 197.424 150.521 200.956C152.565 184.502 144.306 177.757 123.678 180.923C125.108 173.885 131.062 172.215 137.138 168.881C146.925 169.379 151.736 175.71 156.875 181.581C158.789 189.07 162.342 196.252 160.622 205.53C159.781 207.824 159.453 208.913 159.126 210.002C159.126 210.002 159.052 210.049 158.357 210.177C156.31 211.181 154.882 211.961 153.616 212.947C140.279 223.341 133.217 222.7 121.939 210.001C121.321 209.305 120.806 208.517 120.243 207.771C119.772 208.517 119.302 209.263 118.385 210.02C117.94 210.029 117.048 210.05 117.048 210.05C117.048 210.05 117.003 210.004 116.98 209.981ZM127.19 207.378C129.747 213.113 134.142 214.497 137.936 213.691C139.528 209.563 140.403 206.924 141.551 204.409C143.236 200.717 142.016 194.933 138.467 193.127C136.554 192.154 133.968 191.99 131.794 192.279C130.818 192.409 130.108 194.544 128.166 196.269C127.821 199.487 127.475 202.705 127.19 207.378Z" fill="#98BC89"/>
<path d="M98.9756 270.255C91.5906 275.222 83.601 278.771 76.9257 283.999C57.1873 299.456 53.0213 323.636 60.7008 345.55C62.0049 349.272 63.7269 352.847 65.2097 357.255C51.7382 346.487 48.0307 331.082 48.4074 314.381C48.8178 296.184 57.2223 282.045 72.2642 272.044C78.8275 267.68 85.9337 264.133 93.8416 259.616C95.8405 263.508 97.4061 266.556 98.9756 270.255Z" fill="#4F2E2B"/>
<path d="M121.862 168.019C115.976 173.91 110.091 179.801 103.647 186.105C99.91 176.693 102.495 167.086 110.049 160.652C122.012 150.462 142.375 152.431 152.109 165.258C141.341 163.181 131.266 161.251 121.862 168.019Z" fill="#4F2E2B"/>
<path d="M192.938 148.616C202.46 155.834 206.142 166.84 209.272 178.983C207.052 183.844 204.587 187.988 201.547 192.601C201.849 177.841 199.667 163.183 192.938 148.616Z" fill="#4C2F31"/>
<path d="M118.832 210.01C119.302 209.263 119.772 208.517 120.243 207.771C120.806 208.517 121.321 209.305 121.939 210.001C133.217 222.7 140.279 223.341 153.616 212.947C154.882 211.961 156.31 211.181 158.357 210.221C158.178 216.973 151.64 218.644 147.298 223.189C138.878 224.586 131.397 222.473 123.526 218.166C122.29 216.728 121.672 216.332 121.054 215.936C121.054 215.936 121.072 215.973 121.107 215.3C120.372 213.088 119.602 211.549 118.832 210.01Z" fill="#FEC275"/>
<path d="M159.608 209.677C159.454 208.913 159.782 207.824 160.59 206.403C160.743 207.164 160.416 208.258 159.608 209.677Z" fill="#FEC275"/>
<path d="M200.355 194.669C200.412 194.671 200.204 194.74 200.167 194.78C200.129 194.821 200.297 194.667 200.355 194.669Z" fill="#4C2F31"/>
<path d="M191.088 145.579C191.636 145.47 192.316 146.07 193.077 147.348C192.513 147.447 191.866 146.868 191.088 145.579Z" fill="#4C2F31"/>
<path d="M65.1924 358.424C65.6649 358.224 66.3619 358.608 67.3508 359.572C66.9008 359.77 66.1587 359.389 65.1924 358.424Z" fill="#4F2E2B"/>
<path d="M209.042 81.9705C209.055 74.6547 208.376 67.5956 201.472 61.917C196.383 65.9621 191.401 69.9224 185.735 73.9672C175.101 74.0331 165.147 74.196 155.204 73.9386C147.284 73.7336 139.529 72.4253 131.807 67.1596C131.002 63.5231 131.243 60.8547 130.909 58.2602C129.65 48.468 134.696 41.9528 141.957 36.6068C152.343 28.9597 163.713 24.435 176.919 26.0904C182.659 28.2208 188.797 29.6531 194.049 32.641C202.491 37.4429 210.348 43.273 218.829 50.0324C219.896 53.5976 220.66 55.779 221.262 58.0042C223.949 67.9296 227.073 77.6091 234.835 85.0023C235.74 85.8645 236.792 87.3031 236.692 88.3731C235.942 96.3889 239.56 103.093 242.635 110.02C243.188 111.266 242.714 112.968 242.714 114.46C237.925 110.208 234.596 105.454 231.316 100.665C225.628 92.3574 218.28 86.0412 209.042 81.9705Z" fill="#98BC89"/>
<path d="M177.309 25.4028C163.713 24.435 152.343 28.9597 141.957 36.6068C134.696 41.9528 129.65 48.468 130.909 58.2601C131.243 60.8547 131.002 63.5231 131.059 67.0552C130.872 70.5758 129.52 71.5592 127.28 70.0355C121.592 66.1677 116.259 62.0063 114.274 54.8347C113.45 51.8561 111.844 49.094 109.775 45.2265C109.244 39.4311 109.533 34.6426 109.822 29.8541C118.809 20.8643 130.434 17.0794 142.263 14.2208C156.93 10.6762 171.683 7.15815 187.865 7.69135C195.513 9.23493 202.276 10.7755 209.805 12.4671C210.969 13.0892 211.423 13.498 212.337 14.0658C213.586 14.8624 214.431 15.4376 215.787 16.0538C221.137 20.2202 225.976 24.3455 231.181 29.0361C228.263 31.7315 225.244 31.6858 221.307 30.3543C211.646 27.0865 201.747 24.3054 191.742 22.3649C187.239 21.4914 181.707 20.0989 177.309 25.4028Z" fill="#70B28C"/>
<path d="M209.024 82.8098C218.281 86.0411 225.628 92.3574 231.317 100.665C234.596 105.454 237.925 110.208 242.714 114.46C242.714 112.968 243.189 111.266 242.635 110.02C239.561 103.093 235.942 96.3889 236.693 88.3731C236.793 87.3031 235.74 85.8644 234.835 85.0023C227.073 77.6091 223.949 67.9296 221.263 58.0042C220.661 55.779 219.896 53.5976 219.169 50.6221C221.564 50.8422 224.468 51.2903 226.354 52.9178C239.734 64.4633 252.112 76.383 253.434 95.9955C253.902 102.937 254.441 109.465 253.25 116.424C251.536 126.44 251.142 136.681 249.614 147.414C246.736 146.829 244.429 145.656 241.253 143.621C234.353 136.955 229.593 130.326 226.156 122.615C224.011 117.805 221.389 113.052 218.132 108.947C215.826 106.042 212.098 104.266 209.005 101.985C208.594 99.4705 207.815 96.9487 207.861 94.4421C207.927 90.8386 208.595 87.2462 209.024 82.8098Z" fill="#88B883"/>
<path d="M114.466 191.975C114.143 192.194 113.822 192.087 113.501 191.981C113.823 191.871 114.146 191.761 114.466 191.975Z" fill="#98BC89"/>
<path d="M161.482 107.973C156.718 107.467 152.647 106.851 147.792 106.079C150.041 99.1466 149.278 93.3508 142.909 88.7396C141.665 87.8395 141.011 86.1257 139.539 84.3951C139.643 83.0817 140.591 81.2759 140.897 81.3787C143.347 82.2015 145.842 83.123 148.009 84.5066C155.141 89.0604 162.837 90.9147 172.101 90.0212C172.984 92.1538 172.991 94.2795 173 97.2026C173 98 173 98.0059 173 98.0059C171.506 99.0088 169.84 99.8318 168.555 101.055C166.305 103.195 164.288 105.581 161.482 107.973Z" fill="#67A784"/>
<path d="M11.7116 73.8921C11.2251 73.6259 11.31 72.8564 12.1311 72.4111C18.5018 71.3441 24.0586 70.1536 29.5995 70.223C40.1416 70.3547 50.6747 71.2066 61.2114 71.7594C64.6679 71.1447 68.1242 70.5299 72.3578 69.9418C69.5852 75.3187 63.8743 76.0112 58.38 75.9136C50.5679 75.775 42.7833 74.4672 34.9664 74.1166C28.7453 73.8375 22.4934 74.2438 15.2836 74.5704C13.6073 74.5828 12.9027 74.3705 11.7116 73.8921Z" fill="#67A784"/>
<path d="M109.61 29.4879C109.533 34.6426 109.244 39.4311 109.077 45.0357C109.893 54.7847 106.734 62.2913 100.225 70.5081C99.7673 67.0851 99.5317 65.3245 99.8734 62.5439C101.315 59.7516 102.179 57.9791 103.043 56.2067C103.705 52.7968 104.468 49.4026 105.008 45.9733C105.972 39.8413 106.801 33.6881 108.22 27.1221C108.968 27.5075 109.183 28.3146 109.61 29.4879Z" fill="#CCA5C9"/>
<path d="M52.2106 91.4481C58.1653 92.4852 63.3453 93.5183 68.5725 93.8889C73.8124 94.2604 79.0991 93.9706 86.1997 93.9706C75.017 97.3614 50.8268 96.6177 42.7848 92.7151C39.4286 91.0864 36.6866 88.1916 34.1221 85.1235C40.957 84.5982 45.7921 89.0231 52.2106 91.4481Z" fill="#98BC89"/>
<path d="M102.235 56.1409C102.179 57.9791 101.315 59.7516 99.9402 61.8463C96.402 62.0694 93.3739 61.9703 89.6656 61.9514C88.9796 61.1345 88.9739 60.2373 88.9478 58.6677C93.094 57.3553 97.2606 56.7152 102.235 56.1409Z" fill="#67A784"/>
<path d="M58.9812 62.0281C56.6818 61.834 54.3061 61.9453 52.0966 61.3923C43.0675 59.1322 37.4936 51.5918 39.2636 44.3322C41.6388 34.5908 49.5338 28.8112 58.7606 30.0056C64.6955 30.7738 68.2592 34.8961 70.5254 39.6376C72.7577 44.3086 74.5139 49.5404 71.5888 54.7128C70.9644 51.5085 71.2153 48.365 66.9948 47.2146C66.6552 39.212 66.4201 38.9411 59.2114 38.3382C53.3774 38.7472 52.8692 42.2677 53.1001 46.21C53.3072 49.7482 55.3925 51.2394 58.7684 52.0345C62.9238 53.0131 66.9166 54.6824 70.9796 56.0532C68.8173 57.3815 66.6551 58.7098 63.2785 60.2537C61.0365 60.9888 60.0088 61.5084 58.9812 62.0281Z" fill="#67A784"/>
<path d="M58.4492 62.5906C60.0088 61.5084 61.0365 60.9888 62.6269 60.3341C62.4958 63.5627 61.8018 66.9265 61.1597 71.0249C50.6748 71.2066 40.1418 70.3547 29.5996 70.223C24.0587 70.1536 18.502 71.3441 12.1595 72.0251C11.2986 68.7278 11.231 65.3712 11.2856 61.1986C14.2585 58.7554 17.1734 57.2301 19.9477 55.4817C27.6374 50.6358 27.8148 50.5575 34.3817 56.327C41.1846 62.3036 48.6171 65.8909 58.4492 62.5906Z" fill="#70B28C"/>
<path d="M208.427 102.428C212.098 104.266 215.826 106.042 218.132 108.947C221.389 113.052 224.011 117.805 226.155 122.615C229.593 130.326 234.353 136.955 240.661 143.362C238.363 144.37 235.789 144.776 233.532 145.131C229.069 140.039 224.641 134.987 219.465 129.081C216.136 135.344 215.147 140.559 215.061 146.125C214.945 153.688 214.534 161.247 213.649 169.383C211.641 159.966 210.685 149.88 208.61 140.029C207.733 135.865 204.499 132.198 201.683 127.987C203.303 119.404 205.576 111.137 208.427 102.428Z" fill="#67A784"/>
<path d="M175.07 98.0561C174.712 98.923 174.353 99.7898 173.995 100.657C173.685 100.112 173.374 99.5671 173.032 98.5141C173 98.0059 173 98 173.002 98.0002C173.005 98.0005 173.978 97.9792 174.492 97.991C175.006 98.0028 175.07 98.0561 175.07 98.0561Z" fill="#98BC89"/>
<path d="M180.808 91.8419C181.181 90.744 181.553 89.6461 182.472 88.2766C183.018 88.0049 183.164 88.1335 183.164 88.1335C182.805 89.2407 182.446 90.3478 181.533 91.7249C180.98 91.9949 180.808 91.8419 180.808 91.8419Z" fill="#98BC89"/>
<path d="M177.131 96.1069C176.919 96.7555 176.531 97.2727 175.519 97.8574C175.07 98.0561 175.006 98.0029 174.979 97.9708C175.146 97.2922 175.505 96.7568 176.519 96.1646C177.007 95.9967 177.131 96.1069 177.131 96.1069Z" fill="#98BC89"/>
<path d="M181.057 92.0796C180.89 92.7803 180.506 93.2933 179.487 93.8525C178.989 94.0018 178.841 93.8703 178.841 93.8703C179.051 93.2331 179.424 92.7133 180.384 92.0763C180.808 91.8419 180.979 91.9949 181.057 92.0796Z" fill="#98BC89"/>
<path d="M176.951 95.9348C177.098 95.2403 177.463 94.7221 178.416 94.0945C178.841 93.8703 178.989 94.0018 179.057 94.0772C178.905 94.7783 178.527 95.2878 177.562 95.8941C177.131 96.107 177.007 95.9967 176.951 95.9348Z" fill="#98BC89"/>
<path d="M184.876 85.9009C185.156 85.8844 185.435 85.8679 185.357 85.9302C184.998 86.0091 184.876 85.9009 184.876 85.9009Z" fill="#98BC89"/>
<path d="M182.953 87.933C183.125 87.2485 183.507 86.7444 184.454 86.1249C184.876 85.9009 184.998 86.0091 185.054 86.0716C184.894 86.7577 184.526 87.272 183.585 87.9054C183.164 88.1336 183.018 88.0049 182.953 87.933Z" fill="#98BC89"/>
<path d="M118.385 210.02C119.602 211.549 120.372 213.088 121.116 215.274C118.024 216.011 116.937 214.257 116.999 210.764C117.048 210.05 117.939 210.029 118.385 210.02Z" fill="#67A784"/>
<path d="M121.234 216.441C121.672 216.332 122.29 216.728 122.991 217.702C122.521 217.836 121.967 217.391 121.234 216.441Z" fill="#67A784"/>
<path d="M129.278 195.769C130.108 194.544 130.818 192.409 131.795 192.279C133.968 191.99 136.555 192.154 138.468 193.127C142.017 194.933 143.236 200.717 141.551 204.409C140.403 206.924 139.529 209.563 137.936 213.691C134.142 214.497 129.747 213.113 127.748 206.341C129.358 202.199 132.8 199.339 129.278 195.769Z" fill="#67A784"/>
<path d="M128.722 196.019C132.799 199.339 129.357 202.199 127.717 205.613C127.475 202.705 127.821 199.487 128.722 196.019Z" fill="#CCA5C9"/>
<path d="M70.9966 56.033C66.9168 54.6825 62.924 53.0131 58.7686 52.0345C55.3927 51.2394 53.3074 49.7482 53.1003 46.21C52.8694 42.2677 53.3776 38.7472 59.0347 39.0044C59.013 45.2138 62.6639 46.8964 66.9823 47.9884C71.2155 48.365 70.9646 51.5085 71.0216 55.2305C71.054 55.979 71.0135 56.0127 70.9966 56.033Z" fill="#70B28C"/>
<path d="M66.9947 47.2146C62.6635 46.8964 59.0126 45.2138 59.8446 39.0552C66.42 38.9411 66.6551 39.212 66.9947 47.2146Z" fill="#4C2F31"/>
<path d="M11.2251 73.6259C11.2251 73.6259 10.3976 73.826 9.97568 73.8734C6.42832 69.4807 6.78831 65.1211 10.3812 60.3727C10.9067 59.9217 11.1579 60.1512 11.1605 61.0829C11.2308 65.3712 11.2984 68.7278 11.338 72.4704C11.3099 72.8564 11.2251 73.6259 11.2251 73.6259Z" fill="#98BC89"/>
</svg>
