<svg width="351" height="440" viewBox="0 0 351 440" fill="none" xmlns="http://www.w3.org/2000/svg">
<path d="M54.9647 277.186C25.8782 252.077 8.02859 220.869 2.7073 182.534C-3.39878 138.545 6.11391 98.5457 33.047 63.2061C54.71 34.7814 83.3942 17.0449 118.842 11.2953C157.384 5.04413 191.804 15.5854 222.923 38.3671C225.763 40.4463 228.665 42.4409 233.523 45.8797C232.741 31.8825 232.087 20.1844 231.388 7.68792C240.451 6.81866 248.914 5.81708 257.405 5.22943C279.585 3.69452 301.776 2.31659 323.966 0.941098C327.285 0.73541 330.627 0.938901 333.956 0.846616C338.061 0.732724 338.8 3.52459 339.116 8.40667C339.729 23.306 340.409 36.4849 341.117 50.217C323.79 51.5165 307.44 52.7429 291.001 53.9758C291.001 58.2726 290.838 61.2573 291.027 64.2195C292.593 88.7968 294.181 113.373 295.844 137.944C298.81 181.772 301.977 225.588 304.765 269.427C305.972 288.419 305.069 307.378 300.938 326.04C290.279 374.203 262.483 407.318 214.692 421.649C200.483 425.911 185.472 428.116 170.661 429.629C134.026 433.372 99.0965 426.938 66.381 409.568C64.0938 408.353 61.4986 407.719 59.0465 406.815C56.247 404.539 53.4474 402.263 49.827 399.32C61.1206 384.782 72.0198 370.751 82.6563 357.059C94.3535 362.497 104.859 368.268 115.979 372.375C142.736 382.255 170.019 382.536 196.912 373.125C222.32 364.233 237.175 345.146 245.289 320.028C250.11 305.101 249.311 289.864 248.902 272.786C248.665 265.891 248.509 260.805 248.345 255.455C246.658 255.926 246.266 255.922 246.052 256.115C245.075 256.998 244.1 257.892 243.21 258.86C212.177 292.633 173.829 308.17 127.985 305.545C112.447 304.655 98.0072 299.828 83.1029 294.22C76.7069 290.804 70.7718 287.909 64.8364 285.014C64.8364 285.014 64.9773 285.02 64.9986 284.365C62.9756 282.814 60.9313 281.919 58.8871 281.025C58.8871 281.025 59.0053 280.996 58.9687 280.466C58.2455 279.616 57.5591 279.296 56.8727 278.976C56.8727 278.976 57.0266 278.968 56.8557 278.568C56.1115 277.84 55.5381 277.513 54.9647 277.186ZM213.022 88.9766C213.022 88.9766 213.024 89.1357 212.392 87.9678C208.516 84.8735 204.64 81.7792 199.649 77.6868C163.057 51.3466 111.953 58.1684 82.8303 93.4025C53.7406 128.597 52.9092 184.121 80.9689 221.663C83.231 223.899 85.4929 226.136 88.8146 229.446C97.3115 238.09 107.056 244.926 118.433 249.181C157.621 263.837 201.261 249.953 224.811 215.137C236.915 197.243 242.015 177.347 241.297 155.689C240.477 130.944 231.473 109.883 214.434 91.0562C213.911 90.3604 213.387 89.6646 213.022 88.9766Z" fill="#FEC275"/>
<path d="M59.0459 407.516C61.4984 407.719 64.0936 408.353 66.3809 409.568C99.0963 426.938 134.026 433.372 170.661 429.629C185.471 428.116 200.483 425.911 214.691 421.649C262.483 407.318 290.279 374.203 300.938 326.04C305.068 307.378 305.972 288.419 304.764 269.427C301.977 225.588 298.809 181.772 295.844 137.944C294.181 113.373 292.593 88.7967 291.027 64.2195C290.838 61.2572 291.001 58.2726 291.001 53.9757C307.439 52.7428 323.79 51.5165 341.117 50.2169C340.409 36.4849 339.729 23.3059 339.278 9.32909C341.794 8.70922 344.08 8.88732 346.897 9.10668C348.031 25.5293 349.145 41.6509 350.341 58.9713C333.824 60.2698 317.198 61.5768 299.288 62.9847C299.795 69.5853 300.345 75.6566 300.715 81.7388C302.324 108.225 303.825 134.718 305.474 161.201C306.709 181.047 307.763 200.913 309.521 220.714C312.018 248.842 314.083 276.975 313.383 305.23C312.73 331.612 306.314 356.52 292.419 379.078C275.142 407.124 249.523 424.402 218.083 432.421C177.701 442.72 137.246 442.865 97.4894 428.725C83.7062 423.823 70.3317 417.916 59.0459 407.516Z" fill="#4F2E2B"/>
<path d="M83.5634 294.74C98.0071 299.828 112.446 304.655 127.985 305.545C173.829 308.17 212.177 292.633 243.209 258.86C244.099 257.892 245.074 256.998 246.052 256.115C246.266 255.922 246.658 255.926 248.345 255.455C248.509 260.805 248.665 265.891 248.754 271.841C232.545 287.262 214.948 299.627 194.22 306.678C155.627 319.805 118.047 318.255 81.8628 296.805C82.2982 295.497 82.9308 295.119 83.5634 294.74Z" fill="#4F2E2B"/>
<path d="M83.1029 294.22C82.9309 295.119 82.2983 295.497 81.3691 296.346C75.7104 293.336 70.3486 289.855 64.9116 285.694C70.7717 287.909 76.7069 290.804 83.1029 294.22Z" fill="#4C2F31"/>
<path d="M59.1084 281.653C60.9309 281.919 62.9752 282.814 64.9657 284.427C63.0514 284.191 61.1908 283.236 59.1084 281.653Z" fill="#7A5D64"/>
<path d="M55.1631 277.644C55.5377 277.513 56.1111 277.84 56.8655 278.644C56.4851 278.782 55.9236 278.442 55.1631 277.644Z" fill="#7A5D64"/>
<path d="M57.0254 279.503C57.5587 279.296 58.2451 279.616 58.9678 280.526C58.3955 280.755 57.7869 280.393 57.0254 279.503Z" fill="#7A5D64"/>
<path d="M196.606 79.2888C176.878 70.4538 156.415 67.4123 135.534 73.7783C98.481 85.0754 78.0097 111.392 70.8583 148.582C66.3906 171.816 70.8563 194.02 80.9245 216.908C80.871 219.255 80.8212 219.914 80.7714 220.572C52.9092 184.121 53.7407 128.597 82.8304 93.4024C111.953 58.1683 163.057 51.3465 199.163 78.3203C197.986 79.0655 197.297 79.1772 196.606 79.2888Z" fill="#4F2E2B"/>
<path d="M196.959 79.8749C197.296 79.1772 197.986 79.0656 199.72 78.8195C204.639 81.7792 208.516 84.8734 212.708 88.5518C207.786 86.244 202.549 83.3524 196.959 79.8749Z" fill="#7A5D64"/>
<path d="M80.8698 221.117C80.8208 219.914 80.8706 219.255 81.0908 217.621C83.4645 220.153 85.6679 223.66 87.813 227.77C85.4926 226.136 83.2306 223.899 80.8698 221.117Z" fill="#7A5D64"/>
<path d="M214.542 91.5085C214.011 91.2803 213.373 90.5995 212.799 89.4438C213.387 89.6646 213.91 90.3604 214.542 91.5085Z" fill="#7A5D64"/>
</svg>
