<svg width="168" height="404" viewBox="0 0 168 404" fill="none" xmlns="http://www.w3.org/2000/svg">
<path d="M10.5923 155.645C8.35443 155.241 6.11664 154.838 3.07013 154.289C2.27765 137.579 1.49921 121.165 0.66748 103.628C8.65387 103.428 15.5021 103.285 22.3484 103.08C47.2176 102.335 72.0862 101.575 96.9545 100.804C101.208 100.672 105.227 100.775 104.857 108.437C105.468 135.457 106.161 160.75 106.98 186.04C108.533 233.961 110.144 281.88 111.789 329.798C111.908 333.292 112.497 336.769 112.932 340.856C116.383 340.064 118.605 339.554 120.827 339.044C130.617 338.969 140.411 339.016 150.196 338.763C154.527 338.651 157.086 340.087 157.174 346.368C157.007 361.628 157.007 375.159 157.007 389.308C153.227 389.623 149.645 390.076 146.051 390.197C112.449 391.324 78.843 392.33 45.2433 393.523C36.2853 393.841 27.3458 394.68 18.3978 395.279C16.1492 395.007 13.9005 394.735 11.1961 394.409C10.4108 377.567 9.64349 361.109 8.82855 343.631C24.5741 343.035 39.0241 342.488 53.7669 341.929C54.2237 338.307 54.812 336.067 54.7374 333.849C54.1682 316.913 53.4059 299.985 52.8274 283.05C52.0895 261.452 51.5422 239.847 50.7725 218.25C50.1451 200.648 49.3116 183.053 48.6403 163.659C48.5488 159.648 48.3866 157.432 48.2557 155.645C35.3592 155.645 22.9758 155.645 10.5923 155.645Z" fill="#79BFFE"/>
<path d="M51.133 66.8635C42.2529 60.6888 36.9706 52.1527 35.2631 41.5792C32.9138 27.0312 39.7596 12.0646 52.6753 5.47033C66.0953 -1.38135 79.3822 -0.875249 93.3491 10.1932C95.3896 11.8103 96.908 14.0863 99.1775 17.0818C100.071 18.5815 100.555 18.907 101.141 19.0826C101.141 19.0826 100.956 19.0397 100.908 19.7998C101.261 21.8198 101.681 23.0741 102.061 24.3404C111.526 55.9083 82.7823 77.7585 58.7106 69.3635C57.5209 68.9487 56.1214 69.1361 54.8196 69.0431C54.8196 69.0431 54.9948 69.0078 54.8272 68.4999C53.484 67.6158 52.3085 67.2396 51.133 66.8635Z" fill="#79BFFE"/>
<path d="M120.789 338.104C118.605 339.554 116.383 340.064 112.932 340.856C112.497 336.769 111.908 333.292 111.789 329.798C110.144 281.88 108.533 233.961 106.98 186.04C106.161 160.75 105.468 135.457 104.966 109.367C107.497 108.705 109.78 108.841 112.328 108.994C112.725 111.971 113.305 114.558 113.379 117.159C114.109 142.734 114.566 168.318 115.48 193.886C116.32 217.41 117.686 240.916 118.698 264.435C119.099 273.742 119.133 283.066 119.397 292.38C119.821 307.309 120.297 322.236 120.789 338.104Z" fill="#4C2F31"/>
<path d="M18.5679 396.04C27.3458 394.68 36.2853 393.841 45.2433 393.523C78.843 392.33 112.449 391.324 146.051 390.197C149.645 390.076 153.227 389.623 157.007 389.308C157.007 375.159 157.007 361.628 157.282 347.301C159.85 346.504 162.144 346.504 165.072 346.504C165.748 363.815 166.401 380.525 167.105 398.542C117.713 400.278 69.2736 401.981 20.301 403.703C19.7012 401.054 19.2195 398.927 18.5679 396.04Z" fill="#4C2F31"/>
<path d="M54.4985 69.7216C56.1216 69.1361 57.5211 68.9487 58.7108 69.3635C82.7825 77.7585 111.526 55.9083 102.061 24.3405C101.681 23.0741 101.262 21.8198 100.921 19.7061C111.562 27.2653 115.434 40.3678 111.468 54.335C107.621 67.8805 96.2465 78.1805 83.5038 79.3171C72.5853 80.291 62.188 79.1696 54.4985 69.7216Z" fill="#4C2F31"/>
<path d="M10.6025 156.38C22.9758 155.645 35.3592 155.645 48.2557 155.645C48.3866 157.432 48.5488 159.648 48.5167 162.628C36.3276 163.392 24.3329 163.392 11.334 163.392C11.1762 162.019 10.8945 159.567 10.6025 156.38Z" fill="#4F2E2B"/>
<path d="M51.3945 67.533C52.309 67.2396 53.4844 67.6159 54.8438 68.5877C53.9036 68.8565 52.7796 68.5295 51.3945 67.533Z" fill="#4C2F31"/>
<path d="M101.041 18.6089C100.555 18.907 100.071 18.5816 99.459 17.7266C99.9232 17.344 100.493 17.6067 101.041 18.6089Z" fill="#4C2F31"/>
</svg>
