<svg width="343" height="309" viewBox="0 0 343 309" fill="none" xmlns="http://www.w3.org/2000/svg">
<path d="M117.726 241.938C129.332 242.548 140.932 243.344 152.546 243.673C156.929 243.797 158.513 245.659 158.303 251.431C157.294 266.648 158.877 280.286 155.969 293.23C138.631 293.23 122.038 293.516 105.458 293.169C72.8499 292.486 40.2489 291.45 7.64484 290.561C5.38879 290.259 3.13275 289.957 0.546875 289.611C0.546875 273.001 0.546875 256.879 0.546875 239.889C17.7704 239.889 34.225 239.889 51.1575 239.889C51.405 237.147 51.6858 235.226 51.7362 233.299C52.5907 200.706 53.4003 168.112 54.2537 135.519C54.8805 111.583 55.5566 87.6487 56.4856 62.1347C56.9043 58.1519 57.0482 55.7483 57.252 52.3475C42.1071 52.3475 28.1027 52.3475 14.0981 52.3475C11.8129 51.9922 9.52771 51.637 5.86713 51.0682C6.38385 34.4037 6.90137 17.7137 7.44189 0.282146C21.0854 0.282146 33.5857 0.044598 46.0734 0.337688C64.9257 0.780315 83.7688 1.60307 102.617 2.23735C105.268 2.32658 107.933 2.39982 110.577 2.24052C115.415 1.94938 115.924 5.00029 115.519 10.2122C114.862 19.7164 114.474 27.6651 114.085 35.6139C114.852 35.9573 115.618 36.3008 116.385 36.6442C118.938 34.5074 121.491 32.3704 124.044 30.2334C139.989 22.8815 155.549 14.4803 171.978 8.44511C192.204 1.01518 213.384 -0.42452 234.774 4.00553C249.285 7.01103 261.479 13.7464 271.728 26.0551C272.957 27.3571 273.54 27.6829 274.124 28.0087C274.124 28.0087 273.997 27.996 273.913 28.5933C275.352 32.0456 276.875 34.9004 278.738 38.5069C287.352 58.2843 289.109 78.4084 288.621 98.7891C287.53 144.284 286.148 189.772 284.911 235.264C284.805 239.142 284.897 243.025 284.897 247.533C288.504 247.533 291.107 247.533 293.709 247.533C304.966 247.772 316.225 248.209 327.481 248.154C332.254 248.13 334.251 249.862 333.643 256.135C332.764 271.546 332.047 285.348 331.335 299.054C329.547 299.315 328.57 299.606 327.603 299.578C301.359 298.804 275.118 297.938 248.872 297.25C243.976 297.122 239.063 297.689 234.158 297.935C231.852 297.736 229.545 297.537 226.543 297.278C226.278 294.687 225.738 292.132 225.801 289.592C226.419 264.733 227.131 239.876 227.837 215.019C227.893 213.03 228.186 211.047 228.228 209.058C228.915 177.223 229.62 145.388 230.223 113.552C230.391 104.698 230.968 95.7578 230.003 87.0068C229.26 80.2655 226.397 73.758 223.961 65.8333C219.136 57.8901 212.717 54.3199 205.135 54.043C196.569 53.7304 187.761 53.6318 179.405 55.2408C156.752 59.6029 137.291 71.1205 118.546 84.0846C113.852 87.3305 112.402 91.0197 112.269 96.5136C111.167 142.081 109.763 187.641 108.508 233.205C108.43 236.04 108.838 238.889 109.032 241.938C112.491 241.938 115.108 241.938 117.726 241.938Z" fill="#FE876E"/>
<path d="M117.728 241.037C115.109 241.938 112.491 241.938 109.033 241.938C108.838 238.889 108.431 236.04 108.509 233.205C109.764 187.641 111.167 142.081 112.27 96.5135C112.403 91.0196 113.853 87.3304 118.546 84.0845C137.291 71.1204 156.753 59.6029 179.406 55.2407C187.762 53.6317 196.57 53.7303 205.135 54.0429C212.717 54.3198 219.137 57.89 223.662 65.1457C210.657 60.1468 197.25 61.7819 183.903 65.013C162.196 70.2683 143.588 81.8077 125.465 94.2863C122.762 96.1477 121.738 98.4348 121.66 101.764C121.135 123.998 120.379 146.227 119.736 168.459C119.045 192.351 118.397 216.244 117.728 241.037Z" fill="#4F2E2B"/>
<path d="M293.715 246.723C291.107 247.533 288.505 247.533 284.897 247.533C284.897 243.025 284.806 239.142 284.911 235.264C286.148 189.772 287.531 144.284 288.621 98.789C289.11 78.4083 287.352 58.2843 279.684 38.5502C280.916 37.8598 281.543 37.8779 282.171 37.8959C290.474 48.4431 293.656 61.109 295.537 73.8493C298.545 94.2278 298.531 114.754 296.646 135.356C295.437 148.571 296.056 161.947 295.713 175.247C295.106 198.804 294.391 222.358 293.715 246.723Z" fill="#4F2E2B"/>
<path d="M7.62402 291.317C40.249 291.45 72.85 292.486 105.458 293.169C122.038 293.516 138.631 293.23 155.969 293.23C158.877 280.286 157.294 266.648 158.354 252.38C161.434 251.741 164.349 251.915 166.464 252.041C166.464 269.283 166.464 285.799 166.464 303.539C113.189 302.094 61.1735 300.682 8.31372 299.248C8.10034 297.094 7.85175 294.584 7.62402 291.317Z" fill="#4F2E2B"/>
<path d="M234.207 298.771C239.063 297.689 243.976 297.122 248.872 297.25C275.118 297.938 301.359 298.804 327.603 299.578C328.57 299.606 329.547 299.315 331.335 299.055C332.047 285.348 332.764 271.546 333.744 256.975C336.579 256.349 339.152 256.492 342.268 256.665C341.696 273.971 341.14 290.755 340.552 308.529C304.984 307.494 270.304 306.484 234.922 305.455C234.679 303.315 234.468 301.461 234.207 298.771Z" fill="#4F2E2B"/>
<path d="M14.1509 53.1202C28.1029 52.3474 42.1073 52.3474 57.2522 52.3474C57.0485 55.7483 56.9045 58.1519 56.4109 61.1885C42.4143 61.1625 28.7676 60.5034 14.5829 59.8186C14.4468 57.6931 14.3251 55.7931 14.1509 53.1202Z" fill="#4F2E2B"/>
<path d="M123.921 29.3256C121.491 32.3704 118.938 34.5073 116.385 36.6442C115.619 36.3008 114.852 35.9573 114.085 35.6139C114.474 27.665 114.863 19.7163 115.595 11.0629C118.424 11.0803 120.908 11.8026 123.797 12.6422C123.797 17.9547 123.797 23.1862 123.921 29.3256Z" fill="#4C2F31"/>
<path d="M282.059 37.2389C281.543 37.8779 280.916 37.8599 279.344 37.7986C276.876 34.9004 275.353 32.0455 273.931 28.5316C276.671 30.7756 279.309 33.6788 282.059 37.2389Z" fill="#7A5D64"/>
<path d="M273.96 27.5047C273.54 27.6829 272.957 27.3571 272.185 26.543C272.596 26.3699 273.196 26.6853 273.96 27.5047Z" fill="#7A5D64"/>
</svg>
