<svg width="320" height="322" viewBox="0 0 320 322" fill="none" xmlns="http://www.w3.org/2000/svg">
<path d="M54.6255 277.955C27.6606 254.512 9.81723 225.409 3.61301 190.252C-3.23306 151.458 -0.309292 113.447 18.9964 78.0357C40.646 38.3256 74.1145 14.0123 117.983 4.428C131.14 1.55349 144.935 0.140828 158.396 0.384664C201.856 1.17202 239.196 16.8089 269.492 49.9722C270.553 51.067 270.903 51.4775 271.073 52.0432C271.073 52.0432 270.971 52.03 271.344 52.3274C272.181 53.1143 272.645 53.6038 273.109 54.0932C273.109 54.0932 272.921 54.0606 273.179 54.3062C274.15 54.9248 274.864 55.2979 275.578 55.671C275.966 55.9113 276.353 56.1517 277.349 57.4849C278.019 61.9628 279.297 64.1781 283.119 63.948C283.119 63.948 283.005 63.9967 282.773 64.6094C283.414 66.1258 284.287 67.0295 285.16 67.9333C285.16 67.9333 285.022 67.9743 285.016 68.6321C285.78 70.7602 286.469 72.2794 287.33 73.6937C306.545 105.249 314.166 139.451 309.264 176.006C300.91 238.301 267.154 281.742 208.335 303.317C163.701 319.69 119.336 315.001 76.8372 291.985C70.6241 288.345 64.7522 285.187 58.8803 282.03C58.8803 282.03 58.9983 281.995 58.9212 281.488C58.1824 280.645 57.521 280.309 56.8596 279.973C56.8596 279.973 57.0281 279.959 56.7796 279.547C55.8959 278.742 55.2607 278.348 54.6255 277.955ZM90.9871 228.019C90.9871 228.019 90.966 227.88 91.4458 228.818C92.0157 229.218 92.5856 229.618 94.4243 230.438C119.442 253.091 148.272 261.554 180.941 251.684C223.633 238.786 246.92 202.333 248.603 160.317C249.763 131.349 240.199 105.501 218.625 83.3305C216.04 81.5966 213.456 79.8628 210.979 78.0302C210.979 78.0302 211.005 78.1734 210.865 76.7832C184.023 54.3755 144.224 50.6244 113.407 67.5973C61.7984 96.0213 46.0164 163.28 79.3919 215.247C82.6429 218.827 85.8938 222.408 89.0082 225.995C89.0082 225.995 89.0201 225.858 89.2345 226.965C89.8651 227.311 90.4956 227.658 90.9871 228.019Z" fill="#CCA5C9"/>
<path d="M77.1781 292.467C119.336 315.001 163.701 319.69 208.335 303.317C267.153 281.742 300.91 238.301 309.264 176.006C314.166 139.451 306.544 105.249 287.33 73.6937C286.469 72.2794 285.78 70.7602 285.007 68.5607C293.018 73.2468 296.763 81.9269 301.023 89.9269C342.585 167.978 314.005 273.882 222.007 310.776C202.984 318.405 183.039 321.912 162.739 321.556C132.422 321.023 103.638 314.112 77.5852 295.493C77.123 293.626 77.1505 293.047 77.1781 292.467Z" fill="#4C2F31"/>
<path d="M76.8373 291.985C77.1508 293.047 77.1232 293.626 77.062 295.075C71.1367 291.73 65.2449 287.515 59.1167 282.665C64.7523 285.187 70.6241 288.345 76.8373 291.985Z" fill="#7A5D64"/>
<path d="M282.977 63.3772C279.297 64.178 278.019 61.9628 277.693 58.076C279.231 59.3184 281.033 61.0623 282.977 63.3772Z" fill="#7A5D64"/>
<path d="M275.446 55.2441C274.864 55.2978 274.15 54.9247 273.18 54.2109C273.72 54.1859 274.517 54.5016 275.446 55.2441Z" fill="#7A5D64"/>
<path d="M285.356 67.3004C284.287 67.0295 283.414 66.1258 282.804 64.5552C283.895 64.8148 284.724 65.7412 285.356 67.3004Z" fill="#7A5D64"/>
<path d="M57.0312 280.489C57.5212 280.309 58.1826 280.645 58.9237 281.55C58.4031 281.747 57.803 281.377 57.0312 280.489Z" fill="#7A5D64"/>
<path d="M272.964 53.5662C272.645 53.6038 272.181 53.1143 271.349 52.2762C271.594 52.2982 272.206 52.6687 272.964 53.5662Z" fill="#7A5D64"/>
<path d="M270.842 51.7003C270.903 51.4775 270.552 51.0669 269.638 50.672C269.846 50.5788 270.298 50.8537 270.842 51.7003Z" fill="#7A5D64"/>
<path d="M54.9312 278.425C55.2607 278.348 55.896 278.742 56.7943 279.63C56.4505 279.715 55.8437 279.305 54.9312 278.425Z" fill="#7A5D64"/>
<path d="M210.935 77.4783C208.239 77.182 205.329 76.4763 202.731 75.156C170.757 58.9076 132.691 64.7515 105.922 87.6713C72.7598 116.065 62.2723 162.654 77.4793 201.923C78.5585 204.71 79.7804 207.442 80.8403 211.407C80.1855 213.058 79.6263 213.501 79.0671 213.945C46.0163 163.28 61.7983 96.0213 113.407 67.5973C144.224 50.6243 184.023 54.3755 210.935 77.4783Z" fill="#4C2F31"/>
<path d="M79.2295 214.596C79.6263 213.501 80.1855 213.058 81.0129 212.131C83.9996 215.954 86.7181 220.261 89.2908 225.277C85.8938 222.408 82.6428 218.827 79.2295 214.596Z" fill="#7A5D64"/>
<path d="M218.827 84.0311C216.287 82.9937 213.545 81.2556 210.837 78.8233C213.456 79.8628 216.041 81.5966 218.827 84.0311Z" fill="#7A5D64"/>
<path d="M91.2061 228.349C91.5624 228.239 92.1584 228.598 92.9551 229.487C92.5858 229.618 92.0159 229.218 91.2061 228.349Z" fill="#7A5D64"/>
<path d="M89.127 226.412C89.7267 226.152 90.4336 226.445 91.1333 227.372C90.4954 227.658 89.8649 227.311 89.127 226.412Z" fill="#7A5D64"/>
</svg>
