<svg width="322" height="324" viewBox="0 0 322 324" fill="none" xmlns="http://www.w3.org/2000/svg">
<path d="M51.5648 275.5C25.1195 252.531 9.22577 223.334 3.34167 189.206C-6.19739 133.878 5.48596 83.8837 45.6188 42.9714C66.8924 21.2847 93.5815 8.39667 123.525 3.24145C151.373 -1.55292 179.289 -1.16278 206.394 7.63538C230.855 15.5756 251.982 29.3016 270.428 48.8818C271.973 50.9658 273.052 51.9316 274.131 52.8975C274.131 52.8975 274.006 53.002 274.234 53.4086C275.007 54.1751 275.552 54.5349 276.097 54.8946C276.097 54.8946 276.023 54.9976 276.201 55.4446C276.952 56.2219 277.524 56.5522 278.096 56.8826C278.096 56.8826 278.007 56.9884 278.179 57.4597C278.931 58.2594 279.511 58.5879 280.092 58.9163C280.092 58.9163 279.998 58.9943 280.107 59.4967C280.848 60.3374 281.481 60.6757 282.114 61.014C282.114 61.014 281.99 61.0101 281.92 61.6716C285.391 67.9315 288.932 73.5299 292.835 79.8074C305.584 103.443 311.917 127.908 312.529 154.04C314.144 223.06 272.37 284.662 207.878 305.827C164.171 320.171 121.3 316.525 79.793 294.986C73.5733 291.38 67.7189 288.236 61.8644 285.091C61.8644 285.091 61.8893 284.993 61.887 284.389C60.551 282.9 59.2175 282.015 57.8841 281.129C57.8841 281.129 57.9614 281.065 57.7172 280.531C56.22 279.08 54.967 278.163 53.7139 277.247C53.7139 277.247 53.7374 277.129 53.5197 276.737C52.8447 275.814 52.2657 275.532 51.5648 275.5ZM219.865 83.9644C219.204 83.6403 218.543 83.3163 218.008 82.9905C218.008 82.9905 217.995 83.1157 218.011 81.7365C213.38 78.1916 208.749 74.6467 203.009 70.2621C177.188 55.0079 150.159 52.6344 122.474 63.9955C62.5073 88.6044 42.8613 168.664 83.9816 221.587C85.3721 222.706 86.7627 223.824 88.0187 224.986C88.0187 224.986 88.069 224.854 88.0454 226.123C89.3215 227.098 90.5975 228.073 92.5687 230.205C96.1521 233.163 99.5985 236.307 103.34 239.05C142.432 267.699 194.413 261.07 225.468 225.017C245.38 201.899 252.671 174.887 249.539 145.269C247.183 122.989 238.408 102.953 221.642 85.9191C221.056 85.601 220.469 85.2829 220.026 84.9757C220.026 84.9757 220.026 85.1198 219.865 83.9644Z" fill="#FEC275"/>
<path d="M80.1582 295.447C121.3 316.525 164.171 320.171 207.878 305.827C272.37 284.662 314.144 223.06 312.529 154.04C311.917 127.908 305.584 103.443 293.702 79.7852C294.784 79.0663 295.361 79.0488 295.938 79.0312C309.912 99.4335 317.444 122.116 320.442 146.557C323.78 173.767 320.926 200.267 310.233 225.407C286.988 280.056 246.256 312.975 186.925 321.365C156.069 325.729 126.109 321.874 97.5836 308.951C91.8719 306.364 86.5727 302.866 80.5504 298.508C80.0644 296.635 80.1113 296.041 80.1582 295.447Z" fill="#4F2E2B"/>
<path d="M79.7928 294.986C80.1112 296.041 80.0643 296.635 80.0034 298.123C73.9412 294.833 67.8929 290.649 61.8545 285.778C67.7188 288.236 73.5732 291.38 79.7928 294.986Z" fill="#7A5D64"/>
<path d="M295.837 78.3519C295.361 79.0488 294.784 79.0663 293.34 79.1061C288.932 73.5299 285.391 67.9315 281.93 61.6106C286.585 66.4829 291.16 72.0778 295.837 78.3519Z" fill="#7A5D64"/>
<path d="M57.7886 281.804C59.2174 282.015 60.5509 282.9 61.8546 284.435C60.4476 284.216 59.0704 283.347 57.7886 281.804Z" fill="#98BC89"/>
<path d="M274.195 52.295C273.052 51.9316 271.973 50.9658 270.816 49.4602C271.912 49.8445 273.085 50.7685 274.195 52.295Z" fill="#98BC89"/>
<path d="M53.8105 277.892C54.967 278.163 56.22 279.08 57.6846 280.552C56.5664 280.25 55.2368 279.393 53.8105 277.892Z" fill="#98BC89"/>
<path d="M276.136 54.2898C275.552 54.5349 275.007 54.1751 274.285 53.3457C274.797 53.1457 275.486 53.4154 276.136 54.2898Z" fill="#98BC89"/>
<path d="M51.833 275.921C52.2659 275.532 52.8448 275.814 53.576 276.759C53.2669 276.896 52.684 276.619 51.833 275.921Z" fill="#98BC89"/>
<path d="M278.166 56.2628C277.524 56.5522 276.952 56.2219 276.246 55.3934C276.821 55.1445 277.528 55.3937 278.166 56.2628Z" fill="#98BC89"/>
<path d="M280.052 58.3338C279.511 58.5879 278.931 58.2594 278.235 57.42C278.75 57.1899 279.381 57.4706 280.052 58.3338Z" fill="#98BC89"/>
<path d="M281.951 60.4939C281.481 60.6757 280.849 60.3374 280.097 59.4366C280.582 59.2408 281.185 59.6073 281.951 60.4939Z" fill="#7A5D64"/>
<path d="M201.313 73.5933C183.66 66.0805 165.085 63.9813 146.668 68.2006C108.478 76.9496 84.8796 102.047 74.8147 139.131C67.7268 165.245 70.3903 191.133 83.8477 216.931C83.8747 219.211 83.8269 219.859 83.7792 220.506C42.8611 168.664 62.5071 88.6044 122.474 63.9955C150.158 52.6344 177.188 55.0079 203.248 71.2442C202.763 72.682 202.038 73.1376 201.313 73.5933Z" fill="#4F2E2B"/>
<path d="M201.72 74.1489C202.038 73.1376 202.763 72.6819 203.803 71.6641C208.749 74.6467 213.38 78.1916 218.003 82.426C212.705 80.312 207.416 77.5083 201.72 74.1489Z" fill="#7A5D64"/>
<path d="M83.8803 221.047C83.827 219.859 83.8748 219.211 84.092 217.604C85.6749 218.96 87.0885 221.276 88.3276 224.267C86.7625 223.824 85.372 222.706 83.8803 221.047Z" fill="#7A5D64"/>
<path d="M88.0571 225.488C89.3179 225.812 90.567 226.77 91.8447 228.388C90.5974 228.073 89.3213 227.098 88.0571 225.488Z" fill="#7A5D64"/>
<path d="M221.861 86.3877C221.481 86.5458 220.882 86.2353 220.083 85.4448C220.469 85.2829 221.056 85.601 221.861 86.3877Z" fill="#7A5D64"/>
<path d="M219.945 84.5421C219.417 84.76 218.808 84.4002 218.041 83.5164C218.543 83.3163 219.204 83.6403 219.945 84.5421Z" fill="#7A5D64"/>
</svg>
