<svg width="257" height="331" viewBox="0 0 257 331" fill="none" xmlns="http://www.w3.org/2000/svg">
<path d="M142.773 259.522C140.647 261.027 138.489 261.552 135.268 262.335C134.689 257.738 133.954 253.907 133.761 250.048C132.413 223.163 130.754 196.282 130.062 169.378C129.626 152.465 130.445 135.512 134.499 118.888C139.299 99.2047 150.883 85.0375 168.865 76.0676C183.026 69.0034 198.315 65.8475 213.898 64.0966C224.722 62.8803 235.597 62.1162 247.647 61.0434C246.835 44.1462 246.042 27.6654 245.39 10.3875C247.834 9.59033 250.138 9.59033 253.359 9.59033C254.564 29.816 255.741 49.5546 256.935 69.5877C242.467 71.1124 228.599 71.9554 214.963 74.2087C204.231 75.9823 193.383 78.4689 183.294 82.4395C158.976 92.0111 144.652 110.472 141.677 136.367C139.715 153.445 139.474 170.782 139.459 188.004C139.444 204.584 140.669 221.167 141.435 237.744C141.755 244.682 142.298 251.61 142.773 259.522Z" fill="#4F2E2B"/>
<path d="M24.6919 322.847C28.2111 321.575 31.8066 320.826 35.4319 320.632C78.8834 318.306 122.341 316.104 165.793 313.772C177.979 313.118 190.147 312.148 203.32 311.256C202.636 296.414 201.983 282.24 201.386 267.165C203.716 266.264 205.991 266.264 209.276 266.264C210.389 284.165 211.469 301.52 212.639 320.347C150.51 323.802 88.6092 327.245 26.1566 330.717C25.6176 327.938 25.1998 325.783 24.6919 322.847Z" fill="#4F2E2B"/>
<path d="M11.1343 73.1025C28.5609 71.0543 46.0448 69.7698 64.2104 68.4352C64.4585 71.9227 64.6388 74.4589 64.6462 77.7112C47.0321 79.1374 29.5911 79.8475 11.6911 80.5764C11.4792 77.7303 11.3354 75.7983 11.1343 73.1025Z" fill="#4F2E2B"/>
<path d="M120.322 59.8872C118.802 66.0235 116.659 71.3778 114.515 76.7322C113.852 76.6031 113.188 76.474 112.525 76.3449C111.522 58.2556 110.52 40.1663 109.5 21.206C118.315 20.7292 118.428 20.8123 118.723 29.1838C119.074 39.1567 119.376 49.1314 120.322 59.8872Z" fill="#4F2E2B"/>
<path d="M24.6019 322.066C22.3227 321.963 20.0435 321.859 17.3641 321.737C16.4263 304.026 13.6745 286.722 15.3387 268.185C31.0089 267.353 46.1237 266.297 61.2567 265.822C75.1023 265.387 76.1776 264.407 74.6656 251.029C73.9609 244.794 73.5212 238.521 73.1938 232.253C72.3122 215.375 71.619 198.487 70.7345 181.609C69.4519 157.136 68.1212 132.666 66.6981 108.201C66.1599 98.9485 65.3077 89.7148 64.7089 78.7339C64.6389 74.4589 64.4585 71.9227 64.2105 68.4352C46.0448 69.7698 28.5609 71.0543 11.0769 72.3388C8.79856 72.1046 6.52015 71.8703 3.48429 71.5582C2.78885 53.9164 -0.0260874 36.6158 1.24119 18.1649C17.084 17.3351 32.2491 16.6478 47.3995 15.7182C63.6096 14.7236 79.8044 13.4808 96.0093 12.3973C98.6624 12.22 101.342 12.4321 103.994 12.2416C108.825 11.8946 109.411 14.9312 109.417 20.3447C110.519 40.1663 111.522 58.2556 112.525 76.345C113.188 76.4741 113.852 76.6031 114.515 76.7322C116.658 71.3779 118.802 66.0235 120.945 60.6691C125.723 53.4861 130.09 45.9852 135.357 39.181C149.946 20.3352 170.359 10.9761 192.956 6.40259C205.877 3.78741 219.214 3.23047 232.363 1.74121C235.952 1.33472 239.538 0.907471 243.994 0.388611C244.495 2.94055 244.969 5.35675 245.346 9.47876C246.042 27.6654 246.835 44.1462 247.647 61.0434C235.597 62.1162 224.722 62.8803 213.898 64.0966C198.315 65.8475 183.026 69.0034 168.864 76.0676C150.883 85.0375 139.299 99.2047 134.499 118.888C130.445 135.512 129.626 152.465 130.062 169.378C130.754 196.282 132.413 223.163 133.761 250.048C133.954 253.907 134.689 257.738 135.268 262.335C138.489 261.552 140.647 261.027 142.806 260.502C161.874 259.757 180.942 259.012 200.518 258.248C200.832 260.751 201.069 262.63 201.318 266.287C201.983 282.24 202.637 296.414 203.321 311.256C190.148 312.148 177.979 313.118 165.793 313.772C122.342 316.104 78.8835 318.306 35.432 320.632C31.8068 320.826 28.2112 321.575 24.6019 322.066Z" fill="#FD896E"/>
</svg>
