<svg width="271" height="335" viewBox="0 0 271 335" fill="none" xmlns="http://www.w3.org/2000/svg">
<path d="M188.33 106.953C186.136 106.624 183.941 106.294 181.692 105.956C180.706 99.9706 179.805 94.497 178.666 87.6249C177.247 85.164 176.065 84.1017 174.884 83.0394C174.884 83.0394 175.003 83.0145 174.731 82.4514C172.624 80.9789 170.789 80.0695 168.954 79.1601C168.954 79.1601 169.011 79.0352 169.13 78.4633C167.042 76.164 164.834 74.4367 162.08 72.2059C136.189 55.179 109.433 54.088 81.7955 64.7826C72.9729 68.1967 65.6402 73.8933 60.6785 82.1793C52.9063 95.158 55.7429 111.114 67.1516 119.031C67.1516 119.031 66.9577 119.045 67.1212 119.376C67.6196 120.261 68.0969 120.635 68.7161 120.828C77.2209 123.472 85.5614 127.221 94.2669 128.516C109.321 130.756 124.6 131.482 139.786 132.827C159.925 134.61 180.226 135.33 199.786 141.148C216.972 146.26 232.281 154.542 244.781 169.34C245.828 170.889 246.366 171.161 247.109 171.027C247.109 171.027 246.984 171.018 246.856 171.669C249.191 176.713 251.654 181.107 254.358 186.243C261.046 203.812 263.197 221.2 259.994 238.913C255.232 265.242 239.669 284.436 216.98 297.165C174.615 320.932 130.117 324.179 84.2845 307.824C81.6762 306.893 79.0472 306.021 75.6984 304.87C76.0421 310.529 76.312 314.974 76.5922 319.59C60.7307 321.603 45.9342 323.481 31.1376 325.359C28.8701 325.092 26.6025 324.826 23.9355 324.512C22.3291 310.211 20.7174 296.153 19.1778 282.087C17.275 264.699 15.4355 247.305 13.5595 229.914C13.1591 226.202 12.4652 221.984 17.6645 221.422C33.3981 219.72 49.1695 218.366 65.4787 216.824C66.1446 219.345 66.7087 221.481 67.3784 225.19C70.6893 232.886 73.8946 239.008 77.2716 245.7C78.6787 247.174 79.9143 248.078 81.1497 248.982C81.1497 248.982 81.0109 248.999 81.1816 249.48C82.0327 250.288 82.713 250.616 83.3934 250.943C103.943 268.294 128.02 269.512 153.005 265.836C163.223 264.333 172.931 260.927 181.879 255.57C197.732 246.08 203.259 230.546 196.699 211.404C194.678 208.317 192.973 206.637 190.768 204.448C184.094 201.613 178.096 198.31 171.711 197.159C157.351 194.569 142.824 192.844 128.321 191.135C101.644 187.991 74.5803 187.024 48.8761 175.917C43.9243 173.288 39.3928 171.169 34.8612 169.05C34.8612 169.05 34.987 169.009 34.8983 168.515C34.1639 167.681 33.5184 167.342 32.8729 167.002C32.8729 167.002 33.0106 166.979 32.7413 166.618C31.9224 165.849 31.3731 165.441 30.8237 165.032C30.8237 165.032 30.9628 164.947 30.6752 164.886C30.0677 164.48 29.7454 164.137 29.4209 163.795C14.2529 152.732 7.13032 136.768 3.19209 119.246C-3.16765 90.9491 3.36055 65.5138 23.203 44.4043C38.3566 28.2828 57.5963 18.1556 79.0859 13.1299C107.399 6.50818 135.74 6.45276 163.744 15.3763C165.599 15.9674 167.508 16.3882 170.129 17.0839C170.736 13.18 171.265 9.77277 171.862 5.92804C188.434 4.20019 204.851 2.48846 221.808 0.720642C222.442 3.3667 222.96 5.52789 223.663 9.36713C226.889 40.6768 229.928 70.3083 233.038 100.627C225.32 101.509 218.424 102.14 211.578 103.121C203.805 104.235 196.077 105.662 188.33 106.953Z" fill="#79BFFE"/>
<path d="M31.1826 326.136C45.9346 323.481 60.7311 321.603 76.5927 319.59C76.3124 314.974 76.0425 310.529 75.6989 304.87C79.0476 306.021 81.6766 306.893 84.2849 307.824C130.118 324.179 174.615 320.932 216.98 297.165C239.669 284.436 255.233 265.242 259.994 238.913C263.197 221.2 261.047 203.812 254.728 185.758C255.501 184.062 256.148 183.591 256.794 183.121C282.564 225.458 272.779 280.766 224.014 307.091C180.848 330.394 135.706 333.525 89.5791 315.586C88.3539 315.109 87.0685 314.788 85.2009 314.203C85.2009 319.081 85.2009 323.592 85.2009 328.751C67.6667 330.622 50.6045 332.443 32.582 334.366C32.1249 331.852 31.676 329.383 31.1826 326.136Z" fill="#4C2F31"/>
<path d="M188.535 107.794C196.077 105.662 203.805 104.235 211.578 103.121C218.424 102.14 225.32 101.509 233.037 100.627C229.928 70.3083 226.888 40.6768 223.852 10.2278C225.85 9.41052 227.846 9.41052 231.2 9.41052C235.424 42.1003 238.448 75.2007 241.955 109.624C224.254 111.504 207.338 113.302 190.045 115.139C189.491 112.376 189.115 110.505 188.535 107.794Z" fill="#4C2F31"/>
<path d="M67.1785 118.093C55.7429 111.114 52.9064 95.1579 60.6786 82.1792C65.6403 73.8933 72.9729 68.1966 81.7955 64.7826C109.433 54.0879 136.189 55.179 160.99 72.4142C159.724 73.2762 159.001 73.4267 158.278 73.5771C144.047 68.6214 129.616 65.2685 114.36 67.3914C103.424 68.9131 92.8539 71.3739 83.3605 77.3594C70.4589 85.4938 61.223 97.7809 67.1785 118.093Z" fill="#4C2F31"/>
<path d="M49.2964 176.426C74.5802 187.024 101.644 187.991 128.321 191.135C142.824 192.844 157.351 194.569 171.711 197.159C178.096 198.31 184.094 201.613 190.427 205.031C189.829 206.61 189.073 207.096 188.318 207.583C160.101 201.341 131.287 199.852 102.688 196.573C83.5311 194.377 64.7227 190.165 47.5469 179.097C47.9886 177.469 48.6425 176.948 49.2964 176.426Z" fill="#4C2F31"/>
<path d="M77.1002 245.131C73.8949 239.008 70.6896 232.886 67.4756 226.045C69.7511 225.327 72.0354 225.327 73.952 225.327C75.8441 231.575 77.6317 237.477 79.0023 244.158C78.0903 245.001 77.5953 245.066 77.1002 245.131Z" fill="#4C2F31"/>
<path d="M48.8761 175.917C48.6426 176.948 47.9888 177.469 47.1095 178.58C42.8506 176.254 38.8169 173.339 34.8223 169.737C39.3928 171.169 43.9243 173.288 48.8761 175.917Z" fill="#7A5D64"/>
<path d="M256.677 182.464C256.147 183.591 255.501 184.062 254.486 185.017C251.654 181.107 249.191 176.713 246.863 171.606C250.185 174.531 253.373 178.169 256.677 182.464Z" fill="#7A5D64"/>
<path d="M158.684 74.1334C159.001 73.4267 159.724 73.2762 161.536 72.9176C164.834 74.4367 167.042 76.164 169.083 78.5123C165.641 77.652 162.365 76.1708 158.684 74.1334Z" fill="#7A5D64"/>
<path d="M188.743 208.095C189.074 207.096 189.83 206.61 190.927 205.54C192.973 206.637 194.678 208.317 196.452 210.613C194.071 210.356 191.619 209.482 188.743 208.095Z" fill="#7A5D64"/>
<path d="M168.954 79.8447C170.789 80.0695 172.624 80.9789 174.709 82.5085C172.958 82.2622 170.956 81.3958 168.954 79.8447Z" fill="#70B28C"/>
<path d="M77.2715 245.7C77.595 245.066 78.09 245.001 79.3336 244.929C80.6017 245.921 81.121 246.919 81.395 248.45C79.9142 248.078 78.6786 247.174 77.2715 245.7Z" fill="#7A5D64"/>
<path d="M174.878 83.6766C176.066 84.1017 177.247 85.164 178.539 86.827C177.39 86.3897 176.131 85.3518 174.878 83.6766Z" fill="#70B28C"/>
<path d="M246.934 170.593C246.366 171.161 245.828 170.889 245.335 169.755C245.869 169.283 246.396 169.569 246.934 170.593Z" fill="#7A5D64"/>
<path d="M68.626 120.318C68.0968 120.635 67.6195 120.261 67.1045 119.28C67.4617 119.172 67.9989 119.49 68.626 120.318Z" fill="#4C2F31"/>
<path d="M32.8701 167.621C33.5186 167.342 34.1641 167.681 34.8926 168.581C34.2728 168.841 33.5701 168.54 32.8701 167.621Z" fill="#7A5D64"/>
<path d="M30.9526 165.599C31.3733 165.441 31.9226 165.849 32.7566 166.687C32.3879 166.799 31.7346 166.483 30.9526 165.599Z" fill="#7A5D64"/>
<path d="M29.6094 164.103C29.7457 164.137 30.068 164.48 30.7241 164.952C30.5558 165.014 30.1349 164.791 29.6094 164.103Z" fill="#7A5D64"/>
<path d="M83.2123 250.353C82.7131 250.616 82.0328 250.288 81.1782 249.41C81.6797 249.16 82.3553 249.462 83.2123 250.353Z" fill="#7A5D64"/>
</svg>
