<svg width="258" height="321" viewBox="0 0 258 321" fill="none" xmlns="http://www.w3.org/2000/svg">
<path d="M72.8335 241.899C73.7676 242.096 74.957 241.99 75.5991 242.532C99.776 262.95 127.751 263.214 156.456 256.92C171.098 253.709 182.473 245.34 186.189 229.553C187.826 222.6 188.092 215.724 183.011 208.201C178.026 203.61 173.9 199.434 168.903 197.366C159.774 193.588 150.236 190.657 140.678 188.082C112.919 180.603 84.3085 176.251 57.0559 164.794C52.0183 162.228 47.4216 160.172 42.8249 158.116C42.8249 158.116 42.9595 158.033 42.7768 157.463C41.3553 156.606 40.1167 156.319 38.8779 156.032C38.8779 156.032 38.9972 155.993 38.8867 155.508C38.1347 154.667 37.4934 154.31 36.8519 153.952C36.8519 153.952 37.0417 153.941 36.7798 153.639C36.1334 152.811 35.6656 152.372 35.1145 152.023C16.6315 137.167 7.39036 117.731 6.95189 94.1715C6.80394 86.2241 6.5908 78.0553 8.14671 70.3385C13.9566 41.5223 32.7097 23.1915 58.5405 11.4298C77.9007 2.61423 98.5426 -1.11233 119.675 0.335791C140.913 1.79124 161.881 5.3624 180.964 15.8645C182.331 16.6164 183.936 16.9352 186.074 17.6797C186.634 13.7871 187.09 10.6113 187.732 6.14744C194.33 6.14744 200.9 5.92954 207.449 6.20151C216.05 6.55869 224.628 7.55796 233.229 7.77415C237.733 7.8873 239.021 10.0604 238.748 15.4956C237.526 46.9743 236.629 76.8674 235.727 106.929C224.845 106.929 214.941 106.811 205.042 106.985C200.836 107.058 196.64 107.743 192.44 108.15C190.237 107.787 188.034 107.424 184.753 106.883C186.233 94.5628 184.459 83.3381 172.956 74.7274C170.534 71.5736 168.409 69.6952 165.784 67.2922C145.888 51.0758 123.339 47.6864 99.4817 50.5632C89.4949 51.7674 80.2091 55.6523 72.4505 62.3863C57.6157 75.2624 57.8733 95.5282 72.9519 107.982C86.4678 115.464 101.211 119.081 116.204 122.155C135.663 126.143 155.137 130.158 174.4 134.977C197.708 140.808 218.138 152.132 235.043 170.943C235.83 172.842 236.487 173.406 237.144 173.97C237.144 173.97 237.005 173.967 236.862 174.481C237.663 176.633 238.606 178.271 239.924 180.627C245.344 191.657 247.972 202.634 248.515 214.022C249.822 241.458 241.568 265.162 220.307 283.441C210.637 291.755 199.822 298.342 187.65 302.238C144.519 316.043 102.524 313.951 62.032 292.648C59.5237 291.329 56.9679 290.099 54.0493 288.635C53.4847 294.123 53.0209 298.631 52.4826 303.862C37.589 303.251 23.369 302.668 9.14915 302.085C6.85508 301.948 4.56089 301.812 1.3845 301.623C-0.368427 267.922 2.40635 234.609 3.45042 199.864C10.4266 199.864 16.968 199.829 23.5089 199.872C32.4956 199.932 41.4857 200.241 50.4671 200.067C55.2149 199.976 57.318 201.747 56.6056 207.911C56.2313 223.043 63.9475 232.767 72.8335 241.899Z" fill="#CCA5C9"/>
<path d="M8.98328 302.953C23.3691 302.668 37.5891 303.251 52.4828 303.862C53.021 298.631 53.4849 294.123 54.0494 288.635C56.968 290.099 59.5238 291.329 62.0321 292.648C102.524 313.951 144.519 316.043 187.65 302.238C199.822 298.342 210.637 291.755 220.308 283.441C241.568 265.162 249.823 241.458 248.515 214.022C247.972 202.634 245.344 191.657 240.773 180.684C241.813 180.025 242.378 180.027 242.943 180.03C258.836 201.016 260.276 224.837 255.119 249.252C249 278.216 230.039 297.438 203.434 308.13C157.149 326.729 111.516 324.034 67.4377 300.091C66.3278 299.488 65.1276 299.051 63.1235 298.161C62.8973 302.844 62.6984 306.966 62.4673 311.751C44.8623 311.751 27.4603 311.751 9.27515 311.751C9.10437 308.794 8.96082 306.308 8.98328 302.953Z" fill="#4C2F31"/>
<path d="M192.513 109.018C196.64 107.743 200.836 107.058 205.042 106.985C214.941 106.811 224.845 106.929 235.727 106.929C236.629 76.8674 237.526 46.9744 238.782 16.3169C241.735 15.7253 244.33 15.8982 247.424 16.1041C246.49 49.3678 245.568 82.1706 244.627 115.689C227.558 115.689 210.817 115.689 193.411 115.689C193.108 113.556 192.847 111.721 192.513 109.018Z" fill="#4F2E2B"/>
<path d="M72.9043 107.151C57.8738 95.5282 57.6162 75.2624 72.451 62.3863C80.2096 55.6523 89.4953 51.7674 99.4822 50.5632C123.34 47.6864 145.888 51.0758 164.867 67.3469C163.848 68.0348 163.247 68.1434 162.647 68.252C148.404 61.2454 133.401 57.6657 117.483 58.4442C107.794 58.9181 98.4857 60.883 89.7938 65.5059C73.118 74.3753 67.444 87.8592 72.9043 107.151Z" fill="#4C2F31"/>
<path d="M57.4971 165.305C84.309 176.251 112.92 180.604 140.678 188.082C150.236 190.657 159.774 193.588 168.903 197.366C173.901 199.434 178.027 203.61 182.782 207.483C154.612 196.501 124.298 191.837 94.8628 183.964C81.3762 180.357 67.9795 176.485 55.7676 167.813C56.1345 166.32 56.8158 165.813 57.4971 165.305Z" fill="#4C2F31"/>
<path d="M72.7754 241.165C63.9478 232.767 56.2317 223.043 56.6395 208.757C59.177 208.323 61.4233 208.482 64.6905 208.714C63.4048 220.414 67.2553 230.655 72.7754 241.165Z" fill="#4C2F31"/>
<path d="M57.0563 164.794C56.8157 165.813 56.1344 166.32 55.2202 167.424C50.6681 165.149 46.3486 162.278 42.4272 158.761C47.422 160.172 52.0187 162.228 57.0563 164.794Z" fill="#7A5D64"/>
<path d="M163.034 68.8135C163.247 68.1434 163.848 68.0348 165.367 67.8715C168.41 69.6952 170.534 71.5736 172.846 74.0927C169.829 72.9471 166.625 71.161 163.034 68.8135Z" fill="#7A5D64"/>
<path d="M242.815 179.382C242.378 180.027 241.813 180.025 240.399 179.965C238.607 178.271 237.663 176.633 236.911 174.432C238.964 175.49 240.826 177.111 242.815 179.382Z" fill="#7A5D64"/>
<path d="M237.125 173.279C236.487 173.406 235.831 172.842 235.083 171.575C235.697 171.445 236.401 172.017 237.125 173.279Z" fill="#7A5D64"/>
<path d="M35.2832 152.497C35.6657 152.372 36.1334 152.811 36.7966 153.733C36.5344 153.743 35.9932 153.357 35.2832 152.497Z" fill="#7A5D64"/>
<path d="M37.0352 154.466C37.4939 154.31 38.1353 154.667 38.8949 155.571C38.4147 155.739 37.8164 155.36 37.0352 154.466Z" fill="#7A5D64"/>
<path d="M39.1602 156.708C40.1167 156.319 41.3553 156.606 42.7668 157.541C41.7738 157.921 40.608 157.653 39.1602 156.708Z" fill="#7A5D64"/>
</svg>
