<svg width="166" height="412" viewBox="0 0 166 412" fill="none" xmlns="http://www.w3.org/2000/svg">
<path d="M50.3715 391.923C34.4941 379.902 28.6899 362.808 28.0753 344.038C27.5563 328.187 28.9692 312.264 29.7047 296.381C30.4403 280.495 31.2136 264.607 32.2977 248.742C33.9215 224.982 35.8945 201.247 37.5798 177.492C38.0494 170.873 38.0291 164.22 38.5544 156.021C39.0564 152.074 39.2374 149.688 39.5216 145.94C28.6434 145.94 18.9607 145.94 9.27795 145.94C6.48059 145.261 3.68323 144.582 0.236328 143.745C1.51843 126.328 2.74731 109.632 4.07507 91.5944C17.0822 92.1842 29.4568 92.7453 42.9819 93.3585C43.4291 85.5934 43.7872 78.4283 44.2698 71.2716C44.7142 64.6772 45.0596 58.06 45.9509 51.5214C46.2245 49.5156 47.7532 47.2307 49.3882 45.9293C68.5775 30.6529 87.8958 15.5382 107.198 0.403832C107.384 0.257652 107.814 0.421106 109.128 0.499658C108.897 4.12826 108.663 7.81173 108.31 13.1063C106.164 42.1474 104.138 69.5772 102.04 97.9727C106.036 97.9727 108.909 97.9727 111.783 97.9727C123.012 98.7382 134.245 99.438 145.465 100.314C148.417 100.544 151.318 101.372 154.258 101.828C158.179 102.437 157.59 105.201 156.766 109.368C155.251 125.027 154.227 139.192 153.136 154.284C134.707 153.237 117.003 152.232 99.4486 151.234C98.8156 153.304 98.3435 154.213 98.2792 155.149C94.9341 203.87 91.5448 252.588 88.3815 301.321C87.801 310.261 87.7728 319.28 88.1969 328.229C88.5347 335.355 90.4884 342.112 98.1133 345.27C111.712 350.075 125.272 347.128 139.51 344.929C139.777 347.499 140.036 350.006 140.193 354.15C139.225 367.399 138.208 379.003 137.56 390.627C137.248 396.209 134.795 399.299 129.22 399.708C115.981 400.679 102.752 401.92 89.4943 402.436C76.9353 402.924 65.556 397.524 53.8115 394.066C53.8115 394.066 53.9807 394.038 53.8176 393.561C52.5601 392.697 51.4658 392.31 50.3715 391.923Z" fill="#59B7BD"/>
<path d="M98.158 344.518C90.4884 342.112 88.5346 335.355 88.1969 328.229C87.7728 319.28 87.801 310.261 88.3814 301.321C91.5448 252.588 94.934 203.87 98.2791 155.149C98.3435 154.213 98.8155 153.304 99.4486 151.234C117.003 152.232 134.707 153.237 153.136 154.284C154.227 139.192 155.251 125.027 156.455 110.209C159.263 109.557 161.89 109.557 165.814 109.557C164.537 127.906 163.312 145.515 162.062 163.477C144.096 162.306 126.639 161.169 108.189 159.966C107.59 165.538 106.855 170.945 106.45 176.377C104.405 203.77 102.344 231.162 100.497 258.568C99.3819 275.105 98.9382 291.691 97.6425 308.211C96.7086 320.121 95.5068 331.951 98.158 344.518Z" fill="#4C2F31"/>
<path d="M53.7109 394.766C65.5555 397.524 76.9348 402.924 89.4938 402.436C102.751 401.92 115.981 400.679 129.219 399.708C134.794 399.299 137.248 396.209 137.559 390.627C138.208 379.003 139.225 367.399 140.223 354.951C143.253 353.682 146.151 353.249 149.432 352.758C148.146 370.993 146.893 388.739 145.626 406.697C122.603 412.221 100.443 414.355 78.0245 408.379C68.8809 405.942 60.5521 402.033 53.7109 394.766Z" fill="#4C2F31"/>
<path d="M111.767 97.1344C108.909 97.9727 106.035 97.9727 102.04 97.9727C104.137 69.5772 106.164 42.1473 108.319 13.9342C111.134 11.4656 113.82 9.78027 117.893 7.22424C115.772 37.9896 113.762 67.1428 111.767 97.1344Z" fill="#4C2F31"/>
<path d="M9.08691 146.754C18.9606 145.94 28.6433 145.94 39.5215 145.94C39.2373 149.688 39.0563 152.074 38.4996 155.077C28.597 154.811 19.0701 153.926 8.896 152.981C8.896 151.208 8.896 149.387 9.08691 146.754Z" fill="#4C2F31"/>
<path d="M50.5923 392.558C51.4655 392.31 52.5597 392.697 53.8243 393.647C52.9342 393.871 51.8739 393.532 50.5923 392.558Z" fill="#4C2F31"/>
</svg>
