<svg width="478" height="314" viewBox="0 0 478 314" fill="none" xmlns="http://www.w3.org/2000/svg">
<path d="M170.413 58.8793C167.601 58.0361 164.789 57.1931 161.858 56.3145C162.442 40.1179 163.012 24.2932 163.604 7.85303C165.992 7.46033 168.181 6.72327 170.338 6.80725C183.608 7.32312 196.868 8.08923 210.137 8.63281C215.459 8.85095 220.801 8.58228 226.126 8.76416C249.047 9.54749 271.962 10.543 294.887 11.1486C299.602 11.2731 301.765 12.7241 301.283 19.2594C300.442 34.4908 301.028 48.0756 298.277 61.6533C288.256 61.6533 279.015 61.6533 269.772 61.6533C269.998 71.1473 313.724 225.901 318.355 232.54C319.078 228.586 319.648 225.466 320.219 222.346C326.141 206.489 332.151 190.664 337.965 174.768C348.919 144.82 359.778 114.836 370.623 84.8483C371.751 81.73 372.527 78.4845 374.169 73.9966C375.594 70.4496 376.318 68.2042 377.315 65.1107C366.108 65.1107 356.336 65.1107 346.565 65.1107C344.315 64.7612 342.065 64.4119 339.811 64.0618C339.811 47.1741 339.811 30.7676 339.811 13.2583C349.043 13.2583 357.241 13.064 365.426 13.3075C375.689 13.6129 385.939 14.3589 396.2 14.7701C418.083 15.6467 439.967 16.5122 461.857 17.1827C466.311 17.3192 469.976 17.5596 469.229 25.1926C468.381 40.7402 467.595 54.5227 466.84 67.7676C452.464 67.7676 439.544 67.7676 425.803 67.7676C397.646 146.494 369.427 225.395 341.539 303.37C324.685 303.37 309.08 303.37 293.475 303.37C288.19 304.128 286.803 300.678 285.669 296.511C280.101 276.051 274.438 255.617 268.737 235.194C257.783 195.948 246.78 156.715 235.194 116.123C233.45 108.714 232.308 102.66 231.167 96.6058C230.501 96.582 229.835 96.5582 229.169 96.5344C204.872 163.5 180.575 230.465 156.425 297.024C139.752 297.024 124.483 297.024 109.214 297.024C104.259 297.319 102.4 294.441 101.195 290.058C92.7654 259.392 84.1355 228.781 75.6053 198.142C63.9648 156.332 52.3519 114.514 40.7414 72.6958C39.8554 69.5049 39.0818 66.2828 37.9577 61.5745C36.2786 57.7014 35.065 53.4161 33.4887 53.2782C25.4135 52.572 17.2449 52.9342 9.10889 52.9229C0.692875 51.2373 0.642826 51.2352 0.955814 43.8369C1.5427 29.9619 2.19373 16.0897 2.8787 0.869995C43.0492 1.57617 82.5815 3.53296 122.58 5.15747C122.853 7.54224 123.071 9.44226 123.221 13.1321C122.439 28.1069 121.725 41.2919 120.974 55.1787C108.559 55.1787 97.0794 55.1787 84.4119 55.1787C100.193 112.645 115.691 169.083 131.19 225.52C131.874 225.478 132.559 225.436 133.243 225.394C133.946 221.919 134.649 218.444 135.352 214.969C141.348 198.883 147.495 182.852 153.307 166.701C165.081 133.988 176.673 101.21 189.01 67.1581C190.226 63.5984 190.772 61.34 191.709 57.4636C183.585 58.0037 176.999 58.4414 170.413 58.8793Z" fill="#59B7BD"/>
<path d="M293.718 304.029C309.08 303.37 324.685 303.37 341.539 303.37C369.427 225.395 397.646 146.494 425.803 67.7675C439.544 67.7675 452.464 67.7675 466.84 67.7675C467.595 54.5227 468.38 40.7402 469.27 26.0598C472.017 25.2778 474.661 25.3937 477.299 25.5093C477.299 42.6226 477.299 59.4467 477.299 76.5075C463.177 76.5075 450.016 76.5075 435.028 76.5075C420.605 114.387 407.103 154.187 392.833 193.697C378.52 233.33 364.468 273.057 350.004 313.576C332.127 312.857 314.309 312.141 296.162 311.411C295.355 308.947 294.658 306.818 293.718 304.029Z" fill="#4C2F31"/>
<path d="M109.358 297.758C124.483 297.024 139.752 297.024 156.425 297.024C180.575 230.465 204.872 163.5 229.168 96.5344C229.835 96.5582 230.501 96.582 231.167 96.6058C232.308 102.66 233.45 108.714 234.682 115.529C229.493 130.193 224.049 144.036 218.963 158.009C201.844 205.046 184.861 252.132 167.792 299.186C166.895 301.658 165.68 304.013 164.398 306.91C146.795 306.125 129.33 305.345 111.993 304.572C111.006 302.162 110.255 300.327 109.358 297.758Z" fill="#4C2F31"/>
<path d="M135.082 214.203C134.649 218.444 133.946 221.919 133.243 225.394C132.559 225.436 131.874 225.478 131.19 225.52C115.691 169.083 100.193 112.645 84.4116 55.1788C97.0792 55.1788 108.559 55.1788 120.974 55.1788C121.725 41.2919 122.438 28.107 123.253 14.022C126.167 13.4316 128.978 13.7411 131.047 13.969C131.047 31.2879 131.047 47.4167 131.047 64.0839C118.504 64.0839 107.105 64.0839 94.8837 64.0839C95.0946 66.7115 94.9001 69.3149 95.5533 71.6846C108.581 118.952 121.706 166.192 135.082 214.203Z" fill="#4C2F31"/>
<path d="M319.884 221.439C319.648 225.466 319.077 228.586 318.354 232.54C313.724 225.901 269.997 71.1473 269.771 61.6533C279.014 61.6533 288.256 61.6533 298.277 61.6533C301.027 48.0756 300.441 34.4908 301.338 20.1296C304.054 19.2214 306.694 19.2214 310.213 19.2214C309.64 36.536 309.085 53.2776 308.51 70.6514C298.666 70.6514 288.845 70.6514 277.468 70.6514C291.675 121.25 305.612 170.891 319.884 221.439Z" fill="#4C2F31"/>
<path d="M9.1748 53.7598C17.2447 52.9342 25.4133 52.572 33.4885 53.2782C35.0648 53.4161 36.2784 57.7014 37.7622 60.6698C28.7432 61.2659 19.6212 61.2659 9.98502 61.2659C9.65115 58.2737 9.44604 56.4352 9.1748 53.7598Z" fill="#4C2F31"/>
<path d="M346.57 65.8677C356.336 65.1107 366.108 65.1107 377.315 65.1107C376.318 68.2042 375.594 70.4496 374.523 73.2056C365.349 73.3289 356.523 72.9414 347.259 72.5348C347.014 70.4199 346.795 68.5222 346.57 65.8677Z" fill="#4C2F31"/>
<path d="M170.485 59.6536C176.999 58.4414 183.585 58.0037 191.709 57.4636C190.772 61.34 190.226 63.5984 189.179 66.4561C182.952 67.0553 177.224 67.0553 171.132 67.0553C170.883 64.1826 170.72 62.3053 170.485 59.6536Z" fill="#4C2F31"/>
</svg>
