<svg width="1889" height="1015" viewBox="0 0 1889 1015" fill="none" xmlns="http://www.w3.org/2000/svg">
<path d="M5.87988 237.78C126.94 259.03 186.31 108.5 277.45 60.9103C315.25 41.1803 382.06 10.3003 420.32 43.9703C474.8 91.9103 425.45 199.02 400.58 251.13C365.43 324.79 315.9 390.55 266.47 455.07C213.96 523.61 161.15 593.78 125.97 673.17C97.9499 736.41 50.2299 861.16 119.89 914.94C218.77 991.27 348.44 839.23 391.38 765.62C435.36 690.22 463.41 606.5 506.03 530.32C554.89 442.97 623.66 364.62 704.86 305.88C722.03 293.46 743.52 284.37 764.17 289.14C787.99 294.64 804.37 317.23 811.8 340.51C835.14 413.61 792.78 478.18 761.97 541.28C730.55 605.63 700.37 672.94 697.21 745.6C695.6 782.69 701.83 821.64 723.89 851.51C764.19 906.07 813.32 899.28 860.41 855.14C883.36 833.63 902.33 808.07 926.18 787.56C941.24 774.61 958.65 763.6 978.15 759.84C1024.36 750.95 1068.56 784.69 1095.29 823.42C1122.02 862.15 1138.7 907.74 1169.91 942.96C1192.71 968.69 1228.85 989.53 1264.28 986.04C1305.52 981.98 1325.83 946.8 1355.04 922.46C1384.66 897.78 1432.01 894.83 1465.32 913.05C1486.5 924.64 1502.9 943.5 1523.71 955.76C1571.25 983.76 1639.36 968.48 1670.38 922.86C1697.37 883.17 1696.09 830.03 1719.8 788.29C1751.48 732.53 1818.9 709.87 1880.45 691.86" stroke="#D498C4" stroke-width="57" stroke-miterlimit="10"/>
</svg>
