<svg width="63" height="77" viewBox="0 0 63 77" fill="none" xmlns="http://www.w3.org/2000/svg">
<g clip-path="url(#clip0_786_5140)">
<path d="M19.7951 47.3731C14.9875 42.5114 12.4646 35.2351 14.078 28.5976C15.2258 23.8659 18.3767 19.7188 22.4046 16.9794C26.4326 14.2399 31.3159 12.8756 36.1885 12.6807C39.5018 12.5508 42.9126 12.9622 45.8686 14.4781C49.2469 16.2106 51.8023 19.2965 53.3506 22.7614C56.0468 28.7926 55.7328 35.9822 52.9717 41.9809C50.6762 46.9833 44.7425 54.8877 38.7222 55.4074C32.3229 55.9596 24.1479 51.7801 19.7951 47.384V47.3731Z" fill="#71B5E3"/>
<path d="M55.0509 9.67991C63.9406 20.367 64.0813 32.5484 60.6381 45.0762C56.7942 59.0874 44.6886 62.8122 32.6372 66.7536V71.7019C37.6505 71.7019 42.5339 71.7344 47.4281 71.6802C49.2039 71.6586 51.0879 71.6153 51.1637 73.8891C51.2395 75.9356 49.4421 76.3579 47.8071 76.347C40.6498 76.2712 33.4926 76.0222 26.3246 76.0114C22.6973 75.9897 19.0808 76.2063 15.4751 76.661C13.8726 76.8668 12.6382 76.975 12.2592 75.2534C11.8153 73.2394 13.1687 72.3516 14.9337 72.2C18.5502 71.8968 22.1775 71.7235 25.8049 71.4961C26.4654 71.4528 27.1367 71.3879 27.9921 71.3229V67.2408C18.247 65.5192 13.1904 63.4727 6.65037 58.5136C5.91408 59.6288 5.01536 60.625 3.97589 61.4696C3.07718 62.011 1.7237 61.7727 0.565115 61.8918C0.510976 60.7982 0.0020662 59.4123 0.48932 58.676C1.65873 56.8569 3.10966 55.2435 4.78798 53.8792C6.61789 52.4283 8.46945 53.327 10.0936 54.7238C16.7528 60.4951 24.3431 63.3211 33.157 61.4262C40.1409 60.0186 46.5727 56.662 51.7376 51.757C56.1662 47.4908 57.249 41.568 57.7903 35.8075C58.5916 27.221 57.7362 18.8619 51.2828 12.1595C49.8752 10.9143 49.7344 8.75954 50.9688 7.34109C52.6904 4.95896 54.5528 2.67429 56.5343 0.497887C57.3464 -0.0759896 58.4075 -0.17344 59.3062 0.238018C59.9343 1.01762 60.1075 2.0571 59.7718 2.98829C58.44 5.25132 56.7725 7.31944 55.0726 9.66908L55.0509 9.67991ZM51.965 27.6433C52.3115 15.462 45.3383 10.4595 36.427 7.17868C24.6138 3.03161 11.5879 8.55381 6.37967 19.9339C1.78866 30.177 4.15996 47.8265 16.5362 53.7493C26.7902 58.6543 36.4486 56.4563 44.4396 49.8404C50.7522 44.6214 52.5713 37.3667 51.9758 29.4083C51.9758 28.8236 51.965 28.228 51.9758 27.6433H51.965ZM41.5269 45.9208C35.1385 51.3888 26.8335 53.327 18.6693 49.4615C9.67134 45.2061 6.97521 31.0433 10.3102 22.7491C14.0891 13.2314 24.5055 8.16401 34.3372 11.055C40.2384 12.9283 48.0344 18.5371 47.1141 26.9612C47.0816 27.7408 47.1141 28.5312 47.2115 29.3108C47.5905 35.6235 46.6377 41.5355 41.5269 45.9099V45.9208ZM29.6379 14.2709C28.436 13.8919 27.1367 13.0149 26.0431 13.2206C21.9934 14.0977 18.3986 16.4365 15.9407 19.7823C15.4318 20.432 15.919 21.8721 15.9515 22.9549C17.0126 22.9765 18.0738 22.8249 19.0808 22.4893C22.0259 20.8651 24.8303 18.981 27.7322 17.2702C28.6201 16.8263 29.5296 16.4581 30.4717 16.155C30.1901 15.527 29.8978 14.8989 29.6163 14.2709H29.6379Z" fill="black"/>
</g>
<defs>
<clipPath id="clip0_786_5140">
<rect width="62.4551" height="76.7803" fill="white" transform="translate(0.272461)"/>
</clipPath>
</defs>
</svg>
