<svg width="20" height="18" viewBox="0 0 20 18" fill="none" xmlns="http://www.w3.org/2000/svg">
<path d="M18 10.1C18.6075 10.1 19.1 9.60751 19.1 9C19.1 8.39249 18.6075 7.9 18 7.9L18 10.1ZM1.22218 8.22218C0.792606 8.65176 0.792606 9.34824 1.22218 9.77781L8.22254 16.7782C8.65212 17.2077 9.3486 17.2077 9.77817 16.7782C10.2077 16.3486 10.2078 15.6521 9.77817 15.2225L3.55563 9L9.77818 2.77746C10.2078 2.34788 10.2078 1.6514 9.77818 1.22182C9.3486 0.792247 8.65212 0.792247 8.22254 1.22182L1.22218 8.22218ZM18 7.9L2 7.9L2 10.1L18 10.1L18 7.9Z" fill="#F7F2EC"/>
</svg>
