<svg width="20" height="18" viewBox="0 0 20 18" fill="none" xmlns="http://www.w3.org/2000/svg">
<path d="M2 7.9C1.39249 7.9 0.9 8.39249 0.9 9C0.9 9.60751 1.39249 10.1 2 10.1L2 7.9ZM18.7778 9.77782C19.2074 9.34824 19.2074 8.65176 18.7778 8.22218L11.7775 1.22183C11.3479 0.79225 10.6514 0.792249 10.2218 1.22183C9.79225 1.6514 9.79225 2.34788 10.2218 2.77746L16.4444 9L10.2218 15.2225C9.79225 15.6521 9.79225 16.3486 10.2218 16.7782C10.6514 17.2078 11.3479 17.2078 11.7775 16.7782L18.7778 9.77782ZM2 10.1L18 10.1L18 7.9L2 7.9L2 10.1Z" fill="#F7F2EC"/>
</svg>
