<svg width="20" height="20" viewBox="0 0 20 20" fill="none" xmlns="http://www.w3.org/2000/svg">
<path d="M8.40268 13.9215L4.54541 10.0633L5.83086 8.77787L8.40268 11.3488L13.5445 6.20605L14.8309 7.49242L8.40268 13.9215Z" fill="#8FB181"/>
<path fill-rule="evenodd" clip-rule="evenodd" d="M0 10C0 4.47727 4.47727 0 10 0C15.5227 0 20 4.47727 20 10C20 15.5227 15.5227 20 10 20C4.47727 20 0 15.5227 0 10ZM10 18.1818C8.92555 18.1818 7.86162 17.9702 6.86895 17.559C5.87629 17.1478 4.97433 16.5452 4.21458 15.7854C3.45483 15.0257 2.85216 14.1237 2.44099 13.131C2.02981 12.1384 1.81818 11.0745 1.81818 10C1.81818 8.92555 2.02981 7.86162 2.44099 6.86895C2.85216 5.87629 3.45483 4.97433 4.21458 4.21458C4.97433 3.45483 5.87629 2.85216 6.86895 2.44099C7.86162 2.02981 8.92555 1.81818 10 1.81818C12.17 1.81818 14.251 2.68019 15.7854 4.21458C17.3198 5.74897 18.1818 7.83005 18.1818 10C18.1818 12.17 17.3198 14.251 15.7854 15.7854C14.251 17.3198 12.17 18.1818 10 18.1818Z" fill="#8FB181"/>
</svg>
