<svg width="42" height="44" viewBox="0 0 42 44" fill="none" xmlns="http://www.w3.org/2000/svg">
<g clip-path="url(#clip0_820_1615)">
<path d="M9.25982 5.77477C8.78213 6.07792 8.47898 6.59236 8.23554 7.10679C8.01966 7.5707 7.83134 8.05758 7.79459 8.56742C7.75785 9.07726 7.86809 9.61467 8.19879 10.0051C8.51113 10.3771 8.97045 10.5792 9.43436 10.7262C10.0866 10.9283 10.7664 11.0386 11.4462 11.0477C11.7585 11.0477 12.0892 11.0294 12.3602 10.8686C12.7001 10.6665 12.8884 10.2761 12.9941 9.89485C13.5682 7.83711 11.7953 4.16257 9.26441 5.77477H9.25982Z" fill="#FCB568"/>
<path d="M21.7486 3.80211C21.2709 4.10526 20.9677 4.6197 20.7243 5.13414C20.5084 5.59805 20.3201 6.08492 20.2834 6.59477C20.2466 7.10461 20.3569 7.64201 20.6876 8.03243C20.9999 8.40448 21.4592 8.60658 21.9231 8.75356C22.5754 8.95566 23.2551 9.06589 23.9349 9.07508C24.2473 9.07508 24.578 9.05671 24.849 8.89595C25.1889 8.69385 25.3772 8.30343 25.4828 7.92219C26.057 5.86445 24.284 2.18991 21.7532 3.80211H21.7486Z" fill="#FCB568"/>
<path d="M34.2283 6.03844C33.7506 6.34159 33.4475 6.85603 33.204 7.37046C32.9882 7.83437 32.7998 8.32125 32.7631 8.83109C32.7264 9.34094 32.8366 9.87834 33.1673 10.2688C33.4796 10.6408 33.939 10.8429 34.4029 10.9899C35.0551 11.192 35.7349 11.3022 36.4147 11.3114C36.727 11.3114 37.0577 11.293 37.3287 11.1323C37.6686 10.9302 37.8569 10.5398 37.9626 10.1585C38.5367 8.10078 36.7638 4.42624 34.2329 6.03844H34.2283Z" fill="#FCB568"/>
<path d="M12.8378 38.1212L12.7919 39.6645C12.4887 40.0641 11.8319 39.8528 11.4691 39.5037C11.1062 39.1546 10.7893 38.6815 10.2932 38.5989C9.08979 38.3968 8.83258 40.4453 7.72103 40.946C7.05961 41.2445 6.24662 40.8679 5.82405 40.28C5.40148 39.692 5.27746 38.9388 5.19478 38.2176C4.76762 34.5982 4.95594 30.9374 4.96053 27.295C4.96053 26.9506 4.93756 26.5555 4.66657 26.3397C4.48743 26.1973 4.244 26.1697 4.02352 26.11C3.25187 25.8895 2.70528 25.1592 2.4894 24.383C2.27352 23.6067 2.32405 22.7891 2.37457 21.9853C2.42969 21.154 2.49859 20.2813 2.97169 19.5969C3.91329 18.2281 5.87917 18.2465 7.53271 18.0536C10.1554 17.7412 12.576 16.5424 15.1114 15.8029C19.2361 14.6041 23.7191 14.65 27.8162 15.9453C29.8693 16.5929 32.0878 16.4322 34.2237 16.7078C34.931 16.7996 35.6567 16.8961 36.2952 17.2176C37.1082 17.631 37.6961 18.3797 38.1922 19.1422C40.3785 22.4952 41.2788 26.5693 41.3109 30.5746C41.3155 31.2819 41.2834 32.0306 40.9205 32.6369C40.5576 33.2432 39.7492 33.6474 39.1154 33.3351C39.0327 35.2872 38.9454 37.2439 38.8628 39.196C38.8168 40.28 38.7571 41.4053 38.2427 42.3607C37.7282 43.316 36.6121 44.0418 35.5695 43.7432C34.6646 43.486 34.118 42.5995 33.4612 41.9243C32.8044 41.2491 31.6423 40.7852 30.9717 41.4466C30.6593 41.7544 30.5583 42.2321 30.2414 42.5306C29.5662 43.1737 28.3903 42.6225 27.9172 41.8141C27.4441 41.0057 27.3569 40.0227 26.8975 39.2143C26.1167 40.1192 25.8824 41.713 24.702 41.8922C22.8601 42.1723 22.2125 38.5391 20.3844 38.8928C20.66 39.7472 20.3247 40.7622 19.5944 41.2813C18.8641 41.8003 17.7985 41.7911 17.0773 41.2583C16.471 40.8082 16.1357 40.0595 15.5248 39.6185C14.6108 38.9617 13.954 37.9053 12.847 38.1212H12.8378Z" fill="#FCB568"/>
<path d="M18.9883 10.577C19.9988 11.0822 21.193 11.2659 22.2953 10.8985C23.4436 10.4851 24.3163 9.65833 25.0053 8.69376C26.3373 6.7187 26.8885 3.825 25.3268 1.804C24.4541 0.655704 23.1221 0.150454 21.6982 0.191793C21.0093 0.191793 20.2744 0.329588 19.6313 0.559247C18.8505 0.788906 18.2534 1.01856 17.9318 1.84534V2.02906C17.2888 2.8099 16.8295 3.77447 16.5998 4.60124C15.9108 6.8519 16.8295 9.42408 18.9883 10.5724V10.577ZM18.3452 5.84599C18.3911 4.88143 18.6667 3.96279 19.1261 3.18195C19.3098 2.90636 19.4935 2.53891 19.7232 2.26332C20.1366 2.12552 20.5959 1.98772 21.0093 1.94179C21.7901 1.804 22.7087 1.89586 23.3977 2.35518C24.8675 3.36568 24.4541 5.34074 23.8111 6.67276C23.4436 7.40767 22.9843 8.14258 22.3413 8.64783C21.7901 9.06122 21.1471 9.15308 20.5959 9.01528C19.1261 8.69376 18.2993 7.36174 18.3452 5.84599ZM29.6444 21.0494C29.6904 19.4418 29.8282 17.7882 29.231 16.2725C28.0368 13.3329 24.4541 13.0113 21.7442 12.8276C18.6208 12.6439 15.1759 13.2869 13.2468 15.9969C12.3282 17.3289 12.0526 19.0284 12.0066 20.636C12.0066 21.5087 12.0985 22.3814 12.1444 23.2541C12.0526 24.4943 12.1444 25.7344 12.466 26.9287C12.7415 27.8932 13.109 28.9956 14.1195 29.3631C14.5788 29.5468 15.1759 29.5008 15.5893 29.2253C15.5893 29.5468 15.5434 29.8224 15.5434 30.1439C15.4515 33.3591 15.3597 36.5284 15.4515 39.6977C15.5434 41.535 16.2324 44.0612 18.5749 43.7397C20.3203 43.4641 21.0093 42.0402 21.3308 40.4326C21.5145 40.9838 21.7442 41.535 22.1116 41.9943C23.7652 44.0612 26.1536 42.3617 26.4292 40.2029C26.6129 38.5953 26.4292 36.8959 26.4292 35.2883C26.3833 33.5888 26.3833 31.8893 26.3373 30.2358C26.3373 29.7305 26.3373 29.2253 26.2914 28.6741C26.567 28.9037 26.8885 28.9956 27.21 29.0415C28.6339 29.1334 29.231 27.8014 29.3688 26.5612C29.5985 24.7699 29.5526 22.8867 29.6444 21.0494ZM28.1746 20.8657C28.1287 22.4733 28.0828 24.0809 27.9909 25.6885C27.9909 26.1938 28.0828 27.1583 27.6234 27.5258C27.3019 27.7554 26.8885 27.4799 26.6129 27.2502C26.5211 27.1583 26.3833 27.1583 26.2914 27.2043C26.2914 26.5153 26.2914 25.8722 26.2455 25.1833C26.1995 23.6216 26.4751 21.8302 25.7862 20.4064C25.6943 20.2686 25.4187 20.2226 25.3728 20.4064C24.9135 21.5087 25.0053 22.7029 25.0513 23.8512C25.0972 25.1833 25.0972 26.5612 25.1431 27.9392C25.1891 30.6032 25.235 33.2673 25.2809 35.9313C25.2809 37.1715 25.3728 38.4575 25.3268 39.6977C25.2809 40.4326 25.1431 41.3512 24.4541 41.7187C23.7652 42.0862 23.214 41.5809 22.8465 41.0297C22.1576 39.9733 21.836 38.6872 21.6523 37.4011C21.7442 35.7016 21.836 34.0481 21.882 32.3486C21.882 30.8329 22.1116 28.7659 21.3308 27.388C21.2389 27.2502 21.0093 27.2502 20.9174 27.388C20.3203 28.6741 20.504 30.3736 20.504 31.7515C20.504 33.451 20.4581 35.1045 20.3662 36.804C20.2744 38.2738 20.4121 40.2948 19.6313 41.5809C19.172 42.3158 18.1615 42.867 17.4266 42.1321C17.0132 41.7187 16.8754 41.0297 16.7835 40.4785C16.5539 39.0087 16.6457 37.4011 16.5998 35.8854C16.5539 34.2318 16.5998 32.5323 16.5998 30.8788C16.6457 29.2253 16.6917 27.5717 16.7376 25.8722C16.7835 24.1728 16.9673 22.3814 16.8295 20.6819C16.8295 20.4523 16.5079 20.4064 16.4161 20.636C16.0486 22.0599 15.9568 23.6216 15.819 25.0914C15.7271 26.056 15.6812 26.9746 15.6352 27.9392C15.4056 28.031 15.2678 28.2148 15.0381 28.3066C14.7166 28.4444 14.441 28.2148 14.2573 27.9851C13.7061 27.2502 13.5224 26.1938 13.4305 25.3211C13.6142 24.4484 13.4764 23.4379 13.4305 22.6111V22.2436C13.4305 21.8762 13.4305 21.5087 13.3846 21.1413C13.3846 20.4064 13.4305 19.6255 13.5683 18.9365C14.0276 16.5481 15.6812 14.9864 17.9778 14.4352C19.3557 14.1137 20.7337 14.1137 22.1116 14.2056C23.3058 14.2974 24.5001 14.4352 25.6484 14.8027C28.4502 15.7673 28.2665 18.4772 28.1746 20.8657ZM6.49482 12.8736C7.45939 13.3788 8.56175 13.5625 9.61818 13.1951C10.7205 12.8276 11.5473 12.0468 12.1904 11.0822C13.4765 9.19901 13.9358 6.53497 12.466 4.60583C11.6392 3.5494 10.3531 3.04415 9.067 3.04415C8.42396 3.04415 7.73498 3.18195 7.09194 3.36568C6.35703 3.59534 5.71398 3.82499 5.48432 4.60583V4.6977C4.84128 5.38667 4.42789 6.30531 4.19824 7.17801C3.60112 9.33681 4.47383 11.8171 6.49482 12.8736ZM6.72448 5.98379C6.86228 5.75413 7.046 5.43261 7.22973 5.15702C7.64312 5.06515 8.0565 4.88143 8.42396 4.83549C9.15886 4.74363 9.98564 4.78956 10.5828 5.20295C11.9148 6.12158 11.5014 7.91292 10.9043 9.15308C10.5827 9.84206 10.1694 10.531 9.52632 10.9903C9.02107 11.3578 8.46989 11.4497 7.96464 11.3578C6.67855 11.0363 5.89771 9.88799 5.94364 8.4641C6.03551 7.5914 6.26516 6.7187 6.72448 5.98379ZM13.0631 41.2594C13.3387 42.3158 11.9607 43.1426 11.0421 43.0507C10.0775 43.0048 9.38852 42.2239 8.97514 41.3972C8.88328 41.2134 8.83734 41.0297 8.74548 40.8919C8.51582 41.9024 8.10244 42.8211 7.22973 43.3722C6.26516 44.0153 4.97908 43.9694 4.19824 43.0967C3.4174 42.2699 3.2796 40.9838 3.23367 39.8814C3.18774 37.9523 3.18774 35.9772 3.23367 34.0481C3.2796 32.8079 3.32553 31.5678 3.37146 30.3736C3.00401 30.6032 2.45283 30.6491 2.03944 30.4654C1.07488 30.098 0.707422 29.0875 0.477763 28.1688C0.202172 27.2043 0.15624 26.2856 0.15624 25.2751C0.0184451 24.1268 -0.0274866 22.9785 0.0184451 21.8762C0.110309 20.3145 0.477763 18.7528 1.44233 17.5127C2.4069 16.3184 3.83078 15.5376 5.34653 15.1701C6.21923 14.9405 7.13787 14.8945 8.01057 14.8945C8.51582 14.8945 8.97514 14.8945 9.48039 14.9405C9.9397 14.9864 10.445 14.9864 10.8583 15.2161C11.3636 15.4917 11.2258 16.2266 10.7205 16.3644C10.3072 16.5022 9.84784 16.4103 9.38852 16.3644C8.97514 16.3184 8.56175 16.3184 8.14837 16.3184C7.32159 16.3184 6.54076 16.3644 5.75992 16.5481C4.51976 16.8696 3.23367 17.5127 2.45283 18.5691C1.53419 19.8092 1.3964 21.2791 1.44233 22.7489C1.48826 23.0704 1.48826 23.346 1.48826 23.6675V23.8512C1.53419 24.8158 1.58012 25.8263 1.48826 26.699C1.67199 27.8473 2.22317 30.2358 3.32553 29.1334C3.37146 29.0875 3.4174 29.0415 3.50926 29.0415C3.50926 28.7659 3.55519 28.4444 3.55519 28.1688C3.69299 26.2397 3.78485 24.1728 4.24417 22.2896C4.2901 22.0599 4.61162 22.1058 4.65755 22.3355C4.79535 23.9431 4.65755 25.5966 4.61162 27.2043C4.56569 28.7659 4.47383 30.3276 4.47383 31.8893C4.42789 33.451 4.42789 35.0127 4.47383 36.5743C4.47383 37.9523 4.38196 39.468 4.65755 40.846C4.74942 41.3512 4.88721 42.0862 5.39246 42.4077C6.08144 42.8211 6.81635 42.3158 7.1838 41.7187C7.96464 40.4785 7.82684 38.5494 7.87278 37.1255C7.91871 36.6203 7.91871 36.0691 7.91871 35.5638V35.1045C7.96464 34.2318 7.96464 33.3591 7.96464 32.4864C7.96464 31.2463 7.82684 29.6846 8.37803 28.4903C8.46989 28.3526 8.69955 28.3526 8.79141 28.4903C9.66411 30.0061 9.34259 32.3486 9.29666 34.0022C9.25073 35.1045 9.2048 36.2528 9.15886 37.3552C9.29666 38.3197 9.52632 39.2843 9.80191 40.2029C9.98564 40.8001 10.3072 41.5809 10.9043 41.8106C11.1799 41.9484 11.5014 41.8106 11.731 41.6268C12.0526 41.3972 12.1904 41.1216 12.6037 40.9379C12.7875 40.8919 13.0171 41.0757 13.0631 41.2594ZM34.651 13.1951C36.8098 12.5061 38.1418 10.3473 37.9121 8.09665C37.8203 7.04022 37.2691 5.7082 36.4423 4.6977V4.60583C36.2586 3.91686 35.7534 3.6872 35.1562 3.45754C34.5591 3.27381 33.9161 3.13602 33.319 3.04415C32.1707 2.95229 30.9764 3.22788 30.1037 3.96279C28.1746 5.52447 28.3583 8.41817 29.4148 10.3932C30.3793 12.3683 32.3544 13.93 34.651 13.1951ZM30.9765 5.52447C31.5276 4.88143 32.4003 4.74363 33.2271 4.78956C33.7324 4.83549 34.1917 5.01922 34.6969 5.15702C34.8347 5.34074 34.9266 5.52447 35.0644 5.7082C35.4778 6.35124 35.7993 7.08615 35.8911 7.86699C36.1208 9.33681 35.6156 10.6229 34.3295 11.22C33.8702 11.4497 33.273 11.4497 32.7678 11.22C32.1247 10.9444 31.6654 10.3473 31.3439 9.75019C30.5631 8.51003 29.8741 6.76463 30.9765 5.52447ZM41.8163 25.2292C41.8623 26.1938 41.7704 27.1583 41.4948 28.1229C41.2652 29.0415 40.8518 30.1439 39.8413 30.4654C39.4279 30.6032 38.9226 30.5573 38.5552 30.3276C38.6011 31.5678 38.6471 32.8079 38.693 34.0022C38.7389 35.9313 38.7848 37.9064 38.693 39.8355C38.6471 40.9379 38.5093 42.2239 37.7284 43.0507C36.9016 43.9234 35.6615 43.9694 34.6969 43.3263C33.7783 42.7751 33.3649 41.8106 33.1812 40.846C33.1352 41.0297 33.0434 41.2134 32.9515 41.3512C32.5381 42.178 31.8492 42.9589 30.8387 43.0048C29.92 43.0507 28.588 42.2239 28.8636 41.2134C28.9095 41.0297 29.1392 40.846 29.3229 40.9379C29.5066 41.0297 29.6904 41.0757 29.8282 41.2594C29.966 41.3972 30.0578 41.535 30.1956 41.6728C30.4253 41.8565 30.7468 41.9484 31.0224 41.8106C31.6195 41.5809 31.941 40.8001 32.1247 40.2029C32.4463 39.2843 32.63 38.3197 32.7678 37.3552C32.7219 36.2528 32.63 35.1045 32.63 34.0022C32.5841 32.3027 32.2625 29.9602 33.1352 28.4903C33.2271 28.3526 33.4568 28.3526 33.5486 28.4903C34.1457 29.6846 33.962 31.3381 33.962 32.6701C33.962 33.451 33.962 34.2778 34.0079 35.0586C34.0079 35.2423 34.0539 35.3801 34.0539 35.5638C34.0539 36.161 34.0998 36.7121 34.1457 37.3092C34.2376 38.6872 34.0539 40.7082 34.9266 41.8565C35.34 42.4077 36.1208 42.7751 36.7179 42.2699C37.1313 41.9024 37.2691 41.3053 37.361 40.8001C37.5906 39.3762 37.4988 37.8145 37.5447 36.3447V31.6596C37.4988 30.098 37.4528 28.5363 37.4069 26.9746C37.361 25.4589 37.2232 23.8512 37.361 22.2896C37.361 22.0599 37.6825 22.014 37.7743 22.2436C38.2796 24.1268 38.3715 26.1938 38.4633 28.1229C38.4633 28.3985 38.5093 28.72 38.5093 28.9956C38.5552 28.9956 38.6471 29.0415 38.693 29.0875C39.7953 30.2358 40.3465 27.8014 40.5303 26.6531C40.4384 25.7344 40.4843 24.7699 40.5303 23.8053V23.5297C40.5303 23.2541 40.5303 22.9326 40.5762 22.657C40.5762 21.1872 40.4384 19.7174 39.5657 18.5232C38.7848 17.4667 37.5447 16.8237 36.2586 16.5022C35.4318 16.3184 34.6051 16.2266 33.7783 16.2725C33.3649 16.2725 32.9515 16.3184 32.5381 16.3184C32.1247 16.3644 31.7114 16.4562 31.3439 16.3184C30.8387 16.1806 30.7009 15.4457 31.2061 15.1701C31.6195 14.9405 32.0788 14.9405 32.5841 14.8945C33.0893 14.8486 33.5486 14.8486 34.0539 14.8486C34.9725 14.8486 35.9371 14.9405 36.8098 15.1701C38.2337 15.5376 39.6576 16.3184 40.5762 17.4667C41.5867 18.7069 41.9541 20.3145 42.0001 21.9221C41.9541 23.0245 41.9082 24.1268 41.8163 25.2292Z" fill="black"/>
</g>
<defs>
<clipPath id="clip0_820_1615">
<rect width="42" height="43.6168" fill="white" transform="translate(0 0.193359)"/>
</clipPath>
</defs>
</svg>
