<svg width="42" height="40" viewBox="0 0 42 40" fill="none" xmlns="http://www.w3.org/2000/svg">
<g clip-path="url(#clip0_820_1626)">
<path d="M27.9274 23.4643C28.7078 22.3075 29.661 21.0751 31.0354 20.8438C31.0354 22.6901 30.7073 24.5365 30.0689 26.2672C31.8911 24.9725 33.8065 23.6378 36.0144 23.3219C36.6883 23.2285 37.3933 23.2329 38.0362 23.4554C39.5081 23.9715 40.4082 25.6088 40.3683 27.1749C40.3284 28.741 39.4948 30.2003 38.3864 31.3081C37.278 32.416 35.9213 33.2212 34.5691 34.0087C32.4187 35.2634 23.1746 40.9449 21.3169 37.2255C20.408 35.4058 22.8154 32.1712 23.6357 30.6229C24.9392 28.1626 26.3712 25.7689 27.923 23.4598L27.9274 23.4643Z" fill="#71B5E3"/>
<path d="M4.38938 12.5895C4.24751 11.5395 4.22534 10.2448 5.12537 9.69307C6.14068 9.07019 7.40427 9.94222 8.21563 10.8143C9.78071 12.5005 11.1019 14.4092 12.135 16.4691C12.9242 14.2445 13.9528 12.0823 15.4558 10.2626C16.9588 8.44286 18.9584 6.988 21.2461 6.43186C21.6851 6.32508 22.1861 6.26279 22.5541 6.52529C22.8689 6.74774 22.9974 7.14817 23.0861 7.52634C23.9152 10.9922 23.0861 14.6361 21.9112 17.9996C19.7786 24.1083 16.5332 29.772 13.0128 35.1955C12.5207 35.9563 10.8315 38.8794 9.55016 38.4211C8.63239 38.0919 8.88511 35.9608 8.86737 35.2356C8.74323 30.6174 6.9476 26.2661 5.98993 21.7725C5.34262 18.7337 4.81945 15.6683 4.39825 12.5895H4.38938Z" fill="#71B5E3"/>
<path d="M13.6246 10.5298C14.7774 7.5489 16.1075 5.05738 18.0139 2.83282C18.7233 2.03197 19.5214 1.32011 20.4968 0.875198C22.1372 0.118845 24.4871 1.27562 25.2851 3.05527C26.2162 5.19086 25.8615 7.32644 25.3295 9.37305C23.955 14.6675 21.5609 19.5171 18.812 24.1887C17.3489 26.6802 15.3981 28.9048 13.6689 31.2183C12.1172 33.3094 10.388 35.267 9.50131 37.7585C9.27963 38.3814 8.70325 38.8263 8.03821 38.7818C7.19581 38.7818 7.5505 37.981 7.41749 37.5361C7.10714 36.2903 6.88546 35.0001 6.35342 33.8878C4.2696 29.4386 2.98384 24.7226 1.78675 20.0065C0.944361 16.6696 -0.119716 13.2883 0.0132934 9.72898C0.101966 7.59339 0.545332 5.5023 1.38773 3.58917C2.31879 1.49808 4.13659 0.252319 6.44209 0.474775C9.05795 0.741724 10.5654 2.83282 11.4965 5.05738C12.1615 6.79255 13.0482 8.43873 13.6246 10.5298ZM8.74759 34.1547C9.94468 32.731 11.0974 31.4408 12.1615 30.017C16.3735 24.4556 20.7628 18.9832 22.6249 11.9535C23.3343 9.19508 23.7333 6.5256 23.1126 3.72264C22.8909 2.69934 22.4032 2.3879 21.3392 2.78833C18.8563 3.76714 17.4376 5.76925 16.3735 8.0383C15.2207 10.4853 14.733 13.1548 14.5113 15.8688C14.467 16.5362 14.334 17.2925 13.5803 17.337C12.8709 17.3815 12.7822 16.7141 12.6492 16.0912C12.5605 15.6018 12.4719 15.1569 12.4275 14.623C12.1615 11.1082 11.3191 7.72687 9.23529 4.87942C8.34856 3.63366 7.15147 2.29892 5.55536 2.56587C3.7819 2.87731 2.71782 4.30103 2.31879 6.12518C1.16604 10.7523 2.40747 15.2014 3.2942 19.5616C4.31394 24.5891 6.48643 29.3497 8.74759 34.1547Z" fill="black"/>
<path d="M34.3297 21.919C35.6155 21.4741 36.7239 21.6076 37.788 21.5631C39.4284 21.5186 41.1132 21.9635 41.6453 23.4317C42.266 25.0334 42.133 26.9466 40.8029 28.4148C39.0737 30.3724 36.8126 31.6182 34.4627 32.5525C30.2951 34.2876 26.1275 35.9338 22.3145 38.3363C22.0929 38.4698 21.8712 38.5588 21.6938 38.6923C21.2061 39.1817 20.7628 39.849 19.9647 39.4041C19.211 38.9592 19.5657 38.1139 19.6543 37.5355C19.9647 35.8893 20.4081 34.2431 20.9401 32.597C21.8268 29.794 22.6692 26.9911 23.822 24.3216C25.2851 20.9847 27.1472 17.8703 30.7385 16.3131C31.8469 15.8237 32.9553 15.7347 33.7977 16.4021C34.9061 17.2474 35.3938 18.5377 34.9948 19.9614C34.8174 20.5398 34.5958 21.0737 34.3297 21.919ZM21.5608 36.4232C22.0485 36.2453 22.4032 36.1563 22.6692 35.9783C25.9945 34.1542 29.4971 32.7304 33.044 31.3067C35.7485 30.2389 38.2313 28.7262 39.6501 25.9678C40.3595 24.544 40.1822 23.8767 38.6747 23.3873C36.7682 22.8089 35.1721 23.5207 33.709 24.722C32.1129 26.0567 30.9602 27.7474 29.7187 29.3936C29.364 29.8385 28.9207 29.972 28.433 29.8385C28.1226 29.7495 27.8566 29.4381 27.9453 29.1711C28.3 28.3703 28.0339 27.436 28.8763 26.6796C31.0045 24.6775 32.778 22.4084 32.911 19.2496C32.911 18.8046 33.0883 18.3152 32.6006 18.0483C32.1572 17.7813 31.8026 17.9593 31.3592 18.1818C29.231 19.3385 27.5019 20.8957 26.1718 22.8978C24.7974 24.9444 24.2653 27.347 23.4229 29.616C22.6249 31.7961 22.1372 34.0207 21.5608 36.4232Z" fill="black"/>
</g>
<defs>
<clipPath id="clip0_820_1626">
<rect width="42" height="39.1034" fill="white" transform="translate(0 0.449219)"/>
</clipPath>
</defs>
</svg>
