<svg width="138" height="142" viewBox="0 0 138 142" fill="none" xmlns="http://www.w3.org/2000/svg">
<g clip-path="url(#clip0_794_6699)">
<path d="M14.5585 56.0962C9.954 65.2171 5.48364 74.7106 4.60447 84.8897C4.35115 87.8406 4.42566 90.9107 5.63265 93.6231C6.83965 96.3355 9.38775 98.5859 12.3531 98.735C13.0833 98.7648 13.8879 98.7052 14.4393 99.1672C14.9161 99.5547 15.0651 100.225 15.1694 100.836C15.4972 102.819 15.6761 104.816 15.7059 106.828C15.7953 112.118 15.6612 117.96 15.4972 123.251C15.3333 128.542 15.7506 134.086 18.4626 138.631C19.7143 140.733 22.1283 142.73 24.3784 141.761C25.0936 141.448 25.6748 140.867 26.1665 140.256C28.1186 137.871 29.2809 134.846 29.4001 131.761C30.2792 131.91 30.6369 132.968 31.1882 133.669C32.574 135.397 35.5543 134.861 36.9848 133.162C38.4153 131.463 38.6984 129.108 38.8325 126.902C39.3541 119.033 38.907 111.105 37.5212 103.34C36.0013 94.8452 38.4004 86.2459 37.9087 77.6317C37.7447 74.8 37.5212 71.9088 36.4781 69.256C34.7049 64.7104 30.771 61.3869 26.8818 58.4212C25.0489 57.0351 23.1565 55.664 20.9511 54.9934C18.7457 54.3227 15.5718 54.0395 14.5436 56.0962H14.5585Z" fill="#2DB1B4"/>
<path d="M91.0016 54.294C87.8276 50.9408 83.2977 49.1374 78.723 48.4817C74.1483 47.8259 69.4992 48.273 64.9245 48.8394C62.0933 49.197 59.1875 49.6292 56.7288 51.0898C54.2999 52.5205 52.5118 54.8454 51.0515 57.2598C47.5795 62.9976 45.6125 69.6148 45.3592 76.3213C45.2996 77.8117 45.3592 79.3616 46 80.7029C47.505 83.7879 51.5581 84.6076 53.8529 87.171C55.6858 89.2277 56.1626 92.1488 56.3861 94.9059C57.31 106.262 55.4026 117.678 55.7901 129.079C55.8497 130.808 56.2371 132.597 57.31 133.953C58.3829 135.309 60.1561 136.144 61.8698 135.935C63.8814 135.682 65.4907 134.147 66.7722 132.567C69.0372 129.81 70.8701 126.71 72.1814 123.401C72.3006 123.088 72.4496 122.746 72.7625 122.597C73.2692 122.358 73.8205 122.82 74.1632 123.252C75.0722 124.4 75.7726 125.711 76.8157 126.755C77.8587 127.798 79.3638 128.528 80.7645 128.126C81.897 127.798 82.7165 126.829 83.3275 125.831C87.47 119.169 85.6819 110.495 87.5296 102.879C88.9154 97.1712 92.3427 92.1637 94.0861 86.56C96.4852 78.8847 95.6061 70.5686 94.0861 62.6698C93.9222 61.7756 93.3709 60.6429 92.4917 60.8664" fill="#2DB1B4"/>
<path d="M106.052 24.2769C105.217 27.8388 105.381 31.982 108.511 34.4858C111.67 37.0194 117.138 36.8107 120.417 34.3964C123.695 31.982 124.753 27.8537 123.546 24.3365C122.533 21.4006 119.031 16.7358 114.963 16.4228C109.703 16.0204 106.886 20.6852 106.037 24.2769H106.052Z" fill="#2DB1B4"/>
<path d="M65.5355 15.6187C64.701 19.1806 64.8649 23.3238 67.9942 25.8276C71.1532 28.3612 76.622 28.1525 79.9002 25.7382C83.1785 23.3238 84.2365 19.1955 83.0295 15.6783C82.0162 12.7423 78.5144 8.07757 74.4464 7.7646C69.1863 7.36221 66.3699 12.027 65.5206 15.6187H65.5355Z" fill="#2DB1B4"/>
<path d="M24.5125 23.5484C23.678 27.1103 23.8419 31.2535 26.9712 33.7573C30.1302 36.2908 35.599 36.0822 38.8772 33.6678C42.1555 31.2535 43.2135 27.1252 42.0065 23.608C40.9932 20.672 37.4914 16.0073 33.4234 15.6943C28.1633 15.2919 25.3469 19.9567 24.4976 23.5484H24.5125Z" fill="#2DB1B4"/>
<path d="M128.642 128.036C127.748 130.495 125.319 132.612 122.726 132.284C120.059 131.941 118.36 129.393 116.796 127.217C115.231 125.041 112.802 122.82 110.209 123.536C107.78 124.206 106.603 127.157 104.234 127.992C101.82 128.841 99.1228 127.053 98.0648 124.728C97.0068 122.403 97.1558 119.72 97.3197 117.172C98.1989 104.101 99.0632 91.0311 99.9423 77.9608C100.211 74.0263 100.464 70.0918 100.732 66.1573C100.836 64.5477 100.956 62.8785 101.671 61.418C102.55 59.6445 104.204 58.3926 105.962 57.4686C113.249 53.6235 122.935 55.084 128.791 60.8815C133.768 65.8145 135.705 72.998 137.091 79.8685C138.477 86.7091 139.028 95.0253 133.619 99.4516C132.323 100.51 130.713 101.315 129.909 102.775C129.313 103.848 129.253 105.13 129.208 106.367C128.925 113.61 128.672 120.942 128.672 128.051L128.642 128.036Z" fill="#2DB1B4"/>
<path d="M61.6017 33.6965C64.8799 35.3358 68.7543 35.932 72.3305 34.7397C76.0558 33.3984 78.8871 30.7158 81.1222 27.5861C85.4436 21.1776 87.2317 11.7884 82.1653 5.23089C79.3341 1.50503 75.0128 -0.134352 70.3934 -0.000221069C68.1582 -0.000221069 65.774 0.446882 63.6879 1.19205C61.1546 1.93723 59.2175 2.6824 58.1744 5.36502V5.96116C56.0882 8.49474 54.5981 11.6245 53.8531 14.3071C51.6179 21.6098 54.5981 29.9557 61.6017 33.6816V33.6965ZM59.5155 18.3459C59.6645 15.2162 60.5586 12.2355 62.0487 9.70192C62.6448 8.80771 63.2408 7.61544 63.9859 6.72123C65.327 6.27413 66.8171 5.82702 68.1582 5.67799C70.6914 5.23089 73.6716 5.52896 75.9068 7.0193C80.6752 10.2981 79.3341 16.7065 77.2479 21.0285C76.0558 23.4131 74.5657 25.7976 72.4796 27.437C70.6914 28.7783 68.6052 29.0764 66.8171 28.6293C62.0487 27.5861 59.3665 23.2641 59.5155 18.3459ZM96.1725 67.6763C96.3215 62.4601 96.7685 57.0949 94.8314 52.1767C90.957 42.6385 79.3341 41.5953 70.5424 40.9992C60.4096 40.403 49.2337 42.4895 42.9752 51.2825C39.9949 55.6045 39.1009 61.1188 38.9519 66.335C38.9519 69.1667 39.2499 71.9983 39.3989 74.83C39.1009 78.8539 39.3989 82.8778 40.442 86.7527C41.336 89.8824 42.5281 93.4593 45.8064 94.6515C47.2965 95.2477 49.2337 95.0986 50.5748 94.2044C50.5748 95.2477 50.4258 96.1419 50.4258 97.1851C50.1278 107.618 49.8297 117.901 50.1278 128.184C50.4258 134.146 52.661 142.343 60.2606 141.299C65.923 140.405 68.1582 135.785 69.2013 130.569C69.7973 132.357 70.5424 134.146 71.7345 135.636C77.0989 142.343 84.8475 136.828 85.7416 129.824C86.3377 124.607 85.7416 119.093 85.7416 113.877C85.5926 108.363 85.5926 102.848 85.4436 97.4832C85.4436 95.8438 85.4436 94.2044 85.2946 92.416C86.1887 93.1612 87.2317 93.4593 88.2748 93.6083C92.8942 93.9064 94.8314 89.5844 95.2784 85.5604C96.0234 79.7481 95.8744 73.6377 96.1725 67.6763ZM91.4041 67.0802C91.2551 72.2964 91.1061 77.5126 90.808 82.7288C90.808 84.3682 91.1061 87.4979 89.6159 88.6902C88.5729 89.4353 87.2317 88.5411 86.3377 87.796C86.0396 87.4979 85.5926 87.4979 85.2946 87.6469C85.2946 85.4114 85.2946 83.3249 85.1456 81.0894C84.9966 76.0222 85.8906 70.2099 83.6555 65.5898C83.3574 65.1427 82.4634 64.9937 82.3143 65.5898C80.8242 69.1667 81.1223 73.0415 81.2713 76.7674C81.4203 81.0894 81.4203 85.5604 81.5693 90.0315C81.7183 98.6755 81.8673 107.319 82.0163 115.963C82.0163 119.987 82.3143 124.16 82.1653 128.184C82.0163 130.569 81.5693 133.55 79.3341 134.742C77.0989 135.934 75.3108 134.295 74.1187 132.506C71.8835 129.079 70.8404 124.906 70.2444 120.733C70.5424 115.218 70.8404 109.853 70.9894 104.339C70.9894 99.4207 71.7345 92.7141 69.2013 88.2431C68.9033 87.796 68.1582 87.796 67.8602 88.2431C65.923 92.416 66.5191 97.9303 66.5191 102.401C66.5191 107.916 66.3701 113.281 66.072 118.795C65.774 123.564 66.2211 130.122 63.6879 134.295C62.1977 136.679 58.9195 138.468 56.5353 136.083C55.1942 134.742 54.7471 132.506 54.4491 130.718C53.704 125.949 54.0021 120.733 53.8531 115.814C53.704 110.449 53.8531 104.935 53.8531 99.5697C54.0021 94.2044 54.1511 88.8392 54.3001 83.3249C54.4491 77.8107 55.0452 71.9983 54.5981 66.484C54.5981 65.7389 53.555 65.5898 53.257 66.335C52.0649 70.9551 51.7669 76.0222 51.3199 80.7913C51.0218 83.9211 50.8728 86.9018 50.7238 90.0315C49.9787 90.3295 49.5317 90.9257 48.7867 91.2237C47.7436 91.6709 46.8495 90.9257 46.2534 90.1805C44.4653 87.796 43.8693 84.3682 43.5712 81.5365C44.1673 78.7049 43.7202 75.4261 43.5712 72.7435V71.5512C43.5712 70.3589 43.5712 69.1667 43.4222 67.9744C43.4222 65.5898 43.5712 63.0562 44.0183 60.8207C45.5084 53.0709 50.8728 48.0038 58.3234 46.2154C62.7938 45.1721 67.2641 45.1721 71.7345 45.4702C75.6088 45.7683 79.4831 46.2154 83.2084 47.4076C92.2981 50.5374 91.7021 59.3304 91.4041 67.0802ZM21.0704 41.1482C24.1997 42.7876 27.776 43.3837 31.2032 42.1914C34.7795 40.9991 37.4617 38.4656 39.5479 35.3358C43.7202 29.2254 45.2104 20.5814 40.442 14.322C37.7598 10.8942 33.5874 9.25482 29.4151 9.25482C27.3289 9.25482 25.0937 9.70192 23.0076 10.2981C20.6234 11.0432 18.5372 11.7884 17.7922 14.322V14.6201C15.706 16.8556 14.3649 19.8363 13.6198 22.6679C11.6827 29.6725 14.5139 37.7204 21.0704 41.1482ZM21.8155 18.793C22.2625 18.0478 22.8586 17.0046 23.4546 16.1104C24.7957 15.8123 26.1368 15.2162 27.3289 15.0672C29.7131 14.7691 32.3953 14.9181 34.3325 16.2594C38.6538 19.2401 37.3127 25.0525 35.3756 29.0764C34.3325 31.3119 32.9914 33.5474 30.9052 35.0378C29.2661 36.23 27.4779 36.5281 25.8388 36.23C21.6665 35.1868 19.1333 31.4609 19.2823 26.8409C19.5803 24.0092 20.3254 21.1776 21.8155 18.793ZM42.3791 133.251C43.2732 136.679 38.8028 139.362 35.8226 139.064C32.6934 138.915 30.4582 136.381 29.1171 133.699C28.819 133.102 28.67 132.506 28.372 132.059C27.6269 135.338 26.2858 138.319 23.4546 140.107C20.3254 142.194 16.153 142.045 13.6198 139.213C11.0866 136.53 10.6396 132.357 10.4906 128.78C10.3416 122.521 10.3416 116.113 10.4906 109.853C10.6396 105.829 10.7886 101.805 10.9376 97.9303C9.7455 98.6755 7.95736 98.8245 6.61625 98.2284C3.487 97.0361 2.2949 93.7573 1.54984 90.7766C0.655773 87.6469 0.506761 84.6662 0.506761 81.3875C0.0597247 77.6616 -0.0892873 73.9358 0.0597247 70.3589C0.357749 65.2918 1.54984 60.2246 4.6791 56.2007C7.80835 52.3258 12.4277 49.7922 17.3451 48.5999C20.1763 47.8547 23.1566 47.7057 25.9878 47.7057C27.6269 47.7057 29.1171 47.7057 30.7562 47.8547C32.2463 48.0038 33.8854 48.0038 35.2266 48.7489C36.8657 49.6431 36.4187 52.0277 34.7795 52.4748C33.4384 52.9219 31.9483 52.6238 30.4582 52.4748C29.1171 52.3258 27.776 52.3258 26.4348 52.3258C23.7526 52.3258 21.2194 52.4748 18.6862 53.0709C14.6629 54.1142 10.4906 56.2007 7.95736 59.6284C4.97712 63.6524 4.53008 68.4215 4.6791 73.1906C4.82811 74.2338 4.82811 75.128 4.82811 76.1713V76.7674C4.97712 79.8971 5.12613 83.1759 4.82811 86.0075C5.42416 89.7334 7.2123 97.4832 10.7886 93.9064C10.9376 93.7573 11.0866 93.6083 11.3846 93.6083C11.3846 92.7141 11.5336 91.6709 11.5336 90.7766C11.9807 84.5172 12.2787 77.8107 13.7688 71.7002C13.9178 70.9551 14.9609 71.1041 15.1099 71.8493C15.557 77.0655 15.1099 82.4307 14.9609 87.6469C14.8119 92.7141 14.5139 97.7813 14.5139 102.848C14.3649 107.916 14.3649 112.983 14.5139 118.05C14.5139 122.521 14.2159 127.439 15.1099 131.91C15.408 133.55 15.855 135.934 17.4941 136.977C19.7293 138.319 22.1135 136.679 23.3056 134.742C25.8388 130.718 25.3918 124.458 25.5408 119.838C25.6898 118.199 25.6898 116.411 25.6898 114.771V113.281C25.8388 110.449 25.8388 107.618 25.8388 104.786C25.8388 100.762 25.3918 95.6948 27.1799 91.8199C27.4779 91.3728 28.223 91.3728 28.521 91.8199C31.3522 96.738 30.3092 104.339 30.1601 109.704C30.0111 113.281 29.8621 117.007 29.7131 120.584C30.1601 123.713 30.9052 126.843 31.7993 129.824C32.3953 131.761 33.4384 134.295 35.3756 135.04C36.2696 135.487 37.3127 135.04 38.0578 134.444C39.1009 133.699 39.5479 132.804 40.889 132.208C41.4851 132.059 42.2301 132.655 42.3791 133.251ZM112.415 42.1914C119.418 39.9559 123.74 32.9513 122.995 25.6486C122.697 22.2208 120.908 17.8988 118.226 14.6201V14.322C117.63 12.0865 115.991 11.3413 114.054 10.5961C112.117 9.99999 110.031 9.55289 108.093 9.25482C104.368 8.95675 100.494 9.85095 97.6626 12.2355C91.4041 17.3027 92.0001 26.6918 95.4274 33.1003C98.5566 39.5088 104.964 44.576 112.415 42.1914ZM100.494 17.3027C102.282 15.2162 105.113 14.7691 107.795 14.9181C109.435 15.0672 110.925 15.6633 112.564 16.1104C113.011 16.7065 113.309 17.3027 113.756 17.8988C115.097 19.9853 116.14 22.3698 116.438 24.9034C117.183 29.6725 115.544 33.8455 111.372 35.7829C109.882 36.5281 107.944 36.5281 106.305 35.7829C104.219 34.8887 102.729 32.9513 101.686 31.0138C99.1527 26.9899 96.9175 21.3266 100.494 17.3027ZM135.661 81.2384C135.81 84.3682 135.512 87.4979 134.618 90.6276C133.872 93.6083 132.531 97.1851 129.253 98.2284C127.912 98.6755 126.273 98.5264 125.081 97.7813C125.23 101.805 125.379 105.829 125.528 109.704C125.677 115.963 125.826 122.372 125.528 128.631C125.379 132.208 124.932 136.381 122.399 139.064C119.716 141.895 115.693 142.045 112.564 139.958C109.584 138.17 108.242 135.04 107.646 131.91C107.497 132.506 107.199 133.102 106.901 133.55C105.56 136.232 103.325 138.766 100.047 138.915C97.0665 139.064 92.7452 136.381 93.6393 133.102C93.7883 132.506 94.5333 131.91 95.1294 132.208C95.7254 132.506 96.3215 132.655 96.7685 133.251C97.2155 133.699 97.5136 134.146 97.9606 134.593C98.7057 135.189 99.7487 135.487 100.643 135.04C102.58 134.295 103.623 131.761 104.219 129.824C105.262 126.843 105.858 123.713 106.305 120.584C106.156 117.007 105.858 113.281 105.858 109.704C105.709 104.19 104.666 96.589 107.497 91.8199C107.795 91.3728 108.54 91.3728 108.838 91.8199C110.776 95.6948 110.18 101.06 110.18 105.382C110.18 107.916 110.18 110.598 110.329 113.132C110.329 113.728 110.478 114.175 110.478 114.771C110.478 116.709 110.627 118.497 110.776 120.435C111.074 124.906 110.478 131.463 113.309 135.189C114.65 136.977 117.183 138.17 119.12 136.53C120.461 135.338 120.908 133.401 121.206 131.761C121.952 127.141 121.654 122.074 121.803 117.305V102.103C121.654 97.0361 121.505 91.9689 121.355 86.9018C121.206 81.9836 120.759 76.7674 121.206 71.7002C121.206 70.9551 122.25 70.806 122.548 71.5512C124.187 77.6616 124.485 84.3682 124.783 90.6276C124.783 91.5218 124.932 92.5651 124.932 93.4593C125.081 93.4593 125.379 93.6083 125.528 93.7573C129.104 97.4832 130.892 89.5844 131.488 85.8585C131.19 82.8778 131.339 79.7481 131.488 76.6184V75.7242C131.488 74.83 131.488 73.7867 131.637 72.8925C131.637 68.1234 131.19 63.3543 128.359 59.4794C125.826 56.0516 121.803 53.9651 117.63 52.9219C114.948 52.3258 112.266 52.0277 109.584 52.1767C108.242 52.1767 106.901 52.3258 105.56 52.3258C104.219 52.4748 102.878 52.7729 101.686 52.3258C100.047 51.8787 99.5997 49.4941 101.239 48.5999C102.58 47.8547 104.07 47.8547 105.709 47.7057C107.348 47.5567 108.838 47.5567 110.478 47.5567C113.458 47.5567 116.587 47.8547 119.418 48.5999C124.038 49.7922 128.657 52.3258 131.637 56.0516C134.916 60.0756 136.108 65.2918 136.257 70.508C136.108 74.0848 135.959 77.6616 135.661 81.2384Z" fill="#010101"/>
</g>
<defs>
<clipPath id="clip0_794_6699">
<rect width="138" height="142" fill="white"/>
</clipPath>
</defs>
</svg>
