<svg width="82" height="106" viewBox="0 0 82 106" fill="none" xmlns="http://www.w3.org/2000/svg">
<path d="M25.2211 22.9414C30.502 15.6823 36.7284 11.5835 44.7918 10.1311C54.9497 8.30521 65.2097 15.4794 69.2728 22.6862C77.4164 37.1341 70.0635 53.0673 53.7614 58.1313C44.5878 60.9799 35.731 60.1329 27.8969 53.9242C21.7256 49.0312 19.1872 42.7213 20.3484 34.943C21.0399 30.3081 22.3925 25.8453 25.2211 22.9414Z" fill="#F47F6B"/>
<path d="M47.7688 99.3894C47.4256 99.8052 46.8222 100.641 46.1037 101.37C43.5774 103.954 40.8814 104.118 38.2966 101.553C32.5903 95.8958 27.0912 90.0361 21.3564 84.4082C17.6831 80.8026 14.2632 76.9997 10.958 73.061C9.38812 71.1884 8.36259 69.1128 7.70112 66.8649C6.48312 62.7314 10.1236 58.5148 15.6427 57.567C20.8139 56.6825 24.812 59.0825 28.4351 62.3874C34.4155 67.848 38.5215 74.8356 43.5995 81.032C45.4144 83.2425 47.3868 85.3272 48.7089 87.9425C51.0584 92.5919 51.0002 95.1054 47.7722 99.3848L47.7688 99.3894Z" fill="#FCB568"/>
</svg>
