<svg width="1440" height="702" viewBox="0 0 1440 702" fill="none" xmlns="http://www.w3.org/2000/svg">
<path d="M-66.074 636.763C-76.1269 592.094 -39.8038 501.363 17.7175 515.277C43.3114 521.467 50.4122 544.303 60.4 565.318C74.7446 595.501 91.7812 625.177 112.81 651.211C176.613 730.212 236.67 562.158 254.604 521.649C283.736 455.9 306.69 387.653 333.688 321.045C359.633 257.025 389.974 193.864 431.486 138.335C467.718 89.8553 533.732 12.1157 602.892 24.5998C697.166 41.6354 643.52 198.116 632.752 255.894C613.856 357.34 594.049 460.763 610.461 564.03C614.87 591.769 622.101 619.871 638.591 642.589C658.658 670.223 695.02 688.104 728.144 673.552C747.222 665.165 761.229 648.233 772.023 630.404C799.021 585.826 888.899 412.361 952.247 509.712C962.495 525.46 968.568 543.614 978.621 559.492C1022.16 628.285 1112.64 620.417 1171.94 575.006C1218.99 538.984 1247.89 484.132 1268.31 428.513C1298.43 346.469 1315.15 256.921 1357.33 180.092C1393.5 114.199 1455.93 56.6034 1530.92 51.2716" stroke="#F6EFE8" stroke-opacity="0.18" stroke-width="45" stroke-miterlimit="10"/>
</svg>
