<svg width="84" height="71" viewBox="0 0 84 71" fill="none" xmlns="http://www.w3.org/2000/svg">
<path d="M65.8393 47.4503C62.9834 48.8412 59.4419 48.3047 56.0329 47.8618C53.2735 47.5073 52.2198 48.4034 51.4217 50.9555C47.6918 62.8859 38.8212 70.0798 27.7132 70.0434C18.5546 70.0132 11.8335 64.6663 5.26541 59.1488C3.58067 57.7314 2.26141 56.032 1.31899 54.0892C-0.0997664 51.1695 0.0768141 48.5766 3.157 46.638C5.99547 44.8543 8.40691 42.4282 11.566 41.1156C15.3879 39.5313 16.9943 40.1341 18.6644 43.7897C19.8681 46.4305 21.3025 48.9267 23.647 50.7296C26.7235 53.0922 29.8915 52.2865 31.6973 48.8727C34.3491 43.8559 32.9726 39.1019 30.9169 34.373C28.8968 29.7174 29.0932 28.7173 33.128 25.5696C35.5798 23.6622 37.731 21.3754 40.7088 20.1371C44.9605 18.3706 46.7438 18.7888 48.9836 22.7376C50.7582 25.8668 52.9619 28.4301 56.5731 29.4417C59.3889 30.2265 61.2064 29.2594 62.0754 26.4002C63.1159 22.981 62.1283 20.0742 60.2211 17.2562C55.1125 9.6971 55.236 9.1163 62.5862 3.99581C70.5455 -1.55503 71.1397 -1.46442 76.6999 6.41567C80.3322 11.5746 83.1723 17.113 83.4938 23.5454C84.0394 34.5052 76.9176 44.2634 65.8309 47.4457L65.8393 47.4503Z" fill="#CB9AC1"/>
</svg>
