<svg width="118" height="151" viewBox="0 0 118 151" fill="none" xmlns="http://www.w3.org/2000/svg">
<path d="M36.0383 32.7805C43.5841 22.4081 52.4808 16.5515 64.0024 14.4761C78.5168 11.8671 93.1771 22.1182 98.9829 32.4158C110.619 53.0601 100.113 75.8267 76.8189 83.0626C63.711 87.1328 51.0557 85.9226 39.8617 77.0512C31.0436 70.0596 27.4166 61.0435 29.0758 49.9293C30.0638 43.3066 31.9966 36.9298 36.0383 32.7805Z" fill="#71B5E3"/>
<path d="M68.2558 142.015C67.7655 142.61 66.9032 143.804 65.8766 144.846C62.2668 148.537 58.4145 148.773 54.7212 145.106C46.5676 137.023 38.7101 128.651 30.5157 120.609C25.267 115.457 20.3803 110.023 15.6577 104.395C13.4145 101.72 11.9491 98.7539 11.004 95.5418C9.26361 89.6356 14.4654 83.6106 22.3516 82.2563C29.7406 80.9924 35.4533 84.4217 40.6303 89.1441C49.1756 96.9466 55.0425 106.931 62.2983 115.785C64.8917 118.943 67.71 121.922 69.5991 125.659C72.9563 132.303 72.8731 135.894 68.2607 142.009L68.2558 142.015Z" fill="#FCB568"/>
</svg>
