<svg width="145" height="122" viewBox="0 0 145 122" fill="none" xmlns="http://www.w3.org/2000/svg">
<path d="M113.486 82.3778C108.555 84.7793 102.441 83.853 96.5549 83.0884C91.7906 82.4762 89.9713 84.0233 88.5935 88.4297C82.1536 109.028 66.8384 121.448 47.66 121.385C31.8474 121.333 20.2432 112.102 8.90315 102.576C5.99439 100.128 3.71665 97.1944 2.08952 93.84C-0.360001 88.7991 -0.0551285 84.3225 5.26291 80.9754C10.1636 77.8957 14.327 73.7069 19.7814 71.4407C26.38 68.7055 29.1535 69.7462 32.037 76.0576C34.1152 80.6171 36.5917 84.927 40.6396 88.0397C45.9513 92.1187 51.4209 90.7277 54.5387 84.8336C59.117 76.1721 56.7405 67.9641 53.1912 59.7995C49.7034 51.7615 50.0425 50.0347 57.0088 44.6002C61.242 41.3069 64.956 37.3587 70.0973 35.2207C77.438 32.1709 80.517 32.8928 84.3839 39.7106C87.4478 45.1132 91.2526 49.5388 97.4874 51.2855C102.349 52.6404 105.487 50.9707 106.987 46.0342C108.784 40.1308 107.079 35.1121 103.786 30.2468C94.9657 17.1958 95.179 16.193 107.869 7.3523C121.611 -2.2314 122.637 -2.07496 132.237 11.5303C138.508 20.4373 143.412 29.9996 143.967 41.1053C144.909 60.0276 132.613 76.8756 113.471 82.3699L113.486 82.3778Z" fill="#FCB568"/>
</svg>
