<svg width="155" height="151" viewBox="0 0 155 151" fill="none" xmlns="http://www.w3.org/2000/svg">
<g clip-path="url(#clip0_794_6690)">
<path d="M98.3808 142.627C99.052 143.551 98.4896 144.928 97.5281 145.545C96.5666 146.161 95.3693 146.197 94.2264 146.215C91.6503 146.27 89.0198 146.306 86.5889 145.436C83.3053 144.258 80.6929 141.34 79.8766 137.95C79.1872 135.105 77.7359 132.277 75.1054 131.008C73.7448 130.356 72.2209 130.12 70.8603 129.522C65.2365 127.057 63.9666 119.861 62.4971 113.916C59.5038 101.791 52.6645 90.6076 51.703 78.1738C50.7959 66.61 55.549 54.5568 64.6015 47.3068C73.6722 40.0568 86.9336 38.1536 97.3649 43.2468C110.409 49.6087 116.776 64.87 118.119 79.3157C118.844 87.0732 118.3 95.3564 114.055 101.9C112.096 104.926 109.393 107.482 107.887 110.763C105.492 116.001 106.544 122.055 106.436 127.8C106.327 133.546 103.878 140.905 98.3989 142.627H98.3808Z" fill="#71B5E3"/>
<path d="M118.953 66.8824C115.597 49.2285 100.703 36.0879 82.761 34.9279C65.1276 34.0216 48.8729 44.4254 42.342 60.8286C34.8859 78.7905 40.4009 98.6194 54.3879 111.579C56.202 120.641 55.7848 130.084 56.3653 139.365C56.3834 139.6 56.4379 139.854 56.5467 140.071V140.18C56.5467 140.18 56.6011 140.307 56.6374 140.361C56.9458 141.068 57.6715 141.521 58.4516 141.503C62.9869 141.503 67.5223 141.503 72.0576 141.34C71.9306 141.721 71.9306 142.138 72.0576 142.518C73.3456 147.956 78.5159 151.563 84.0672 150.928C89.6185 150.475 94.3715 146.814 96.2219 141.558C96.3671 141.213 96.4033 140.833 96.3489 140.452C98.3082 140.343 100.286 140.235 102.263 140.09C102.481 140.09 102.68 140.017 102.88 139.926H103.116C103.878 139.655 104.367 138.911 104.313 138.114C104.313 129.396 103.442 120.696 103.37 111.978C112.894 99.5256 122.2 82.7418 118.953 66.8824ZM59.9392 123.632C60.1569 123.668 60.3564 123.668 60.5741 123.632C73.1642 122.418 85.7725 121.511 98.3989 120.913L98.1993 126.695C85.5004 127.42 72.8014 128.326 60.1024 128.508C60.1569 126.949 60.1024 125.281 59.9392 123.632ZM70.062 72.5555L70.2253 72.7549C71.0417 74.948 71.6404 77.2318 72.0395 79.5337C70.443 79.878 68.774 79.8418 67.1957 79.3887C59.6489 76.3618 67.4497 68.3142 70.1165 72.5555H70.062ZM76.7744 82.5968C79.7677 81.3643 82.634 79.8237 85.3371 78.0112L85.4459 77.9205C85.6092 77.8843 85.7543 77.8299 85.8995 77.7393L86.2623 77.5399C88.6025 90.4631 86.2623 104.474 85.3552 117.506C81.8177 117.741 78.2801 117.995 74.7425 118.267C69.4271 118.684 74.7425 118.158 74.7425 118.104C75.7584 107.211 78.0805 94.2875 76.8288 82.5968H76.7744ZM88.0946 68.6949C87.9676 67.6255 89.0561 62.2061 91.4507 64.3992C93.0472 65.8674 90.5981 69.003 89.6366 70.0543C89.3282 70.3805 88.9835 70.6705 88.6388 70.9786C88.403 70.2355 88.2397 69.4743 88.149 68.6949H88.0946ZM98.0361 134.199C85.5185 134.743 73.001 135.16 60.4834 135.468C60.4834 134.598 60.4834 133.655 60.3927 132.876C73.0917 132.658 85.5729 131.752 98.1449 131.063L98.0361 134.199ZM45.4261 64.4717C50.7415 48.6123 66.0347 38.2629 82.761 39.2235C91.2875 39.8579 99.306 43.5735 105.293 49.6817C105.347 49.9354 105.456 50.1892 105.583 50.4067C113.22 62.3692 114.309 77.3587 108.486 90.2818C104.331 99.9969 96.2219 105.199 97.5644 116.491V116.799L91.1242 117.179C91.1242 117.179 91.1242 117.107 91.1242 117.071C94.1175 102.571 96.5666 88.1612 91.868 73.7699C93.3193 72.5011 94.4804 70.9243 95.2786 69.1661C96.6573 65.9399 96.4396 62.0792 92.8839 60.4661C89.6729 59.2698 86.0628 60.7923 84.684 63.928C83.1238 67.0274 83.9039 70.3624 85.065 73.4799L83.8132 74.1505C83.6318 74.223 83.4504 74.3136 83.2871 74.4043C81.0557 75.8905 78.6974 77.1955 76.2664 78.3193C75.8673 75.9811 75.2505 73.6793 74.4523 71.4318C74.3797 71.2505 74.289 71.0693 74.162 70.9061C74.1076 70.7249 74.035 70.5618 73.9443 70.3986C68.7377 62.1336 58.4516 69.8186 60.3383 77.9568C61.1909 82.2343 65.3816 83.8656 69.5178 83.9924C70.57 84.0106 71.6041 83.9381 72.6381 83.7568C73.6722 95.0669 71.4589 107.591 70.5882 118.194C70.57 118.358 70.57 118.539 70.5882 118.702C67.2501 118.974 63.894 119.209 60.556 119.518C60.2476 119.554 59.9392 119.644 59.667 119.789C59.4312 116.636 59.0139 113.518 58.3971 110.419C58.3246 110.002 58.1069 109.603 57.7803 109.313C57.6715 109.096 57.5264 108.896 57.3449 108.733C45.2446 97.2962 39.8566 80.4943 45.4261 64.4717ZM76.2664 141.449V141.322C80.5841 141.213 84.9017 141.068 89.2194 140.851C88.4393 141.848 87.5685 142.754 86.5889 143.551C85.192 144.82 83.523 145.781 81.7088 146.343L81.4367 146.451C78.8606 145.98 76.8106 144.005 76.2664 141.449Z" fill="#010101"/>
<path d="M78.3161 20.5915C77.1007 14.4471 76.4294 8.21203 76.2662 1.94075C76.1573 0.762622 75.1232 -0.107382 73.9441 0.00136844C72.91 0.0919938 72.1118 0.907622 72.0029 1.94075C72.1662 8.59265 72.91 15.2083 74.198 21.7333C74.7241 24.4158 78.8422 23.274 78.3161 20.5915Z" fill="#010101"/>
<path d="M118.935 29.0717C122.944 23.6342 126.772 18.0698 130.4 12.3967C131.888 10.0767 128.187 7.9379 126.772 10.2398C123.144 15.9311 119.316 21.4955 115.307 26.9149C113.601 29.1261 117.32 31.3011 118.935 29.0717Z" fill="#010101"/>
<path d="M151.88 48.7386C148.995 50.4061 145.022 51.0767 141.847 52.0917L131.09 55.5355C128.495 56.3692 129.602 60.5017 132.232 59.6499L144.514 55.7167C147.78 54.9555 150.973 53.8498 154.02 52.4361C155.018 51.7836 155.29 50.4604 154.637 49.4817C154.038 48.5573 152.841 48.2492 151.88 48.7386Z" fill="#010101"/>
<path d="M24.6178 22.6736C22.5678 20.8611 19.5201 23.888 21.6063 25.6823C26.3594 29.8149 30.8947 34.183 35.1942 38.7868C37.0084 40.7987 40.0924 37.7718 38.2238 35.778C33.9243 31.1561 29.389 26.788 24.6178 22.6736Z" fill="#010101"/>
<path d="M29.0988 60.3027C20.1188 59.2333 11.1025 58.5445 2.05 58.2364C-0.689354 58.1277 -0.689354 62.4052 2.05 62.4958C11.1025 62.8039 20.1188 63.5108 29.0988 64.5802C31.8926 64.8702 31.8744 60.5927 29.0988 60.3027Z" fill="#010101"/>
</g>
<defs>
<clipPath id="clip0_794_6690">
<rect width="155" height="151" fill="white"/>
</clipPath>
</defs>
</svg>
