<svg width="44" height="130" viewBox="0 0 44 130" fill="none" xmlns="http://www.w3.org/2000/svg">
<path fill-rule="evenodd" clip-rule="evenodd" d="M17.1471 53.8526C17.2556 54.4158 17.4726 54.9778 17.6896 55.5388C18.6662 58.5673 19.7515 62.0992 21.7046 64.7066C24.3088 68.1257 27.2382 69.4473 30.1679 69.418C34.2912 69.3735 38.5226 66.332 41.1267 62.1643C43.7309 58.0345 44.8164 52.8631 43.1888 48.6975C42.1037 45.8426 39.7166 43.4066 35.5933 42.0785C30.9275 40.5464 26.4787 41.7996 22.5724 44.5004C21.0533 45.5138 19.7515 46.7335 18.4494 48.0768C18.1238 46.3092 17.7979 44.5243 17.4724 42.7144C16.6043 36.7888 16.3871 30.5605 16.7126 24.5872C17.0381 16.6857 18.6664 9.12702 21.7046 1.82449C21.9216 1.14957 21.5959 0.377008 20.9448 0.0992299C20.2938 -0.177465 19.5346 0.14374 19.2091 0.818659C16.0624 8.40873 14.3255 16.2646 13.9999 24.4765C13.7829 30.6234 13.8923 37.0318 14.8688 43.1299C15.3029 45.656 15.7367 48.1354 16.2792 50.5866C13.7836 53.8027 11.8302 57.3758 10.6366 60.414C3.04113 80.7385 12.9149 108.107 22.6805 126.524C23.006 127.169 23.7662 127.414 24.4173 127.073C25.0683 126.731 25.2853 125.932 24.9598 125.287C15.5197 107.462 5.7536 81.0185 13.1321 61.3472C14.0001 59.0338 15.411 56.3787 17.1471 53.8526ZM19.2091 51.2224C19.4261 52.3834 19.751 53.5369 20.1851 54.687C21.1616 57.4627 22.0295 60.7244 23.7656 63.1126C25.7187 65.694 27.8897 66.7975 30.0598 66.7758C33.5321 66.74 36.7869 64.125 38.8485 60.7537C41.0186 57.3455 42.1039 53.0985 40.6933 49.6599C39.8253 47.4464 37.9802 45.6202 34.8335 44.5905C30.9273 43.3285 27.2387 44.4483 24.092 46.6738C22.2473 47.9118 20.6197 49.4896 19.2091 51.2224Z" fill="#363433"/>
<path fill-rule="evenodd" clip-rule="evenodd" d="M23.9809 126.726C23.4383 126.342 22.8958 125.77 22.3533 125.196C21.2682 124.092 20.2914 122.922 19.4234 122.306C14.215 118.51 7.9218 114.024 1.73689 112.034C1.08585 111.809 0.326296 112.19 0.109282 112.884C-0.107732 113.578 0.217578 114.323 0.97713 114.548C6.83652 116.457 12.8051 120.803 17.9049 124.446C18.7729 125.112 19.9659 126.523 21.051 127.653C22.0275 128.612 23.0043 129.377 23.9809 129.655C24.5234 129.851 25.5 129.634 26.151 128.412C27.0191 126.68 27.7793 121.871 27.8878 121.405C28.9728 116.69 30.0577 112.54 34.181 109.563C34.7235 109.134 34.8318 108.306 34.5063 107.717C34.0722 107.128 33.204 106.998 32.6614 107.428C27.9956 110.822 26.4767 115.469 25.2832 120.844C25.2832 121.187 24.8491 124.062 24.1981 126.059C24.0896 126.275 24.0894 126.513 23.9809 126.726Z" fill="#363433"/>
</svg>
