<svg width="18" height="14" viewBox="0 0 18 14" fill="none" xmlns="http://www.w3.org/2000/svg">
<path d="M17.9994 6.75369L17.7512 1.77443L17.75 1.76081C17.6956 1.09532 17.5962 0.649099 17.4515 0.421643C17.3852 0.316306 17.3036 0.238414 17.2078 0.188165H17.2065C17.1947 0.181649 17.1822 0.174541 17.1701 0.167927C16.9508 0.056173 16.5497 0 15.9645 0C15.8678 0 15.766 0.00167828 15.6595 0.00434378L15.6411 0.00542972C13.5283 0.157659 11.4851 0.233478 9.51126 0.233478C9.30201 0.233478 9.09315 0.232985 8.88547 0.231306L8.85924 0.2318C7.9831 0.279779 6.60625 0.370899 4.72791 0.505655C4.09488 0.498547 3.53721 0.494697 3.0549 0.494697C2.33986 0.494697 1.79099 0.50299 1.40851 0.518687C1.17558 0.527967 0.993933 0.726497 1.00372 0.961752C1.01292 1.19138 1.19985 1.37076 1.42554 1.37076C1.43142 1.37076 1.43729 1.37076 1.44336 1.37076C1.81468 1.35556 2.35062 1.34785 3.05157 1.34785C3.53447 1.34785 4.09644 1.35121 4.73613 1.35881L4.77058 1.35763C6.64403 1.22297 8.01755 1.13185 8.89173 1.08387H8.89212C9.09804 1.08555 9.30416 1.08664 9.51126 1.08664C11.5025 1.08664 13.5623 1.00973 15.692 0.856909H15.6912C15.8173 0.853059 15.9324 0.851578 16.0377 0.851578C16.4041 0.851578 16.6449 0.872705 16.7594 0.916439H16.7584C16.7633 0.927298 16.7682 0.947043 16.7729 0.960271C16.7167 0.974191 16.6615 0.996009 16.6128 1.03471L15.4485 1.95776L15.4285 1.97464L11.8457 5.19565L9.13543 7.21462H9.13484C8.78838 7.45136 8.50984 7.58769 8.29922 7.62373L8.27554 7.62916C8.08136 7.61938 7.65406 7.34168 6.99558 6.79683L6.95819 6.76948C6.35531 6.37292 5.19671 5.33317 3.48377 3.65035L3.46733 3.63515C3.0504 3.26573 2.53012 2.87035 1.90687 2.44861C1.83425 2.39964 1.75263 2.37615 1.67159 2.37615C1.53575 2.37615 1.40166 2.44219 1.32063 2.5649C1.19007 2.76067 1.24213 3.02534 1.43572 3.15674C2.02784 3.55775 2.51837 3.92964 2.9077 4.27448H2.90731C4.63806 5.97358 5.82915 7.04008 6.48 7.47268H6.4796C7.28665 8.13807 7.8817 8.47412 8.26575 8.48172C8.27143 8.48172 8.27671 8.48172 8.28219 8.48172C8.34326 8.48172 8.40199 8.47531 8.45836 8.46109H8.45777C8.78877 8.40117 9.17771 8.21725 9.6242 7.90963L9.63731 7.90035L10.8104 7.02646C10.8225 7.04285 10.8298 7.0619 10.8443 7.07661L11.3424 7.56913L11.3786 7.60142C12.2438 8.27885 12.8279 8.78569 13.1303 9.12164C14.772 10.9878 15.8265 12.1423 16.3143 12.6076C13.3969 12.4529 11.124 12.3749 9.50636 12.3749C9.2241 12.3749 8.96181 12.3777 8.71948 12.382L8.70636 12.3826C6.36823 12.5007 4.00229 12.7497 1.60837 13.1283C2.2919 12.2282 3.0412 11.3053 3.86821 10.3551C4.3836 9.79423 4.74592 9.44673 4.95399 9.31306C5.15091 9.1865 5.20885 8.92311 5.08377 8.72458C5.00312 8.59693 4.86649 8.52704 4.72634 8.52704C4.64922 8.52704 4.57014 8.54836 4.49967 8.59357C4.23033 8.76663 3.81301 9.16034 3.2479 9.77518L3.24027 9.78397C2.48373 10.6528 1.79863 11.4978 1.15934 12.327L0.915832 8.23304H0.91642C0.808566 4.77026 0.812089 2.81901 0.927381 2.38049H0.92699C1.02075 2.25057 1.03817 2.07287 0.956155 1.92281C0.879424 1.78154 0.734379 1.70197 0.585616 1.70197C0.516323 1.70197 0.446443 1.71935 0.381652 1.75489C0.271254 1.81649 0.191195 1.91788 0.141673 2.05915C-0.0200103 2.5186 -0.0433036 4.5898 0.0717928 8.27233L0.07238 8.28438L0.355814 13.0492L0.359142 13.0819C0.390265 13.3116 0.43783 13.4894 0.501838 13.6149C0.580135 13.7682 0.686227 13.8691 0.819723 13.9176H0.819136C0.865722 13.9416 0.91779 13.9596 0.974555 13.9727C1.05618 13.9912 1.16325 14 1.29577 14C1.39677 14 1.51363 13.9951 1.64438 13.9841L1.67629 13.9804C4.05945 13.6013 6.41462 13.3525 8.74219 13.2346H8.74179C8.97806 13.2304 9.23389 13.2282 9.50852 13.2282C11.1526 13.2282 13.4833 13.3087 16.5016 13.4714H16.5002C16.5294 13.4742 16.5589 13.4752 16.5875 13.4752C16.8778 13.4752 17.1346 13.3449 17.357 13.0847C17.391 13.0475 17.4224 13.0045 17.4506 12.9559C17.7316 12.4666 17.915 10.4097 18 6.78528L17.9994 6.75369ZM8.25166 7.63469C8.25831 7.63251 8.26418 7.63133 8.26908 7.63034H8.26947L8.25166 7.63469ZM0.790166 2.50221C0.824029 2.48306 0.854761 2.45957 0.881969 2.43291H0.88236C0.858088 2.45848 0.827357 2.48138 0.790166 2.50221ZM16.7974 0.93332L16.8302 0.950794C16.8183 0.945364 16.8066 0.93954 16.7962 0.93332H16.7974ZM17.1542 6.79071C17.0929 9.39007 16.9958 11.1146 16.8633 11.9666C16.444 11.566 15.4141 10.433 13.7591 8.55221L13.7559 8.54836C13.4232 8.17914 12.8117 7.64446 11.9199 6.9457H11.9195L11.4894 6.5207L12.3634 5.87003L12.3936 5.84554L15.9813 2.61999L16.9103 1.88362L17.1546 6.79071H17.1542Z" fill="black"/>
</svg>
