<svg width="33" height="41" viewBox="0 0 33 41" fill="none" xmlns="http://www.w3.org/2000/svg">
<g clip-path="url(#clip0_820_1664)">
<path d="M18.0537 10.1833C19.1397 11.5822 21.1798 11.7446 22.9563 11.6696C24.8019 11.5947 26.7981 11.3324 28.1351 10.0646C28.2042 10.0022 28.2732 9.92725 28.2921 9.83982C28.3235 9.68994 28.2105 9.5463 28.1037 9.44013C27.2312 8.60329 25.913 8.34724 24.714 8.53459C24.0925 8.62827 23.4773 8.83436 22.8496 8.7844C22.2219 8.73444 21.5565 8.31601 21.5063 7.69775C21.4874 7.44795 21.5628 7.1919 21.4937 6.94834C21.2112 5.9741 18.286 5.30588 17.6206 6.08651C16.7857 7.067 17.3632 9.29649 18.0537 10.1833Z" fill="#F47F6B"/>
<path d="M10.7595 36.0753C9.18389 35.788 7.24419 34.9824 7.29441 33.3836C7.31324 32.7903 7.62711 32.247 7.94098 31.7412C10.7532 27.1885 14.0802 22.7919 15.3922 17.6085C15.7186 16.322 16.2334 14.7045 17.5579 14.5984C18.3614 14.5359 19.0644 15.1167 19.6106 15.7038C21.0669 17.2588 22.1592 19.1136 23.2451 20.9496C24.5948 23.2353 33.3266 34.7513 30.6273 36.8497C28.9638 38.1424 22.9689 37.1557 20.8911 37.087C17.5704 36.9808 14.0049 36.8809 10.7658 36.0753H10.7595Z" fill="#F47F6B"/>
<path d="M31.1797 34.7703C29.4848 32.0849 27.7899 29.462 26.095 26.839C22.768 21.5307 19.3155 16.2224 15.9885 10.9765V9.29032C18.5622 10.5393 21.4498 11.4136 24.4001 10.8516C26.095 10.5393 29.0454 9.54012 29.0454 7.41679C29.0454 6.91718 28.6059 6.41757 28.1038 6.48002C26.9111 6.60492 25.7184 6.60492 24.6512 6.29267C25.0279 6.04286 25.3417 5.79306 25.5928 5.41835C26.095 4.8563 25.7811 3.79463 24.9023 3.79463C21.6381 3.85708 18.3739 3.04522 15.8002 0.984336C15.2352 0.547179 14.3564 0.796983 14.3564 1.60885C14.3564 4.66894 14.4191 7.66659 14.4191 10.7267C14.3564 10.7891 14.2936 10.8516 14.2936 10.914C12.3476 14.4113 10.4016 17.9086 8.51844 21.4058C5.56808 26.9015 1.92722 32.5845 0.0440211 38.5174C-0.269846 39.5166 1.23672 40.1411 1.80168 39.2668C7.70238 39.579 13.6659 39.8288 19.6293 39.9537C22.8308 40.0162 26.0322 40.0162 29.2337 40.1411C30.4891 40.2035 32.3096 40.5783 32.8745 39.0794C33.4395 37.5806 31.9329 35.832 31.1797 34.7703ZM22.1403 9.04051C20.0688 8.97806 18.1228 8.0413 16.3023 7.29188C16.2396 7.22943 16.114 7.22943 16.0513 7.22943V3.23257C17.8089 4.35669 19.7549 5.04365 21.8264 5.41835C21.1987 5.79306 21.2614 6.66737 21.8264 7.10453C23.1447 7.97885 24.5257 8.416 26.0322 8.47845C24.714 8.91561 22.7052 9.04051 22.1403 9.04051ZM15.1724 13.2247C17.3067 16.4722 19.441 19.7196 21.5125 22.9671C19.0644 24.6533 17.0556 27.0888 14.5447 28.775C14.4191 28.8999 14.2936 28.9624 14.2308 29.0248L14.168 28.9624C13.6659 28.4628 13.1637 27.9632 12.6615 27.4011C11.5943 26.277 10.59 25.1529 9.52281 23.9663C9.83668 23.3418 10.1505 22.7173 10.4644 22.1552C12.0337 19.1576 13.6031 16.1599 15.1724 13.2247ZM23.8352 38.8921C21.3242 38.8921 18.8761 38.8921 16.3651 38.8296C11.6571 38.7672 6.9491 38.5798 2.24109 38.33C4.62648 34.0834 6.69801 29.5869 8.8323 25.2153C10.025 26.6517 11.2805 28.1505 12.5359 29.5244C13.2264 30.2738 13.6031 30.8359 14.6075 30.5861C15.8002 30.3363 17.2439 28.8375 18.1228 28.1505C19.5038 27.0888 21.2614 25.9023 22.4541 24.5284C23.7096 26.4643 24.9651 28.4003 26.2833 30.3363C27.0366 31.5229 27.7899 32.7094 28.6059 33.8335C29.1709 34.7079 30.3636 35.9569 30.6147 36.8936C31.3052 39.7039 25.6556 38.8921 23.8352 38.8921Z" fill="black"/>
</g>
<defs>
<clipPath id="clip0_820_1664">
<rect width="33" height="39.4565" fill="white" transform="translate(0 0.771484)"/>
</clipPath>
</defs>
</svg>
