<svg width="151" height="151" viewBox="0 0 151 151" fill="none" xmlns="http://www.w3.org/2000/svg">
<g clip-path="url(#clip0_794_6707)">
<path d="M81.6186 7.8013C80.6161 7.67417 79.5976 7.53115 78.6269 7.78541C77.4334 8.08735 76.4309 8.92959 75.6193 9.85129C73.2642 12.5369 72.0071 16.2555 72.6436 19.7675C73.2801 23.2795 75.9694 26.4419 79.4385 27.3C82.2392 27.9993 85.3105 27.1729 87.586 25.3931C89.8616 23.6132 91.3893 20.9912 92.1213 18.1943C92.7578 15.7311 92.9647 11.3928 90.8482 9.4699C88.9546 7.73774 84.1329 8.11913 81.6027 7.78541L81.6186 7.8013Z" fill="#FCB568"/>
<path d="M64.6552 100.322C63.5254 98.0174 63.4617 95.3317 63.5572 92.7573C63.8595 83.7787 65.5463 74.6252 63.3344 65.9168C60.1995 53.585 49.8241 44.3839 45.0024 32.5925C48.2965 30.2565 53.0386 31.941 56.0303 34.6743C59.0219 37.4076 61.1384 41.0308 64.4006 43.4304C70.9886 48.2614 80.4251 46.6723 87.6179 42.7948C94.8106 38.9173 100.794 33.0692 107.987 29.2076C110.851 27.6662 114.559 26.5061 117.2 28.4131C120.081 30.4948 119.762 35.0875 117.726 37.9956C115.689 40.9037 112.442 42.6835 109.689 44.9242C98.8048 53.7439 95.7336 68.9997 95.3517 83C95.2403 87.3383 95.288 91.7879 93.8081 95.872C91.2938 102.817 86.0584 104.708 79.4863 102.912C75.6512 101.863 76.4309 102.197 72.8346 103.103C69.2382 104.008 66.6125 104.263 64.6711 100.322H64.6552Z" fill="#FCB568"/>
<path d="M14.4014 131.009C25.7634 130.866 37.1413 130.707 48.5033 130.564C50.2379 130.548 52.0679 130.484 53.516 129.531C56.3167 127.687 56.4281 123.317 59.1651 121.394C60.6928 120.314 62.7138 120.266 64.5756 120.25C73.9962 120.171 83.4327 120.091 92.8533 120.012C94.0468 120.012 95.3039 120.012 96.3542 120.568C99.4254 122.221 98.5979 126.877 100.269 129.944C102.067 133.233 106.348 134.06 110.071 134.521C120.208 135.776 130.329 137.047 140.465 138.303C140.465 139.733 140.465 141.163 140.465 142.593C123.216 145.708 105.504 144.453 87.9998 145.533C70.8772 146.582 53.9615 149.872 36.8071 150.476C31.7308 150.65 17.9341 152.51 14.2105 148.187C12.6191 146.344 14.3059 131.04 14.3855 131.04L14.4014 131.009Z" fill="#FCB568"/>
<path d="M68.5857 30.9882C75.1101 34.8022 82.5893 32.5774 86.8859 26.6975C91.1824 20.8177 91.6598 12.2364 87.5224 6.19764C85.2946 3.01936 81.9528 0.635656 77.9745 0.158914C76.8606 0 75.7467 0 74.6327 0C73.9962 0 73.3597 0.158914 72.7232 0.317828C70.8136 0.635656 69.0631 1.74805 67.4718 2.86045C64.2892 5.08525 62.2205 8.26352 61.1065 11.9185C59.0378 19.0697 61.9022 27.1743 68.5857 30.9882ZM64.7666 14.779C65.244 11.4418 66.9944 8.42244 69.3814 6.19764C69.6997 5.87982 70.177 5.7209 70.4953 5.40307C71.1318 5.24416 71.9275 5.24416 72.564 4.92633C73.8371 4.44959 74.951 4.29068 76.3832 4.44959C78.9293 4.6085 81.3163 5.7209 82.9076 7.62787C86.4085 11.4418 86.7267 17.7984 84.4989 22.4069C82.1119 27.0154 77.0197 30.1936 71.9275 27.9689C66.8353 25.7441 64.1301 20.1821 64.7666 14.779ZM36.9185 37.9804C41.3742 41.9533 46.6256 44.8137 50.9221 48.9455C56.4917 54.5075 57.6057 61.8175 57.6057 69.2865C57.6057 77.55 57.1283 85.8135 56.9691 93.9181C56.81 99.1623 56.0143 106.949 62.5387 108.697C68.2675 110.286 72.7232 106.154 74.6327 101.069C75.5875 103.135 76.8606 105.042 78.2928 106.313C81.6345 109.333 87.3633 109.968 90.5459 106.472C92.1372 104.565 92.6146 102.023 92.7737 99.639C92.9329 95.6662 92.6146 91.5344 92.4555 87.4027C92.2963 79.9337 91.6598 72.3058 92.1372 64.678C92.6146 57.6858 95.0016 51.8059 100.253 47.1974C104.549 43.5424 109.483 40.8409 113.62 36.868C116.962 33.6898 120.144 29.0812 119.508 24.1549C118.712 18.434 113.143 17.3216 108.369 19.2286C101.685 21.9301 96.752 28.1278 91.6598 32.8952C89.1137 35.2789 86.4085 37.5037 83.385 39.4107C80.8389 40.9998 77.9745 41.6354 75.2693 42.43C72.4049 41.7944 69.3814 40.9998 66.6762 39.5696C63.4935 37.8215 60.7883 35.7556 58.2422 33.3719C53.15 28.7634 48.376 22.8836 42.0107 19.8642C37.2368 17.4805 30.8715 18.2751 30.0759 24.4727C29.2802 29.7169 33.0994 34.6432 36.9185 37.9804ZM36.9185 22.089C40.4194 22.089 43.9203 25.1084 46.4664 27.3332C53.9456 33.5308 62.5387 45.1316 73.3597 45.1316C82.4302 46.8796 90.705 39.0928 96.5929 33.3719C100.571 29.558 105.186 24.1549 110.756 22.5658C114.734 21.4534 116.643 24.3138 115.53 27.9689C114.734 30.3526 112.983 32.5774 111.233 34.3254C104.868 40.682 95.479 44.1781 91.3416 52.7594C86.4085 62.771 88.4772 75.643 88.7954 86.4492C88.9546 90.1042 88.9546 93.6003 89.1137 97.2553C89.2729 100.593 89.2729 105.36 84.9763 105.519C79.4067 105.678 77.338 99.1623 75.7467 94.3949C75.7467 92.8057 75.7467 91.0577 75.9058 89.4685C75.9058 86.2903 76.2241 82.9531 75.9058 79.6159C76.7014 79.6159 77.6562 79.457 78.4519 79.457C79.5658 79.298 80.998 78.9802 81.3163 77.7089C81.3163 77.3911 81.3163 77.0733 81.1571 76.9143C80.2023 75.9609 79.0884 76.4376 77.9745 76.5965C77.0197 76.7554 76.2241 76.7554 75.2693 76.7554C74.3145 76.7554 73.3597 76.7554 72.4049 76.5965C71.9275 76.5965 71.6092 76.4376 71.1318 76.4376C70.4953 76.2787 70.0179 76.2787 69.3814 76.4376C68.4266 76.4376 68.2675 77.55 68.904 78.1857C69.3814 78.5035 69.8588 78.8213 70.4953 78.9802C70.9727 79.1391 71.6092 79.298 72.0866 79.457C72.7232 79.6159 73.5188 79.6159 74.1553 79.7748C72.4049 83.4298 72.564 88.3561 72.4049 92.329C72.2458 97.0964 71.1318 107.585 63.6527 105.519C59.9926 104.406 60.6292 99.639 60.6292 96.7786C60.7883 93.1236 60.7883 89.6274 60.9474 85.9724C61.1065 79.298 61.5839 72.4648 61.2657 65.7904C60.9474 60.3873 59.9926 54.8253 56.81 50.3757C54.1048 46.4029 50.2856 43.5424 46.3073 40.8409C42.1699 37.8215 37.3959 34.8022 35.009 30.1936C33.4176 27.1743 32.3037 21.9301 36.9185 22.089ZM150.22 143.181C148.788 142.864 147.515 142.705 146.083 142.546C146.242 140.798 146.083 139.209 146.083 137.461C146.083 135.236 146.242 133.17 146.401 130.945C146.401 129.674 145.287 128.561 144.014 128.561C136.853 128.72 129.851 128.879 122.69 129.038C119.19 129.038 115.689 129.038 112.188 129.197C109.483 129.356 106.618 129.197 103.913 129.674C103.754 124.43 103.595 119.185 103.754 114.1C103.754 112.988 102.799 112.193 101.844 112.193C92.2963 112.034 82.9076 112.193 73.5188 112.352C68.904 112.352 64.2892 112.67 59.5152 112.829C57.1283 112.988 54.7413 112.988 52.3543 113.306C50.9221 113.465 49.8082 113.465 49.0125 114.736V114.895C48.6943 115.054 48.5351 115.372 48.5351 115.848C48.376 118.073 48.376 120.298 48.5351 122.523C45.6708 121.887 42.329 122.046 39.4646 121.887C35.9637 121.728 32.3037 121.728 28.6437 121.569C21.3236 121.569 14.0036 121.569 6.68353 121.251C5.56961 121.251 4.45569 122.364 4.45569 123.476C4.61482 126.813 4.45569 130.15 4.45569 133.488C4.45569 136.825 4.13742 140.162 4.45569 143.499C4.45569 143.817 4.61482 144.135 4.61482 144.453C3.18263 144.612 1.75045 144.771 0.477395 145.247C-0.159132 145.406 -0.159132 146.36 0.477395 146.519C3.34176 146.836 6.5244 146.36 9.5479 146.36C12.5714 146.36 15.5949 146.201 18.6184 146.201C24.6654 146.042 30.7124 145.883 36.7594 145.883C49.4899 145.724 62.3796 145.565 75.1101 145.565C87.8407 145.565 100.253 145.724 112.824 145.883C125.077 145.883 137.967 147.154 150.22 145.247C151.334 145.088 151.175 143.34 150.22 143.181ZM37.5551 142.705C31.3489 142.864 24.9837 143.023 18.7775 143.34C15.754 143.499 12.7305 143.658 9.70703 143.817H8.91137C9.0705 143.499 9.0705 143.181 9.0705 142.705C9.86616 136.984 9.38877 130.945 8.91137 125.224C15.4358 124.906 21.9602 125.065 28.4846 125.065C32.1446 125.065 35.6455 125.224 39.3055 125.224C42.329 125.224 45.6708 125.542 48.5351 125.065C48.5351 126.495 48.6943 127.767 48.6943 129.197C48.8534 131.422 48.8534 133.488 49.0125 135.712C49.0125 137.937 49.0125 140.162 49.3308 142.387C45.3525 142.387 41.3742 142.546 37.5551 142.705ZM98.9799 141.433C91.0233 141.433 83.0667 141.592 75.1101 141.751C67.6309 141.91 60.1518 142.069 52.8317 142.228C52.9908 140.003 52.8317 137.778 52.6726 135.554C52.6726 133.329 52.5134 130.945 52.3543 128.72C52.1952 126.019 52.1952 123.317 51.8769 120.616C53.15 120.616 54.5821 120.616 55.8552 120.457C57.7648 120.457 59.6744 120.298 61.7431 120.298C65.8805 120.139 70.1771 120.139 74.3145 120.139H86.8859C90.8642 120.139 95.1607 120.933 99.139 120.616C98.6616 127.608 98.5025 134.6 98.9799 141.433ZM99.4573 117.914C95.479 117.12 91.0233 117.278 86.8859 117.278C82.7485 117.12 78.4519 117.12 74.3145 117.278C70.0179 117.278 65.8805 117.755 61.7431 118.073C59.6744 118.232 57.6057 118.391 55.6961 118.709C54.423 118.868 53.15 119.027 51.8769 119.344C51.7178 118.232 51.5586 117.278 51.3995 116.166H60.6292C65.0848 116.166 69.5405 116.007 73.9962 116.007C82.5893 115.848 91.1824 115.848 99.7755 116.007C99.4573 116.484 99.4573 117.12 99.4573 117.914ZM141.309 141.91C132.079 141.116 122.69 141.592 113.461 141.433H103.754V132.693C106.459 133.011 109.323 132.852 112.029 132.852H122.531C128.737 132.852 135.103 133.011 141.309 133.17C141.15 134.6 141.15 136.03 141.15 137.461C141.309 138.732 141.15 140.321 141.309 141.91Z" fill="#010101"/>
</g>
<defs>
<clipPath id="clip0_794_6707">
<rect width="151" height="151" fill="white"/>
</clipPath>
</defs>
</svg>
