<svg width="145" height="148" viewBox="0 0 145 148" fill="none" xmlns="http://www.w3.org/2000/svg">
<g clip-path="url(#clip0_794_6678)">
<path d="M126.359 29.322C126.094 29.322 125.803 29.322 125.564 29.4546C125.339 29.5873 125.207 29.8127 125.074 30.0249C124.36 31.2582 123.79 32.8098 124.465 34.0564C125.194 35.4224 127.232 35.7141 128.49 34.8256C129.695 33.9769 130.185 32.3192 129.92 30.9002C129.549 28.8844 128.067 29.322 126.345 29.3088L126.359 29.322Z" fill="#F6EFE8"/>
<path d="M125.856 58.777C127.868 58.8301 129.271 56.9071 130.436 55.2627C131.602 53.6182 133.429 51.8809 135.335 52.5175C136.05 54.3874 134.117 56.191 133.733 58.1537C133.23 60.8193 135.6 63.0738 137.771 64.6917C139.943 66.3096 142.405 68.3652 142.18 71.0706C139.214 71.1899 136.249 71.296 133.283 71.4154C132.926 71.4286 132.528 71.4551 132.264 71.6939C131.933 71.9856 131.906 72.463 131.893 72.9007C131.8 75.7121 131.522 78.6164 130.092 81.0301C129.695 81.6931 129.073 82.3827 128.305 82.3164C127.908 82.2766 127.564 82.0512 127.259 81.786C124.24 79.1867 124.346 73.6964 120.705 72.0784C118.759 71.2032 116.508 71.8663 114.483 72.5426C114.827 72.4232 116.164 67.5695 116.495 66.9064C117.409 65.063 118.057 63.7369 118.508 61.7609C118.865 60.2093 118.825 58.1272 120.652 57.5039C122.479 56.8806 124.108 58.7372 125.856 58.7903V58.777Z" fill="#F47F6B"/>
<path d="M93.882 26.9873C93.9084 27.3055 93.9614 27.6769 94.2394 27.836C94.6498 28.0747 95.1132 27.6371 95.378 27.2392C96.0532 26.2048 96.6093 25.1041 97.0462 23.9503C97.2316 23.4597 97.4169 22.9159 97.8406 22.5977C98.1848 22.3324 98.6217 22.2396 99.0454 22.1998C102.911 21.7754 106.724 24.2288 110.551 23.5392C110.127 22.107 109.2 20.8206 107.969 19.9851C107.122 19.4016 106.129 19.0303 105.334 18.3672C104.54 17.7041 103.957 16.6034 104.328 15.6486C104.566 15.0385 105.109 14.2561 104.58 13.8582C104.447 13.7654 104.275 13.7256 104.116 13.7124C103.282 13.6063 102.421 13.7124 101.64 14.0306C101.164 14.2163 100.674 14.4815 100.158 14.4417C99.2969 14.3754 98.7541 13.5134 98.3304 12.7575C97.2713 10.8346 95.8944 8.80554 93.7628 8.32812C93.7363 10.2776 93.6304 12.2138 93.4583 14.1633C93.4053 14.76 93.3391 15.3701 93.0743 15.9138C92.3329 17.4389 90.347 17.9428 89.8439 19.574C91.565 19.7464 92.7036 19.1231 93.6039 20.8471C94.3321 22.2529 93.7628 25.4357 93.8687 27.0403L93.882 26.9873Z" fill="#F47F6B"/>
<path d="M21.713 113.6C18.562 116.809 15.3712 120.125 13.5442 124.236C11.7171 128.347 11.4655 133.452 14.0605 137.126C16.3642 140.388 20.3361 141.913 24.0829 143.266C38.5405 127.697 52.9849 112.128 67.4425 96.5586C77.5708 85.6575 88.0169 74.1862 92.1079 59.8636C92.4918 58.4976 92.8228 57.0388 92.4654 55.6596C90.8104 49.2808 78.021 62.3568 75.4128 64.5051C69.0842 69.7037 62.8484 75.0216 56.7052 80.4589C44.6704 91.0948 32.9931 102.155 21.713 113.6Z" fill="#F47F6B"/>
<path d="M22.6794 143.04C24.7183 140.879 26.6513 138.624 28.6505 136.423C31.497 133.293 34.3832 130.23 37.19 127.073C44.0613 119.342 50.8533 111.544 57.7378 103.826C69.4814 90.6702 81.5029 77.7931 92.7698 64.2132C94.8881 61.667 97.1256 59.2136 99.2307 56.6408C100.74 54.8107 102.077 52.8347 102.858 50.5537C104.421 45.9652 102.805 42.4243 98.4893 40.1566C95.2986 38.4723 90.0689 42.0795 85.5939 46.1243C74.8434 55.8849 48.2715 78.8143 37.5475 88.6146C37.5872 88.6544 37.6137 88.6942 37.6534 88.734C33.9595 92.1555 30.2657 95.5903 26.5586 99.0118C22.0174 103.229 17.463 107.446 12.9218 111.677C10.4063 114.024 7.8643 116.358 5.3885 118.758C4.13074 119.992 2.97889 121.344 1.88001 122.724C-0.0397359 125.137 -0.503121 127.869 0.582525 130.76C1.12535 132.206 1.74761 133.664 2.62142 134.924C4.4882 137.603 6.5271 140.176 8.52628 142.762C9.7046 144.3 11.0021 145.759 12.6041 146.886C14.6695 148.345 16.6951 148.425 18.681 146.86C20.1242 145.719 21.4216 144.38 22.6926 143.04H22.6794ZM72.7118 63.9612C77.3324 59.6379 81.9531 55.3146 86.6002 51.0179C88.9833 48.8164 91.618 46.9598 94.385 45.2888C95.2589 44.7716 95.3251 44.7716 96.0532 45.448C96.3048 45.6867 96.5563 45.9386 96.7682 46.2039C97.4301 47.0394 97.7214 47.9677 97.0859 48.9358C95.9605 50.6598 94.9279 52.4766 93.6171 54.0415C88.9171 59.6512 84.1111 65.168 79.3449 70.7114C79.0668 71.0297 78.7491 71.3082 78.3386 71.7193C76.1938 69.425 74.102 67.1705 71.891 64.7834C72.2484 64.4254 72.4868 64.1734 72.7251 63.948L72.7118 63.9612ZM8.02318 132.299C4.51468 127.405 8.19529 124.368 9.08234 123.506C11.6508 121.026 14.259 118.573 16.8805 116.146C21.3554 111.968 25.8569 107.831 30.3319 103.653C42.3005 92.4738 54.2426 81.2677 66.1979 70.0748C66.5951 69.7035 67.0188 69.3455 67.5219 68.9078C69.7594 71.4938 72.2087 73.7351 74.2476 76.3741C55.4739 97.4336 36.4618 118.719 17.6748 139.778C16.6554 140.932 14.8548 140.879 13.8883 139.685C11.8891 137.232 9.65165 134.566 8.02318 132.312V132.299Z" fill="#010101"/>
<path d="M130.013 85.6052C130.344 85.1145 130.622 84.5575 130.781 83.9872C131.098 82.8202 131.416 81.6532 131.588 80.4596C131.946 78.0327 132.211 75.5926 132.515 73.1525C132.568 72.7414 132.647 72.3302 132.7 71.9854C132.925 71.9324 133.005 71.8926 133.084 71.8926C135.017 71.8926 136.95 71.8926 138.897 71.8661C140.181 71.8396 141.491 71.8661 142.762 71.7069C144.775 71.4417 145.609 69.5718 144.51 67.8611C144.113 67.251 143.597 66.7206 143.067 66.2166C140.962 64.2274 138.632 62.5431 136.116 61.0844C135.838 60.9252 135.573 60.7263 135.282 60.5274C136.791 57.3711 137.784 54.1087 138.685 50.8331C138.989 49.7191 139.254 48.5654 139.413 47.4249C139.532 46.5761 139.545 45.6876 139.413 44.8521C139.188 43.3403 138.009 42.6507 136.566 43.1281C136.037 43.3005 135.534 43.5525 135.044 43.831C133.23 44.9051 131.403 45.9396 129.629 47.0933C126.994 48.7908 124.399 50.5679 121.698 52.3715C119.103 50.9922 116.283 50.3424 113.529 49.5467C113.159 49.4406 112.762 49.4008 112.378 49.4008C110.961 49.4008 110.008 50.3557 110.034 51.7614C110.034 52.398 110.167 53.0478 110.339 53.6711C111.014 56.2173 111.689 58.7503 112.404 61.2833C112.589 61.9331 112.484 62.384 112.047 62.9145C110.074 65.3148 108.154 67.7417 106.248 70.1951C105.48 71.1765 104.738 72.2109 104.182 73.3116C103.348 74.9295 104.407 76.5474 106.208 76.5209C106.883 76.5209 107.572 76.3353 108.234 76.1629C111.358 75.2876 114.311 74.0012 117.197 72.5292C117.607 72.3302 118.018 72.1446 118.455 71.9589C118.68 72.3435 118.852 72.5955 118.984 72.8474C121.089 76.7464 123.194 80.6453 125.313 84.5442C125.564 84.9951 125.816 85.4593 126.147 85.8439C127.246 87.1435 129.046 87.0507 129.999 85.6449L130.013 85.6052ZM126.915 78.4306C125.088 75.3008 123.314 72.1578 121.433 69.0679C120.348 67.2643 119.196 66.9991 117.276 67.9009C115.767 68.6037 111.305 71.0571 110.736 71.0571C110.948 70.7521 114.615 66.1636 115.992 64.4926C116.773 63.551 116.998 62.5166 116.72 61.3496C116.283 59.5991 115.82 57.8485 115.37 56.0847C115.251 55.6338 115.145 55.1829 114.999 54.5994C115.449 54.679 115.767 54.7188 116.085 54.7983C117.726 55.2625 119.368 55.8062 121.036 56.1908C121.619 56.3234 122.347 56.2173 122.903 55.9654C124.187 55.3951 125.458 54.732 126.663 53.9894C129.086 52.5041 131.456 50.9392 133.852 49.4141C134.236 49.1621 134.633 48.9234 135.203 48.5654C135.11 49.056 135.07 49.3876 134.978 49.6926C134.236 51.9073 133.468 54.0955 132.74 56.3102C132.33 57.5833 132.025 58.8962 131.562 60.1428C130.834 62.0657 131.681 63.3919 133.098 64.4926C134.091 65.2485 137.136 67.3306 137.52 67.6091C136.778 67.5826 135.587 67.5163 134.991 67.5163C134.091 67.5163 133.177 67.5163 132.277 67.5826C129.602 67.755 128.742 68.6037 128.45 71.3091C128.371 71.9987 128.345 72.6883 128.292 73.3779C128.159 75.0091 128.04 76.6403 127.908 78.2715C127.868 78.6826 127.788 79.0804 127.669 79.8098C127.325 79.1733 127.127 78.8019 126.915 78.4439V78.4306Z" fill="#010101"/>
<path d="M99.3101 9.54876C99.7603 9.44267 100.184 9.34984 100.594 9.23048C101.958 8.84589 103.322 8.42152 104.685 8.06346C105.559 7.82475 106.446 7.61256 107.333 7.49321C109.624 7.18819 110.59 8.43478 109.716 10.6097C109.385 11.4452 108.909 12.2276 108.406 12.9703C107.717 14.0047 106.949 14.9993 106.195 15.9939C105.387 17.0814 105.347 17.0946 106.076 18.2484C107.797 20.9803 109.558 23.6989 111.292 26.4308C111.517 26.7889 111.769 27.1602 111.901 27.5581C112.285 28.7118 111.543 29.7065 110.339 29.5738C109.756 29.5075 109.174 29.2556 108.644 29.0036C106.274 27.8631 103.931 26.6828 101.574 25.529C101.111 25.3036 100.634 25.1179 100.078 24.866C99.7073 25.3964 99.3631 25.8871 99.0453 26.3778C97.867 28.1814 96.7019 29.9982 95.5104 31.7753C95.1794 32.266 94.7954 32.7566 94.3453 33.1412C93.3523 33.9635 92.174 33.5656 91.8297 32.3323C91.6974 31.8416 91.6444 31.3111 91.6179 30.7939C91.4855 28.7251 91.3664 26.6563 91.2472 24.6007C91.2207 24.1764 91.181 23.752 91.1281 23.2215C90.6382 23.1685 90.1748 23.1154 89.7114 23.0624C88.2551 22.89 86.7987 22.7706 85.3556 22.5187C84.5612 22.386 83.7536 22.1208 83.0519 21.7495C81.953 21.166 81.7677 19.9857 82.562 19.0043C82.9725 18.5136 83.4358 18.0362 83.9522 17.6649C85.3821 16.6437 86.8649 15.6624 88.3213 14.681C88.6787 14.4423 89.0494 14.2301 89.4466 13.9782C89.4334 13.6201 89.4201 13.2885 89.4069 12.9437C89.2613 9.62833 89.1024 6.31292 88.9568 2.99751C88.9435 2.61292 88.9568 2.21507 88.9965 1.83048C89.0494 1.04805 89.3539 0.384963 90.1351 0.106468C90.9162 -0.185288 91.5782 0.146253 92.121 0.68998C92.6638 1.23371 93.2067 1.80396 93.6965 2.40073C95.2853 4.38998 96.8608 6.37923 98.4363 8.38174C98.7276 8.76632 99.0321 9.13765 99.3498 9.54876H99.3101ZM106.407 24.309C105.996 23.6724 105.745 23.3011 105.519 22.9032C104.54 21.2853 103.56 19.6541 102.607 18.023C102.011 17.0151 102.157 16.0602 102.885 15.1452C103.719 14.1108 104.527 13.0498 105.334 11.9889C105.559 11.6971 105.718 11.3789 106.036 10.8484C105.387 11.0341 104.99 11.1402 104.593 11.2595C103.15 11.6839 101.72 12.148 100.263 12.5459C98.3569 13.0764 97.7876 12.8774 96.6092 11.2993C95.3515 9.61507 91.9621 4.82762 91.9621 4.82762C91.9621 4.82762 92.2005 12.1613 92.2137 13.6731C92.2137 13.8853 92.2137 14.1108 92.1872 14.323C92.0548 15.7022 92.0945 16.2459 90.903 16.9222C90.1218 17.3731 89.579 17.6251 88.7979 18.076C88.1889 18.4341 87.6063 18.8319 87.0105 19.2032C87.5269 19.5083 87.977 19.5746 88.4272 19.6276C89.579 19.7735 90.7441 19.8663 91.8827 20.0918C93.392 20.3835 93.8422 20.9405 93.9613 22.4523C94.054 23.5265 94.0937 24.6007 94.1599 25.6749C94.1996 26.4706 94.2394 27.2796 94.2791 28.0753C94.716 27.8233 94.9278 27.5316 95.1264 27.2133C96.0399 25.7545 96.9402 24.2825 97.867 22.8369C98.7673 21.4179 99.4425 21.1925 101.005 21.8688C102.421 22.4789 103.825 23.1552 105.228 23.805C105.519 23.9377 105.824 24.057 106.407 24.2825V24.309Z" fill="#010101"/>
<path d="M129.073 36.2193C127.616 37.5985 126.067 38.3279 124.307 38.4605C122.148 38.6064 120.454 37.7443 119.368 35.8347C118.984 35.1716 118.68 34.4422 118.494 33.6995C117.303 29.1906 121.698 26.3393 124.386 26.3128C127.881 26.2863 129.642 27.997 130.383 30.2913C131.125 32.5856 130.489 34.6013 129.086 36.2193H129.073ZM126.451 33.8985C127.563 32.811 127.511 30.7157 126.345 29.5752C125.247 28.501 123.565 28.6203 122.334 29.8537C121.288 30.9146 121.42 33.3017 122.585 34.4555C123.419 35.2777 125.313 35.0124 126.438 33.8985H126.451Z" fill="#010101"/>
<path d="M123.817 16.0484C122.85 17.0165 120.97 17.0563 120.07 16.1412C119.275 15.319 119.315 14.1122 120.162 13.2502C121.169 12.2423 122.93 12.2025 123.896 13.1706C124.717 13.9929 124.677 15.1864 123.83 16.0352L123.817 16.0484Z" fill="#010101"/>
</g>
<defs>
<clipPath id="clip0_794_6678">
<rect width="145" height="148" fill="white"/>
</clipPath>
</defs>
</svg>
