<svg width="80" height="78" viewBox="0 0 80 78" fill="none" xmlns="http://www.w3.org/2000/svg">
<g clip-path="url(#clip0_786_5128)">
<path d="M23.2982 43.8566C23.4814 40.5844 22.2511 37.4299 21.6751 34.21C20.4317 27.3514 22.2642 19.9299 26.8322 14.6681C31.4003 9.40635 38.6647 6.52677 45.5626 7.54771C52.4605 8.56865 58.6778 13.6079 60.8113 20.244C62.8008 26.4351 61.4395 33.6603 64.882 39.1838C67.7877 43.8566 73.6778 46.3959 75.6149 51.5529C75.9029 52.3252 76.0469 53.3069 75.4579 53.8697C74.9736 54.3409 74.2013 54.3016 73.5338 54.2493C71.2694 54.053 69.0181 53.8435 66.7537 53.6472C66.1909 53.5948 65.5495 53.5687 65.1437 53.9613C64.7772 54.3016 64.7118 54.8514 64.6725 55.3618C64.3977 59.2493 64.2929 63.1498 64.3715 67.0503C63.7039 67.9142 62.3034 67.8619 61.4134 67.2336C60.5233 66.6053 59.9998 65.5975 59.5155 64.6158C58.272 62.1027 57.0286 59.6027 55.7851 57.0896C54.8558 55.2048 53.8479 53.2545 52.1202 52.0634C49.0443 49.9692 44.895 51.0556 41.3479 52.2074C40.2092 52.5739 39.0573 52.9535 38.0757 53.6603C37.0286 54.4194 36.2563 55.4927 35.5757 56.5791C32.3034 61.7624 29.9736 68.0582 24.6333 71.0948C24.1097 71.3959 23.4683 71.6446 22.9448 71.3697C22.6437 71.2126 22.4474 70.8854 22.2772 70.5844C19.9605 66.2781 20.4317 61.0687 21.0338 56.2126C21.1123 55.5713 21.1909 54.8776 20.8505 54.3278C20.3793 53.5687 19.3715 53.4247 18.4814 53.3854C17.4736 53.3461 15.3924 53.0582 15.772 51.5268C16.0207 50.5058 17.7615 50.8854 18.4814 50.5713C21.3479 49.3147 23.128 47.142 23.3113 43.8435L23.2982 43.8566Z" fill="#F47F6B"/>
<path d="M14.2669 59.7227C10.6543 59.7227 7.17263 59.8798 3.73022 59.6442C2.46058 59.5525 1.24331 58.5185 0.0129395 57.9033C0.510322 56.6075 1.20404 55.3902 2.05482 54.3169C6.54435 50.207 11.1386 46.2018 15.7852 42.2881C17.2642 41.0447 16.7407 40.0499 16.1255 38.6887C10.9423 27.3012 14.9213 11.8693 24.882 5.10228C36.6098 -2.81657 52.2773 -1.38986 62.3951 8.49233C70.4841 16.6206 72.2119 29.1861 66.4396 40.8222C66.047 41.6206 65.6281 42.3929 65.1046 43.4138C69.2538 46.7646 73.3375 50.0892 77.4475 53.3614C78.8742 54.5002 80.8245 55.7044 79.6464 57.6285C78.9789 58.7148 76.8978 59.3431 75.4056 59.4217C62.6438 60.1677 65.314 59.6703 64.437 70.0892C64.3585 70.9792 64.3847 71.8955 64.2276 72.7724C63.7695 75.2855 61.8061 76.1101 59.8951 74.4217C58.0496 72.7463 56.348 70.9138 54.8035 68.9505C51.6622 65.0761 48.6648 61.084 45.5889 57.1573C45.3009 56.7908 44.7904 56.1625 44.5548 56.241C41.348 57.2227 37.526 55.7829 34.8559 58.9635C30.6805 63.9243 26.3218 68.741 22.0417 73.6232C21.4266 74.5395 20.6936 75.351 19.8428 76.0578C18.6909 76.7646 17.1464 77.6416 16.0208 77.3667C15.2224 77.1703 14.3978 75.2463 14.3585 74.0552C14.1622 69.5787 14.28 65.1023 14.28 59.7096L14.2669 59.7227ZM18.8218 27.3798C18.8218 39.9583 28.5862 52.7594 38.5077 52.0133C54.7642 50.7829 64.5417 43.6625 64.6857 26.7515C64.8035 13.0473 54.8035 4.94521 40.3271 4.76197C28.1281 4.6049 18.8611 13.4007 18.8088 27.3929L18.8218 27.3798ZM8.07577 54.8274C11.2826 55.1677 13.5339 55.5211 15.7983 55.6258C18.6909 55.7567 19.5417 57.3274 19.437 59.9583C19.3323 62.7724 19.4108 65.5866 19.4108 68.8065C23.4815 64.2515 27.2381 60.0368 30.5365 56.3457C26.5444 52.6677 22.7747 49.1991 18.7826 45.5342L8.07577 54.8274ZM70.2616 54.173C68.3245 52.4583 66.2957 50.5604 64.136 48.8327C63.4946 48.3091 62.6438 48.1128 61.8323 48.296C57.8271 50.5604 53.9135 52.9819 49.9344 55.3902C52.9841 59.1991 56.1386 63.1389 59.437 67.262C60.0653 63.9505 59.725 60.1023 61.4789 58.0473C63.3375 55.8745 67.1857 55.4164 70.2747 54.173H70.2616ZM42.6307 38.6363C43.9658 39.2515 45.3402 39.7489 46.7407 40.1285C46.8847 38.6887 47.5915 36.9871 47.081 35.8353C45.8114 33.008 46.2302 31.1363 49.0182 29.7881C49.4894 29.618 49.9082 29.3169 50.2224 28.9243C50.7328 28.0342 51.5574 26.9217 51.348 26.1494C50.8637 25.2201 49.9998 24.5395 48.9789 24.3039C47.5129 24.0683 46.0339 23.9766 44.5417 24.029C44.437 23.3614 44.3847 22.8641 44.28 22.3929C43.9527 20.8222 44.3323 18.3876 41.9632 18.6494C40.4711 19.1599 39.3061 20.3379 38.8088 21.8431C38.0758 24.3955 36.2433 24.0552 34.4501 24.4871C33.0627 24.9714 31.7276 25.5997 30.458 26.3719C31.204 27.7332 31.6752 29.4217 32.7747 30.351C34.2407 31.5683 34.869 32.563 33.9004 34.3169C33.5339 35.0238 33.259 35.7829 33.1019 36.5683C32.6177 38.8327 33.8611 40.2201 36.0862 39.5656C37.8663 38.8065 39.5548 37.8902 41.1517 36.7908C41.5051 37.262 41.8978 38.2567 42.6177 38.6494L42.6307 38.6363Z" fill="black"/>
</g>
<defs>
<clipPath id="clip0_786_5128">
<rect width="80" height="77.4346" fill="white"/>
</clipPath>
</defs>
</svg>
