<svg width="43" height="48" viewBox="0 0 43 48" fill="none" xmlns="http://www.w3.org/2000/svg">
<g clip-path="url(#clip0_820_1645)">
<path d="M21.5246 42.8718C19.5765 40.5066 20.6962 36.9816 20.2449 33.9479C19.5707 29.3774 15.3145 26.0981 14.069 21.6476C13.6348 20.0993 13.5891 18.4711 13.5891 16.86C13.5891 15.8945 13.612 14.9175 13.9148 14.0034C14.8917 11.044 18.3539 9.77573 21.4332 9.2844C25.381 8.65025 29.5916 8.67881 33.168 10.467C36.7444 12.2552 39.4695 16.1459 38.9325 20.1051C38.5897 22.636 37.0129 24.8412 35.1904 26.6294C33.128 28.6633 30.5856 30.4801 29.7344 33.2452C28.7689 36.3932 30.797 40.8437 28.9231 43.6888C27.4263 45.9626 22.9701 44.6258 21.5189 42.8661L21.5246 42.8718Z" fill="#2DB1B4"/>
<path d="M19.2279 35.8089C18.8908 35.8089 18.548 35.8089 18.2109 35.8089C17.8339 35.8089 17.5254 35.4947 17.5311 35.1176C17.5368 34.7406 17.8453 34.4378 18.2224 34.4378C21.2732 34.4606 24.3697 34.3749 27.4205 34.1692C27.7976 34.1464 28.1232 34.4321 28.1518 34.8091C28.1746 35.1862 27.889 35.5118 27.5119 35.5404C24.7696 35.7232 21.9873 35.8146 19.2279 35.8146V35.8089Z" fill="black"/>
<path d="M23.1411 35.3621C22.844 35.3621 22.5755 35.1679 22.4898 34.8822C21.2329 30.9287 19.936 26.8324 18.1193 23.056C17.9879 22.7818 17.8508 22.5076 17.7194 22.2334C16.9766 20.8622 16.3996 19.4054 16.0054 17.8971C15.9254 17.5257 16.1597 17.1601 16.5253 17.0801C16.8967 17.0001 17.2623 17.2344 17.3423 17.6C17.7136 18.9997 18.2564 20.3537 18.9477 21.6221C19.0848 21.902 19.2219 22.1762 19.3533 22.4562C21.2101 26.324 22.5241 30.4602 23.7981 34.4594C23.9124 34.8194 23.7124 35.2079 23.3525 35.3221C23.2839 35.345 23.2154 35.3564 23.1468 35.3564L23.1411 35.3621Z" fill="black"/>
<path d="M23.1584 34.0433C23.1584 34.0433 23.1013 34.0433 23.0727 34.0433C22.6957 33.9976 22.4271 33.6548 22.4728 33.2777C23.1241 27.9474 24.2896 22.6856 25.9464 17.5781C26.0664 17.2182 26.4492 17.0239 26.8091 17.1382C27.169 17.2524 27.3633 17.6409 27.249 18.0009C25.6208 23.0284 24.4724 28.1988 23.8326 33.4434C23.7926 33.7862 23.5012 34.0433 23.1527 34.0433H23.1584Z" fill="black"/>
<path d="M23.4155 20.8689C23.2213 20.8689 23.0384 20.7889 22.907 20.646C22.3529 20.0347 21.8444 19.3777 21.3873 18.6922L20.5247 20.2804C20.4161 20.4804 20.2219 20.6118 19.9933 20.6346C19.7705 20.6632 19.5477 20.5718 19.3992 20.4004C18.7136 19.6063 17.9309 18.9035 17.0625 18.3208C16.7483 18.1094 16.6626 17.6809 16.8797 17.3667C17.0968 17.0525 17.5196 16.9668 17.8338 17.1839C18.5308 17.6581 19.1821 18.1951 19.7762 18.7893L20.7532 16.9954C20.8732 16.7783 21.1017 16.6354 21.3531 16.6354C21.6044 16.624 21.8387 16.7611 21.9529 16.9896C22.41 17.8123 22.947 18.5893 23.5583 19.3092C24.1239 18.9664 24.6895 18.6122 25.2437 18.2522C25.5579 18.0466 25.9864 18.1323 26.1921 18.4522C26.3977 18.7664 26.3121 19.1949 25.9921 19.4006C25.2666 19.8748 24.5181 20.3375 23.7697 20.7832C23.6669 20.846 23.5469 20.8803 23.4212 20.8803L23.4155 20.8689Z" fill="black"/>
<path d="M26.9175 35.5867C26.649 35.5867 26.409 35.4325 26.2948 35.1868C25.5406 33.5472 26.2776 31.7475 27.2203 30.6106C27.8773 29.8736 28.6143 29.2052 29.4141 28.6282C29.7569 28.3596 30.1054 28.0911 30.4368 27.8112C33.0477 25.5888 34.5959 22.3609 34.7045 18.933C34.7616 15.5166 33.1848 12.2772 30.4653 10.2091C29.2256 9.33496 27.843 8.68366 26.3862 8.28374C22.5127 7.14683 18.4963 7.43249 15.3713 9.06073C11.9548 10.8375 9.61816 14.3911 9.55532 17.8989C9.47533 22.3609 12.709 25.983 14.6457 27.7426L14.8799 27.954C16.9195 29.8051 19.4562 32.1075 18.7706 35.0269C18.6849 35.3982 18.3135 35.6267 17.9479 35.5353C17.5765 35.4496 17.348 35.0783 17.4394 34.7126C17.9422 32.5759 15.8283 30.6563 13.9658 28.9652L13.7316 28.7539C11.6235 26.84 8.10418 22.8751 8.19559 17.8704C8.26986 13.814 10.8408 9.87199 14.7485 7.83812C18.1878 6.0442 22.5755 5.72998 26.7861 6.9583C28.4029 7.40392 29.9226 8.12378 31.2937 9.09501C34.3731 11.426 36.1556 15.0824 36.0928 18.9444C35.9785 22.7665 34.2589 26.3601 31.3509 28.8395C31.0024 29.1366 30.6424 29.4223 30.2768 29.7022C29.557 30.2164 28.8942 30.8106 28.3001 31.4733C27.6545 32.2503 27.0775 33.5357 27.5688 34.5984C27.7288 34.9412 27.5745 35.3525 27.2317 35.5068C27.1403 35.5468 27.0432 35.5696 26.9461 35.5696L26.9175 35.5867Z" fill="black"/>
<path d="M5.48793 13.4494C5.44794 13.4494 5.40224 13.4494 5.36225 13.438L1.31164 12.6781C0.940292 12.6096 0.694628 12.2496 0.763185 11.8783C0.831743 11.5069 1.19167 11.2613 1.56302 11.3298L5.61362 12.0897C5.98498 12.1582 6.23064 12.5182 6.16208 12.8895C6.09924 13.2152 5.8193 13.4494 5.48793 13.4494Z" fill="black"/>
<path d="M15.1542 5.32292C14.8857 5.32292 14.64 5.16295 14.5315 4.91729C14.0287 3.80894 13.4003 2.75773 12.6518 1.79793C12.4176 1.50084 12.4747 1.06665 12.7718 0.838122C13.0689 0.603884 13.5031 0.661015 13.7316 0.958097C14.5429 2.0036 15.2342 3.14622 15.7769 4.35169C15.9312 4.69448 15.7769 5.10011 15.4341 5.26008C15.3427 5.30007 15.2513 5.32292 15.1485 5.32292H15.1542Z" fill="black"/>
<path d="M28.6544 5.74129C28.5345 5.74129 28.4088 5.70701 28.3059 5.64417C27.9803 5.44992 27.8717 5.03286 28.066 4.70721L29.6999 1.94778C29.8942 1.62213 30.3112 1.51358 30.6369 1.70783C30.9625 1.90207 31.0711 2.31913 30.8768 2.64478L29.2429 5.40421C29.1172 5.6156 28.8944 5.74129 28.6544 5.74129Z" fill="black"/>
<path d="M37.6411 14.1225C37.2641 14.1225 36.9556 13.814 36.9556 13.4369C36.9556 13.1799 37.0984 12.9456 37.3269 12.8256L40.8576 11.0146C41.1947 10.8432 41.606 10.9746 41.7832 11.3117C41.9603 11.6487 41.8231 12.0601 41.4861 12.2372L37.9554 14.0482C37.8582 14.0997 37.7497 14.1225 37.6411 14.1225Z" fill="black"/>
<path d="M42.3144 25.5521C42.2401 25.5521 42.1658 25.5407 42.0973 25.5179C41.0175 25.1579 39.8977 24.918 38.7665 24.798C38.3895 24.758 38.1152 24.421 38.1552 24.0439C38.1895 23.6725 38.5152 23.3983 38.8865 23.4326C38.8922 23.4326 38.9037 23.4326 38.9094 23.4326C40.1434 23.564 41.3546 23.8211 42.5315 24.2153C42.8914 24.3353 43.0857 24.7237 42.9657 25.0837C42.8743 25.3636 42.6115 25.5521 42.3144 25.5521Z" fill="black"/>
<path d="M35.5501 37.1478C35.3216 37.1478 35.1045 37.0335 34.9788 36.845L32.5164 33.1543C32.3051 32.8401 32.3908 32.4116 32.7107 32.2059C33.0249 31.9946 33.4477 32.0803 33.6591 32.3945L36.1214 36.0852C36.3328 36.3994 36.2471 36.8279 35.9329 37.0335C35.8186 37.1078 35.6872 37.1478 35.5558 37.1478H35.5501Z" fill="black"/>
<path d="M7.46438 34.6773C7.08732 34.6773 6.77881 34.3688 6.77881 33.9918C6.77881 33.7975 6.86451 33.609 7.00733 33.4833C8.07569 32.5292 9.21831 31.6665 10.4238 30.8953C10.7437 30.6896 11.1665 30.7867 11.3722 31.1066C11.5778 31.4266 11.4807 31.8493 11.1608 32.055C10.0181 32.7806 8.93265 33.6033 7.92143 34.5059C7.79574 34.6202 7.63578 34.6831 7.46438 34.6831V34.6773Z" fill="black"/>
<path d="M1.0657 24.4321C0.688635 24.4321 0.380127 24.1236 0.380127 23.7465C0.380127 23.4494 0.56866 23.1866 0.848603 23.0952L5.0706 21.6898C5.43053 21.5698 5.81902 21.764 5.93899 22.124C6.05897 22.4839 5.86472 22.8724 5.5048 22.9924L1.2828 24.3978C1.21424 24.4206 1.13997 24.4321 1.0657 24.4321Z" fill="black"/>
<path d="M22.3812 45.6128C21.8442 45.6128 21.3186 45.5271 20.8101 45.3557C18.919 44.6416 17.5022 43.0419 17.0166 41.0823C16.5767 39.2084 16.7595 37.2431 17.5365 35.4834C17.6793 35.1349 18.0849 34.9693 18.4334 35.1121C18.7819 35.2549 18.9476 35.6606 18.8048 36.0091C18.1421 37.4888 17.9821 39.1456 18.3477 40.7281C18.7134 42.2478 19.7989 43.4932 21.2557 44.0588C22.6726 44.5502 24.2437 44.076 25.1578 42.8877C25.7519 41.9964 25.8433 40.8538 25.9005 39.4598L26.0662 35.4663C26.0833 35.0892 26.3975 34.7922 26.7803 34.8093C27.1574 34.8264 27.4544 35.1407 27.4373 35.5234L27.2716 39.5169C27.2202 40.7909 27.1574 42.3735 26.2947 43.6532C25.392 44.9101 23.9294 45.6414 22.3812 45.6185V45.6128Z" fill="black"/>
<path d="M18.7649 40.147C18.3879 40.147 18.0793 39.8385 18.0793 39.4614C18.0793 39.1815 18.245 38.9358 18.5021 38.8273L24.6323 36.2906C25.1008 36.0964 26.0777 35.6965 26.9061 36.2278C27.2261 36.4335 27.3175 36.8562 27.1118 37.1762C26.9061 37.4961 26.4833 37.5875 26.1634 37.3818C25.9406 37.239 25.375 37.4733 25.1579 37.5589L19.0277 40.0956C18.942 40.1299 18.8563 40.147 18.7649 40.147Z" fill="black"/>
<path d="M18.782 43.2753C18.4049 43.2753 18.0964 42.9668 18.0964 42.5897C18.0964 42.2869 18.2907 42.0241 18.5821 41.9327C20.9187 41.2186 23.1983 40.3102 25.3921 39.2304C25.7292 39.0647 26.1405 39.2019 26.3119 39.5389C26.4776 39.876 26.3405 40.2873 26.0034 40.4587C23.741 41.5728 21.3986 42.504 18.9877 43.241C18.9248 43.2639 18.8563 43.2696 18.7877 43.2696L18.782 43.2753Z" fill="black"/>
<path d="M22.3243 47.3019C22.1929 47.3019 22.0615 47.2848 21.9358 47.2448C20.9646 46.9591 20.7589 45.8565 20.679 45.4394C20.6104 45.0681 20.8561 44.7082 21.2274 44.6396C21.5988 44.571 21.9587 44.8167 22.0273 45.1881C22.1529 45.8565 22.3015 45.9193 22.3186 45.925C22.4272 45.9022 22.5243 45.8336 22.5814 45.7365C22.7185 45.4566 22.7928 45.1538 22.81 44.8396C22.8614 44.4625 23.2042 44.1997 23.5755 44.2454C23.9526 44.2968 24.2154 44.6339 24.1697 45.011C24.1354 45.5194 23.9926 46.0165 23.7412 46.4621C23.4441 46.9648 22.9071 47.2791 22.3243 47.2962V47.3019Z" fill="black"/>
</g>
<defs>
<clipPath id="clip0_820_1645">
<rect width="42.6199" height="46.6076" fill="white" transform="translate(0.380127 0.695312)"/>
</clipPath>
</defs>
</svg>
