<svg width="14" height="15" viewBox="0 0 14 15" fill="none" xmlns="http://www.w3.org/2000/svg">
<path d="M6.99972 5.01084C6.44277 5.01084 5.90863 5.23209 5.5148 5.62592C5.12097 6.01974 4.89972 6.55389 4.89972 7.11084C4.89972 7.66779 5.12097 8.20194 5.5148 8.59576C5.90863 8.98959 6.44277 9.21084 6.99972 9.21084C7.55668 9.21084 8.09082 8.98959 8.48465 8.59576C8.87847 8.20194 9.09972 7.66779 9.09972 7.11084C9.09972 6.55389 8.87847 6.01974 8.48465 5.62592C8.09082 5.23209 7.55668 5.01084 6.99972 5.01084ZM6.99972 3.61084C7.92798 3.61084 8.81822 3.97959 9.4746 4.63597C10.131 5.29234 10.4997 6.18258 10.4997 7.11084C10.4997 8.0391 10.131 8.92934 9.4746 9.58571C8.81822 10.2421 7.92798 10.6108 6.99972 10.6108C6.07147 10.6108 5.18123 10.2421 4.52485 9.58571C3.86847 8.92934 3.49972 8.0391 3.49972 7.11084C3.49972 6.18258 3.86847 5.29234 4.52485 4.63597C5.18123 3.97959 6.07147 3.61084 6.99972 3.61084ZM11.5497 3.43584C11.5497 3.6679 11.4575 3.89046 11.2934 4.05456C11.1293 4.21865 10.9068 4.31084 10.6747 4.31084C10.4427 4.31084 10.2201 4.21865 10.056 4.05456C9.89191 3.89046 9.79972 3.6679 9.79972 3.43584C9.79972 3.20378 9.89191 2.98122 10.056 2.81712C10.2201 2.65303 10.4427 2.56084 10.6747 2.56084C10.9068 2.56084 11.1293 2.65303 11.2934 2.81712C11.4575 2.98122 11.5497 3.20378 11.5497 3.43584ZM6.99972 1.51084C5.26792 1.51084 4.98512 1.51574 4.17942 1.55144C3.63062 1.57734 3.26242 1.65084 2.92082 1.78384C2.63495 1.8888 2.37651 2.05702 2.16482 2.27594C1.94573 2.48762 1.77727 2.74605 1.67202 3.03194C1.53902 3.37494 1.46552 3.74244 1.44032 4.29054C1.40392 5.06334 1.39902 5.33354 1.39902 7.11084C1.39902 8.84334 1.40392 9.12544 1.43962 9.93114C1.46552 10.4792 1.53902 10.8481 1.67132 11.189C1.79032 11.4935 1.93032 11.7126 2.16272 11.945C2.39862 12.1802 2.61772 12.3209 2.91872 12.4371C3.26452 12.5708 3.63272 12.645 4.17872 12.6702C4.95152 12.7066 5.22172 12.7108 6.99902 12.7108C8.73152 12.7108 9.01362 12.7059 9.81932 12.6702C10.3667 12.6443 10.7349 12.5708 11.0772 12.4385C11.3628 12.3331 11.6212 12.1649 11.8332 11.9464C12.0691 11.7112 12.2098 11.4921 12.326 11.1904C12.459 10.846 12.5332 10.4778 12.5584 9.93044C12.5948 9.15834 12.599 8.88744 12.599 7.11084C12.599 5.37904 12.5941 5.09624 12.5584 4.29054C12.5325 3.74314 12.4583 3.37354 12.326 3.03194C12.2205 2.74635 12.0524 2.48803 11.8339 2.27594C11.6223 2.05673 11.3639 1.88826 11.0779 1.78314C10.7349 1.65014 10.3667 1.57664 9.81932 1.55144C9.04722 1.51504 8.77702 1.51084 6.99902 1.51084M6.99902 0.11084C8.90092 0.11084 9.13822 0.11784 9.88512 0.15284C10.6299 0.18784 11.1381 0.30474 11.584 0.47834C12.046 0.65614 12.4352 0.89694 12.8244 1.28544C13.1804 1.63537 13.4558 2.05865 13.6315 2.52584C13.8044 2.97174 13.922 3.47994 13.957 4.22544C13.9899 4.97164 13.999 5.20894 13.999 7.11084C13.999 9.01274 13.992 9.25004 13.957 9.99624C13.922 10.7417 13.8044 11.2492 13.6315 11.6958C13.4563 12.1633 13.1808 12.5867 12.8244 12.9362C12.4744 13.2921 12.0511 13.5675 11.584 13.7433C11.1381 13.9162 10.6299 14.0338 9.88512 14.0688C9.13822 14.1017 8.90092 14.1108 6.99902 14.1108C5.09712 14.1108 4.85982 14.1038 4.11292 14.0688C3.36812 14.0338 2.86062 13.9162 2.41402 13.7433C1.94665 13.568 1.52329 13.2925 1.17362 12.9362C0.817625 12.5864 0.542196 12.1631 0.366523 11.6958C0.192924 11.2499 0.0760234 10.7417 0.0410234 9.99624C0.0074234 9.25004 -0.000976562 9.01274 -0.000976562 7.11084C-0.000976562 5.20894 0.0060234 4.97164 0.0410234 4.22544C0.0760234 3.47994 0.192924 2.97244 0.366523 2.52584C0.541689 2.05837 0.817186 1.63496 1.17362 1.28544C1.52339 0.929302 1.94672 0.65385 2.41402 0.47834C2.85992 0.30474 3.36742 0.18784 4.11292 0.15284C4.86052 0.11994 5.09782 0.11084 6.99972 0.11084" fill="#363433"/>
</svg>
