<svg width="14" height="14" viewBox="0 0 14 14" fill="none" xmlns="http://www.w3.org/2000/svg">
<path d="M7.0007 4.9C6.44375 4.9 5.9096 5.12125 5.51578 5.51508C5.12195 5.9089 4.9007 6.44305 4.9007 7C4.9007 7.55695 5.12195 8.0911 5.51578 8.48492C5.9096 8.87875 6.44375 9.1 7.0007 9.1C7.55765 9.1 8.0918 8.87875 8.48562 8.48492C8.87945 8.0911 9.1007 7.55695 9.1007 7C9.1007 6.44305 8.87945 5.9089 8.48562 5.51508C8.0918 5.12125 7.55765 4.9 7.0007 4.9ZM7.0007 3.5C7.92896 3.5 8.8192 3.86875 9.47557 4.52513C10.132 5.1815 10.5007 6.07174 10.5007 7C10.5007 7.92826 10.132 8.8185 9.47557 9.47487C8.8192 10.1313 7.92896 10.5 7.0007 10.5C6.07244 10.5 5.1822 10.1313 4.52583 9.47487C3.86945 8.8185 3.5007 7.92826 3.5007 7C3.5007 6.07174 3.86945 5.1815 4.52583 4.52513C5.1822 3.86875 6.07244 3.5 7.0007 3.5ZM11.5507 3.325C11.5507 3.55706 11.4585 3.77962 11.2944 3.94372C11.1303 4.10781 10.9078 4.2 10.6757 4.2C10.4436 4.2 10.2211 4.10781 10.057 3.94372C9.89289 3.77962 9.8007 3.55706 9.8007 3.325C9.8007 3.09294 9.89289 2.87038 10.057 2.70628C10.2211 2.54219 10.4436 2.45 10.6757 2.45C10.9078 2.45 11.1303 2.54219 11.2944 2.70628C11.4585 2.87038 11.5507 3.09294 11.5507 3.325ZM7.0007 1.4C5.2689 1.4 4.9861 1.4049 4.1804 1.4406C3.6316 1.4665 3.2634 1.54 2.9218 1.673C2.63593 1.77796 2.37749 1.94618 2.1658 2.1651C1.9467 2.37678 1.77825 2.63521 1.673 2.9211C1.54 3.2641 1.4665 3.6316 1.4413 4.1797C1.4049 4.9525 1.4 5.2227 1.4 7C1.4 8.7325 1.4049 9.0146 1.4406 9.8203C1.4665 10.3684 1.54 10.7373 1.6723 11.0782C1.7913 11.3827 1.9313 11.6018 2.1637 11.8342C2.3996 12.0694 2.6187 12.2101 2.9197 12.3263C3.2655 12.46 3.6337 12.5342 4.1797 12.5594C4.9525 12.5958 5.2227 12.6 7 12.6C8.7325 12.6 9.0146 12.5951 9.8203 12.5594C10.3677 12.5335 10.7359 12.46 11.0782 12.3277C11.3638 12.2222 11.6221 12.0541 11.8342 11.8356C12.0701 11.6004 12.2108 11.3813 12.327 11.0796C12.46 10.7352 12.5342 10.367 12.5594 9.8196C12.5958 9.0475 12.6 8.7766 12.6 7C12.6 5.2682 12.5951 4.9854 12.5594 4.1797C12.5335 3.6323 12.4593 3.2627 12.327 2.9211C12.2215 2.63551 12.0533 2.37719 11.8349 2.1651C11.6233 1.94589 11.3649 1.77742 11.0789 1.6723C10.7359 1.5393 10.3677 1.4658 9.8203 1.4406C9.0482 1.4042 8.778 1.4 7 1.4M7 0C8.9019 0 9.1392 0.00699996 9.8861 0.042C10.6309 0.077 11.1391 0.1939 11.585 0.3675C12.047 0.5453 12.4362 0.7861 12.8254 1.1746C13.1813 1.52453 13.4568 1.94781 13.6325 2.415C13.8054 2.8609 13.923 3.3691 13.958 4.1146C13.9909 4.8608 14 5.0981 14 7C14 8.9019 13.993 9.1392 13.958 9.8854C13.923 10.6309 13.8054 11.1384 13.6325 11.585C13.4573 12.0524 13.1818 12.4758 12.8254 12.8254C12.4754 13.1812 12.0521 13.4566 11.585 13.6325C11.1391 13.8054 10.6309 13.923 9.8861 13.958C9.1392 13.9909 8.9019 14 7 14C5.0981 14 4.8608 13.993 4.1139 13.958C3.3691 13.923 2.8616 13.8054 2.415 13.6325C1.94763 13.4571 1.52427 13.1817 1.1746 12.8254C0.818602 12.4755 0.543172 12.0522 0.3675 11.585C0.1939 11.1391 0.077 10.6309 0.042 9.8854C0.00839996 9.1392 0 8.9019 0 7C0 5.0981 0.00699996 4.8608 0.042 4.1146C0.077 3.3691 0.1939 2.8616 0.3675 2.415C0.542665 1.94753 0.818163 1.52412 1.1746 1.1746C1.52437 0.818462 1.9477 0.543011 2.415 0.3675C2.8609 0.1939 3.3684 0.077 4.1139 0.042C4.8615 0.00909996 5.0988 0 7.0007 0" fill="#F7F2EC"/>
</svg>
