<svg width="13" height="13" viewBox="0 0 13 13" fill="none" xmlns="http://www.w3.org/2000/svg">
<path d="M2.71564 1.3585C2.71546 1.71861 2.57223 2.06391 2.31746 2.31842C2.06269 2.57293 1.71725 2.71582 1.35714 2.71564C0.997023 2.71546 0.651728 2.57223 0.397216 2.31746C0.142703 2.06269 -0.000179888 1.71725 1.69973e-07 1.35714C0.000180228 0.997023 0.143408 0.651728 0.398176 0.397216C0.652943 0.142703 0.998381 -0.000179888 1.3585 1.69973e-07C1.71861 0.000180228 2.06391 0.143408 2.31842 0.398176C2.57293 0.652943 2.71582 0.998381 2.71564 1.3585ZM2.75637 3.7211H0.0407347V12.221H2.75637V3.7211ZM7.04707 3.7211H4.34502V12.221H7.01992V7.76061C7.01992 5.2758 10.2583 5.04497 10.2583 7.76061V12.221H12.94V6.83729C12.94 2.64842 8.1469 2.80457 7.01992 4.86167L7.04707 3.7211Z" fill="#363433"/>
</svg>
