<svg width="13" height="14" viewBox="0 0 13 14" fill="none" xmlns="http://www.w3.org/2000/svg">
<path d="M2.71612 2.24766C2.71594 2.60777 2.57272 2.95307 2.31795 3.20758C2.06318 3.46209 1.71774 3.60498 1.35763 3.6048C0.997511 3.60462 0.652217 3.46139 0.397704 3.20662C0.143191 2.95185 0.000308393 2.60641 0.000488451 2.2463C0.000668509 1.88618 0.143897 1.54089 0.398664 1.28638C0.653431 1.03186 0.998869 0.88898 1.35898 0.88916C1.7191 0.88934 2.06439 1.03257 2.31891 1.28734C2.57342 1.5421 2.7163 1.88754 2.71612 2.24766ZM2.75686 4.61026H0.0412229V13.1102H2.75686V4.61026ZM7.04756 4.61026H4.3455V13.1102H7.0204V8.64977C7.0204 6.16496 10.2588 5.93413 10.2588 8.64977V13.1102H12.9405V7.72645C12.9405 3.53758 8.14739 3.69373 7.0204 5.75083L7.04756 4.61026Z" fill="#F7F2EC"/>
</svg>
