<svg width="36" height="37" viewBox="0 0 36 37" fill="none" xmlns="http://www.w3.org/2000/svg">
<circle cx="18" cy="18.7896" r="17.75" stroke="url(#paint0_linear_621_1426)" stroke-width="0.5"/>
<path d="M14.7166 14.0372C14.7164 14.3973 14.5732 14.7426 14.3184 14.9971C14.0637 15.2516 13.7182 15.3945 13.3581 15.3943C12.998 15.3942 12.6527 15.2509 12.3982 14.9962C12.1437 14.7414 12.0008 14.396 12.001 14.0358C12.0012 13.6757 12.1444 13.3304 12.3992 13.0759C12.6539 12.8214 12.9994 12.6785 13.3595 12.6787C13.7196 12.6789 14.0649 12.8221 14.3194 13.0769C14.5739 13.3317 14.7168 13.6771 14.7166 14.0372ZM14.7573 16.3998H12.0417V24.8997H14.7573V16.3998ZM19.048 16.3998H16.346V24.8997H19.0209V20.4393C19.0209 17.9545 22.2593 17.7237 22.2593 20.4393V24.8997H24.941V19.516C24.941 15.3271 20.1479 15.4833 19.0209 17.5404L19.048 16.3998Z" fill="#363433"/>
<path d="M14.7166 14.0372C14.7164 14.3973 14.5732 14.7426 14.3184 14.9971C14.0637 15.2516 13.7182 15.3945 13.3581 15.3943C12.998 15.3942 12.6527 15.2509 12.3982 14.9962C12.1437 14.7414 12.0008 14.396 12.001 14.0358C12.0012 13.6757 12.1444 13.3304 12.3992 13.0759C12.6539 12.8214 12.9994 12.6785 13.3595 12.6787C13.7196 12.6789 14.0649 12.8221 14.3194 13.0769C14.5739 13.3317 14.7168 13.6771 14.7166 14.0372ZM14.7573 16.3998H12.0417V24.8997H14.7573V16.3998ZM19.048 16.3998H16.346V24.8997H19.0209V20.4393C19.0209 17.9545 22.2593 17.7237 22.2593 20.4393V24.8997H24.941V19.516C24.941 15.3271 20.1479 15.4833 19.0209 17.5404L19.048 16.3998Z" fill="url(#paint1_linear_621_1426)" fill-opacity="0.85"/>
<defs>
<linearGradient id="paint0_linear_621_1426" x1="18" y1="0.789551" x2="18" y2="36.7896" gradientUnits="userSpaceOnUse">
<stop stop-color="#E58571"/>
<stop offset="0.25" stop-color="#F1B875"/>
<stop offset="0.5" stop-color="#8FB181"/>
<stop offset="0.75" stop-color="#59AEB2"/>
<stop offset="1" stop-color="#81B3DF"/>
</linearGradient>
<linearGradient id="paint1_linear_621_1426" x1="18.471" y1="12.6787" x2="18.471" y2="24.8997" gradientUnits="userSpaceOnUse">
<stop stop-color="#E58571"/>
<stop offset="0.25" stop-color="#F1B875"/>
<stop offset="0.5" stop-color="#8FB181"/>
<stop offset="0.75" stop-color="#59AEB2"/>
<stop offset="1" stop-color="#81B3DF"/>
</linearGradient>
</defs>
</svg>
