<svg width="52" height="40" viewBox="0 0 52 40" fill="none" xmlns="http://www.w3.org/2000/svg">
<g clip-path="url(#clip0_786_3682)">
<path d="M21.6885 19.7566C21.652 20.043 21.6459 20.3477 21.78 20.6037C21.8836 20.8048 22.0664 20.9632 22.2553 21.0851C22.5173 21.2618 22.8098 21.3959 23.1206 21.4751C23.4741 21.5726 23.8946 21.5848 24.1627 21.3349C24.376 21.1338 24.4308 20.8231 24.4369 20.5366C24.4796 19.0131 21.975 17.6725 21.6885 19.7566Z" fill="#FCC276"/>
<path d="M16.3621 10.787C20.5548 10.1288 24.8084 9.85458 29.0498 9.97036C29.9273 9.99474 30.8171 10.0313 31.6641 9.8302C32.5112 9.6291 33.3461 9.14767 33.7544 8.37374C34.0103 7.88622 34.0834 7.32557 34.1444 6.78321C34.3577 4.8697 34.4735 2.95009 34.4978 1.02439C34.4978 0.670938 28.1357 0.159043 27.5263 0.116385C25.0643 -0.042059 22.5841 -0.035965 20.1221 0.134667C19.4152 0.183419 17.1543 0.0371628 16.5998 0.512494C16.0026 1.02439 16.3317 2.46866 16.3317 3.19994C16.3378 5.72895 16.3438 8.26405 16.356 10.7931L16.3621 10.787Z" fill="#FCC276"/>
<path d="M34.8947 37.217C38.8497 36.6503 42.8595 36.4187 46.8633 36.5162C47.6921 36.5345 48.5269 36.5711 49.3313 36.3943C50.1357 36.2176 50.9158 35.8093 51.3058 35.1451C51.5496 34.7246 51.6166 34.2493 51.6714 33.78C51.8725 32.1407 51.9822 30.4893 52.0005 28.8378C52.0005 28.5331 45.9979 28.0943 45.4251 28.0578C43.1033 27.9176 40.7632 27.9237 38.4414 28.0761C37.771 28.1187 35.6442 27.9907 35.1202 28.399C34.5595 28.8378 34.8642 30.081 34.8703 30.7026C34.8764 32.872 34.8825 35.0476 34.8947 37.217Z" fill="#FCC276"/>
<path d="M2.63883 38.26C6.59382 37.6933 10.6037 37.4617 14.6074 37.5592C15.4362 37.5775 16.2711 37.614 17.0755 37.4373C17.8799 37.2606 18.6599 36.8523 19.0499 36.188C19.2937 35.7676 19.3607 35.2922 19.4156 34.823C19.6167 33.1837 19.7264 31.5322 19.7447 29.8808C19.7447 29.5761 13.7421 29.1373 13.1692 29.1007C10.8474 28.9606 8.50734 28.9667 6.18553 29.119C5.51519 29.1617 3.38839 29.0337 2.8643 29.442C2.30366 29.8808 2.60836 31.1239 2.61445 31.7455C2.62054 33.915 2.62664 36.0905 2.63883 38.26Z" fill="#FCC276"/>
<path d="M19.7996 20.1912C16.07 20.5995 12.2857 19.5818 8.59272 20.2887C8.53787 20.0998 8.22098 20.0328 8.18442 20.2887C7.81878 23.0554 7.5933 25.8342 7.50799 28.6253C7.47142 29.1798 8.31849 29.1737 8.36114 28.6253C8.62319 26.0658 8.7146 23.4941 8.63537 20.9225C12.3954 20.6239 16.1554 21.605 19.8971 21.0626C20.409 20.9956 20.2993 20.1425 19.7996 20.1912Z" fill="black"/>
<path d="M39.5075 19.8786C39.2942 22.4076 39.2698 24.9488 39.4343 27.4778C39.4343 27.7459 39.6476 27.9592 39.9158 27.9592C40.1839 27.9592 40.3972 27.7459 40.3972 27.4778C40.5434 24.9427 40.4947 22.4076 40.2692 19.8786C40.2692 19.8237 40.257 19.775 40.2326 19.7262C40.7689 19.5739 40.7567 18.6842 40.1291 18.7268C34.8456 19.0925 29.3914 19.4094 24.1384 20.2564C24.2116 19.903 24.2116 19.5373 24.1384 19.1839C24.047 18.9218 23.7545 18.7817 23.4925 18.8731C23.3767 18.9157 23.2853 18.995 23.2243 19.0986L23.1329 19.0315C23.1451 18.9706 23.1451 18.9157 23.1329 18.8548C23.0964 16.7219 23.2121 14.5403 23.0598 12.4135C25.2841 12.3464 27.5145 12.2428 29.7632 12.0966C31.3232 11.9991 33.5536 12.1941 34.876 11.1398C36.0948 10.1526 35.6926 8.4158 35.6195 7.03856C35.5525 5.85023 35.4793 4.6619 35.4001 3.47357C35.3575 2.78495 35.4428 1.90742 35.1076 1.26755C34.3398 -0.18282 31.5304 0.475331 30.2324 0.475331C25.1622 0.475331 20.1103 0.255947 15.0523 0C14.7171 0 14.4368 0.262041 14.4307 0.597211C14.4307 0.639869 14.4307 0.676433 14.4429 0.719091C14.3759 0.78003 14.3332 0.865346 14.3393 0.956756C14.2845 4.61315 14.1504 8.26954 13.8335 11.9259C13.8396 12.2124 14.0773 12.4439 14.3637 12.45C17.0511 12.5231 19.7386 12.5231 22.4321 12.45C22.2127 14.4854 22.1701 16.5391 22.3102 18.5806C21.8897 18.4404 21.4327 18.4831 21.0488 18.7024C20.2809 19.2022 20.0067 20.1955 20.4028 21.0243C20.9086 21.9018 21.9933 22.2613 22.9196 21.853C23.3462 21.6702 23.6997 21.3533 23.9251 20.9511C29.0989 20.9511 34.3946 20.3417 39.5562 19.8116C39.5379 19.8298 39.5197 19.8542 39.5075 19.8786ZM14.9365 11.347C15.0523 9.15317 15.1193 6.95933 15.1132 4.7655C15.8079 4.4608 16.4539 4.02813 17.1364 3.68686C18.0383 3.22981 18.9646 2.86417 19.9031 2.46807C20.3602 2.27915 20.1895 1.54787 19.6959 1.70632C18.0262 2.18165 16.4722 2.97996 15.1071 4.0525C15.1071 3.12012 15.1071 2.18165 15.0401 1.24927H15.0767C18.9646 1.55397 22.8709 1.67585 26.7771 1.73069C28.6724 1.76116 30.5737 1.76116 32.4689 1.73069C33.8827 1.73069 34.0168 2.16946 34.096 3.42482C34.163 4.41814 34.224 5.40537 34.291 6.39259C34.4434 7.25794 34.5165 8.14157 34.4982 9.0191C34.3337 10.3354 33.5171 10.5914 32.3531 10.7132C30.4396 10.9204 28.5078 11.0057 26.5882 11.1032C22.6942 11.3104 18.8184 11.3653 14.9365 11.3714V11.347ZM22.6637 20.8719C22.1944 21.1888 21.5607 21.0669 21.2438 20.6038C21.2316 20.5855 21.2133 20.5611 21.2011 20.5367C21.0183 20.1223 21.2011 19.6409 21.6155 19.4581C21.6643 19.4337 21.713 19.4215 21.7679 19.4094C22.292 19.3911 22.8038 19.58 23.1939 19.9334C23.1634 20.3052 22.9684 20.6525 22.6637 20.8719Z" fill="black"/>
<path d="M18.0012 31.4028C17.9768 31.2504 17.8793 31.1225 17.7392 31.0615H17.9951C18.5436 31.0615 18.6898 30.1779 18.1292 30.0804C15.2833 29.599 12.4008 29.3552 9.51229 29.343C8.25083 29.3308 6.99547 29.41 5.7462 29.5746C4.1252 29.7879 2.69921 30.184 1.12087 29.5746C0.834449 29.4649 0.608971 29.8305 0.743039 30.0621V30.1048C0.743039 30.1048 0.743039 30.1474 0.743039 30.1718C0.602877 30.123 0.444433 30.1962 0.395681 30.3363C0.389587 30.3607 0.383494 30.3851 0.3774 30.4156C0.212862 32.1341 0.170204 33.8648 0.0970761 35.5833C0.0605122 36.5217 -0.292939 37.8746 0.615065 38.5084C1.52307 39.1421 3.05266 38.8618 4.03989 38.8984L9.78042 39.0995L15.2041 39.2823C16.1547 39.2823 17.6417 39.6906 18.4278 38.9106C19.0859 38.228 18.7447 37.0458 18.6533 36.2231C18.4156 34.6204 18.2937 32.9933 18.0012 31.4028ZM17.0566 38.2768C16.4168 38.3377 15.7769 38.3256 15.1431 38.2281L13.2296 38.1793L9.4026 38.0879L5.56948 37.9843H3.65597C3.02219 38.0757 2.37623 38.0757 1.74245 37.9843C0.615065 37.4846 0.736945 36.1561 0.822261 35.0409C0.901482 35.1567 1.05383 35.1872 1.16962 35.1079C1.18181 35.1018 1.1879 35.0896 1.20009 35.0836C2.46154 33.9623 3.84488 32.9872 5.33181 32.1889C5.73401 31.9695 5.38056 31.3723 4.97227 31.5795C3.42439 32.3839 2.02887 33.4504 0.846637 34.7301V34.3827C0.846637 33.0664 0.895388 31.7562 0.846637 30.4399C0.901482 30.4582 0.956328 30.4582 1.01117 30.4399H1.05993C2.81499 31.7319 6.04481 30.5131 7.94004 30.4399C11.0784 30.3181 14.1559 30.9335 17.2699 31.092C17.0384 31.1529 16.886 31.3662 16.8982 31.6039C16.9652 32.7739 17.1481 33.944 17.3004 35.1079C17.4345 35.9489 18.1597 37.8319 17.0566 38.2768Z" fill="black"/>
<path d="M51.293 37.0031L50.8299 37.0701C50.8299 36.5216 50.903 35.8513 50.9091 35.51C50.9091 34.6934 50.9579 33.8768 50.9883 33.0724C51.0493 31.4514 51.2199 29.8122 51.1468 28.1972C51.1407 28.0266 50.9944 27.8925 50.8238 27.8986C50.7202 27.8986 50.6288 27.9596 50.574 28.0449C50.4765 27.9596 50.3485 27.9169 50.2205 27.9352C46.7287 28.3801 43.2795 28.9041 39.7571 29.087C38.1118 29.1784 36.4603 29.2088 34.8088 29.2028C33.7302 29.2028 31.9385 28.7457 31.0244 29.4526C30.9087 29.5257 30.8538 29.6598 30.8843 29.7939L30.9208 29.995C30.9696 30.257 31.323 30.2022 31.3962 29.995C31.4266 29.9218 31.6704 29.8853 32.0056 29.8792C31.9081 29.9584 31.8715 30.0864 31.9081 30.2083C32.682 33.0298 33.1452 35.9244 33.2792 38.8434C33.2792 39.1299 33.523 39.3614 33.8094 39.3614C33.8521 39.3614 33.8886 39.3614 33.9313 39.3431C39.2452 38.0573 44.809 39.3431 50.1169 38.4047C50.1839 38.4778 50.2632 38.5387 50.3424 38.5936C50.5496 38.7947 50.8848 38.7825 51.0859 38.5753C51.1895 38.4656 51.2382 38.3194 51.226 38.1731L51.6221 38.0695C52.3046 37.8928 51.9878 36.8995 51.293 37.0031ZM41.9936 37.4723C39.3976 37.3565 36.7955 37.6003 34.2604 38.1853C34.0775 35.4003 33.5108 32.6459 32.5784 30.0133C32.554 29.9523 32.5175 29.9036 32.4687 29.8609C33.7302 29.8609 35.7107 30.1047 36.0459 30.1047C37.6974 30.1351 39.3427 30.1108 40.9942 30.0315C44.1326 29.9279 47.2588 29.5745 50.3424 28.9712C50.0621 30.7323 49.9097 32.5057 49.8731 34.2851C49.7452 35.2541 49.6903 36.2352 49.7025 37.2103C47.143 37.454 44.5653 37.5393 41.9936 37.4723Z" fill="black"/>
<path d="M20.2262 3.03581C19.4096 3.4502 18.6052 3.89506 17.7886 4.33383C17.033 4.67509 16.3261 5.11386 15.6801 5.63185C15.479 5.81467 15.6801 6.12546 15.9361 6.07061C16.7283 5.81467 17.49 5.46731 18.1969 5.02854C19.0135 4.60806 19.8301 4.18757 20.6345 3.73662C21.0916 3.48067 20.6894 2.80424 20.2262 3.03581Z" fill="black"/>
<path d="M6.11861 33.0614C4.89981 33.6708 3.36413 34.5666 2.57191 35.7366C2.41956 35.9621 2.71817 36.2363 2.93755 36.1023C3.54695 35.7366 4.06494 35.2186 4.64996 34.8164C5.24717 34.4142 5.86876 34.0486 6.51472 33.7195C6.95958 33.5062 6.56957 32.8359 6.11861 33.0614Z" fill="black"/>
<path d="M34.9066 33.2909C34.9676 33.2117 34.9554 33.0959 34.8701 33.0349C34.8701 33.0349 34.8701 33.0349 34.864 33.0349L34.9615 32.9679C35.0712 32.8887 35.1748 32.8217 35.2784 32.7363C35.5221 32.5474 35.7537 32.3402 35.9853 32.1269C36.4606 31.7308 36.9176 31.3164 37.3747 30.9081C37.8317 30.4999 37.1797 29.9392 36.7653 30.2987C36.3509 30.6583 35.8634 31.1336 35.4246 31.5663C35.0041 31.9197 34.6385 32.3341 34.3277 32.7851C34.09 33.2239 34.5775 33.754 34.9066 33.297V33.2909Z" fill="black"/>
<path d="M38.4406 31.5002C37.0512 32.4387 35.8263 33.5965 34.8208 34.9372C34.6806 35.1566 34.9731 35.4735 35.1925 35.3089C36.4661 34.34 37.5813 33.1638 38.8489 32.1827C39.2694 31.8902 38.8672 31.1772 38.4406 31.5002Z" fill="black"/>
</g>
<defs>
<clipPath id="clip0_786_3682">
<rect width="52" height="39.3915" fill="white"/>
</clipPath>
</defs>
</svg>
