<svg width="85" height="77" viewBox="0 0 85 77" fill="none" xmlns="http://www.w3.org/2000/svg">
<g clip-path="url(#clip0_786_5143)">
<path d="M45.1656 20.6292C44.8062 19.7935 44.4469 18.849 44.7895 18.0133C45.0319 17.4199 45.5752 17.0187 46.085 16.6426C47.581 15.5644 49.0687 14.4779 50.5647 13.3998C50.8489 13.1992 51.1498 12.9568 51.2083 12.6141C51.2668 12.2798 51.0662 11.9539 50.874 11.6697C49.754 10.0316 48.4753 8.38512 48.1744 6.42105C47.8735 4.45697 49.052 2.10009 51.0328 1.958C52.6375 1.84099 54.0332 3.2451 54.4678 4.78292C54.9024 6.32075 54.635 7.97559 54.3508 9.5552C57.0754 7.69978 60.4603 6.83058 63.7449 7.14817C64.1712 8.71943 64.5891 10.2823 65.0153 11.8536C62.9008 11.8703 60.7612 13.0571 59.8586 14.971C58.9559 16.885 59.4992 19.4508 61.2459 20.6376C62.9927 21.8244 65.7591 21.2644 66.7119 19.3672C68.7679 22.8273 70.3643 26.5549 71.4424 30.4329C68.3417 31.8537 65.1908 33.1826 62.0065 34.4195C60.1511 35.1383 55.0278 38.0134 53.1222 37.3698C51.2166 36.7263 49.9045 31.4191 49.1523 29.7559C47.79 26.722 46.4611 23.6715 45.1489 20.6125L45.1656 20.6292Z" fill="#D498C4"/>
<path d="M71.3913 43.4849C69.7365 43.5601 68.09 43.7524 66.4686 44.0532C65.8585 44.1703 65.1732 44.3541 64.8723 44.8974C64.6801 45.2484 64.6968 45.6747 64.7553 46.0675C65.0729 48.3157 66.477 50.3466 66.5188 52.6116C66.5606 55.0353 64.8305 57.3839 62.507 58.0525C60.1836 58.7211 57.459 57.6597 56.2053 55.587C55.9378 55.1356 55.6119 54.5757 55.0854 54.6007C54.8513 54.6091 54.6424 54.7512 54.4418 54.8849C53.1296 55.7708 51.8258 56.6567 50.5137 57.5427C50.6641 59.9163 51.7255 62.223 53.4222 63.8862C50.4468 63.8277 47.647 66.895 48.1484 69.8286C50.848 70.6894 53.9905 69.979 56.0549 68.0316C56.3892 69.1767 56.7235 70.3217 57.0578 71.4583C57.1748 71.8595 57.3336 72.3108 57.7097 72.4947C58.0942 72.6869 58.5538 72.5198 58.955 72.3526C60.1669 71.8511 61.3704 71.3497 62.5823 70.8482C62.8246 70.7479 63.1004 70.6142 63.184 70.3635C63.2592 70.1462 63.1506 69.9038 63.0503 69.7032C62.0808 67.8311 60.4594 66.0425 60.7352 63.9531C61.0027 61.8887 63.2676 60.4679 65.332 60.7019C67.3963 60.9359 69.1431 62.4737 70.1042 64.3208C71.0654 66.1679 71.3496 68.2824 71.4916 70.3551C74.4586 66.427 79.5903 64.9894 83.9781 62.7663C84.3291 62.5907 84.7136 62.3734 84.8557 61.9973C85.0981 61.3789 84.5548 60.7437 84.0617 60.3007C82.5824 58.9468 81.0947 57.5845 79.6154 56.2305C81.2618 55.4114 83.0253 54.467 83.7692 52.7871C84.6217 50.8899 83.7775 48.4912 82.0893 47.2877C80.401 46.0842 78.0441 46.0257 76.1469 46.8615C74.2497 47.6972 72.762 49.3186 71.8092 51.1657C72.2605 48.5915 71.968 46.0257 71.3913 43.4766V43.4849Z" fill="#D498C4"/>
<path d="M13.7152 49.52C13.7319 49.1188 13.7319 48.6675 13.4478 48.4001C13.2305 48.1911 12.9045 48.1577 12.6036 48.1243C11.0491 47.9738 9.48619 47.815 7.93165 47.6646C7.22959 47.5977 6.46068 47.4974 5.97593 46.9876C5.30731 46.2856 5.5079 45.0653 6.16816 44.3716C6.82842 43.6779 7.83135 43.3938 8.78414 43.2684C10.0378 43.1013 11.3249 43.1347 12.5702 43.3687C12.7039 41.6804 12.7457 39.9838 12.7039 38.2872C15.5121 37.9696 18.3454 37.8609 21.1703 37.9696C21.1703 36.2061 20.4934 34.4593 20.7023 32.7042C21.0366 29.8459 23.8114 27.6561 26.6865 27.4806C28.6923 27.3552 31.0241 28.425 31.3083 30.4058C31.5674 32.2027 30.0964 33.7322 28.7425 34.9524C31.8014 35.5375 34.852 36.1142 37.9109 36.6992C38.8136 36.8747 39.758 37.0586 40.4851 37.6186C42.374 39.0645 41.9059 41.9813 41.2457 44.263C39.7747 43.8284 38.2536 43.3854 36.7241 43.5693C35.1946 43.7532 33.6652 44.731 33.3225 46.2271C32.9464 47.8735 34.1499 49.5451 35.6376 50.3391C36.8328 50.9743 38.5461 51.0829 39.3234 49.9797C39.198 52.7545 39.0643 55.5292 38.9389 58.304C38.9222 58.7052 38.8888 59.1481 38.613 59.449C38.3873 59.6914 38.053 59.7833 37.7354 59.8586C35.5039 60.4018 33.2222 60.7194 30.9322 60.7946C31.2247 58.2371 31.325 55.546 30.2552 53.2141C29.1854 50.8823 26.5945 49.0603 24.0955 49.6454C19.0057 50.8405 22.4407 56.6826 18.897 58.63C17.4678 59.4156 13.8406 59.5744 13.2723 58.0366C12.5201 55.9973 13.5982 51.7265 13.7152 49.52Z" fill="#D498C4"/>
<path d="M47.7146 35.9643C47.8817 36.4658 48.3832 36.8837 48.9682 36.8837H49.3025C50.2219 36.633 53.3978 35.4629 58.4125 33.457C63.5943 31.4511 69.5283 29.111 72.6207 28.108C72.955 28.0245 73.2057 27.7737 73.3729 27.4394C73.54 27.1051 73.54 26.7708 73.4565 26.4365C72.2864 22.8427 70.6984 19.416 68.7761 16.1565C68.609 15.8221 68.2746 15.5714 67.8568 15.5714C67.5224 15.4878 67.1046 15.655 66.8538 15.9057C65.9345 16.7415 65.0151 17.5773 63.9286 17.9952C62.9257 18.413 61.9228 18.3295 61.3377 17.9116C60.8362 17.5773 60.7527 16.9922 60.6691 16.5743C60.5855 15.7386 60.9198 14.8192 61.5049 14.3177C62.5078 13.3148 64.1793 12.7298 66.3524 12.7298C66.7703 12.7298 67.1881 12.479 67.4389 12.1447C67.6896 11.8104 67.6896 11.309 67.5224 10.8911L64.0958 3.87055C63.845 3.36909 63.26 3.03478 62.675 3.20193C60.1676 3.78698 57.7439 4.53918 55.4037 5.54211C55.2365 3.45267 54.2336 1.94827 52.4785 1.1125C50.7234 0.27672 48.8011 0.193142 47.2131 0.861763C45.8759 1.44681 44.9565 2.44974 44.5386 3.7034C43.7028 6.21073 45.0401 8.46732 46.6281 10.1389C44.3715 11.2254 42.1149 12.0612 39.6911 12.7298C39.3568 12.8134 39.0225 13.0641 38.8553 13.482C38.6882 13.8163 38.6882 14.2342 38.8553 14.5685C42.3656 21.4218 45.2908 28.6095 47.7146 35.9643ZM49.219 11.7268C49.5533 11.5597 49.804 11.1418 49.8876 10.8075C49.9712 10.3896 49.804 9.97172 49.4697 9.72098C47.2131 7.63154 46.3773 5.95999 46.7952 4.62275C47.0459 3.87055 47.631 3.53624 48.1325 3.28551C49.0518 2.86762 50.2219 2.86762 51.1412 3.28551C52.7292 4.03771 52.7292 5.54211 52.5621 6.96292C52.4785 7.88228 52.7292 8.38374 53.3978 8.63447C53.4814 8.63447 54.15 8.80163 54.6515 8.38374C56.9917 7.29723 59.499 6.46146 62.0063 5.79284L64.1793 10.2224C62.1735 10.5568 60.5855 11.309 59.499 12.3955C58.4125 13.482 57.8275 15.0699 57.911 16.6579C57.9946 17.9952 58.5797 19.0817 59.499 19.8339C60.8362 20.8368 62.7585 21.004 64.5972 20.3353C65.5166 19.9174 66.3524 19.416 67.1046 18.8309C68.3582 21.1711 69.5283 23.5949 70.3641 26.1022C67.021 27.2723 61.8392 29.2781 57.2424 31.1168C54.15 32.2869 51.2248 33.457 49.5533 34.0421C47.3803 27.523 44.7058 21.0875 41.6134 14.9028C44.3715 13.9834 46.8788 12.9805 49.219 11.7268Z" fill="black" stroke="black" stroke-width="0.835775" stroke-miterlimit="10"/>
<path d="M39.6906 35.9622C36.1803 35.1265 32.5865 34.625 28.9926 34.2907C29.4105 33.6221 29.6612 32.8699 29.8284 32.1177C30.1627 30.1118 29.6612 28.106 28.4912 26.7687C27.3211 25.4315 25.5659 24.6793 23.5601 24.5957H23.4765C21.4706 24.5957 19.7155 25.3479 18.4619 26.7687C17.2918 28.106 16.7067 29.9447 16.7903 31.7834C16.8739 32.5356 16.9575 33.2878 17.2082 33.9564L11.1906 32.6191C10.8563 32.5356 10.522 32.6191 10.1877 32.7863C9.93694 32.9535 9.68621 33.2878 9.68621 33.6221L8.51612 40.9769C8.34897 40.8933 8.18181 40.7262 8.01466 40.6426C6.34311 39.7232 4.42082 39.7232 2.91643 40.559C1.57919 41.3112 0.743411 42.732 0.492679 44.4036C0.241946 46.1587 0.743411 47.9974 1.82992 49.1675C3.33432 50.8391 5.84164 51.5077 8.09824 51.0898C7.59677 54.015 7.26246 56.9402 7.17888 59.949C7.17888 60.2833 7.26246 60.6176 7.51319 60.8684C7.76393 61.1191 8.09824 61.2027 8.43255 61.2863C12.5278 61.2863 16.7067 61.537 20.7184 62.2892C21.2199 62.3728 21.7214 62.122 22.0557 61.7041C22.3064 61.2863 22.3064 60.7012 21.9721 60.2833C20.802 58.6953 19.7155 57.1074 19.7155 55.4358C19.7991 53.5971 21.6378 51.842 23.6437 51.842C25.6495 51.842 27.4882 53.5135 27.9061 55.603C28.324 57.6088 27.3211 59.8654 25.4824 61.0355C25.0645 61.2862 24.8137 61.8713 24.9809 62.3728C25.0645 62.8742 25.4824 63.2921 26.0674 63.3757C26.5689 63.4593 32.2522 64.0443 34.9266 64.0443C35.5117 64.0443 35.9296 64.0443 36.1803 63.9607C36.6818 63.8772 37.0997 63.3757 37.1832 62.8742C37.5175 59.1968 38.2697 55.603 39.5234 52.1763C39.6906 51.6748 39.5234 51.0898 39.1055 50.7555C38.6876 50.4212 38.1026 50.3376 37.6847 50.5883C36.3475 51.3405 34.5087 50.9226 33.673 49.7525C32.8372 48.5825 33.0043 46.7438 34.0909 45.8244C34.5923 45.4065 35.3445 45.2394 36.0967 45.2394C36.8489 45.3229 37.434 45.6572 37.8518 46.1587C38.1862 46.5766 38.7712 46.7438 39.2727 46.5766C39.7741 46.4094 40.1084 45.908 40.1084 45.3229C40.0249 42.5649 40.2756 39.8904 40.7771 37.2159C40.7771 36.7144 40.3592 36.0458 39.6906 35.9622ZM37.434 43.1499C37.0161 42.9828 36.6818 42.8992 36.2639 42.8992C34.8431 42.732 33.4222 43.1499 32.3357 44.0693C30.2463 45.8244 29.912 49.2511 31.5835 51.4241C32.67 52.8449 34.5087 53.6807 36.3475 53.5971C35.5953 56.188 35.0938 58.8625 34.7595 61.537C33.4222 61.537 30.9985 61.3698 29.0762 61.1191C30.3299 59.364 30.9149 57.1074 30.497 55.1015C29.912 51.9256 26.9868 49.3347 23.8108 49.3347C20.4677 49.3347 17.3753 52.0927 17.2918 55.3522C17.2082 56.7731 17.7097 58.1103 18.3783 59.364C15.5366 59.0297 12.695 58.7789 9.85336 58.7789C10.0205 55.603 10.4384 52.5106 11.107 49.4182C11.1906 48.9168 11.0235 48.4153 10.6056 48.081C10.1877 47.7467 9.60263 47.7467 9.18474 48.081C7.51319 49.1675 5.00587 48.9168 3.7522 47.5795C3.16716 46.9109 2.83285 45.8244 3.00001 44.8215C3.16716 43.9021 3.58505 43.1499 4.25367 42.8156C4.92229 42.3977 5.92522 42.4813 6.761 42.8992C7.51319 43.3171 7.93108 43.9857 7.93108 44.6543C7.93108 45.3229 8.43255 45.8244 9.10117 45.908C9.76979 45.9916 10.3548 45.4901 10.4384 44.8215L11.9428 35.3772L19.7155 36.8816C20.3006 36.9652 20.8856 36.7144 21.1363 36.213C21.3871 35.7115 21.3035 35.0429 20.802 34.7086C19.9662 33.9564 19.3812 32.7863 19.2976 31.5326C19.2141 30.279 19.6319 29.1925 20.3006 28.3567C21.0528 27.5209 22.2228 27.103 23.4765 27.103C24.7302 27.103 25.8167 27.6045 26.4853 28.3567C27.1539 29.1925 27.4882 30.3626 27.2375 31.6162C26.9868 32.7863 26.4017 33.7892 25.4824 34.2071C24.9809 34.4579 24.7302 35.0429 24.8137 35.6279C24.8973 36.213 25.3988 36.6309 25.9838 36.6309C29.9956 36.8816 33.9237 37.3831 37.8518 38.2188C37.6847 39.8068 37.5175 41.4784 37.434 43.1499Z" fill="black" stroke="black" stroke-width="0.835775" stroke-miterlimit="10"/>
<path d="M78.1359 55.8556C79.8075 54.9362 80.9776 53.0975 80.9776 51.1752C80.894 48.5843 78.721 46.2442 76.1301 46.077C74.7092 45.9934 73.2884 46.5785 72.3691 47.665C71.8676 46.7456 71.4497 45.8263 70.9483 44.9069V44.3219L70.8647 43.6532C70.7811 43.1518 70.4468 42.6503 69.9453 42.5667C69.1931 41.8981 68.1902 41.5638 67.1873 41.6474C65.7664 41.731 64.5964 42.5667 63.5099 43.4025C63.0084 43.7368 62.5905 44.1547 62.1726 44.489C60.7518 45.6591 59.4981 46.7456 57.9937 47.4978C57.5758 47.7485 57.2415 48.25 57.3251 48.7515C57.4087 49.2529 57.743 49.6708 58.2445 49.838C59.7489 50.2559 60.9189 51.2588 61.2533 52.5125C61.5876 53.6826 61.0025 55.1034 59.9996 55.5213C59.0802 55.8556 57.8266 55.1869 57.2415 54.3512C56.4058 53.1811 56.3222 51.5931 56.4058 50.5066C56.4058 50.0051 56.2386 49.5873 55.8207 49.3365C55.4028 49.0858 54.9014 49.0858 54.4835 49.3365C51.3075 51.1752 48.048 53.0975 44.9556 55.1034C44.3706 55.4377 44.2034 56.1899 44.5377 56.7749L48.4659 63.879C47.6301 64.0462 46.8779 64.3805 46.2093 64.7984C44.7049 65.7177 43.7855 67.2221 43.6184 68.8101C43.5348 70.0638 44.0363 71.401 44.9556 72.4039C45.9586 73.4069 47.2958 73.9919 48.633 73.9083C50.221 73.8247 51.7254 72.9054 52.6448 71.5682L55.57 75.9978C55.7371 76.3321 56.0715 76.4992 56.4058 76.5828H56.6565C56.9072 76.5828 57.2415 76.4992 57.4087 76.3321C59.6653 74.5769 62.1726 72.989 64.6799 71.5682C65.0978 71.3174 65.3486 70.8995 65.3486 70.4816C65.3486 69.9802 65.0978 69.5623 64.6799 69.3951C63.2591 68.5594 62.5069 66.6371 63.0084 65.1327C63.5098 63.6283 65.3486 62.7089 66.853 63.1268C67.5216 63.3776 68.1902 63.9626 68.4409 64.7148C68.7752 65.467 68.7752 66.2192 68.5245 66.8042C68.2738 67.3057 68.4409 67.8907 68.8588 68.3086C69.2767 68.7265 69.8617 68.7265 70.3632 68.4758L80.1418 62.4582C80.6432 62.1239 80.894 61.4553 80.6433 60.8702C79.9746 59.1151 79.1389 57.4435 78.1359 55.8556ZM71.199 64.8819C71.1154 64.4641 71.0318 64.0462 70.8647 63.6283C70.1961 62.2075 69.1096 61.121 67.6887 60.6195C64.9307 59.7001 61.6711 61.3717 60.6682 64.2133C59.916 66.3028 60.5011 68.5594 61.9219 70.2309C60.2503 71.2338 58.5788 72.3204 57.0744 73.4069L53.4805 67.9743C53.2298 67.64 52.8119 67.3893 52.394 67.3893C52.3105 67.3893 52.1433 67.3893 52.0597 67.4729C51.5583 67.64 51.1404 68.1415 51.1404 68.7265C51.1404 70.0638 49.9703 71.3174 48.7166 71.401C48.1316 71.401 47.463 71.1503 46.9615 70.6488C46.5436 70.1473 46.2929 69.5623 46.2929 69.0608C46.3765 68.3086 46.8779 67.4729 47.6301 66.9714C48.3823 66.4699 49.3852 66.2192 50.5553 66.2192C50.9732 66.2192 51.3911 65.9685 51.6418 65.6341C51.8926 65.2163 51.8926 64.7984 51.6418 64.3805L47.3794 56.5242C49.5524 55.1869 51.7254 53.7661 53.8984 52.5125C54.0656 53.7661 54.4835 54.9362 55.1521 55.772C56.4893 57.6943 58.9967 58.5301 60.9189 57.7779C63.1755 56.9421 64.4292 54.184 63.677 51.6767C63.2591 50.3395 62.4233 49.2529 61.1697 48.4172C62.089 47.7485 62.9248 47.0799 63.7606 46.4113C64.1785 46.077 64.6799 45.6591 65.0978 45.3248C65.7664 44.7398 66.6022 44.1547 67.3544 44.1547C67.5216 44.1547 67.6887 44.1547 67.8559 44.2383C67.8559 44.3219 67.9395 44.489 67.9395 44.5726C68.9424 46.9128 70.1961 49.1694 71.4497 51.3424C71.784 51.8438 72.4526 52.0946 73.0377 51.8438C73.6227 51.5931 73.957 51.0081 73.7899 50.423C73.7063 50.0051 73.957 49.6708 74.1242 49.4201C74.5421 48.9186 75.2943 48.5843 75.8793 48.6679C77.2166 48.7515 78.3867 50.0051 78.3867 51.2588C78.3867 52.5125 77.3002 53.7661 76.0465 53.9333C75.6286 53.9333 75.2107 54.2676 74.96 54.6855C74.7928 55.1034 74.7928 55.6048 75.0436 55.9391C76.1301 57.4435 77.0494 59.1151 77.8016 60.8702L71.199 64.8819Z" fill="black" stroke="black" stroke-width="0.835775" stroke-miterlimit="10"/>
</g>
<defs>
<clipPath id="clip0_786_5143">
<rect width="84.9064" height="77" fill="white" transform="translate(0.00878906)"/>
</clipPath>
</defs>
</svg>
