<svg width="71" height="40" viewBox="0 0 71 40" fill="none" xmlns="http://www.w3.org/2000/svg">
<g clip-path="url(#clip0_786_3650)">
<path d="M10.9183 23.2412C7.09216 23.391 3.71571 26.9095 3.73938 30.7435C3.73938 30.9881 3.76305 31.2484 3.91294 31.4298C4.09438 31.6507 4.40994 31.7059 4.70183 31.7454C5.68794 31.8795 6.67405 32.0136 7.66016 32.1398C6.85549 32.5895 6.76083 33.8202 7.31305 34.5617C7.86527 35.3033 8.85138 35.5952 9.77438 35.6031C11.6204 35.6188 13.4348 34.5696 14.3578 32.9682C14.5235 32.6842 14.7365 32.337 15.0678 32.3765C15.2019 32.3923 15.3203 32.479 15.4307 32.5579C16.5746 33.3942 17.8605 34.1673 19.2726 34.2304C20.6847 34.2935 22.2388 33.4099 22.4676 32.0136C23.2723 31.9189 24.0296 32.4002 24.8343 32.4554C26.6093 32.5658 27.8794 30.3017 27.2009 28.6529C26.5225 27.0042 24.5266 26.1995 22.7595 26.4204C23.3117 25.8129 23.1145 24.7479 22.4518 24.2667C21.7892 23.7855 20.8346 23.8486 20.1483 24.2983C22.0179 20.4722 26.1833 18.2238 30.3802 17.5059C33.4095 16.9853 36.6124 17.0957 39.4445 18.2948C42.2766 19.4939 44.6906 21.8685 45.4953 24.8268C44.0674 25.7498 43.7597 27.8246 44.4934 29.355C45.2271 30.8855 46.8522 31.8637 48.5325 32.1398C50.2128 32.4159 51.9326 32.0767 53.5498 31.5324C53.4552 33.3468 54.7489 35.1376 56.5082 35.6188C58.2674 36.1001 60.2869 35.2086 61.1232 33.5914C62.5984 34.0253 64.1762 34.3251 65.675 33.9543C67.1739 33.5835 68.5545 32.3923 68.7123 30.8539C68.87 29.3156 67.3948 27.7142 65.8959 28.0928C65.5409 26.5387 63.9632 25.3633 62.3696 25.4658C62.6299 23.0045 61.344 20.622 60.0029 18.5394C55.9559 12.2835 50.8203 6.13805 43.7045 3.92916C40.8408 3.04561 37.8115 2.84838 34.8137 2.96672C28.9759 3.20338 23.0672 4.68649 18.318 8.08661C13.5689 11.4867 10.9893 17.3797 10.9419 23.2175L10.9183 23.2412Z" fill="#CBA3C9"/>
<path d="M4.48948 27.8653C4.48948 27.8653 4.43426 27.8653 4.4027 27.8653C4.13448 27.818 3.96092 27.5655 4.00826 27.3052C4.35537 25.2856 5.07326 23.061 5.70437 21.0888C5.94104 20.3393 6.1777 19.6214 6.37492 18.943C7.41626 15.4245 8.71004 12.766 10.4298 10.565C14.1139 5.85531 19.431 2.6682 26.6651 0.8222C30.0495 -0.0376891 33.4811 -0.045578 36.9917 0.0333109C37.2205 0.0333109 37.4493 0.0806442 37.6465 0.120089L37.7254 0.135866C40.2814 0.648644 42.5139 1.30342 44.5571 2.12387C49.4404 4.10398 53.6373 7.93009 57.3766 13.8152C58.9623 16.3081 60.1298 18.4854 60.6741 20.9783C61.037 21.5936 61.25 22.209 61.4551 22.8085C61.5656 23.1399 61.6839 23.4712 61.8259 23.8104C61.9285 24.055 61.818 24.339 61.5656 24.4494C61.321 24.552 61.037 24.4415 60.9266 24.1891C60.7767 23.8341 60.6505 23.4791 60.5321 23.1241C60.327 22.5245 60.1298 21.9644 59.7985 21.4043C59.7669 21.357 59.7511 21.3096 59.7433 21.2544C59.2384 18.8641 58.1024 16.7578 56.5561 14.328C52.9273 8.62431 48.8881 4.92442 44.1864 3.01531C42.2063 2.21064 40.0289 1.57953 37.536 1.08253L37.4493 1.06676C37.2915 1.0352 37.1337 0.995755 36.968 0.995755C33.5285 0.924755 30.1678 0.924755 26.9018 1.76098C19.7781 3.57542 14.7845 6.55742 11.1871 11.1566C9.54626 13.2551 8.3077 15.8111 7.29792 19.2112C7.09281 19.8896 6.86404 20.6154 6.61948 21.3728C5.99626 23.3134 5.29415 25.5065 4.96281 27.4551C4.92337 27.6918 4.71826 27.8574 4.48159 27.8574L4.48948 27.8653Z" fill="black"/>
<path d="M10.5246 25.9399C10.359 25.9399 10.2012 25.8295 10.1539 25.6559C10.1302 25.5691 10.0986 25.4824 10.0671 25.3956C9.98031 25.1668 9.88564 24.9144 9.89353 24.6304C9.97242 22.1927 10.6982 19.6919 12.1734 16.7572C13.6092 13.9015 15.9285 11.6216 18.0112 9.77558C20.6145 7.45624 23.8726 5.91791 28.251 4.92391C30.8622 4.33224 33.6549 4.26913 36.7868 4.72669C41.1099 5.36569 44.6283 6.30446 47.7129 8.82102C48.3361 9.3338 48.9041 9.88602 49.4563 10.4304C49.6851 10.6512 49.906 10.8721 50.1348 11.093L50.2846 11.235C52.3752 13.223 54.5289 15.282 55.7753 18.0431C56.5879 19.8339 57.6686 22.5004 57.7318 24.9617C57.7318 25.1747 57.5661 25.3561 57.3531 25.364C57.1559 25.364 56.9586 25.1984 56.9508 24.9854C56.8955 22.666 55.8463 20.0942 55.0653 18.3666C53.882 15.7475 51.7756 13.7437 49.7482 11.803L49.5983 11.661C49.3695 11.4401 49.1329 11.2114 48.9041 10.9905C48.3676 10.4619 47.8154 9.91757 47.2159 9.42846C44.2654 7.02235 40.8653 6.11513 36.6684 5.4998C33.6312 5.05013 30.9332 5.11324 28.4166 5.68913C24.1724 6.65158 21.0247 8.14258 18.524 10.3672C16.4965 12.1659 14.2403 14.3748 12.8676 17.1201C11.4397 19.9522 10.7455 22.3505 10.6666 24.6698C10.6666 24.796 10.7219 24.9617 10.7929 25.1352C10.8323 25.2378 10.8718 25.3482 10.9033 25.4508C10.9664 25.6559 10.8402 25.8689 10.6351 25.932C10.6035 25.9399 10.5641 25.9478 10.5246 25.9478V25.9399Z" fill="black"/>
<path d="M52.8564 25.5532C52.8564 25.5532 52.8169 25.5532 52.8012 25.5532C52.5882 25.5217 52.4383 25.3245 52.4698 25.1115C52.5882 24.3147 52.3278 23.581 52.0517 22.8C51.9097 22.3898 51.7598 21.9638 51.6652 21.5141C50.9946 18.3665 49.1565 15.8736 45.6854 13.4517C43.1609 11.6846 40.6365 10.6196 37.9464 10.1857C32.7003 9.34157 28.2273 9.98057 24.2671 12.1185C21.4665 13.6331 19.4864 15.4002 18.2242 17.5066C17.9481 17.9641 17.6246 18.398 17.3169 18.8082C16.8042 19.4946 16.3229 20.1415 16.0232 20.9146C15.6287 21.948 15.2974 22.9657 15.5341 24.0543C15.5814 24.2673 15.4473 24.4725 15.2343 24.5198C15.0213 24.5671 14.8162 24.433 14.7688 24.22C14.4848 22.9183 14.8714 21.735 15.2895 20.6385C15.6208 19.7628 16.1573 19.0449 16.6858 18.3507C17.0014 17.9326 17.2933 17.5381 17.5457 17.1121C18.8868 14.8796 20.9616 13.0257 23.8884 11.44C27.9985 9.20745 32.6372 8.55268 38.0568 9.42045C40.8574 9.87012 43.4923 10.9825 46.1114 12.8127C49.7008 15.3292 51.7046 18.0351 52.4067 21.3563C52.4935 21.7508 52.6276 22.1373 52.7696 22.5476C53.0615 23.3838 53.3613 24.2437 53.2193 25.2298C53.1877 25.4191 53.0221 25.5611 52.8327 25.5611L52.8564 25.5532Z" fill="black"/>
<path d="M48.9829 26.2959C48.8251 26.2959 48.6752 26.2249 48.5805 26.0829C48.1151 25.4044 47.768 24.6708 47.4287 23.9608C47.1132 23.2902 46.8055 22.6591 46.4111 22.0595C44.4862 19.1407 41.8276 17.2631 38.2776 16.3322C37.1259 16.0324 35.3903 15.638 33.6626 15.5118C31.6431 15.3619 29.7103 16.0877 27.6671 16.8608L26.9571 17.129C23.2177 18.5174 21.427 21.5862 19.4705 25.4518C19.3522 25.6963 19.0603 25.791 18.8157 25.6648C18.5791 25.5464 18.4765 25.2545 18.6027 25.01C20.5829 21.0892 22.5551 17.7128 26.6179 16.2139L27.3279 15.9457C29.379 15.1725 31.5011 14.3679 33.7336 14.5414C35.5323 14.6755 37.331 15.0779 38.5222 15.3934C42.3167 16.3874 45.1567 18.3991 47.2157 21.5231C47.6496 22.1779 47.981 22.8721 48.2965 23.5427C48.6358 24.2527 48.9513 24.9153 49.3773 25.5385C49.5272 25.7594 49.472 26.0592 49.2511 26.217C49.1643 26.2722 49.0696 26.3038 48.975 26.3038L48.9829 26.2959Z" fill="black"/>
<path d="M6.7618 39.7469C5.22347 39.7469 3.85869 39.2184 2.95936 38.2559C1.27903 36.4494 1.46047 34.272 1.9338 32.3314C1.9338 32.3314 1.9338 32.3314 1.92592 32.3314C1.74447 32.1894 1.55514 32.0395 1.35792 31.9132C0.300804 31.2506 -0.282974 29.7359 0.135137 28.7261C0.679471 27.4008 2.17047 26.5882 3.52736 26.8644C4.26892 27.0142 4.80536 27.03 5.34969 26.6198C5.90192 26.2017 6.64347 26.0991 7.39291 26.3358C8.1818 26.5804 8.81291 27.172 9.04169 27.8662C9.12847 28.1187 8.98647 28.3948 8.73403 28.4816C8.48158 28.5684 8.20547 28.4264 8.11869 28.1739C7.99247 27.7795 7.59014 27.4245 7.10103 27.2667C6.65925 27.1326 6.23325 27.1799 5.93347 27.4008C5.0578 28.0635 4.16636 28.0004 3.33014 27.8268C2.4308 27.6375 1.40525 28.2134 1.03447 29.1048C0.797804 29.6728 1.23169 30.6905 1.87069 31.0928C2.09947 31.2348 2.32036 31.4084 2.52547 31.5661L2.77792 31.7634C2.93569 31.8817 3.00669 32.0868 2.95936 32.2761C2.47814 34.1221 2.22569 36.047 3.67725 37.6011C4.45036 38.4374 5.7678 38.8712 7.1878 38.7687C8.78925 38.6504 10.225 37.9009 11.0139 36.7649C11.0849 36.6466 11.2585 36.1732 11.2664 36.0391C11.2111 35.7788 11.3847 35.5421 11.6529 35.4948C11.9132 35.4396 12.1736 35.6368 12.2288 35.8971C12.3156 36.331 11.9054 37.1909 11.8186 37.325C10.8561 38.7056 9.15214 39.6128 7.2588 39.7469C7.09314 39.7548 6.92747 39.7627 6.76969 39.7627L6.7618 39.7469Z" fill="black"/>
<path d="M60.2245 38.1847C59.8931 38.1847 59.5697 38.1295 59.2699 38.0111C58.0787 37.5615 57.1478 35.9364 57.2819 34.54C57.3056 34.2718 57.558 34.0746 57.8105 34.0983C58.0787 34.1219 58.2759 34.3586 58.2522 34.6268C58.1576 35.5971 58.8281 36.7962 59.617 37.096C60.54 37.4431 61.7865 36.9146 62.5201 35.8654C62.599 35.7549 62.7174 35.676 62.8594 35.6602C63.4431 35.5892 63.9796 35.6997 64.5081 35.8022C65.0446 35.9127 65.5574 36.0152 66.007 35.8811L66.3857 35.7707C67.3324 35.5025 68.2317 35.2421 68.918 34.6031C69.6123 33.9641 69.7621 33.0569 69.9278 32.0945L70.0067 31.6369C70.1014 31.1084 69.8647 30.4062 69.3677 29.6962C68.4999 28.4814 67.2219 27.7398 65.5889 27.5031C65.3917 27.4795 65.2339 27.3296 65.1866 27.1403L65.1314 26.9115C65.0998 26.7931 65.0761 26.6906 65.0446 26.588C64.6186 25.1996 64.0033 24.6 62.8673 24.4501C61.5814 24.2845 60.8477 25.0181 59.9878 25.8701C59.8379 26.02 59.688 26.162 59.5381 26.304C59.3409 26.4855 59.0332 26.4776 58.8518 26.2804C58.6704 26.0831 58.6782 25.7755 58.8755 25.594C59.0175 25.4599 59.1595 25.3179 59.3015 25.1759C60.2087 24.2766 61.25 23.2589 62.9935 23.4798C64.942 23.7322 65.6126 25.1128 65.9755 26.2882C66.007 26.3829 66.0307 26.4776 66.0544 26.588C67.8136 26.9115 69.1941 27.7635 70.1645 29.1282C70.551 29.6726 71.1664 30.7297 70.9691 31.8105L70.8903 32.2522C70.7167 33.2857 70.5274 34.4454 69.5807 35.321C68.7208 36.1178 67.6716 36.4176 66.6539 36.7016L66.2753 36.812C65.5889 37.0171 64.9341 36.883 64.303 36.7489C63.9086 36.67 63.5378 36.6069 63.1749 36.599C62.4018 37.5851 61.2816 38.161 60.2245 38.161V38.1847Z" fill="black"/>
<path d="M50.3002 33.8843C49.1721 33.8843 48.3122 33.2768 47.8073 32.5353C46.9238 31.2494 45.843 29.3561 46.7186 27.8098C47.6811 26.1058 49.1326 25.0251 50.8209 24.7568C52.517 24.4886 54.2762 25.1039 55.7751 26.4766C55.9723 26.6581 55.9881 26.9657 55.8066 27.1629C55.6252 27.3602 55.3175 27.3759 55.1203 27.1945C53.8502 26.0191 52.375 25.4984 50.9786 25.7193C49.5902 25.9402 48.3832 26.8474 47.5706 28.2911C47.121 29.0957 47.4602 30.3027 48.6199 31.9909C49.2825 32.9534 50.3949 33.1743 51.6098 32.5747C51.8228 32.4722 52.0358 32.4406 52.2172 32.4248C52.5091 32.3854 52.5328 32.3696 52.5643 32.3065C52.6826 32.0698 52.9745 31.9752 53.2191 32.0935C53.4558 32.2197 53.5504 32.5116 53.4321 32.7483C53.156 33.2847 52.6432 33.3478 52.3434 33.3873C52.2251 33.4031 52.1068 33.4188 52.0436 33.4504C51.4204 33.7581 50.8445 33.8843 50.3239 33.8843H50.3002Z" fill="black"/>
<path d="M17.8379 35.675C17.1279 35.675 16.4494 35.4462 15.8499 35.1464C15.6132 35.0281 15.5185 34.7283 15.6369 34.4916C15.7552 34.255 16.0471 34.1524 16.2917 34.2786C18.0351 35.1622 19.3052 34.6652 20.2913 32.7324C20.3623 32.5983 20.4885 32.5036 20.6384 32.4721C20.7883 32.4405 20.9382 32.4878 21.0487 32.5904C22.4529 33.8605 23.7388 34.3181 24.7722 33.9078C25.853 33.4818 26.4447 32.2117 26.5393 31.2177C26.6024 30.4998 26.4289 29.9161 26.0818 29.7031C25.9161 29.6005 25.8293 29.4112 25.8609 29.214C26.0108 28.2752 24.9379 27.5888 24.6065 27.3995C24.1963 27.1707 23.7703 27.1392 23.3995 27.3364C22.9657 27.5652 22.6738 28.0701 22.6185 28.7012C22.5949 28.9694 22.3661 29.1666 22.09 29.143C21.8218 29.1193 21.6245 28.8826 21.6482 28.6144C21.735 27.6598 22.2162 26.8552 22.942 26.4765C23.5968 26.1294 24.3778 26.161 25.0799 26.5554C26.208 27.1944 26.847 28.1174 26.8391 29.0641C27.3519 29.5374 27.5964 30.35 27.5097 31.3045C27.3913 32.6377 26.6024 34.2392 25.1272 34.8151C24.22 35.1701 22.7684 35.2332 20.8593 33.7027C19.9521 35.1858 18.8713 35.675 17.8379 35.675Z" fill="black"/>
<path d="M55.5702 36.7323C55.0811 36.7323 54.6472 36.5588 54.1896 36.3852C54.0161 36.3142 53.8268 36.2432 53.6138 36.1722C52.5014 35.6279 51.9729 34.3104 52.2569 32.9378C52.3121 32.6774 52.5645 32.5039 52.8328 32.5591C53.0931 32.6143 53.2666 32.8746 53.2114 33.135C53.0221 34.058 53.3455 34.9573 53.9845 35.2729C54.1502 35.3202 54.3553 35.3991 54.5446 35.478C55.1363 35.7068 55.4913 35.8488 56.012 35.6752C56.3906 35.6042 56.6115 35.478 56.864 35.336C57.0454 35.2334 57.2269 35.123 57.4635 35.0362C57.716 34.9415 58 35.0678 58.0946 35.3202C58.1893 35.5726 58.0631 35.8488 57.8106 35.9513C57.645 36.0144 57.503 36.1012 57.3531 36.188C57.0612 36.3615 56.7299 36.5509 56.2408 36.6298C56.0041 36.7086 55.7832 36.7402 55.5702 36.7402V36.7323Z" fill="black"/>
<path d="M13.2546 37.869C12.9548 37.869 12.6471 37.8216 12.3395 37.7428C12.2921 37.727 12.2133 37.727 12.1344 37.727C11.8898 37.727 11.4875 37.7112 11.1877 37.3562C11.0141 37.1511 11.0378 36.8434 11.2429 36.6699C11.448 36.4963 11.7557 36.52 11.9293 36.7251C11.9608 36.7488 12.0791 36.7488 12.1501 36.7488C12.2764 36.7488 12.4341 36.7488 12.5998 36.804C13.3414 37.0091 14.075 36.8592 14.6115 36.3859C15.2031 35.8652 15.4714 35.029 15.3373 34.1454C15.2978 33.8772 15.4793 33.6326 15.7475 33.5932C16.0078 33.5459 16.2603 33.7352 16.2997 34.0034C16.4811 35.2183 16.0946 36.378 15.2584 37.1195C14.6983 37.6165 13.9961 37.8769 13.2546 37.8769V37.869Z" fill="black"/>
<path d="M22.0108 28.4897C21.8688 28.4897 21.7347 28.4266 21.64 28.3162C20.7801 27.2827 19.6599 26.4623 18.5791 25.6734L18.4687 25.5945C16.5832 24.2139 14.3507 24.6873 12.623 25.2632C11.2109 25.7286 9.98811 26.6595 8.98622 28.0322C8.82844 28.253 8.52078 28.2925 8.30778 28.1347C8.09478 27.9769 8.04744 27.6693 8.20522 27.4563C9.33333 25.9179 10.7218 24.8687 12.3232 24.3402C14.2797 23.7012 16.8041 23.1647 19.0524 24.8135L19.1629 24.8924C20.291 25.7128 21.4586 26.5648 22.3894 27.6929C22.563 27.898 22.5314 28.2057 22.3263 28.3793C22.2317 28.4503 22.1212 28.4897 22.0187 28.4897H22.0108Z" fill="black"/>
<path d="M55.1839 26.8172C55.0814 26.8172 54.9709 26.7856 54.8841 26.7146C54.6711 26.549 54.6317 26.2413 54.7974 26.0283C56.6276 23.6853 57.9845 24.6162 59.0731 25.3656L59.3256 25.5392C59.5465 25.6891 59.6096 25.9889 59.4597 26.2097C59.3098 26.4306 59.01 26.4937 58.7813 26.3439L58.5209 26.1624C57.4323 25.413 56.8327 25.0027 55.5626 26.6279C55.4679 26.7541 55.3259 26.8172 55.176 26.8172H55.1839Z" fill="black"/>
<path d="M19.7149 27.8033C19.6202 27.8033 19.5334 27.7638 19.4782 27.6849C18.571 26.4227 17.1352 25.7048 15.1866 25.547C14.1216 25.4603 12.8436 25.9573 11.8417 26.8329C11.7234 26.9355 11.5341 26.9276 11.4315 26.8093C11.3211 26.6909 11.3369 26.5016 11.4552 26.399C12.5675 25.4208 14.0191 24.8686 15.2261 24.9711C17.3482 25.1447 18.9339 25.9415 19.9436 27.3536C20.0383 27.4877 20.0068 27.6691 19.8805 27.7638C19.8253 27.7954 19.7701 27.819 19.707 27.819L19.7149 27.8033Z" fill="black"/>
<path d="M65.3839 35.5102C64.8869 35.5102 64.382 35.4313 63.8771 35.2735C63.7272 35.2262 63.6326 35.0605 63.6878 34.9106C63.743 34.7607 63.9008 34.674 64.0507 34.7213C65.3129 35.1157 66.5514 34.9501 67.7348 34.2401C68.358 33.8693 68.7682 33.0646 68.8077 32.1495C68.8156 31.9917 68.9576 31.8655 69.1153 31.8734C69.2731 31.8813 69.3993 32.0154 69.3914 32.1811C69.3362 33.2934 68.8156 34.2795 68.0346 34.745C67.1747 35.2577 66.2911 35.5181 65.3918 35.5181L65.3839 35.5102Z" fill="black"/>
<path d="M55.5939 35.5414C55.4834 35.5414 55.3651 35.5335 55.2467 35.5099C54.5762 35.3994 53.8741 34.9813 53.5033 34.4528C53.0773 33.8453 53.2193 33.23 53.2272 33.2063C53.2666 33.0485 53.4244 32.9539 53.5822 32.9933C53.74 33.0328 53.8346 33.1905 53.7952 33.3404C53.7952 33.3641 53.7163 33.7349 53.9766 34.1135C54.2606 34.508 54.8129 34.8472 55.3335 34.9261C55.586 34.9655 55.9646 34.9655 56.2881 34.7289C56.4222 34.6342 56.6036 34.6579 56.6983 34.7841C56.793 34.9103 56.7693 35.0997 56.6431 35.1943C56.3433 35.4152 55.9883 35.5335 55.5939 35.5335V35.5414Z" fill="black"/>
</g>
<defs>
<clipPath id="clip0_786_3650">
<rect width="71" height="39.7442" fill="white"/>
</clipPath>
</defs>
</svg>
