<svg width="81" height="77" viewBox="0 0 81 77" fill="none" xmlns="http://www.w3.org/2000/svg">
<g clip-path="url(#clip0_786_5135)">
<path d="M37.6005 37.313C36.4631 37.2688 35.2705 37.2026 34.2987 36.6062C32.0791 35.2369 32.1675 32.0345 32.5208 29.4394C32.83 27.253 33.1282 25.0554 33.4374 22.869C33.5037 22.4162 33.5589 21.9303 33.338 21.5438C33.0619 21.0579 32.4767 20.8812 31.9466 20.6935C29.8926 19.9316 28.181 18.2972 27.3418 16.2764C26.8559 15.1169 26.6681 13.7365 27.2976 12.6543C27.7393 11.8924 28.5013 11.3955 29.2522 10.9427C33.1834 8.53536 37.2913 6.41514 41.5428 4.61516C42.8128 4.07406 44.16 3.56609 45.5293 3.74278C46.733 3.90842 47.7931 4.60412 48.798 5.27773C53.5906 8.48015 58.604 11.9366 61.0003 17.1709C61.2653 17.7561 61.5083 18.3966 61.3868 19.0261C61.0997 20.561 59.1672 20.9696 57.8421 21.7978C55.3685 23.3328 54.9047 26.6677 54.5623 29.5609C54.22 32.41 53.4028 36.1535 50.3329 37.1032C46.6446 38.2516 41.4324 37.4455 37.6116 37.313H37.6005Z" fill="#FCB568"/>
<path d="M52.9174 61.0782C52.9174 59.9849 53.072 58.6598 54.0658 58.196C55.1149 57.7101 56.2523 58.5604 57.3345 58.958C59.8302 59.8856 62.6461 58.3064 64.2142 56.1641C65.7823 54.0218 66.5111 51.3826 67.6485 48.9863C68.9185 46.3029 70.7405 43.8845 72.9601 41.9189C74.4178 40.6269 76.7368 39.5667 78.1503 40.9029C78.7466 41.4661 78.9674 42.3054 79.1441 43.1005C80.6239 49.8366 80.5245 56.915 78.846 63.5959C78.1834 66.2573 77.1122 69.0621 74.7932 70.5308C73.1479 71.5689 71.127 71.7787 69.1835 71.867C64.8216 72.0658 60.283 71.8008 56.2413 70.0118C52.1996 68.2229 52.8732 65.2524 52.9174 61.0671V61.0782Z" fill="#FCB568"/>
<path d="M6.87968 42.8537C6.87968 42.5114 6.9128 42.1359 7.16679 41.904C7.7631 41.3519 8.6134 42.2132 8.96677 42.9531C10.6011 46.2881 12.7434 49.38 15.2833 52.0855C16.2219 53.0794 17.6243 54.0953 18.828 53.4438C19.2035 53.245 19.5237 52.8806 19.9433 52.8585C20.4292 52.8365 20.8047 53.2561 21.1028 53.6315C23.7421 57.0106 26.3813 60.4008 28.623 64.056C29.8156 66.0105 30.9199 68.4289 29.9482 70.4939C29.1641 72.1614 27.2979 73.0007 25.5089 73.4534C22.0636 74.3258 17.9115 74.381 14.5655 73.0559C11.6833 71.9185 11.2085 68.9369 10.2919 66.1431C7.8404 58.645 6.66986 50.7273 6.87968 42.8537Z" fill="#FCB568"/>
<path d="M57.5997 20.5153C54.2317 21.8956 52.1225 23.7067 52.4869 27.8146C52.52 30.3213 51.9679 32.7949 50.8967 35.0587C49.2072 39.1997 45.7508 41.3973 41.3889 41.8721C39.4895 42.0378 37.5791 41.8721 35.746 41.3641C26.4479 38.9899 24.7804 36.5274 25.6307 25.8711C25.8295 23.3422 25.1559 22.1938 22.9142 21.1447C20.7167 20.0294 18.6959 18.6049 16.8959 16.9153C15.0959 15.3251 15.383 13.3816 16.8075 11.5485C21.8983 5.02219 29.2749 2.43816 36.7951 0.207512C38.2637 -0.145858 39.8097 -0.0464731 41.2122 0.494626C45.8391 2.07375 50.3777 3.93999 54.7838 6.06021C59.4439 8.44546 62.5911 12.0675 62.1163 17.9533C61.9396 20.195 62.834 22.503 62.8451 24.7778C62.8451 25.8048 61.8733 26.8428 61.3433 27.8698C60.3936 27.1851 58.9801 26.6882 58.5936 25.7717C58.0635 24.06 57.7323 22.3042 57.5887 20.5153H57.5997ZM20.8602 14.6736C21.2799 15.1374 21.5007 15.5239 21.821 15.6896C26.2712 18.1521 30.843 20.4048 35.5141 22.4146C38.1754 23.4416 41.7091 24.1925 44.1606 23.2649C47.7827 21.8956 50.974 19.1349 54.0108 16.573C56.6942 14.3092 56.4071 12.3767 53.2157 10.7865C49.2072 8.78779 44.9888 7.18658 40.8257 5.51911C39.8429 5.02219 38.7165 4.85654 37.6343 5.05532C31.5718 7.21971 25.0786 8.72153 20.8602 14.6957V14.6736ZM30.2577 25.352C29.9595 28.698 28.9326 31.9667 31.2626 34.628C33.3718 37.0354 40.384 37.9077 43.1447 36.5495C46.3471 34.9814 47.7716 31.9998 47.4403 27.3618C41.4551 30.0342 36.0221 27.671 30.2577 25.352ZM54.1986 48.277C46.9434 52.7714 42.5594 63.9357 44.4146 72.262C44.6355 73.2669 46.1594 73.9736 47.0759 74.8239C47.7385 73.8632 48.2575 72.8141 48.6109 71.6988C49.163 68.1541 49.2403 64.521 49.9471 61.0093C50.7974 56.8131 54.044 54.1959 57.2795 51.8217C59.1347 50.4524 60.1617 51.3358 60.6917 53.6106C61.3764 56.5149 59.6206 58.2265 58.2844 60.3357C57.7212 61.2192 58.2402 62.7983 58.2734 64.0572C59.3887 63.748 60.8574 63.7921 61.5641 63.0743C65.2856 59.4633 67.4058 54.5272 67.461 49.3481C67.4941 46.2451 67.7371 43.142 67.8475 40.039C67.9137 38.1396 68.5322 36.3728 70.564 36.4722C71.3149 36.5053 72.5076 38.5041 72.5738 39.6635C73.0597 45.1518 73.1812 50.6733 72.9603 56.1836C72.5628 62.1026 73.8106 68.6399 68.223 73.2669C67.726 73.6755 67.8917 75.873 68.4769 76.3258C69.4818 76.8448 70.6855 76.8116 71.6573 76.2485C74.429 73.8853 76.8585 71.1246 77.0351 67.2154C77.3223 61.1087 77.5983 55.002 77.6425 48.8843C77.7419 44.9862 77.5321 41.077 77.013 37.212C76.3726 32.9053 74.1419 31.1716 70.7076 31.4035C66.8316 31.525 63.6733 34.5728 63.4193 38.4488C63.2206 41.2427 63.0991 44.0476 62.9887 46.0794C59.731 46.8524 56.5176 46.8635 54.2096 48.299L54.1986 48.277ZM15.3057 37.0022C14.3118 33.2587 11.6174 31.6796 7.5205 31.8784C3.95367 32.055 1.67885 33.9654 1.06045 37.7973C0.497264 41.1543 0.177022 44.5555 0.0997218 47.9567C0.000336334 54.7701 -0.132178 61.6057 0.386835 68.386C0.574564 70.8264 2.38559 73.2779 3.9095 75.3981C4.30704 75.9503 6.44935 75.2435 7.79658 75.1221C7.66406 73.8853 7.44321 72.6595 7.13401 71.4669C6.47144 69.4792 5.03587 67.5798 4.94753 65.6032C4.66041 59.2977 4.77084 52.9702 4.89231 46.6426C4.94753 44.0365 5.26777 41.4414 5.81991 38.9016C6.01868 38.0071 7.29965 36.693 8.01743 36.7372C9.16589 37.0243 10.1818 37.72 10.8665 38.6807C11.3303 39.4537 11.5732 40.3482 11.5622 41.2537C11.8493 44.8537 11.6837 48.5199 12.3904 52.0315C13.1634 55.499 14.345 58.867 15.9241 62.0584C16.2996 62.8645 18.3977 62.8535 19.7007 63.2179C19.8222 62.0695 19.767 60.921 19.5572 59.7946C19.0161 58.2045 17.7572 56.8131 17.4149 55.2119C17.1499 53.9861 17.8124 52.5505 18.0554 51.2033C19.2369 51.6561 20.7277 51.7996 21.5559 52.6057C26.6356 57.6413 31.0086 63.0633 29.3964 71.0031C29.3522 71.1908 29.3191 71.4669 29.4184 71.5884C30.1473 72.5049 30.9203 73.3994 31.6712 74.3049C32.3669 73.3994 33.5043 72.5601 33.6589 71.5663C33.8356 69.5675 33.8687 67.5577 33.7472 65.559C33.8135 56.4487 27.2982 51.634 21.2136 46.6426C20.2308 45.8365 18.3977 46.0684 16.7744 45.7923C16.4321 42.8328 15.9462 39.8955 15.3057 36.9801V37.0022Z" fill="black"/>
</g>
<defs>
<clipPath id="clip0_786_5135">
<rect width="80.182" height="76.6925" fill="white"/>
</clipPath>
</defs>
</svg>
