<svg width="48" height="50" viewBox="0 0 48 50" fill="none" xmlns="http://www.w3.org/2000/svg">
<g clip-path="url(#clip0_786_3718)">
<path d="M5.06388 19.511C3.46232 22.6835 1.90742 25.9855 1.60162 29.5261C1.51351 30.5525 1.53942 31.6203 1.95925 32.5638C2.37907 33.5072 3.26537 34.29 4.29679 34.3418C4.55076 34.3522 4.83064 34.3315 5.02241 34.4922C5.18827 34.6269 5.2401 34.8602 5.27638 35.0728C5.39041 35.7622 5.45261 36.4568 5.46297 37.1566C5.49407 38.9969 5.44742 41.0289 5.39041 42.8692C5.3334 44.7094 5.47852 46.6378 6.42183 48.2189C6.85721 48.9498 7.69686 49.6444 8.47949 49.3075C8.72828 49.1986 8.93042 48.9965 9.10146 48.7839C9.78043 47.9545 10.1847 46.9022 10.2262 45.8292C10.532 45.881 10.6564 46.249 10.8481 46.4927C11.3302 47.094 12.3668 46.9074 12.8643 46.3164C13.3619 45.7255 13.4604 44.9064 13.507 44.1392C13.6884 41.4022 13.5329 38.6444 13.0509 35.9436C12.5223 32.9889 13.3567 29.9978 13.1857 27.0016C13.1287 26.0166 13.0509 25.011 12.6881 24.0883C12.0713 22.5072 10.703 21.3512 9.35024 20.3196C8.71273 19.8375 8.05449 19.3606 7.2874 19.1274C6.52031 18.8941 5.41633 18.7956 5.0587 19.511H5.06388Z" fill="#2DB1B4"/>
<path d="M31.6528 18.8849C30.5489 17.7185 28.9732 17.0913 27.382 16.8632C25.7908 16.6351 24.1737 16.7906 22.5825 16.9876C21.5978 17.112 20.5871 17.2623 19.7319 17.7704C18.887 18.268 18.2651 19.0767 17.7571 19.9165C16.5495 21.9122 15.8653 24.2138 15.7772 26.5465C15.7565 27.0649 15.7772 27.604 16.0001 28.0706C16.5236 29.1436 17.9334 29.4287 18.7316 30.3204C19.3691 31.0357 19.5349 32.0517 19.6127 33.0107C19.934 36.9608 19.2706 40.9316 19.4053 44.8972C19.4261 45.4985 19.5608 46.1206 19.934 46.5923C20.3072 47.064 20.924 47.3543 21.52 47.2818C22.2197 47.1936 22.7795 46.6597 23.2252 46.1102C24.0131 45.1512 24.6506 44.073 25.1067 42.9222C25.1481 42.8133 25.2 42.6941 25.3088 42.6423C25.485 42.5593 25.6768 42.72 25.796 42.8703C26.1122 43.2695 26.3558 43.7257 26.7186 44.0885C27.0814 44.4514 27.6049 44.7054 28.0921 44.5655C28.486 44.4514 28.7711 44.1145 28.9836 43.7671C30.4245 41.45 29.8025 38.433 30.4452 35.7841C30.9272 33.7987 32.1193 32.0569 32.7257 30.1078C33.5602 27.4382 33.2544 24.5456 32.7257 21.7982C32.6687 21.4871 32.4769 21.0932 32.1711 21.1709" fill="#2DB1B4"/>
<path d="M36.8878 8.44347C36.5976 9.6824 36.6546 11.1235 37.743 11.9944C38.8418 12.8756 40.744 12.803 41.8843 11.9633C43.0245 11.1235 43.3925 9.68758 42.9727 8.4642C42.6203 7.44299 41.4022 5.82046 39.9873 5.7116C38.1577 5.57164 37.1781 7.19417 36.8826 8.44347H36.8878Z" fill="#2DB1B4"/>
<path d="M22.7951 5.43175C22.5048 6.67068 22.5618 8.11177 23.6503 8.98265C24.7491 9.8639 26.6512 9.79133 27.7915 8.95155C28.9318 8.11177 29.2998 6.67586 28.8799 5.45248C28.5275 4.43127 27.3095 2.80874 25.8945 2.69988C24.0649 2.55992 23.0853 4.18245 22.7899 5.43175H22.7951Z" fill="#2DB1B4"/>
<path d="M8.52601 8.18956C8.23576 9.42849 8.29278 10.8696 9.38121 11.7405C10.48 12.6217 12.3822 12.5491 13.5224 11.7094C14.6627 10.8696 15.0307 9.43367 14.6109 8.21029C14.2584 7.18908 13.0404 5.56655 11.6255 5.45769C9.79585 5.31773 8.81626 6.94026 8.52083 8.18956H8.52601Z" fill="#2DB1B4"/>
<path d="M44.745 44.5333C44.434 45.3886 43.5892 46.1247 42.6873 46.0107C41.7596 45.8914 41.1687 45.005 40.6245 44.2482C40.0803 43.4913 39.2354 42.719 38.3336 42.9678C37.4888 43.201 37.0793 44.2274 36.2552 44.5177C35.4155 44.8132 34.4774 44.1912 34.1094 43.3825C33.7414 42.5738 33.7933 41.6407 33.8503 40.7543C34.1561 36.2081 34.4567 31.6619 34.7625 27.1157C34.8558 25.7472 34.9439 24.3786 35.0372 23.0101C35.0735 22.4503 35.1149 21.8697 35.3637 21.3617C35.6695 20.7448 36.2448 20.3094 36.8564 19.988C39.3909 18.6505 42.7599 19.1586 44.7968 21.1751C46.528 22.8909 47.2017 25.3895 47.6838 27.7792C48.1658 30.1586 48.3576 33.0512 46.4761 34.5908C46.0252 34.9588 45.4654 35.2387 45.1856 35.7467C44.9782 36.12 44.9575 36.5658 44.9419 36.996C44.8435 39.5154 44.7554 42.0658 44.7554 44.5385L44.745 44.5333Z" fill="#2DB1B4"/>
<path d="M21.4268 11.7213C22.5671 12.2915 23.9146 12.4988 25.1586 12.0841C26.4543 11.6176 27.4391 10.6845 28.2166 9.59591C29.7196 7.36688 30.3416 4.10108 28.5794 1.8202C27.5946 0.524252 26.0915 -0.0459669 24.4848 0.000687373C23.7073 0.000687373 22.878 0.156202 22.1524 0.415392C21.2713 0.674582 20.5975 0.933773 20.2347 1.86686V2.07421C19.5091 2.95546 18.9908 4.04406 18.7316 4.97714C17.9542 7.51721 18.9908 10.4201 21.4268 11.7161V11.7213ZM20.7012 6.38195C20.753 5.29335 21.064 4.25659 21.5823 3.37535C21.7896 3.06432 21.9969 2.64961 22.2561 2.33858C22.7226 2.18307 23.2409 2.02756 23.7073 1.97572C24.5884 1.8202 25.625 1.92388 26.4025 2.44226C28.0611 3.5827 27.5946 5.81173 26.869 7.31504C26.4543 8.14445 25.936 8.97386 25.2104 9.54408C24.5884 10.0106 23.8628 10.1143 23.2409 9.95878C21.5823 9.59591 20.6493 8.09261 20.7012 6.38195ZM33.4514 23.5404C33.5032 21.726 33.6587 19.8598 32.9849 18.1492C31.6374 14.8316 27.5946 14.4687 24.5366 14.2613C21.0122 14.054 17.1249 14.7797 14.948 17.8382C13.9114 19.3415 13.6004 21.2595 13.5486 23.0738C13.5486 24.0587 13.6523 25.0437 13.7041 26.0286C13.6004 27.4282 13.7041 28.8278 14.0669 30.1756C14.3779 31.2642 14.7925 32.5083 15.9328 32.923C16.4511 33.1304 17.1249 33.0786 17.5914 32.7675C17.5914 33.1304 17.5395 33.4414 17.5395 33.8043C17.4359 37.433 17.3322 41.0098 17.4359 44.5866C17.5395 46.6601 18.317 49.5112 20.9603 49.1484C22.9299 48.8373 23.7073 47.2304 24.0701 45.416C24.2775 46.0381 24.5366 46.6601 24.9513 47.1785C26.8171 49.5112 29.5123 47.5932 29.8233 45.1568C30.0306 43.3425 29.8233 41.4245 29.8233 39.6102C29.7715 37.6921 29.7715 35.7741 29.7196 33.908C29.7196 33.3377 29.7196 32.7675 29.6678 32.1455C29.9788 32.4047 30.3416 32.5083 30.7044 32.5602C32.3112 32.6639 32.9849 31.1605 33.1404 29.7609C33.3996 27.7392 33.3478 25.6139 33.4514 23.5404ZM31.7928 23.333C31.741 25.1473 31.6892 26.9617 31.5855 28.776C31.5855 29.3462 31.6892 30.4348 31.1709 30.8495C30.8081 31.1087 30.3416 30.7977 30.0306 30.5385C29.927 30.4348 29.7715 30.4348 29.6678 30.4867C29.6678 29.7091 29.6678 28.9833 29.616 28.2058C29.5641 26.4433 29.8751 24.4216 29.0977 22.8146C28.994 22.6591 28.683 22.6073 28.6312 22.8146C28.1129 24.0587 28.2166 25.4065 28.2684 26.7025C28.3202 28.2058 28.3202 29.7609 28.3721 31.3161C28.4239 34.3227 28.4757 37.3293 28.5275 40.3359C28.5275 41.7355 28.6312 43.187 28.5794 44.5866C28.5275 45.416 28.3721 46.4528 27.5946 46.8675C26.8171 47.2822 26.1952 46.712 25.7805 46.0899C25.0031 44.8976 24.6403 43.4462 24.433 41.9947C24.5366 40.0767 24.6403 38.2105 24.6921 36.2925C24.6921 34.5819 24.9513 32.2491 24.0701 30.694C23.9665 30.5385 23.7073 30.5385 23.6037 30.694C22.9299 32.1455 23.1372 34.0635 23.1372 35.6186C23.1372 37.5366 23.0854 39.4028 22.9817 41.3208C22.878 42.9796 23.0335 45.2605 22.1524 46.712C21.6341 47.5414 20.4939 48.1634 19.6646 47.334C19.1981 46.8675 19.0426 46.0899 18.9389 45.4679C18.6798 43.809 18.7835 41.9947 18.7316 40.284C18.6798 38.4179 18.7316 36.4999 18.7316 34.6337C18.7835 32.7675 18.8353 30.9014 18.8871 28.9833C18.9389 27.0653 19.1463 25.0437 18.9908 23.1256C18.9908 22.8665 18.628 22.8146 18.5243 23.0738C18.1097 24.6808 18.006 26.4433 17.8505 28.1021C17.7468 29.1907 17.695 30.2275 17.6432 31.3161C17.384 31.4197 17.2285 31.6271 16.9694 31.7308C16.6066 31.8863 16.2956 31.6271 16.0883 31.3679C15.4663 30.5385 15.259 29.3462 15.1553 28.3613C15.3627 27.3764 15.2072 26.2359 15.1553 25.3028V24.8881C15.1553 24.4734 15.1553 24.0587 15.1035 23.644C15.1035 22.8146 15.1553 21.9334 15.3108 21.1558C15.8291 18.4602 17.695 16.6977 20.2865 16.0757C21.8414 15.7128 23.3963 15.7128 24.9513 15.8165C26.2988 15.9202 27.6464 16.0757 28.9422 16.4904C32.1038 17.579 31.8965 20.6374 31.7928 23.333ZM7.32897 14.3132C8.4174 14.8834 9.66133 15.0907 10.8534 14.676C12.0974 14.2613 13.0303 13.3801 13.7559 12.2915C15.2072 10.1661 15.7255 7.15952 14.0669 4.98233C13.134 3.79005 11.6827 3.21983 10.2315 3.21983C9.50584 3.21983 8.72838 3.37535 8.00276 3.5827C7.17348 3.84189 6.44785 4.10108 6.1887 4.98233V5.086C5.46308 5.86357 4.99661 6.90033 4.73745 7.88526C4.06366 10.3216 5.04844 13.1209 7.32897 14.3132ZM7.58812 6.53747C7.74361 6.27828 7.95093 5.91541 8.15825 5.60438C8.62472 5.50071 9.0912 5.29335 9.50584 5.24152C10.3351 5.13784 11.2681 5.18968 11.9419 5.65622C13.4449 6.69298 12.9785 8.71467 12.3047 10.1143C11.9419 10.8919 11.4754 11.6694 10.7498 12.1878C10.1796 12.6025 9.55767 12.7062 8.98754 12.6025C7.53629 12.2397 6.65517 10.9437 6.707 9.33672C6.81066 8.3518 7.06982 7.36688 7.58812 6.53747ZM14.7407 46.3491C15.0517 47.5414 13.4968 48.4745 12.4602 48.3708C11.3717 48.3189 10.5943 47.4377 10.1278 46.5046C10.0241 46.2973 9.97231 46.0899 9.86865 45.9344C9.6095 47.0748 9.14303 48.1116 8.15825 48.7337C7.06982 49.4594 5.61857 49.4076 4.73745 48.4226C3.85634 47.4895 3.70085 46.0381 3.64902 44.794C3.59719 42.6168 3.59719 40.3877 3.64902 38.2105C3.70085 36.8109 3.75268 35.4113 3.80451 34.0635C3.38987 34.3227 2.7679 34.3745 2.30143 34.1672C1.213 33.7525 0.798355 32.612 0.539204 31.5753C0.228222 30.4867 0.176392 29.4499 0.176392 28.3095C0.0209012 27.0135 -0.0309291 25.7176 0.0209012 24.4734C0.124562 22.7109 0.539204 20.9484 1.62764 19.5488C2.71607 18.201 4.32281 17.3198 6.03321 16.9051C7.01799 16.6459 8.05459 16.594 9.03937 16.594C9.6095 16.594 10.1278 16.5941 10.6979 16.6459C11.2162 16.6977 11.7864 16.6977 12.2528 16.9569C12.823 17.2679 12.6675 18.0974 12.0974 18.2529C11.6309 18.4084 11.1126 18.3047 10.5943 18.2529C10.1278 18.201 9.66133 18.201 9.19486 18.201C8.26191 18.201 7.3808 18.2529 6.49968 18.4602C5.10027 18.8231 3.64902 19.5488 2.7679 20.7411C1.7313 22.1407 1.57581 23.7995 1.62764 25.4584C1.67947 25.8212 1.67947 26.1323 1.67947 26.4951V26.7025C1.7313 27.7911 1.78313 28.9315 1.67947 29.9164C1.88679 31.2124 2.50875 33.908 3.75268 32.6638C3.80451 32.612 3.85634 32.5602 3.96 32.5602C3.96 32.2491 4.01183 31.8863 4.01183 31.5753C4.16732 29.3981 4.27098 27.0653 4.78928 24.94C4.84111 24.6808 5.20393 24.7326 5.25576 24.9918C5.41125 26.8061 5.25576 28.6723 5.20393 30.4867C5.1521 32.2491 5.04844 34.0116 5.04844 35.7741C4.99661 37.5366 4.99661 39.2991 5.04844 41.0616C5.04844 42.6168 4.94478 44.3274 5.25576 45.8826C5.35942 46.4528 5.51491 47.2822 6.08504 47.6451C6.86249 48.1116 7.69178 47.5414 8.10642 46.8675C8.98754 45.4679 8.83204 43.2907 8.88387 41.6837C8.9357 41.1135 8.93571 40.4914 8.93571 39.9212V39.4028C8.98754 38.4179 8.98754 37.433 8.98754 36.448C8.98754 35.0484 8.83204 33.2859 9.45401 31.9381C9.55767 31.7826 9.81682 31.7826 9.92048 31.9381C10.9053 33.6488 10.5424 36.2925 10.4906 38.1587C10.4388 39.4028 10.387 40.6988 10.3351 41.9429C10.4906 43.0315 10.7498 44.1201 11.0607 45.1568C11.2681 45.8307 11.6309 46.712 12.3047 46.9712C12.6157 47.1267 12.9785 46.9712 13.2376 46.7638C13.6004 46.5046 13.7559 46.1936 14.2224 45.9862C14.4297 45.9344 14.6889 46.1418 14.7407 46.3491ZM39.1009 14.676C41.5369 13.8985 43.04 11.4621 42.7809 8.92202C42.6772 7.72974 42.0552 6.22644 41.1223 5.086V4.98233C40.915 4.20475 40.3448 3.94556 39.671 3.68637C38.9973 3.47902 38.2716 3.32351 37.5978 3.21983C36.3021 3.11615 34.9545 3.42718 33.9697 4.25659C31.7928 6.01909 32.0002 9.28488 33.1923 11.5139C34.2807 13.743 36.5094 15.5055 39.1009 14.676ZM34.9545 6.01909C35.5765 5.29335 36.5612 5.13784 37.4942 5.18968C38.0643 5.24152 38.5826 5.44887 39.1527 5.60438C39.3082 5.81173 39.4119 6.01909 39.5674 6.22644C40.0339 6.95217 40.3967 7.78158 40.5003 8.66283C40.7595 10.3216 40.1893 11.7731 38.7381 12.447C38.2198 12.7062 37.546 12.7062 36.9759 12.447C36.2502 12.136 35.7319 11.4621 35.3691 10.7882C34.488 9.38856 33.7106 7.41871 34.9545 6.01909ZM47.1864 28.2576C47.2383 29.3462 47.1346 30.4348 46.8236 31.5234C46.5645 32.5602 46.098 33.8043 44.9577 34.1672C44.4913 34.3227 43.9211 34.2708 43.5065 34.0116C43.5583 35.4113 43.6101 36.8109 43.662 38.1587C43.7138 40.3359 43.7656 42.5649 43.662 44.7421C43.6101 45.9862 43.4547 47.4377 42.5735 48.3708C41.6406 49.3557 40.2412 49.4076 39.1527 48.6818C38.1161 48.0598 37.6497 46.9712 37.4423 45.8826C37.3905 46.0899 37.2869 46.2973 37.1832 46.4528C36.7167 47.3859 35.9393 48.2671 34.799 48.3189C33.7624 48.3708 32.2593 47.4377 32.5703 46.2973C32.6221 46.0899 32.8813 45.8826 33.0886 45.9862C33.2959 46.0899 33.5032 46.1418 33.6587 46.3491C33.8142 46.5046 33.9179 46.6601 34.0734 46.8156C34.3325 47.023 34.6953 47.1267 35.0063 46.9712C35.6801 46.712 36.0429 45.8307 36.2503 45.1568C36.6131 44.1201 36.8204 43.0315 36.9759 41.9429C36.924 40.6988 36.8204 39.4028 36.8204 38.1587C36.7686 36.2407 36.4057 33.5969 37.3905 31.9381C37.4942 31.7826 37.7533 31.7826 37.857 31.9381C38.5308 33.2859 38.3235 35.1521 38.3235 36.6554C38.3235 37.5366 38.3235 38.4697 38.3753 39.351C38.3753 39.5583 38.4271 39.7138 38.4271 39.9212C38.4271 40.5951 38.4789 41.2171 38.5308 41.891C38.6344 43.4462 38.4271 45.727 39.4119 47.023C39.8784 47.6451 40.7595 48.0598 41.4333 47.4895C41.8997 47.0748 42.0552 46.4009 42.1589 45.8307C42.418 44.2237 42.3144 42.4612 42.3662 40.8024V35.5149C42.3144 33.7525 42.2626 31.99 42.2107 30.2275C42.1589 28.5168 42.0034 26.7025 42.1589 24.94C42.1589 24.6808 42.5217 24.629 42.6254 24.8881C43.1955 27.0135 43.2992 29.3462 43.4028 31.5234C43.4028 31.8344 43.4547 32.1973 43.4547 32.5083C43.5065 32.5083 43.6101 32.5602 43.662 32.612C44.9059 33.908 45.5279 31.1605 45.7352 29.8646C45.6315 28.8278 45.6834 27.7392 45.7352 26.6506V26.3396C45.7352 26.0286 45.7352 25.6657 45.787 25.3547C45.787 23.6959 45.6315 22.037 44.6468 20.6893C43.7656 19.497 42.3662 18.7712 40.915 18.4084C39.982 18.201 39.0491 18.0974 38.1161 18.1492C37.6497 18.1492 37.1832 18.201 36.7167 18.201C36.2502 18.2529 35.7838 18.3565 35.3691 18.201C34.799 18.0455 34.6435 17.2161 35.2136 16.9051C35.6801 16.6459 36.1984 16.6459 36.7686 16.594C37.3387 16.5422 37.857 16.5422 38.4271 16.5422C39.4637 16.5422 40.5522 16.6459 41.5369 16.9051C43.1437 17.3198 44.7504 18.201 45.787 19.497C46.9273 20.8966 47.3419 22.7109 47.3938 24.5253C47.3419 25.7694 47.2901 27.0135 47.1864 28.2576Z" fill="#010101"/>
</g>
<defs>
<clipPath id="clip0_786_3718">
<rect width="48" height="49.3913" fill="white"/>
</clipPath>
</defs>
</svg>
