<svg width="782" height="1136" viewBox="0 0 782 1136" fill="none" xmlns="http://www.w3.org/2000/svg">
<path d="M82.6459 768.635C81.0288 768.439 79.4116 768.243 76.7756 767.923C77.6366 744.337 78.495 720.82 79.3553 697.252C90.6809 697.252 101.149 697.23 111.617 697.275C113.246 697.282 114.87 697.697 116.503 697.75C134.063 698.325 151.627 698.815 169.186 699.426C194.934 700.321 220.678 701.329 246.427 702.193C249.655 702.302 252.055 702.78 251.497 707.961C251.122 711.909 250.575 714.68 250.478 717.467C249.872 735.027 249.373 752.59 248.805 770.151C248.769 771.263 248.449 772.366 248.121 774.294C230.664 773.696 213.472 773.107 195.353 772.486C218.106 855.31 240.562 937.051 263.018 1018.79C263.535 1018.79 264.052 1018.79 264.57 1018.79C265.303 1016.96 266.037 1015.13 266.77 1013.29C287.713 954.452 308.648 895.606 329.605 836.768C335.178 821.121 340.831 805.503 346.412 789.858C346.958 788.329 347.251 786.71 348.058 784.26C349 782.004 349.546 780.62 350.514 778.164C337.379 777.768 325.195 777.401 313.012 777.034C311.199 776.827 309.386 776.621 307.023 776.351C307.897 752.648 308.757 729.331 309.636 705.524C311.723 705.299 313.506 704.887 315.273 704.951C338.701 705.789 362.127 706.694 385.554 707.582C386.258 707.609 386.961 707.644 387.665 707.665C408.999 708.283 430.336 708.791 451.665 709.552C468.293 710.145 484.909 711.077 501.533 711.798C504.367 711.921 506.834 712.169 505.919 717.049C504.985 737.055 504.387 756.011 503.751 774.966C503.66 777.683 503.38 780.393 503.135 783.854C488.041 783.032 473.67 781.919 458.502 782.765C481.64 865.462 504.663 947.366 529.034 1029.09C529.717 1027.14 530.4 1025.2 531.083 1023.25C558.452 947.12 585.82 870.99 613.561 793.877C614.207 791.467 614.481 790.038 614.921 787.752C597.771 787.142 581.427 786.56 565.084 785.978C562.527 785.706 559.736 785.838 559.854 781.969C560.54 759.547 561.188 737.123 561.874 713.863C565.268 713.863 568.218 713.763 571.158 713.883C577.933 714.16 584.701 714.634 591.478 714.869C623.054 715.961 654.633 716.936 686.207 718.079C704.44 718.74 722.662 719.692 740.895 720.383C744.076 720.504 746.548 720.846 746.073 726.123C745.086 748.81 744.136 770.256 743.159 792.318C739.853 792.318 737.327 792.387 734.807 792.307C719.82 791.83 704.829 791.415 689.85 790.756C685.725 790.574 683.623 791.821 682.196 795.959C674.789 817.441 667.045 838.806 659.392 860.204C641.642 909.835 623.853 959.452 606.127 1009.09C592.971 1045.94 579.902 1082.81 566.752 1119.66C565.507 1123.15 563.957 1126.52 562.485 1130.11C559.57 1130.11 557.015 1130.19 554.466 1130.1C533.406 1129.36 512.348 1128.59 491.289 1127.82C487.279 1128.12 486.319 1125.41 485.453 1122.25C479.884 1101.94 474.216 1081.66 468.576 1061.37C454.163 1009.52 439.761 957.66 425.327 905.813C419.617 885.301 413.833 864.809 407.893 843.274C406.727 838.58 405.751 834.919 404.774 831.259C404.281 831.253 403.788 831.246 403.296 831.24C402.405 833.583 401.48 835.914 400.63 838.271C393.477 858.103 386.369 877.951 379.189 897.773C362.038 945.126 344.858 992.468 327.683 1039.81C319.295 1062.93 311.002 1086.09 302.451 1109.15C297.784 1121.74 297.609 1121.21 284.458 1120.39C265.538 1119.22 246.572 1118.79 227.626 1118.04C224.197 1118.28 222.828 1116.54 221.933 1113.29C214.115 1084.82 206.102 1056.41 198.154 1027.98C184.653 979.687 171.147 931.401 157.664 883.108C148.087 848.806 138.545 814.494 128.977 780.189C128.663 779.062 128.238 777.967 127.711 775.794C127.403 771.823 126.332 769.914 122.989 769.828C109.54 769.483 96.0933 769.041 82.6459 768.635Z" fill="#59B8BE"/>
<path d="M30.1149 643.497C28.5383 643.208 26.9616 642.919 25.2329 642.602C24.6805 639.625 23.8658 636.897 23.7107 634.132C22.6351 614.963 21.5896 595.791 20.7603 576.61C20.356 567.258 20.5836 567.429 29.7175 567.039C51.0088 566.13 72.2949 565.089 93.5755 563.957C97.7236 563.736 101.837 562.858 105.945 562.286C105.945 553.395 105.972 544.802 105.918 536.208C105.909 534.819 105.415 533.437 105.354 532.043C104.757 518.233 104.379 504.411 103.598 490.612C102.461 470.523 101.015 450.453 99.7597 430.371C99.1901 421.259 98.6921 412.141 98.2859 403.02C97.6606 388.976 97.3303 374.918 96.5332 360.885C95.4186 341.265 93.9611 321.664 92.7178 302.051C92.4508 297.838 92.4722 293.607 92.3372 288.16C92.0897 285.213 91.8659 283.491 91.621 281.608C86.9605 281.925 83.0115 282.25 79.0562 282.453C57.7959 283.545 36.5331 284.589 15.2748 285.717C13.6896 285.801 12.1323 286.41 10.562 286.775C8.97408 286.574 7.38614 286.373 5.25178 286.103C4.75898 280.136 4.19172 274.355 3.82056 268.561C2.87831 253.851 2.00007 239.137 1.15261 224.422C0.963909 221.144 1.10412 217.848 0.917529 214.571C0.710263 210.93 2.45647 209.401 5.92405 209.455C6.15831 209.459 6.39304 209.44 6.62748 209.43C19.2635 208.886 31.9075 208.479 44.534 207.765C65.5558 206.576 86.5607 205.082 107.584 203.923C121.851 203.137 136.138 202.73 150.413 202.095C153.605 201.953 156.112 202.43 155.986 207.65C155.917 230.252 160.042 293.039 162.05 297.363C163.557 293.256 164.907 289.575 166.257 285.894C173.691 270.202 182 255.089 192.917 241.426C208.1 222.424 226.966 208.826 249.853 200.745C269.35 193.86 289.418 189.636 310.03 188.016C321.673 187.1 333.323 186.271 344.964 185.326C348.413 185.046 350.424 186.107 350.138 191.152C351.375 218.507 352.6 244.621 353.835 270.966C352.203 271.17 351.07 271.351 349.931 271.448C334.061 272.8 318.152 273.807 302.329 275.571C284.115 277.602 266.226 281.426 249.205 288.438C218.228 301.199 198.192 323.37 191.02 356.569C187.739 371.754 186.29 387.154 185.742 402.6C184.802 429.105 186.073 455.568 187.925 482.028C189.512 504.709 190.233 527.45 191.398 550.162C191.536 552.852 192.066 555.521 192.488 558.767C194.848 558.165 196.366 557.778 197.884 557.391C214.043 556.79 230.209 556.343 246.358 555.535C257.333 554.987 268.282 553.909 279.247 553.127C281.332 552.978 283.436 553.105 285.894 553.105C286.277 554.891 286.607 556.427 286.973 559.18C287.773 574.183 288.71 587.963 289.236 601.758C289.572 610.565 289.299 619.396 289.299 628.643C283.603 629.167 277.83 629.867 272.036 630.202C246.562 631.677 221.081 633.052 195.603 634.454C169.891 635.869 144.182 637.319 118.467 638.666C96.4876 639.818 74.4999 640.808 52.52 641.951C45.045 642.34 37.5829 642.975 30.1149 643.497Z" fill="#FFC375"/>
<path d="M633.553 627.974C631.866 626.548 629.769 625.404 628.561 623.648C622.761 615.22 617.202 606.626 611.05 597.344C609.23 594.564 607.917 592.532 606.369 590.137C552.818 626.614 496.674 637.064 435.811 611.736C428.635 607.861 421.779 604.341 414.924 600.82C414.924 600.82 415.005 600.852 414.76 600.499C413.719 599.917 412.923 599.689 412.128 599.46C412.128 599.46 412.199 599.426 412.102 598.979C410.966 598.007 409.927 597.481 408.888 596.956C379.895 573.363 360.084 544.195 354.384 506.592C351.292 486.194 352.272 465.953 357.906 446.048C365.702 418.504 382.308 397.352 405.4 380.92C419.037 371.216 433.739 363.527 449.24 357.297C450.931 356.617 452.563 355.79 454.705 354.811C452.224 350.439 449.953 346.4 447.646 342.382C439.619 328.404 433.988 313.479 432.404 297.459C429.843 271.563 436.153 248.052 454.199 228.648C459.744 222.686 466.417 217.772 473.362 211.833C477.131 210.762 480.124 210.295 483.09 209.696C489.017 208.499 493.771 210.698 497.311 215.186C499.443 217.89 500.92 221.158 502.41 224.306C504.206 228.1 505.571 232.097 507.367 235.891C509.066 239.48 511.486 242.497 516.237 244.617C516.234 232.061 512.487 221.111 509.716 210.584C522.533 205.322 534.981 200.212 547.97 195.221C550.308 195.731 552.103 196.138 553.904 196.512C562.929 198.383 571.924 200.348 579.903 205.331C575.408 211.959 573.053 218.652 574.07 226.253C574.528 229.677 575.099 233.083 579.619 234.703C581.619 229.458 583.505 224.513 585.457 219.393C592.381 219.712 599.091 220.022 606.107 220.74C611.342 226.694 616.273 232.239 621.242 238.168C622.032 239.113 622.785 239.675 623.496 240.239C623.454 240.241 623.464 240.158 623.437 240.681C625.256 244.726 627.103 248.247 628.999 252.301C634.058 266.858 636.635 281.018 635.101 296.168C632.248 324.343 618.163 344.662 594.182 358.438C594.01 357.693 593.944 357.394 593.878 357.115C593.877 357.134 593.849 357.161 594.215 356.911C594.423 355.34 594.264 354.018 594.091 352.063C594.696 336.205 590.154 322.61 581.034 310.503C578.674 307.37 576.091 304.404 573.818 300.819C577.458 292.845 578.651 285.17 577.013 277.042C575.677 270.408 572.541 264.78 568.076 259.467C567.576 259.036 567.286 258.79 567.086 258.527C567.152 258.537 567.142 258.671 566.876 258.325C565.817 257.702 565.023 257.424 564.27 257.14C564.31 257.132 564.299 257.213 564.284 256.716C554.194 245.136 522.027 243.171 508.06 254.823C495.762 265.082 490.812 277.728 494.649 293.26C496.314 300.001 499.294 306.417 501.375 313.425C493.5 324.997 487.589 336.958 484.934 350.175C482.593 361.832 483.039 373.409 489.624 383.947C489.65 383.907 489.557 383.922 489.587 384.354C490.073 385.493 490.53 386.199 491.062 387.392C497.291 400.676 505.941 411.545 516.399 421.099C524.235 428.257 533.338 433.187 543.751 434.099C553.433 434.947 563.277 433.939 573.243 433.842C573.747 433.888 573.969 433.721 574.485 433.464C575.382 433.498 575.894 433.503 576.587 433.975C584.947 447.427 593.103 460.428 601.316 473.391C605.674 480.27 610.105 487.102 614.57 493.911C615.324 495.061 615.804 497.461 618.445 495.132C619.949 493.377 621.176 491.947 622.115 490.348C634.493 469.243 643.447 446.691 650.197 423.235C651.481 418.773 652.228 414.156 653.502 409.377C654.105 408.783 654.428 408.422 655.175 407.982C657.125 407.303 658.651 406.703 660.177 406.104C676.898 407.21 693.624 408.259 710.34 409.446C719.852 410.122 729.341 411.101 738.852 411.781C741.771 411.99 743.218 413.03 742.395 417.124C741.041 433.719 739.992 449.269 738.892 465.586C724.07 464.613 709.964 463.687 695.212 462.718C683.898 493.313 670.365 522.443 648.329 547.525C650.598 550.014 652.566 552.173 654.535 554.332C654.535 554.332 654.447 554.329 654.473 554.792C658.414 561.356 662.28 567.49 666.301 573.52C666.87 574.372 668.195 574.72 669.17 575.301C688.511 576.71 707.848 578.201 727.2 579.447C730.493 579.659 731.971 580.726 731.419 585.025C729.881 602.054 728.641 618.057 727.402 634.044C712.631 633.21 698.629 632.46 684.633 631.613C677.161 631.161 669.699 630.531 662.232 629.998C652.673 629.314 643.113 628.648 633.553 627.974ZM430.941 528.399C432.822 530.796 434.703 533.193 437.373 536.303C472.085 582.168 539.774 581.144 575.218 542.93C570.938 536.038 566.61 529.089 562.301 522.128C538.855 484.262 515.422 446.389 491.94 408.545C491.095 407.183 489.793 406.106 488.513 403.89C487.411 401.957 486.31 400.025 485.063 397.837C471.167 404.073 457.956 410.098 446.741 419.494C438.666 426.258 431.183 433.663 426.272 443.273C416.191 462.999 415.272 483.608 420.561 504.662C422.596 512.766 425.132 520.863 430.941 528.399Z" fill="#FE896E"/>
<path d="M516.431 150.043C517.034 154.73 514.815 158.258 511.457 161.042C498.543 171.749 483.933 178.479 465.93 179.123C461.618 178.607 458.347 178.274 455.09 178.376C438.425 178.898 421.985 177.21 405.614 174.124C394.195 171.972 383.396 168.68 374.107 161.372C367.311 156.024 360.122 151.145 353.603 145.486C347.822 140.468 342.724 134.664 337.929 129.106C352.597 125.407 366.744 126.09 381.007 127.693C392.601 128.996 404.265 129.849 415.922 130.344C427.788 130.849 437.35 124.569 446.876 118.554C447.204 118.347 447.275 117.734 447.715 116.923C452.498 114.11 457.031 111.684 461.759 109.452C462.23 109.067 462.505 108.49 463.085 107.89C463.389 107.868 463.999 107.874 464.523 107.874C466.234 106.949 467.421 106.025 469.157 105.109C475.629 103.502 481.66 100.612 486.943 107.198C486.98 112.298 486.303 116.829 488.737 121.486C493.214 113.551 497.69 105.616 502.378 98.1592C505.393 103.745 507.699 108.964 508.299 114.913C508.681 118.702 509.923 122.405 510.779 126.769C510.24 133.843 511.591 139.852 514.796 145.495C515.58 146.875 515.898 148.52 516.431 150.043ZM431.21 165.58C436.364 165.568 441.53 165.768 446.669 165.485C451.704 165.208 456.96 166.503 461.756 163.664C459.452 162.966 457.184 162.972 454.916 162.965C443.906 162.93 432.891 163.073 421.886 162.797C413.429 162.585 405.179 160.997 397.588 156.987C391.798 153.929 386.143 150.602 380.272 147.713C377.324 146.264 374.027 145.525 370.888 144.465C370.619 145.036 370.351 145.607 370.083 146.177C377.015 153.609 384.653 160.153 395.008 162.584C406.437 165.267 418.097 165.837 431.21 165.58Z" fill="#8AB881"/>
<path d="M779.363 172.308C781.559 197.666 779.398 222.527 770.06 246.628C769.076 240.333 767.941 233.913 768.939 227.844C770.989 215.37 772.414 203.066 769.981 190.489C766.733 173.701 761.996 157.463 753.382 142.567C752.783 141.532 751.309 141.003 750.176 139.722C749.136 136.596 748.687 133.599 747.096 131.445C741.45 123.801 735.782 116.114 729.44 109.056C720.212 98.7848 708.788 91.0938 697.161 83.782C695.865 82.9671 694.135 82.8442 692.352 81.9851C686.609 78.9821 681.12 76.3943 675.393 73.4084C674.36 72.1598 673.374 71.4208 672.796 70.4412C667.884 62.1142 659.999 57.5356 651.356 54.5605C641.066 51.0179 630.448 48.4222 619.959 45.4628C616.907 44.6017 613.81 43.8997 610.858 42.5799C614.579 38.9582 619.276 39.0216 623.337 39.0309C635.655 39.059 647.965 38.0618 660.33 40.0132C674.265 42.2123 687.623 46.0142 700.247 52.0316C706.716 55.1152 711.754 54.7203 717.019 49.9512C738.107 68.9836 754.551 90.8375 765.316 116.735C771.633 131.928 775.801 147.641 775.789 164.251C775.786 168.367 775.789 172.483 775.789 177.985C777.481 175.297 778.422 173.803 779.363 172.308Z" fill="#67AB85"/>
<path d="M491.362 1128.32C512.348 1128.58 533.406 1129.36 554.466 1130.1C557.015 1130.19 559.57 1130.11 562.485 1130.11C563.957 1126.52 565.507 1123.15 566.752 1119.66C579.902 1082.81 592.971 1045.94 606.127 1009.09C623.853 959.452 641.642 909.834 659.392 860.203C667.045 838.806 674.789 817.44 682.196 795.958C683.623 791.82 685.725 790.574 689.85 790.756C704.829 791.414 719.82 791.83 734.807 792.306C737.327 792.387 739.853 792.318 743.159 792.318C744.136 770.256 745.085 748.809 746.108 726.722C747.987 726.262 749.794 726.442 752.124 726.675C751.28 750.596 750.448 774.185 749.589 798.538C729.586 797.868 710.234 797.221 690.394 796.557C649.896 909.845 609.515 1022.81 569.148 1135.73C562.532 1135.73 556.465 1135.9 550.411 1135.7C532.824 1135.1 515.245 1134.25 497.656 1133.76C493.956 1133.65 491.956 1132.42 491.362 1128.32Z" fill="#735D5A"/>
<path d="M516.902 150.16C515.898 148.52 515.58 146.875 514.796 145.494C511.591 139.852 510.24 133.842 511.239 126.538C515.738 121.881 519.812 122.991 523.693 125.818C532.865 132.498 541.904 139.359 551.112 145.987C552.869 147.252 555.158 147.779 557.27 149.139C558.102 150.779 558.644 152.204 559.67 153.021C562.59 155.343 565.943 157.155 568.702 159.639C576.291 166.471 577.3 168.078 570.47 177.039C569.235 178.66 568.259 180.479 566.64 182.227C559.887 186.532 553.658 190.817 547.429 195.102C534.981 200.212 522.534 205.322 509.716 210.584C512.487 221.111 516.234 232.061 516.237 244.617C511.486 242.497 509.066 239.48 507.367 235.891C505.571 232.097 504.206 228.1 502.41 224.306C500.92 221.158 499.443 217.89 497.311 215.186C493.771 210.698 489.017 208.499 483.09 209.696C480.124 210.295 477.131 210.762 473.696 211.447C468.115 210.4 462.493 211.535 457.171 208.252C458.211 206.989 458.885 205.782 459.893 205.007C469.184 197.862 479.552 193.305 491.341 192.387C498.151 191.857 504.029 189.627 508.534 184.183C516.905 174.069 527.136 166.485 541.193 161.794C535.847 159.947 531.69 158.939 527.943 157.096C524.205 155.258 520.88 152.584 516.902 150.16ZM515.481 183.774C515.553 183.63 515.625 183.486 515.697 183.343C515.455 183.517 515.214 183.691 514.552 184.039C514.486 184.181 514.419 184.323 514.352 184.464C514.582 184.288 514.811 184.111 515.481 183.774ZM540.637 168.319C533.946 172.076 527.254 175.833 519.77 179.735C519.317 180.186 518.865 180.636 518.413 181.087C518.706 181.344 518.999 181.6 519.292 181.857C519.775 181.161 520.259 180.465 521.797 179.743C529.002 176.91 536.575 174.73 542.266 168.257C542.326 168.104 542.386 167.951 542.446 167.798C542.194 167.966 541.941 168.134 540.637 168.319Z" fill="#6EB28C"/>
<path d="M409.576 38.9825C415.366 37.9815 419.647 34.3679 423.928 30.7299C438.535 18.3174 454.854 8.90214 473.095 2.93945C476.408 1.85641 479.851 1.04677 483.295 0.508555C495.429 -1.38704 502.837 3.38571 506.532 16.4249C506.545 23.8703 506.561 30.1481 506.461 36.6317C506.186 37.1146 505.979 37.3508 505.516 37.0312C504.304 33.9089 503.303 31.3016 502.327 28.1961C500.885 24.5226 499.417 21.3472 497.522 17.2467C496.34 19.2379 495.62 19.9553 495.47 20.7766C492.883 34.9676 487.269 47.9522 479.652 60.0908C476.859 64.542 473.155 67.9517 467.469 68.6191C464.135 69.0104 460.874 70.018 457.514 70.763C457.92 73.6201 458.253 75.9623 458.682 78.9834C457.245 77.9155 456.531 77.3842 455.762 76.3625C452.571 70.6033 450.082 64.837 444.367 60.9579C439.135 56.8223 434.343 52.7503 429.052 49.487C422.784 45.6214 416.087 42.4531 409.576 38.9825Z" fill="#67AB85"/>
<path d="M197.83 556.833C196.366 557.778 194.849 558.165 192.489 558.768C192.066 555.521 191.537 552.852 191.398 550.162C190.233 527.45 189.512 504.709 187.925 482.028C186.073 455.568 184.802 429.105 185.742 402.6C186.29 387.154 187.74 371.754 191.02 356.569C198.192 323.37 218.228 301.199 249.205 288.438C266.226 281.426 284.116 277.602 302.329 275.571C318.153 273.807 334.061 272.8 349.931 271.448C351.07 271.351 352.203 271.17 353.835 270.966C352.6 244.622 351.375 218.507 350.201 191.747C351.84 191.2 353.43 191.298 355.514 191.427C357.097 219.947 358.665 248.207 360.279 277.288C356.371 277.61 352.976 277.999 349.572 278.152C328.469 279.095 307.47 280.941 286.754 285.274C273.644 288.016 260.807 291.632 248.688 297.472C220.085 311.256 202.715 333.725 196.682 364.905C191.345 392.485 190.975 420.371 192.142 448.284C193.464 479.908 195.272 511.511 196.893 543.121C197.118 547.51 197.478 551.891 197.83 556.833Z" fill="#795E58"/>
<path d="M227.698 1118.55C246.572 1118.79 265.538 1119.22 284.458 1120.39C297.609 1121.21 297.784 1121.74 302.451 1109.15C311.002 1086.09 319.295 1062.93 327.683 1039.81C344.858 992.468 362.038 945.125 379.19 897.772C386.369 877.951 393.477 858.103 400.63 838.271C401.48 835.914 402.405 833.583 403.296 831.24C403.788 831.246 404.281 831.252 404.774 831.259C405.751 834.919 406.727 838.58 407.751 842.677C405.063 850.069 402.161 856.963 399.615 863.987C368.957 948.583 338.354 1033.2 307.724 1117.8C306.701 1120.63 305.548 1123.41 304.591 1125.86C296.121 1125.86 288.17 1126.04 280.23 1125.82C264.996 1125.41 249.77 1124.67 234.535 1124.27C230.755 1124.17 228.129 1123.26 227.698 1118.55Z" fill="#735D5A"/>
<path d="M750.243 140.238C751.309 141.003 752.783 141.532 753.382 142.567C761.996 157.463 766.733 173.701 769.981 190.489C772.414 203.066 770.989 215.371 768.939 227.844C767.942 233.914 769.076 240.333 769.7 246.992C761.525 279.341 750.113 310.053 729.435 337.411C728.317 338.616 727.994 339.4 727.671 340.185C727.671 340.185 727.701 340.227 727.17 340.226C724.619 340.296 723.501 339.391 723.52 336.82C730.289 326.207 735.504 315.365 739.345 303.347C741.393 297.71 743.469 292.513 744.66 287.121C746.745 277.682 748.286 268.122 750.106 257.952C749.923 242.299 751.42 227.495 754.222 212.751C755.784 204.535 756.671 196.142 757.187 187.786C758.194 171.499 754.993 155.733 750.243 140.238Z" fill="#609E7F"/>
<path d="M30.1072 643.988C37.583 642.975 45.0451 642.34 52.5201 641.951C74.4999 640.808 96.4877 639.818 118.467 638.666C144.182 637.319 169.891 635.869 195.603 634.454C221.081 633.052 246.562 631.677 272.036 630.202C277.83 629.866 283.603 629.167 289.299 628.643C289.299 619.396 289.572 610.565 289.236 601.758C288.71 587.963 287.773 574.183 287.055 559.801C288.68 559.204 290.258 559.204 292.584 559.204C293.989 584.438 295.378 609.387 296.812 635.148C207.872 640.041 119.52 644.901 30.8756 649.778C30.5646 647.654 30.332 646.066 30.1072 643.988Z" fill="#795E58"/>
<path d="M505.726 37.546C505.979 37.3506 506.186 37.1144 506.789 36.5413C507.234 36.2453 507.891 36.0761 507.891 36.0761C517.801 30.0725 528.592 27.1738 540.12 26.3794C542.655 26.2047 545.507 24.7492 547.457 23.0271C553.699 17.5145 560.484 14.2785 569.079 14.5704C572.661 14.692 576.533 13.5147 579.865 12.0195C584.505 9.93732 589.166 9.23159 594.166 9.15087C604.679 8.98111 615.185 8.29309 625.697 8.18701C630.804 8.13547 635.954 8.67393 641.024 9.37559C648.425 10.3997 655.747 12.0024 663.15 13.0011C669.801 13.8982 675.828 16.3286 681.528 19.6319C692.266 25.8544 702.644 32.767 713.7 38.3456C719.689 41.368 724.125 45.2473 728.341 50.296C733.255 56.1801 739.702 60.7607 744.84 66.4851C754.383 77.1183 759.505 90.3599 765.182 103.209C769.06 111.989 772.918 120.791 776.373 129.743C780.923 141.533 782.63 153.703 779.92 166.265C779.577 167.852 779.659 169.531 779.453 171.737C778.422 173.802 777.481 175.297 775.789 177.985C775.789 172.483 775.787 168.367 775.79 164.251C775.801 147.64 771.633 131.928 765.317 116.734C754.551 90.8373 738.107 68.9835 716.769 49.5727C712.081 45.3865 708.159 41.6969 704.003 38.2942C693.255 29.4948 681.615 22.1274 668.467 17.4336C649.679 10.7265 630.335 11.0489 610.988 13.7937C590.883 16.646 570.754 19.8092 551.44 26.2662C533.664 32.2093 515.492 37.8109 502.899 52.5683C503.925 47.2103 504.825 42.3781 505.726 37.546Z" fill="#C9DE4F"/>
<path d="M266.436 1012.8C266.037 1015.12 265.303 1016.96 264.57 1018.79C264.053 1018.79 263.535 1018.79 263.018 1018.79C240.562 937.051 218.106 855.309 195.353 772.486C213.472 773.107 230.664 773.696 248.121 774.294C248.449 772.365 248.769 771.263 248.805 770.151C249.373 752.59 249.872 735.026 250.479 717.467C250.575 714.68 251.122 711.908 251.554 708.56C253.257 708.108 254.866 708.224 257.46 708.412C256.609 732.373 255.765 756.13 254.898 780.525C237.106 779.948 220.129 779.398 202.563 778.829C202.722 780.72 202.63 782.071 202.969 783.304C223.601 858.536 244.267 933.76 264.943 1008.98C265.253 1010.11 265.712 1011.19 266.436 1012.8Z" fill="#74615F"/>
<path d="M530.88 1022.71C530.4 1025.2 529.717 1027.14 529.034 1029.09C504.663 947.366 481.641 865.462 458.502 782.764C473.67 781.919 488.041 783.032 503.135 783.854C503.38 780.393 503.66 777.683 503.751 774.966C504.387 756.011 504.985 737.055 505.814 717.668C507.867 717.441 509.701 717.644 512.25 717.926C511.38 741.77 510.52 765.36 509.629 789.766C494.94 789.338 480.736 788.924 465.457 788.479C465.918 791.172 466.096 793.362 466.678 795.438C479.392 840.814 492.153 886.177 504.9 931.543C512.891 959.981 520.87 988.422 528.875 1016.86C529.381 1018.65 530.072 1020.4 530.88 1022.71Z" fill="#74615F"/>
<path d="M337.324 129.207C342.724 134.664 347.822 140.468 353.603 145.486C360.122 151.144 367.311 156.024 374.107 161.372C383.396 168.68 394.195 171.972 405.614 174.124C421.986 177.21 438.425 178.897 455.09 178.376C458.347 178.274 461.618 178.607 465.342 179.109C460.077 185.423 452.759 187.169 444.85 187.935C426.666 189.695 409.508 185.202 392.346 180.169C385.723 178.227 378.82 177.256 372.121 175.543C369.24 174.806 366.015 173.915 363.889 172.031C359.183 167.86 353.366 164.611 351.309 157.859C350.735 155.978 348.627 154.133 346.759 153.153C338.692 148.917 331.976 143.862 331.815 133.619C331.782 131.527 331.383 129.441 331.651 126.786C332.661 126.229 333.174 126.237 333.678 126.703C334.888 127.843 336.106 128.525 337.324 129.207Z" fill="#C9DE4F"/>
<path d="M654.708 553.897C652.567 552.173 650.598 550.014 648.329 547.526C670.365 522.443 683.898 493.314 695.212 462.718C709.964 463.687 724.07 464.613 738.892 465.586C739.992 449.27 741.041 433.719 742.274 417.728C744.298 417.504 746.137 417.721 748.678 418.021C747.485 435.848 746.307 453.466 745.089 471.664C730.244 470.768 716.073 469.912 701.463 469.029C700.305 471.801 699.192 474.324 698.19 476.89C690.771 495.889 682.489 514.484 671.116 531.493C666.061 539.054 660.313 546.153 654.708 553.897Z" fill="#785C58"/>
<path d="M333.686 126.245C333.174 126.237 332.661 126.229 331.774 126.249C326.213 120.94 326.037 114.609 329.46 108.759C336.915 96.0186 344.792 83.5067 352.972 71.2176C356.647 65.6965 362.199 61.916 368.5 59.5129C370.44 58.7733 372.486 57.6775 373.957 61.1154C371.151 65.0572 368.451 68.067 365.75 71.0768C366.028 71.5381 366.306 71.9993 366.584 72.4606C369.069 71.5936 371.535 70.6643 374.046 69.875C377.322 68.8447 380.633 67.9253 383.895 67.5037C379.576 80.9345 382.081 91.8097 391.149 99.5646C391.342 99.8316 391.46 99.9026 391.578 99.9735C391.4 99.782 391.222 99.5904 391.102 98.9655C392.005 97.9396 392.851 97.3472 393.812 97.2291C396.904 102.856 401.712 104.788 407.313 105.047C410.797 105.208 414.299 104.983 418.275 104.962C419.888 105.05 421.017 105.106 422.661 105.189C409.374 114.648 389.97 110.789 380.151 101.808C376.521 98.4879 373.266 94.7595 369.642 91.4332C365.764 87.8733 359.423 86.6359 356.016 89.0487C350.931 92.651 346.203 96.7542 341.246 100.544C332.279 107.399 329.079 115.648 334.523 126.221C334.247 126.271 333.686 126.245 333.686 126.245Z" fill="#99BC89"/>
<path d="M436.13 612.091C496.674 637.064 552.818 626.614 606.37 590.137C607.917 592.532 609.23 594.564 610.641 597.057C598.13 605.604 585.199 613.082 571.318 618.827C527.251 637.065 483.47 636.068 439.943 616.968C438.896 616.508 437.94 615.838 436.554 614.51C436.155 613.2 436.143 612.646 436.13 612.091Z" fill="#785C58"/>
<path d="M633.726 628.399C643.113 628.648 652.673 629.315 662.232 629.998C669.699 630.531 677.161 631.161 684.633 631.613C698.629 632.461 712.631 633.211 727.402 634.044C728.641 618.057 729.881 602.055 731.476 585.587C733.438 585.299 735.045 585.476 737.439 585.739C736.244 603.765 735.061 621.621 733.841 640.031C731.018 640.031 728.752 640.16 726.504 640.012C698.281 638.153 670.065 636.151 641.831 634.478C637.563 634.225 635.519 632.141 633.726 628.399Z" fill="#795E58"/>
<path d="M383.929 66.9579C380.633 67.925 377.322 68.8444 374.046 69.8747C371.535 70.664 369.069 71.5933 366.584 72.4603C366.306 71.9991 366.028 71.5378 365.75 71.0765C368.451 68.0667 371.151 65.0569 374.065 61.6063C377.256 61.5988 378.115 59.0761 379.654 57.4083C383.755 52.9631 387.666 48.2807 392.19 44.3044C396.672 40.3656 402.188 38.2938 408.973 38.852C416.087 42.453 422.784 45.6214 429.052 49.4869C434.343 52.7503 439.135 56.8222 444.049 61.313C439.904 61.3964 435.857 60.703 431.393 59.781C423.973 53.4317 415.994 50.2986 406.174 51.5664C405.09 51.894 404.406 52.2342 403.205 52.6602C399.68 54.1558 396.671 55.5658 393.199 57.082C389.8 60.4448 386.865 63.7013 383.929 66.9579Z" fill="#A9C679"/>
<path d="M10.5836 287.388C12.1323 286.41 13.6897 285.801 15.2748 285.717C36.5332 284.589 57.796 283.545 79.0562 282.453C83.0115 282.25 86.9605 281.925 91.6211 281.608C91.8659 283.492 92.0898 285.214 92.2843 287.508C65.3777 289.589 38.5005 291.096 11.2397 292.625C10.9673 290.64 10.7862 289.321 10.5836 287.388Z" fill="#795E58"/>
<path d="M723.475 337.303C723.501 339.391 724.619 340.296 727.145 340.222C716.134 358.319 701.731 373.89 685.279 387.513C677.55 393.913 669.098 399.439 660.575 405.733C658.651 406.704 657.125 407.303 654.816 407.792C653.703 407.266 653.372 406.851 653.321 406.065C657.352 402.564 661.162 399.501 664.843 396.29C673.972 388.328 685.401 383.28 693.37 373.875C698.784 367.486 704.024 360.948 709.343 354.479C714.052 348.752 718.764 343.028 723.475 337.303Z" fill="#4D8365"/>
<path d="M166.11 285.163C164.907 289.575 163.557 293.256 162.05 297.364C160.042 293.04 155.917 230.252 156.08 208.322C157.759 207.775 159.356 207.775 161.498 207.775C162.998 233.522 164.481 258.977 166.11 285.163Z" fill="#795E58"/>
<path d="M565.13 786.463C581.427 786.559 597.771 787.141 614.921 787.752C614.481 790.038 614.207 791.466 613.685 793.386C597.699 793.216 581.962 792.554 565.882 791.878C565.622 790.064 565.399 788.506 565.13 786.463Z" fill="#74615F"/>
<path d="M82.6446 769.19C96.0934 769.041 109.54 769.482 122.989 769.827C126.332 769.913 127.403 771.823 127.558 775.212C112.845 775.283 98.1331 774.873 83.0593 774.453C82.88 772.424 82.7616 771.084 82.6446 769.19Z" fill="#74615F"/>
<path d="M312.961 777.563C325.195 777.401 337.379 777.768 350.514 778.164C349.546 780.62 349 782.004 348.075 783.706C336.271 783.593 324.847 783.162 313.139 782.72C313.044 780.811 312.977 779.452 312.961 777.563Z" fill="#74615F"/>
<path d="M435.811 611.736C436.143 612.646 436.155 613.2 436.192 614.169C429.173 610.309 422.129 606.035 415.005 601.29C421.779 604.341 428.635 607.861 435.811 611.736Z" fill="#795E58"/>
<path d="M668.98 574.827C668.195 574.72 666.87 574.372 666.301 573.52C662.28 567.49 658.414 561.356 654.484 554.75C659.243 560.947 664.016 567.65 668.98 574.827Z" fill="#74615F"/>
<path d="M507.879 35.4174C507.891 36.0764 507.234 36.2455 506.906 36.3357C506.561 30.1481 506.545 23.8703 506.617 16.9448C507.109 19.8982 507.623 23.4916 507.877 27.1032C508.057 29.6421 507.883 32.2059 507.879 35.4174Z" fill="#D8DEA9"/>
<path d="M409.093 597.336C409.927 597.481 410.966 598.007 412.07 599.006C411.19 598.892 410.244 598.304 409.093 597.336Z" fill="#90B981"/>
<path d="M412.334 599.846C412.923 599.689 413.719 599.918 414.721 600.52C414.132 600.672 413.336 600.452 412.334 599.846Z" fill="#90B981"/>
<path d="M727.99 339.92C727.994 339.4 728.317 338.616 729.034 337.646C729.055 338.192 728.682 338.924 727.99 339.92Z" fill="#4D8365"/>
<path d="M488.703 404.896C489.793 406.106 491.095 407.183 491.94 408.545C515.422 446.389 538.855 484.262 562.301 522.128C566.61 529.089 570.938 536.038 575.218 542.93C539.774 581.144 472.086 582.168 437.04 535.53C435.354 532.266 434.001 529.777 432.477 526.774C428.49 520.269 427.09 513.43 425.665 506.653C418.855 474.255 427.182 442.457 458.016 421.803C467.683 415.328 478.443 410.485 488.703 404.896Z" fill="#F6EFE8"/>
<path d="M621.204 237.785C616.273 232.239 611.342 226.694 606.7 220.661C608.64 220.952 610.405 221.555 611.925 222.538C620.55 228.112 629.063 233.861 637.732 239.363C640.4 241.055 643.441 242.159 646.756 243.745C647.635 241.561 648.533 240.152 648.752 238.644C649.662 232.366 646.639 227.758 641.817 224.302C637.838 221.451 633.505 219.101 629.42 216.392C625.071 213.508 621.803 209.832 621.087 204.929C626.451 201.829 631.194 199.088 636.023 196.298C636.59 196.994 637.232 197.447 637.396 198.033C639.928 207.056 645.843 213.448 653.218 218.791C658.355 222.513 658.526 222.597 664.613 219.498C673.182 224.541 676.547 232.374 677.893 241.13C680.295 256.747 682.286 272.428 684.31 288.549C684.448 290.232 684.726 291.448 685.046 293.197C685.191 295.149 685.294 296.57 685.138 298.207C685.032 299.215 685.184 300.007 685.286 301.186C685.22 302.09 685.204 302.608 684.877 303.461C684.316 304.661 684.065 305.525 683.51 306.652C682.996 307.681 682.788 308.448 682.202 309.509C679.976 313.025 678.326 316.38 676.248 319.445C664.769 336.375 652.484 352.653 636.955 366.7C635.857 367.246 635.158 367.669 634.043 368.129C632.922 368.567 632.215 368.969 630.988 369.432C618.208 373.976 606.116 379.013 593.636 382.761C583.652 385.761 573.197 387.193 563.265 388.973C572.944 384.584 580.759 378.323 588.657 371.341C591.034 370.301 592.942 369.446 594.767 368.441C620.657 354.183 637.977 333.791 641.14 303.354C643.1 284.492 640.473 266.537 630.194 249.671C627.886 246.19 625.675 243.174 623.464 240.158C623.464 240.158 623.454 240.241 623.447 239.862C622.694 238.917 621.949 238.351 621.204 237.785Z" fill="#F4EEE7"/>
<path d="M664.276 219.176C658.526 222.597 658.355 222.513 653.218 218.791C645.843 213.448 639.928 207.056 637.396 198.033C637.232 197.447 636.59 196.994 636.023 196.298C631.194 199.088 626.451 201.829 621.087 204.929C621.803 209.832 625.071 213.508 629.42 216.392C633.505 219.101 637.838 221.451 641.817 224.302C646.639 227.759 649.662 232.366 648.752 238.644C648.533 240.152 647.635 241.561 646.756 243.745C643.441 242.159 640.4 241.055 637.733 239.363C629.063 233.861 620.55 228.112 611.925 222.538C610.405 221.555 608.64 220.952 606.395 220.253C599.092 220.022 592.381 219.713 585.457 219.393C583.505 224.513 581.619 229.458 579.619 234.704C575.099 233.083 574.528 229.677 574.07 226.254C573.054 218.653 575.408 211.959 580.277 205.112C586.655 198.422 592.452 192.427 598.513 186.077C606.521 178.433 610.219 168.41 616.155 159.897C616.611 159.244 616.338 158.081 616.832 156.944C621.333 151.47 625.47 146.255 629.458 140.929C632.73 136.559 635.824 132.056 639.478 127.543C641.002 126.623 642.143 125.868 643.069 124.905C647.086 120.73 650.786 116.212 655.076 112.346C661.578 106.485 664.574 106.651 671.352 112.67C675.78 121.145 677.617 129.676 677.092 139.387C677.261 149.953 676.648 159.767 674.591 169.5C674.208 171.309 675.249 173.42 675.183 175.634C673.607 179.021 672.481 182.164 671.351 185.888C670.099 191.911 668.796 197.342 667.616 202.8C666.438 208.245 665.384 213.716 664.276 219.176ZM617.366 173.697C622.354 167.948 627.488 162.317 632.276 156.406C635.293 152.682 637.792 148.539 641.298 144.111C642.314 142.795 643.33 141.48 645.051 139.251C640.514 139.626 640.393 141.995 639.162 144.402C632.248 148.918 627.927 155.808 623.051 162.163C620.3 165.748 616.464 168.769 615.469 174.045C615.043 174.528 614.617 175.01 614.19 175.493C614.485 175.751 614.78 176.008 615.075 176.266C615.568 175.568 616.062 174.869 617.366 173.697ZM612.857 179.134L613 178.87C613 178.87 612.715 178.912 612.857 179.134Z" fill="#6EB28C"/>
<path d="M576.407 433.508C575.895 433.503 575.382 433.498 574.296 433.459C573.468 433.47 573.244 433.578 573.049 433.749C563.277 433.939 553.433 434.947 543.751 434.099C533.338 433.187 524.235 428.257 516.399 421.099C505.941 411.545 497.292 400.676 491.062 386.941C490.511 385.31 490.034 384.616 489.557 383.922C489.557 383.922 489.65 383.907 489.648 383.281C489.294 371.968 489.84 361.352 491.904 350.301C493.104 350.885 494.023 351.102 494.621 351.662C498.733 355.512 501.268 360.107 500.92 365.932C500.481 373.281 501.856 380.375 504.168 387.275C505.412 390.987 507.536 394.315 512.201 393.7C519.624 392.721 524.551 396.888 528.018 402.238C532.542 409.22 538.136 410.479 545.501 408.237C550.431 406.735 555.422 405.92 560.561 407.853C565.505 409.713 570.464 409.195 575.704 408.283C581.511 407.272 587.468 405.017 593.6 407.75C600.964 411.033 607.348 408.262 612.945 403.456C619.374 397.938 626.788 395.087 635.041 393.645C651.143 390.829 660.284 381.427 663.248 365.291C664.766 362.837 665.917 360.661 667.287 358.064C672.037 353.631 676.569 349.618 681.126 346.152C680.922 347.835 680.93 349.091 680.427 350.088C672.51 365.783 664.232 381.21 651.246 393.55C646.859 397.719 643.101 402.549 639.021 407.045C636.224 410.128 633.368 413.156 630.03 416.295C615.784 423.351 601.384 428.396 586.257 431.372C584.066 431.803 581.948 432.607 579.785 433.315C579.774 433.391 579.62 433.409 579.088 433.395C577.839 433.423 577.123 433.465 576.407 433.508Z" fill="#61A280"/>
<path d="M662.881 365.568C660.284 381.427 651.143 390.83 635.041 393.645C626.788 395.088 619.374 397.938 612.945 403.457C607.348 408.262 600.964 411.033 593.6 407.751C587.468 405.017 581.511 407.272 575.704 408.283C570.464 409.195 565.505 409.713 560.561 407.853C555.422 405.92 550.431 406.736 545.501 408.237C538.136 410.48 532.542 409.221 528.018 402.238C524.551 396.888 519.624 392.722 512.201 393.7C507.536 394.315 505.412 390.987 504.168 387.276C501.856 380.375 500.481 373.282 500.92 365.933C501.268 360.107 498.733 355.512 494.621 351.662C494.023 351.102 493.104 350.886 491.904 350.301C489.84 361.353 489.294 371.968 489.622 383.32C483.039 373.41 482.593 361.833 484.934 350.175C487.589 336.958 493.5 324.997 501.665 313.225C502.817 311.449 503.378 310.316 504.367 309.012C505.825 307.895 506.853 306.947 507.884 306.004C518.505 296.283 530.65 290.666 545.394 292.277C549.321 292.707 553.212 293.466 556.763 294.392C554.344 295.361 552.28 296.011 549.677 296.656C546.912 297.249 544.478 297.458 542.501 298.519C537.056 301.442 531.224 304.083 528.581 310.867C526.25 313.381 524.77 316.437 522.339 317.818C515.062 321.954 512.754 329.279 509.013 336.309C500.921 349.466 503.804 362.661 507.588 375.796C508.13 377.675 509.768 379.422 511.286 380.806C521.429 390.054 532.817 397.371 546.231 400.682C551.56 401.998 557.512 402.699 562.828 401.734C571.858 400.096 580.829 398.962 589.951 399.458C595.539 399.761 600.557 398.629 605.374 395.806C610.687 392.692 616.452 391.033 622.7 390.832C625.195 390.752 627.787 389.922 630.107 388.912C636.569 386.1 642.448 382.461 647.655 377.511C652.309 373.087 657.774 369.516 662.881 365.568Z" fill="#6EB28C"/>
<path d="M557.119 294.074C553.212 293.466 549.321 292.707 545.394 292.277C530.65 290.666 518.505 296.283 507.884 306.004C506.853 306.947 505.825 307.895 504.197 308.497C502.658 305.269 501.558 302.427 500.803 299.496C495.805 280.101 506.119 261.227 525.279 255.134C536.772 251.479 548.289 251.93 559.632 256.19C561.108 256.744 562.739 256.882 564.299 257.213C564.299 257.213 564.31 257.133 564.452 257.55C565.443 258.202 566.293 258.436 567.142 258.671C567.142 258.671 567.152 258.537 567.169 258.831C567.46 259.474 567.819 259.659 568.263 259.68C572.541 264.781 575.677 270.408 577.014 277.042C578.651 285.17 577.459 292.845 573.361 300.681C567.504 298.748 562.311 296.411 557.119 294.074Z" fill="#F4EEE7"/>
<path d="M653.223 409.611C652.228 414.156 651.481 418.773 650.197 423.235C643.447 446.69 634.493 469.243 622.115 490.348C621.177 491.947 619.949 493.377 618.17 494.702C605.755 476.235 594 457.971 582.342 439.645C581.139 437.754 580.513 435.496 579.62 433.409C579.62 433.409 579.774 433.391 580.442 433.358C598.524 434.394 614.875 431.406 629.564 420.66C630.244 420.274 630.57 419.953 630.946 419.622C630.997 419.613 631.097 419.589 631.616 419.647C637.232 417.119 642.329 414.534 647.866 411.914C649.461 411.042 650.616 410.207 651.774 409.44C651.776 409.509 651.888 409.587 652.222 409.614C652.555 409.642 653.223 409.611 653.223 409.611Z" fill="#F4EEE7"/>
<path d="M556.763 294.392C562.311 296.411 567.504 298.748 573.153 301.224C576.091 304.405 578.674 307.37 581.034 310.503C590.154 322.611 594.697 336.205 594.008 352.622C593.908 354.928 593.878 356.045 593.849 357.161C593.849 357.161 593.877 357.134 593.437 357.296C586.498 366.535 578.783 374.376 568.137 378.253C562.582 380.277 556.427 381.928 550.623 381.699C541.545 381.343 534.57 375.962 529.222 368.675C526.342 364.752 523.503 360.799 520.641 356.241C520.725 350.939 520.144 346.125 521.025 341.596C524.114 325.713 543.993 319.711 555.38 328.951C552.144 328.967 549.564 328.915 546.986 328.981C532.886 329.344 524.467 341.062 528.627 354.615C528.912 355.542 529.954 356.237 530.992 357.379C533.408 360.707 534.826 364.801 537.668 366.476C545.964 371.364 546.187 370.985 556 371.876C557.001 372.628 558.056 373.369 558.858 373.156C568.792 370.515 575.476 364.176 579.485 354.8C581.881 349.197 581.661 343.266 581.068 337.538C580.124 328.419 577.964 319.481 570.356 313.242C564.972 308.827 559.288 304.779 553.816 300.467C552.459 299.398 551.408 297.941 550.216 296.662C552.28 296.011 554.344 295.361 556.763 294.392Z" fill="#90B981"/>
<path d="M488.608 404.393C478.443 410.485 467.683 415.328 458.016 421.803C427.182 442.457 418.855 474.255 425.665 506.653C427.09 513.43 428.49 520.27 431.99 526.846C431.349 527.453 431.023 527.478 430.697 527.503C425.132 520.863 422.596 512.767 420.561 504.662C415.272 483.608 416.191 462.999 426.272 443.273C431.183 433.663 438.667 426.258 446.741 419.494C457.956 410.098 471.168 404.073 485.063 397.837C486.31 400.025 487.411 401.958 488.608 404.393Z" fill="#785C58"/>
<path d="M630.29 250.136C640.473 266.537 643.1 284.492 641.14 303.354C637.977 333.791 620.657 354.183 594.767 368.441C592.942 369.446 591.035 370.301 588.707 370.827C590.262 366.58 592.276 362.732 594.29 358.884C618.163 344.662 632.248 324.343 635.101 296.168C636.635 281.018 634.058 266.858 629.145 251.968C629.592 250.78 629.941 250.458 630.29 250.136Z" fill="#785C58"/>
<path d="M564.284 256.716C562.74 256.882 561.108 256.744 559.632 256.189C548.289 251.93 536.772 251.479 525.279 255.134C506.119 261.227 495.805 280.101 500.803 299.495C501.558 302.427 502.658 305.269 503.769 308.668C503.378 310.316 502.817 311.449 501.966 312.781C499.294 306.417 496.314 300.001 494.649 293.26C490.812 277.728 495.762 265.082 508.06 254.823C522.028 243.171 554.194 245.136 564.284 256.716Z" fill="#785C58"/>
<path d="M598.249 186.432C592.452 192.427 586.655 198.422 580.484 204.636C571.924 200.348 562.929 198.383 553.904 196.512C552.103 196.138 550.308 195.731 547.97 195.221C553.658 190.817 559.887 186.532 567.171 182.495C578.234 183.972 588.242 185.202 598.249 186.432Z" fill="#F4EEE7"/>
<path d="M594.182 358.438C592.276 362.732 590.262 366.581 588.199 370.942C580.759 378.323 572.945 384.584 563.284 389.065C562.988 389.505 562.924 389.681 562.293 389.636C558.281 389.597 554.902 389.603 551.105 389.524C549.628 389.026 548.568 388.614 547.19 387.834C545.629 387.221 544.385 386.977 543.16 386.727C543.178 386.721 543.162 386.761 542.984 386.319C537.831 381.767 532.6 377.925 527.954 373.472C523.352 369.061 520.264 363.633 520.646 356.859C523.503 360.799 526.342 364.752 529.222 368.675C534.57 375.962 541.545 381.343 550.623 381.699C556.427 381.928 562.582 380.277 568.137 378.253C578.783 374.376 586.498 366.535 593.438 357.277C593.944 357.394 594.01 357.693 594.182 358.438Z" fill="#D8DEA9"/>
<path d="M579.088 433.395C580.513 435.497 581.139 437.754 582.342 439.645C594 457.971 605.755 476.236 617.759 494.948C615.804 497.461 615.324 495.061 614.57 493.912C610.105 487.102 605.674 480.27 601.316 473.392C593.103 460.428 584.947 447.428 576.587 433.975C577.123 433.466 577.839 433.423 579.088 433.395Z" fill="#795E58"/>
<path d="M630.194 249.671C629.941 250.458 629.592 250.78 629.097 251.435C627.103 248.247 625.256 244.726 623.437 240.681C625.675 243.174 627.887 246.19 630.194 249.671Z" fill="#795E58"/>
<path d="M430.819 527.951C431.023 527.478 431.349 527.453 432.162 527.358C434.001 529.777 435.354 532.266 436.645 535.173C434.703 533.193 432.822 530.796 430.819 527.951Z" fill="#795E58"/>
<path d="M621.242 238.168C621.949 238.35 622.694 238.916 623.488 239.86C622.785 239.675 622.032 239.113 621.242 238.168Z" fill="#795E58"/>
<path d="M594.215 356.911C593.878 356.044 593.908 354.928 594.021 353.254C594.264 354.018 594.423 355.34 594.215 356.911Z" fill="#D8DEA9"/>
<path d="M653.503 409.378C653.223 409.611 652.555 409.642 652.15 409.157C652.177 407.927 652.609 407.181 653.041 406.436C653.372 406.851 653.703 407.266 654.392 407.871C654.428 408.422 654.105 408.783 653.503 409.378Z" fill="#599173"/>
<path d="M566.877 258.325C566.293 258.436 565.443 258.201 564.412 257.557C565.024 257.424 565.817 257.702 566.877 258.325Z" fill="#785C58"/>
<path d="M489.587 384.354C490.034 384.616 490.511 385.31 490.987 386.455C490.53 386.199 490.073 385.493 489.587 384.354Z" fill="#6EB28C"/>
<path d="M568.076 259.468C567.82 259.659 567.46 259.474 567.103 258.821C567.287 258.79 567.576 259.036 568.076 259.468Z" fill="#785C58"/>
<path d="M573.243 433.842C573.244 433.578 573.468 433.47 573.912 433.431C573.969 433.722 573.748 433.888 573.243 433.842Z" fill="#795E58"/>
<path d="M638.997 127.612C635.824 132.056 632.73 136.559 629.458 140.929C625.47 146.255 621.333 151.47 616.176 156.941C612.988 157.149 610.869 156.982 608.785 157.179C596.438 158.348 585.414 154.709 574.924 148.48C568.605 144.728 561.946 141.549 554.666 137.703C555.66 141.994 556.431 145.32 557.202 148.647C555.158 147.779 552.869 147.252 551.112 145.987C541.904 139.359 532.865 132.498 523.693 125.818C519.812 122.991 515.739 121.882 511.24 125.916C509.924 122.405 508.681 118.702 508.299 114.913C507.699 108.964 505.393 103.745 502.425 97.6001C503.987 90.9396 503.993 85.4099 502.748 79.5663C501.684 74.5755 499.375 69.3601 502.654 64.2085C503.84 65.1802 504.809 65.9619 505.08 66.9374C507.073 74.1179 508.938 81.3342 510.823 88.5448C513.449 98.5911 516.603 108.371 525.56 114.823C529.903 117.952 534.386 120.897 538.924 123.739C539.863 124.327 541.321 124.087 542.351 124.207C540.871 117.881 539.586 112.021 538.098 106.212C537.526 103.978 537.743 102.529 540.324 102.714C541.957 116.378 549.703 124.137 562.346 125.866C575.45 127.658 588.742 128.517 601.974 128.806C614.3 129.077 626.655 128.061 638.997 127.612Z" fill="#82B78A"/>
<path d="M431.81 60.0098C435.857 60.7032 439.903 61.3965 444.268 61.7347C450.082 64.8371 452.571 70.6033 455.412 76.6664C455.09 78.1226 454.849 78.8669 455.068 79.434C457.691 86.2352 460.474 92.9766 463.002 99.8124C463.779 101.914 463.909 104.255 464.271 106.839C464.137 107.418 464.068 107.646 463.999 107.875C463.999 107.875 463.389 107.868 462.827 108.058C461.943 108.525 461.709 108.861 461.564 109.259C457.031 111.685 452.498 114.11 447.166 117.038C443.975 118.298 441.606 119.144 439.184 119.795C433.043 121.448 426.879 123.013 420.7 124.021C419.798 116.067 422.656 110.254 427.977 105.36C430.903 102.669 433.712 99.8369 436.409 96.9159C437.648 95.5744 439.272 93.9165 439.375 92.3156C439.799 85.7229 441.242 78.9414 437.397 72.3713C436.889 71.7455 436.509 71.4627 436.133 71.2003C436.138 71.2207 436.165 71.1886 436.168 70.6687C434.717 66.7691 433.263 63.3894 431.81 60.0098Z" fill="#99BC89"/>
<path d="M502.115 64.1081C499.375 69.36 501.685 74.5754 502.748 79.5662C503.993 85.4097 503.987 90.9395 502.213 97.1214C497.69 105.616 493.214 113.551 488.738 121.486C486.303 116.829 486.98 112.298 487.343 106.921C490.289 104.528 491.373 102.334 491.504 99.371C495.311 98.0518 496.618 95.3341 496.703 92.1491C496.815 87.949 497.162 83.5866 496.234 79.565C494.636 72.6415 495.252 66.0383 497.671 59.6181C501.446 49.6022 503.074 39.3492 502.302 28.6943C503.303 31.3016 504.304 33.9089 505.516 37.0312C504.826 42.3783 503.925 47.2105 502.938 53.0381C502.606 57.3917 502.36 60.7499 502.115 64.1081Z" fill="#D8DEA9"/>
<path d="M430.508 165.579C418.097 165.837 406.437 165.266 395.008 162.584C384.653 160.153 377.015 153.608 370.083 146.177C370.351 145.606 370.619 145.036 370.888 144.465C374.027 145.525 377.324 146.263 380.272 147.713C386.143 150.602 391.798 153.929 397.588 156.987C405.179 160.996 413.429 162.585 421.886 162.797C432.891 163.073 443.906 162.93 454.916 162.965C457.184 162.972 459.452 162.966 461.756 163.664C456.96 166.502 451.704 165.207 446.669 165.484C441.53 165.767 436.364 165.568 430.508 165.579Z" fill="#D8DEA9"/>
<path d="M420.723 124.614C426.879 123.013 433.043 121.448 439.184 119.795C441.606 119.144 443.975 118.298 446.917 117.426C447.275 117.734 447.204 118.347 446.876 118.554C437.35 124.569 427.788 130.849 415.922 130.344C404.265 129.849 392.601 128.996 381.007 127.693C366.744 126.09 352.597 125.407 337.929 129.106C336.106 128.525 334.888 127.843 333.678 126.703C333.686 126.245 334.246 126.271 335.068 126.146C341.658 124.001 347.586 123.405 353.703 123.138C365.936 122.603 377.755 125.25 389.707 126.894C400.233 128.342 410.494 126.847 420.723 124.614Z" fill="#4D8365"/>
<path d="M490.967 99.4131C491.373 102.334 490.289 104.528 487.347 106.287C481.66 100.612 475.629 103.502 469.127 105.076C468.549 105.037 468.494 104.974 468.712 104.54C475.198 97.4826 482.687 96.5902 490.967 99.4131Z" fill="#4D8365"/>
<path d="M464.523 107.874C464.068 107.646 464.137 107.418 464.687 106.671C466.276 105.759 467.385 105.367 468.494 104.974C468.494 104.974 468.549 105.038 468.579 105.069C467.421 106.025 466.234 106.949 464.523 107.874Z" fill="#4D8365"/>
<path d="M461.759 109.452C461.709 108.861 461.943 108.525 462.523 108.081C462.505 108.49 462.23 109.067 461.759 109.452Z" fill="#4D8365"/>
<path d="M639.478 127.542C626.655 128.061 614.3 129.076 601.974 128.806C588.742 128.516 575.45 127.657 562.346 125.865C549.703 124.137 541.957 116.378 540.335 102.081C539.048 90.7253 542.756 82.1709 548.678 74.2079C554.674 66.1453 562.351 60.0311 571.107 55.4966C583.53 49.0636 595.988 42.2998 610.735 43.1247C613.811 43.8996 616.907 44.6017 619.959 45.4627C630.448 48.4222 641.066 51.0179 651.356 54.5604C659.999 57.5356 667.884 62.1141 672.796 70.4411C673.374 71.4207 674.36 72.1597 675.375 74.0331C678.253 86.0435 676.686 96.5254 672.045 106.724C671.317 108.325 671.503 110.342 671.266 112.166C664.574 106.65 661.578 106.484 655.075 112.345C650.786 116.212 647.086 120.73 643.069 124.905C642.143 125.868 641.002 126.623 639.478 127.542Z" fill="#99BC89"/>
<path d="M610.858 42.5801C595.988 42.3001 583.53 49.0638 571.107 55.4969C562.351 60.0314 554.674 66.1456 548.678 74.2082C542.756 82.1711 539.048 90.7255 540.306 101.526C537.743 102.529 537.526 103.978 538.098 106.212C539.586 112.021 540.871 117.881 542.351 124.207C541.321 124.087 539.863 124.327 538.923 123.739C534.386 120.897 529.903 117.952 525.56 114.823C516.603 108.371 513.449 98.5912 510.823 88.5448C508.938 81.3343 507.073 74.1179 505.08 66.9374C504.809 65.9619 503.84 65.1803 502.654 64.2085C502.36 60.75 502.606 57.3918 502.813 53.5641C515.492 37.8113 533.664 32.2096 551.44 26.2666C570.754 19.8096 590.883 16.6463 610.988 13.794C630.335 11.0492 649.679 10.7268 668.467 17.434C681.615 22.1277 693.255 29.4952 704.003 38.2945C708.159 41.6973 712.081 45.3868 716.36 49.3241C711.754 54.7205 706.716 55.1154 700.247 52.0317C687.623 46.0144 674.265 42.2125 660.33 40.0134C647.965 38.062 635.655 39.0592 623.337 39.031C619.276 39.0218 614.579 38.9584 610.858 42.5801Z" fill="#6EB28B"/>
<path d="M750.176 139.722C754.993 155.733 758.194 171.498 757.187 187.786C756.671 196.141 755.784 204.535 754.222 212.751C751.42 227.495 749.923 242.299 749.63 257.877C745.71 256.629 742.316 254.795 738.481 252.89C737.366 251.956 736.692 251.094 736.267 250.023C735.915 248.975 735.314 248.137 735.117 246.935C735.527 244.989 735.553 243.407 735.535 241.825C735.465 235.788 735.057 229.733 735.389 223.719C735.761 216.997 736.799 210.313 737.554 202.983C738.549 195.042 736.344 188.546 732.598 182.39C729.007 176.489 726.838 170.262 727.613 163.119C728.483 155.106 725.17 148.163 719.6 142.962C708.983 133.049 704.374 120.383 700.716 106.929C698.46 98.6311 695.339 90.5685 692.606 82.4004C694.135 82.8442 695.865 82.9672 697.161 83.782C708.788 91.0938 720.212 98.7849 729.44 109.056C735.782 116.114 741.451 123.801 747.096 131.445C748.687 133.599 749.136 136.596 750.176 139.722Z" fill="#82B78A"/>
<path d="M692.352 81.985C695.339 90.5684 698.46 98.631 700.716 106.929C704.375 120.383 708.983 133.049 719.6 142.962C725.17 148.162 728.483 155.106 727.613 163.119C726.838 170.261 729.007 176.489 732.598 182.39C736.344 188.546 738.549 195.042 737.123 202.778C734.481 200.217 731.967 197.412 730.127 194.218C719.031 174.95 704.48 158.83 686.554 145.717C683.401 143.41 680.282 141.055 677.147 138.722C677.617 129.676 675.78 121.145 671.353 112.669C671.503 110.342 671.317 108.325 672.045 106.724C676.686 96.5253 678.253 86.0435 675.612 74.4312C681.12 76.3942 686.609 78.982 692.352 81.985Z" fill="#ACC088"/>
<path d="M557.27 149.139C556.431 145.32 555.66 141.994 554.666 137.703C561.946 141.548 568.605 144.727 574.924 148.479C585.414 154.708 596.438 158.347 608.785 157.179C610.869 156.982 612.988 157.149 615.747 157.151C616.338 158.081 616.611 159.243 616.155 159.897C610.219 168.409 606.521 178.433 598.513 186.077C588.242 185.202 578.234 183.972 567.695 182.474C568.259 180.479 569.235 178.66 570.47 177.039C577.3 168.078 576.291 166.471 568.702 159.639C565.943 157.155 562.59 155.343 559.67 153.021C558.644 152.204 558.102 150.779 557.27 149.139Z" fill="#61A280"/>
<path d="M520.563 179.59C527.254 175.833 533.945 172.076 541.2 168.353C541.764 168.387 541.848 168.462 541.848 168.462C536.575 174.73 529.002 176.91 521.225 179.711C520.653 179.679 520.563 179.59 520.563 179.59Z" fill="#ACC088"/>
<path d="M520.698 179.724C520.259 180.465 519.775 181.161 519.292 181.857C518.999 181.601 518.705 181.344 518.413 181.087C518.865 180.637 519.317 180.186 520.166 179.663C520.563 179.591 520.653 179.68 520.698 179.724Z" fill="#ACC088"/>
<path d="M541.727 168.345C541.941 168.134 542.194 167.966 542.446 167.798C542.386 167.951 542.326 168.104 542.057 168.36C541.848 168.463 541.764 168.387 541.727 168.345Z" fill="#ACC088"/>
<path d="M514.973 183.866C515.214 183.692 515.455 183.517 515.696 183.343C515.624 183.487 515.553 183.63 515.245 183.835C515.01 183.897 514.973 183.866 514.973 183.866Z" fill="#ACC088"/>
<path d="M515.025 183.915C514.811 184.111 514.582 184.288 514.352 184.465C514.419 184.323 514.486 184.181 514.763 183.953C514.973 183.866 515.01 183.897 515.025 183.915Z" fill="#ACC088"/>
<path d="M468.712 104.54C467.385 105.367 466.276 105.759 464.752 106.319C463.909 104.255 463.779 101.914 463.002 99.8121C460.474 92.9764 457.691 86.235 455.068 79.4337C454.849 78.8667 455.09 78.1223 455.467 77.1566C456.531 77.3841 457.245 77.9153 458.681 78.9832C458.253 75.9621 457.92 73.6199 457.514 70.7628C460.874 70.0179 464.135 69.0102 467.469 68.6189C473.155 67.9516 476.859 64.5418 479.652 60.0906C487.269 47.952 492.883 34.9675 495.47 20.7765C495.62 19.9551 496.34 19.2377 497.522 17.2466C499.417 21.3471 500.885 24.5224 502.327 28.196C503.074 39.3491 501.446 49.602 497.671 59.6179C495.252 66.0382 494.636 72.6414 496.234 79.5648C497.162 83.5864 496.814 87.9489 496.703 92.149C496.618 95.334 495.31 98.0516 491.504 99.3708C482.687 96.5902 475.198 97.4826 468.712 104.54Z" fill="#82B78A"/>
<path d="M653.321 406.065C652.609 407.181 652.177 407.927 651.817 409.13C651.888 409.587 651.776 409.509 651.273 409.404C648.853 409.17 647.582 409.858 647.425 411.95C642.329 414.535 637.232 417.119 631.423 419.103C630.653 417.737 630.595 416.973 630.538 416.209C633.368 413.156 636.224 410.128 639.021 407.046C643.101 402.549 646.859 397.719 651.246 393.55C664.232 381.21 672.51 365.783 680.427 350.088C680.93 349.091 680.922 347.836 681.148 345.62C682.613 339.404 683.549 334.031 685.698 329.198C687.985 324.053 688.513 318.956 688.094 312.95C687.078 306.28 690.016 301.367 693.254 296.872C698.968 288.942 709.094 286.565 716.409 292.885C717.99 294.251 720.673 295.28 722.683 295.046C730.287 294.161 735.055 297.986 738.976 303.701C735.504 315.365 730.289 326.207 723.52 336.82C718.764 343.029 714.052 348.753 709.343 354.479C704.024 360.949 698.784 367.486 693.37 373.875C685.401 383.28 673.972 388.328 664.843 396.29C661.162 399.501 657.352 402.564 653.321 406.065Z" fill="#67AB85"/>
<path d="M739.345 303.347C735.055 297.985 730.287 294.16 722.683 295.046C720.673 295.28 717.99 294.251 716.409 292.885C709.094 286.564 698.968 288.942 693.254 296.871C690.016 301.366 687.078 306.28 687.666 312.969C685.741 313.839 684.094 314.744 683.934 312.023C683.878 311.063 683.053 310.149 682.58 309.215C682.788 308.448 682.996 307.681 683.928 306.406C684.831 304.974 685.01 304.05 685.189 303.126C685.204 302.608 685.22 302.09 685.741 301.122C686.916 299.787 687.586 298.903 688.24 297.412C688.668 292.992 689.113 289.177 690.075 285.294C691.226 284.959 691.948 284.809 692.481 284.408C700.868 278.114 705.128 278.076 713.387 284.214C713.896 284.592 714.627 284.672 715.558 284.996C715.893 284.049 716.185 283.224 716.749 282.255C717.363 281.859 717.605 281.532 718.263 281.028C719.425 279.809 720.379 278.767 720.664 277.566C722.241 270.935 725.355 265.506 731.551 262.108C733.359 261.116 735.17 259.837 736.449 258.259C737.64 256.791 738.126 254.75 738.922 252.961C742.316 254.795 745.71 256.629 749.58 258.537C748.286 268.122 746.745 277.681 744.66 287.121C743.469 292.513 741.393 297.709 739.345 303.347Z" fill="#99BC89"/>
<path d="M420.7 124.021C410.494 126.847 400.233 128.342 389.707 126.894C377.755 125.25 365.936 122.603 353.703 123.138C347.586 123.405 341.658 124.001 335.344 126.095C329.079 115.647 332.279 107.398 341.246 100.543C346.203 96.7539 350.931 92.6507 356.016 89.0483C359.423 86.6356 365.764 87.873 369.642 91.4329C373.266 94.7592 376.521 98.4876 380.151 101.807C389.97 110.789 409.374 114.648 422.661 105.189C421.017 105.106 419.888 105.05 418.602 104.597C420.896 102.975 423.804 102.207 425.648 100.37C426.986 99.0367 427.233 96.2949 427.269 94.1691C427.279 93.5785 424.803 92.9456 423.445 91.7719C423.462 90.0911 423.503 88.9705 423.771 87.5422C425.12 86.6126 426.241 85.9906 427.946 85.3434C432.963 84.4339 434.009 83.1528 434.72 78.2264C435.061 75.8602 435.675 73.5332 436.165 71.1885C436.165 71.1885 436.138 71.2206 436.272 71.5312C436.779 72.1327 437.151 72.4235 437.524 72.7143C441.242 78.9413 439.799 85.7228 439.375 92.3154C439.272 93.9164 437.648 95.5743 436.409 96.9158C433.712 99.8367 430.903 102.669 427.977 105.36C422.656 110.254 419.798 116.067 420.7 124.021Z" fill="#6EB28B"/>
<path d="M383.895 67.5034C386.865 63.7014 389.8 60.4448 393.485 57.4547C398.332 57.7301 401.016 55.1322 403.722 52.5745C404.406 52.2342 405.09 51.894 406.534 51.953C410.909 53.3348 415.484 52.3261 417.253 57.3433C416.889 60.822 414.497 61.4931 411.331 61.3775C405.499 61.1646 401.855 64.4391 399.098 69.2084C395.258 75.852 396.467 82.6701 397.629 89.5757C396.468 90.5482 395.781 91.4878 394.738 92.7338C394.153 94.2782 393.924 95.5163 393.696 96.7545C392.851 97.3469 392.005 97.9394 391.111 98.9586C391.062 99.3853 391.075 99.3682 391.075 99.3682C382.081 91.8094 379.576 80.9343 383.895 67.5034Z" fill="#67AB85"/>
<path d="M393.812 97.2288C393.925 95.5162 394.153 94.2781 395.01 93.1522C402.33 100.031 408.109 100.946 416.426 96.5626C416.415 96.568 416.395 96.5824 416.828 96.5542C417.923 96.0674 418.585 95.6087 419.255 95.1453C419.262 95.1406 419.28 95.1292 419.697 95.1384C420.752 94.6867 421.389 94.2257 422.038 93.7575C422.049 93.7501 422.068 93.7308 422.384 93.6019C423.102 93.204 423.349 92.8326 423.448 92.352C423.455 92.3455 423.468 92.332 423.468 92.332C424.803 92.9455 427.279 93.5784 427.269 94.169C427.233 96.2948 426.986 99.0367 425.648 100.37C423.804 102.207 420.896 102.975 418.118 104.566C414.299 104.983 410.797 105.208 407.313 105.047C401.712 104.788 396.904 102.856 393.812 97.2288Z" fill="#599173"/>
<path d="M391.054 99.3917C391.222 99.59 391.4 99.7815 391.578 99.9731C391.46 99.9021 391.342 99.8311 391.149 99.5641C391.075 99.368 391.062 99.3851 391.054 99.3917Z" fill="#67AB85"/>
<path d="M363.553 73.2555C363.633 73.2076 363.472 73.3034 363.553 73.2555Z" fill="#A9C679"/>
<path d="M398.104 89.543C396.467 82.6702 395.258 75.8522 399.098 69.2086C401.855 64.4393 405.499 61.1648 411.331 61.3777C414.497 61.4933 416.889 60.8222 417.253 57.3435C415.484 52.3262 410.909 53.335 406.934 51.9658C415.994 50.2988 423.973 53.4319 431.393 59.7813C433.263 63.3895 434.717 66.7692 436.168 70.6688C435.675 73.5335 435.061 75.8604 434.72 78.2266C434.009 83.1531 432.963 84.4341 428.027 84.8511C427.486 83.398 427.446 82.4122 427.856 81.0058C428.608 77.8428 429.184 75.098 429.16 72.3584C429.105 66.0314 425.439 63.6487 418.773 65.1456C412.276 64.1331 407.38 66.3839 405.569 70.6675C403.909 74.5914 405.41 81.868 408.302 85.0406C412.716 89.8831 417.788 90.5756 423.543 87.8501C423.503 88.9707 423.462 90.0913 423.445 91.7721C423.468 92.3323 423.455 92.3458 423.117 92.463C422.352 92.8462 422.115 93.2298 422.068 93.7311C422.068 93.7311 422.049 93.7504 421.613 93.7346C420.545 94.189 419.912 94.6592 419.28 95.1295C419.28 95.1295 419.262 95.1409 418.811 95.1189C417.705 95.5922 417.05 96.0875 416.395 96.5827C416.395 96.5827 416.415 96.5683 415.834 96.4843C408.605 96.4455 402.299 95.6344 398.104 89.543Z" fill="#599173"/>
<path d="M403.205 52.6602C401.016 55.1322 398.332 57.7301 393.948 57.3485C396.671 55.5658 399.679 54.1559 403.205 52.6602Z" fill="#599173"/>
<path d="M689.558 285.363C689.113 289.178 688.668 292.992 687.763 297.422C686.667 298.022 686.032 298.006 685.396 297.99C685.294 296.57 685.191 295.15 685.182 292.721C685 290.503 684.725 289.293 684.449 288.082C682.286 272.428 680.295 256.747 677.893 241.13C676.547 232.374 673.182 224.541 664.613 219.498C665.384 213.716 666.439 208.245 667.616 202.8C668.796 197.342 670.099 191.911 671.846 185.966C674.847 190.609 677.26 195.799 679.872 200.887C685.802 212.445 688.188 224.942 689.803 238.286C689.697 254.403 689.628 269.883 689.558 285.363Z" fill="#609E7F"/>
<path d="M682.201 309.509C683.053 310.149 683.878 311.063 683.934 312.023C684.093 314.744 685.741 313.839 687.611 313.573C688.513 318.955 687.985 324.053 685.698 329.197C683.548 334.03 682.613 339.403 681.122 345.072C676.569 349.618 672.037 353.631 666.722 358.087C662.272 358.196 659.278 359.599 656.171 361.51C650.451 365.027 644.504 368.295 637.437 367.887C637.398 367.158 637.376 366.867 637.354 366.576C652.484 352.653 664.769 336.375 676.248 319.445C678.326 316.38 679.976 313.024 682.201 309.509Z" fill="#ACC088"/>
<path d="M562.97 389.413C573.197 387.193 583.652 385.76 593.636 382.761C606.116 379.013 618.208 373.975 631.085 369.539C631.702 369.583 631.899 369.795 631.752 370.161C631.203 371.201 630.801 371.876 629.919 372.616C626.953 374.028 624.467 375.376 621.447 376.76C620.451 376.857 619.972 376.856 619.532 376.988C604.671 381.454 589.869 386.135 574.926 390.306C569.311 391.873 563.451 393.321 557.032 391.862C559.265 391.036 561.094 390.358 562.924 389.681C562.924 389.681 562.988 389.505 562.97 389.413Z" fill="#C1CA5B"/>
<path d="M685.138 298.207C686.032 298.006 686.667 298.022 687.78 298.028C687.586 298.903 686.916 299.788 685.791 300.736C685.184 300.007 685.032 299.215 685.138 298.207Z" fill="#ACC088"/>
<path d="M684.31 288.548C684.725 289.292 685 290.503 685.14 292.189C684.726 291.448 684.448 290.231 684.31 288.548Z" fill="#ACC088"/>
<path d="M631.605 369.477C632.215 368.968 632.922 368.567 634.11 368.206C634.592 368.246 634.723 368.398 634.724 368.744C634.725 369.091 634.705 369.783 634.238 369.775C633.147 369.776 632.523 369.786 631.899 369.795C631.899 369.795 631.702 369.584 631.605 369.477Z" fill="#C1CA5B"/>
<path d="M636.955 366.7C637.376 366.867 637.398 367.158 636.983 367.908C635.938 368.378 635.331 368.388 634.723 368.398C634.723 368.398 634.592 368.246 634.525 368.169C635.158 367.669 635.857 367.246 636.955 366.7Z" fill="#C1CA5B"/>
<path d="M684.877 303.461C685.01 304.05 684.831 304.974 684.234 306.144C684.066 305.525 684.316 304.661 684.877 303.461Z" fill="#ACC088"/>
<path d="M677.092 139.387C680.281 141.055 683.4 143.41 686.554 145.717C704.479 158.831 719.031 174.95 730.127 194.219C731.967 197.412 734.481 200.217 737.115 203.407C736.799 210.313 735.761 216.998 735.389 223.719C735.057 229.734 735.465 235.788 735.535 241.825C735.553 243.407 735.527 244.989 734.681 246.744C731.792 245.407 729.653 244.005 727.709 242.37C719.526 235.491 714.132 226.55 709.152 217.271C704.643 208.869 700.225 200.388 695.159 192.325C690.443 184.819 684.888 177.859 675.633 175.391C675.249 173.42 674.208 171.309 674.591 169.5C676.648 159.767 677.261 149.953 677.092 139.387Z" fill="#90B981"/>
<path d="M675.183 175.634C684.888 177.859 690.443 184.818 695.159 192.324C700.225 200.388 704.643 208.869 709.152 217.27C714.132 226.55 719.526 235.49 727.709 242.37C729.653 244.004 731.792 245.407 734.277 247.108C735.314 248.137 735.915 248.975 735.718 250.001C733.758 250.133 732.457 250.397 731.458 249.964C727.829 248.389 725.476 249.892 723.007 252.505C715.012 260.969 715.119 270.788 717.747 281.132C717.605 281.532 717.363 281.859 716.334 281.925C712.139 274.719 713.512 267.619 715.528 260.615C717.332 254.35 716.855 248.705 712.531 243.542C710.444 241.05 708.992 237.976 706.716 235.704C702.734 231.731 699.674 226.399 692.879 224.946C692.726 227.487 692.894 229.594 692.403 231.533C691.866 233.652 690.719 235.616 689.838 237.648C688.188 224.942 685.802 212.445 679.872 200.887C677.26 195.799 674.847 190.609 671.849 185.386C672.481 182.164 673.607 179.02 675.183 175.634Z" fill="#67AB85"/>
<path d="M640.524 144.584C637.792 148.539 635.293 152.682 632.276 156.405C627.488 162.316 622.354 167.947 616.883 173.854C616.399 174.012 616.243 173.852 616.243 173.852C616.464 168.769 620.299 165.748 623.051 162.162C627.927 155.808 632.248 148.918 639.739 144.406C640.316 144.41 640.524 144.584 640.524 144.584Z" fill="#ACC088"/>
<path d="M640.213 144.323C640.393 141.995 640.514 139.625 645.051 139.25C643.33 141.479 642.314 142.795 640.911 144.347C640.524 144.583 640.316 144.41 640.213 144.323Z" fill="#ACC088"/>
<path d="M616.478 174.092C616.062 174.869 615.568 175.568 615.075 176.266C614.78 176.008 614.485 175.75 614.19 175.492C614.617 175.01 615.043 174.528 615.856 173.949C616.243 173.852 616.399 174.012 616.478 174.092Z" fill="#ACC088"/>
<path d="M612.786 179.023C612.715 178.912 613 178.869 613 178.869C613 178.869 612.857 179.134 612.786 179.023Z" fill="#ACC088"/>
<path d="M634.724 368.744C635.33 368.388 635.938 368.377 637 368.346C644.504 368.295 650.451 365.027 656.171 361.51C659.278 359.599 662.272 358.196 666.504 358.507C665.917 360.661 664.766 362.837 663.248 365.291C657.774 369.515 652.309 373.087 647.655 377.511C642.448 382.46 636.569 386.1 630.107 388.912C627.787 389.922 625.195 390.752 622.7 390.832C616.452 391.033 610.687 392.692 605.374 395.805C600.557 398.628 595.539 399.761 589.951 399.457C580.829 398.962 571.858 400.095 562.828 401.734C557.512 402.699 551.56 401.997 546.231 400.682C532.817 397.37 521.429 390.054 511.286 380.806C509.768 379.422 508.13 377.675 507.588 375.796C503.804 362.661 500.921 349.466 509.391 336.642C509.821 338.911 509.567 341.159 509.079 343.355C507.274 351.472 506.905 359.551 510.326 367.326C515.152 378.3 523.287 386.084 534.341 390.606C549.129 396.656 564.423 398.272 580.16 395.113C594.002 392.335 606.939 387.157 619.209 380.283C620.419 379.605 621.071 377.934 621.982 376.724C624.467 375.376 626.953 374.028 630.43 372.638C633.39 372.68 634.649 371.933 634.705 369.783C634.705 369.783 634.725 369.091 634.724 368.744Z" fill="#82B78A"/>
<path d="M630.03 416.295C630.595 416.972 630.653 417.737 630.904 419.045C631.097 419.589 630.997 419.613 630.553 419.567C629.809 419.922 629.51 420.323 629.211 420.724C614.875 431.406 598.524 434.394 580.453 433.281C581.948 432.607 584.066 431.803 586.257 431.372C601.384 428.396 615.784 423.351 630.03 416.295Z" fill="#4D8365"/>
<path d="M621.447 376.76C621.071 377.934 620.418 379.606 619.209 380.283C606.939 387.157 594.002 392.335 580.16 395.114C564.423 398.272 549.129 396.656 534.341 390.606C523.287 386.084 515.152 378.3 510.325 367.326C506.905 359.551 507.274 351.472 509.079 343.355C509.567 341.159 509.821 338.911 509.804 336.353C512.754 329.279 515.062 321.954 522.339 317.818C524.77 316.437 526.25 313.381 529.171 310.804C535.023 310.118 539.865 309.578 544.718 309.449C545.598 309.426 546.524 311.087 546.841 312.033C529.198 312.844 517.115 323.092 513.249 338.392C512.074 343.04 512.27 348.072 512.131 352.936C511.908 360.769 515.118 367.533 519.719 373.538C521.723 376.154 523.632 379.518 527.707 379.672C527.682 379.681 527.687 379.628 527.753 380.011C528.259 380.626 528.7 380.858 529.111 381.094C529.082 381.098 529.077 381.039 529.284 381.459C530.07 382.09 530.649 382.302 531.591 382.746C534.263 384.239 536.573 385.501 539.193 387.156C543.365 389.077 546.866 392.716 551.522 389.609C554.902 389.603 558.281 389.597 562.292 389.636C561.094 390.359 559.265 391.036 557.032 391.862C563.451 393.321 569.311 391.873 574.925 390.306C589.869 386.135 604.671 381.454 619.532 376.988C619.972 376.856 620.451 376.857 621.447 376.76Z" fill="#99BC89"/>
<path d="M547.428 311.97C546.524 311.087 545.599 309.426 544.718 309.45C539.865 309.579 535.023 310.119 529.586 310.581C531.224 304.083 537.056 301.442 542.501 298.519C544.478 297.458 546.912 297.249 549.677 296.656C551.408 297.941 552.459 299.398 553.816 300.468C559.287 304.779 564.972 308.827 570.356 313.242C577.964 319.481 580.124 328.419 581.068 337.538C581.661 343.266 581.881 349.197 579.485 354.8C575.476 364.176 568.792 370.516 558.858 373.157C558.056 373.37 557.001 372.628 556.488 371.818C558.95 370.341 560.986 369.375 563.424 368.182C566.739 364.814 569.652 361.674 572.995 358.245C578.207 348.618 579.848 339.049 575.545 328.534C575.605 326.031 574.838 324.782 572.683 324.776C572.717 324.729 572.674 324.833 572.7 324.305C571.472 321.691 570.71 318.738 568.865 317.69C564.325 315.11 559.34 313.265 554.413 311.452C553.248 311.023 551.609 311.881 549.726 312.147C548.652 312.089 548.04 312.029 547.428 311.97Z" fill="#ACC088"/>
<path d="M647.866 411.914C647.582 409.857 648.853 409.17 651.271 409.336C650.616 410.208 649.461 411.043 647.866 411.914Z" fill="#599173"/>
<path d="M629.564 420.66C629.51 420.323 629.81 419.922 630.502 419.576C630.57 419.953 630.244 420.274 629.564 420.66Z" fill="#67AB85"/>
<path d="M572.565 358.533C569.652 361.673 566.739 364.814 563.396 367.799C562.942 367.388 562.919 367.133 562.91 366.423C562.929 365.359 562.932 364.75 563.253 363.861C564.306 362.373 565.04 361.164 565.74 359.951C565.706 359.947 565.715 360.016 566.091 359.791C566.704 358.749 566.941 357.932 567.142 357.121C567.106 357.127 567.124 357.198 567.502 357.012C568.079 356.036 568.279 355.244 568.507 354.076C568.539 353.449 568.542 353.197 569.077 352.845C572.595 349.551 571.987 346.238 569.904 342.387C567.099 335.612 562.928 330.824 556.037 328.937C543.993 319.711 524.114 325.713 521.025 341.596C520.144 346.126 520.725 350.939 520.641 356.241C520.264 363.633 523.352 369.061 527.954 373.472C532.6 377.925 537.83 381.767 542.451 386.37C541.025 386.83 539.953 386.796 538.882 386.762C536.573 385.501 534.263 384.239 531.294 382.406C530.115 381.57 529.596 381.305 529.077 381.039C529.077 381.039 529.082 381.098 529.043 380.71C528.566 380.09 528.127 379.859 527.687 379.628C527.687 379.628 527.682 379.681 527.678 379.182C522.853 372.093 517.851 365.663 515.793 357.462C511.223 339.256 522.082 321.728 540.01 319.751C546.614 319.023 553.947 319.163 559.424 323.745C563.839 327.438 567.594 332.114 570.913 336.863C573.745 340.916 574.931 345.688 573.271 350.886C572.511 353.267 572.769 355.974 572.565 358.533Z" fill="#C1CA5B"/>
<path d="M555.38 328.951C562.928 330.824 567.099 335.612 569.909 342.98C569.482 347.023 569.014 349.984 568.546 352.945C568.542 353.197 568.539 353.449 568.181 354.31C567.593 355.68 567.358 356.439 567.124 357.198C567.124 357.198 567.106 357.127 566.768 357.35C566.192 358.387 565.953 359.202 565.715 360.016C565.715 360.016 565.706 359.947 565.193 359.934C563.198 360.54 561.71 361.144 560.235 361.781C557.365 363.021 554.517 363.788 552.253 361.447C559.196 359.513 561.57 354.638 561.323 348.584C561.059 342.124 557.928 336.849 551.867 334.208C546.398 331.826 540.972 332.501 536.174 336.464C531.394 340.412 529.878 345.49 530.641 352.01C530.599 354.058 530.621 355.549 530.644 357.04C529.954 356.237 528.912 355.542 528.627 354.615C524.467 341.062 532.886 329.344 546.986 328.981C549.563 328.915 552.143 328.967 555.38 328.951Z" fill="#ACC088"/>
<path d="M551.754 361.528C554.517 363.788 557.365 363.021 560.235 361.781C561.71 361.144 563.198 360.54 565.228 359.938C565.04 361.164 564.306 362.373 562.88 364.012C561.803 365.121 561.419 365.799 561.034 366.477C561.654 366.611 562.275 366.744 562.895 366.878C562.918 367.133 562.942 367.388 562.994 368.026C560.986 369.375 558.95 370.34 556.425 371.364C546.187 370.985 545.964 371.364 537.668 366.475C534.826 364.801 533.408 360.707 530.992 357.379C530.621 355.549 530.599 354.058 530.99 352.015C531.404 351.464 532.106 351.442 532.106 351.442C532.106 351.442 532.808 351.476 532.973 351.998C533.567 354.828 533.997 357.135 534.628 360.53C536.796 357.841 538.063 356.271 539.657 355.188C542.713 360.029 546.583 362.087 551.754 361.528Z" fill="#61A280"/>
<path d="M552.407 373.288C552.455 373.367 552.359 373.209 552.407 373.288Z" fill="#ACC088"/>
<path d="M539.193 387.156C539.953 386.796 541.025 386.83 542.629 386.813C543.162 386.762 543.178 386.722 543.436 387.127C544.965 387.755 546.236 387.979 547.508 388.202C548.568 388.614 549.628 389.026 551.105 389.524C546.866 392.716 543.365 389.077 539.193 387.156Z" fill="#609E7F"/>
<path d="M547.19 387.834C546.236 387.979 544.965 387.755 543.418 387.132C544.385 386.977 545.628 387.221 547.19 387.834Z" fill="#C1CA5B"/>
<path d="M437.397 72.371C437.151 72.4233 436.779 72.1325 436.268 71.5106C436.509 71.4624 436.889 71.7451 437.397 72.371Z" fill="#599173"/>
<path d="M718.263 281.029C715.119 270.788 715.013 260.97 723.008 252.505C725.476 249.893 727.829 248.389 731.458 249.964C732.457 250.397 733.758 250.133 735.469 250.211C736.692 251.094 737.366 251.956 738.481 252.89C738.126 254.75 737.64 256.791 736.449 258.26C735.17 259.837 733.359 261.117 731.552 262.108C725.355 265.506 722.241 270.936 720.664 277.566C720.379 278.768 719.425 279.81 718.263 281.029Z" fill="#ACC088"/>
<path d="M689.803 238.285C690.719 235.616 691.866 233.652 692.403 231.534C692.894 229.594 692.726 227.487 692.879 224.946C699.674 226.399 702.734 231.731 706.716 235.704C708.992 237.976 710.444 241.05 712.531 243.542C716.855 248.705 717.332 254.35 715.528 260.615C713.512 267.619 712.139 274.719 716.061 282.068C716.185 283.224 715.893 284.05 715.558 284.996C714.627 284.672 713.896 284.592 713.387 284.214C705.128 278.076 700.868 278.114 692.481 284.408C691.948 284.809 691.226 284.959 690.075 285.294C689.628 269.883 689.697 254.403 689.803 238.285Z" fill="#ACC088"/>
<path d="M423.771 87.5424C417.788 90.5755 412.716 89.8831 408.302 85.0405C405.41 81.8679 403.909 74.5913 405.569 70.6674C407.38 66.3839 412.275 64.1331 418.56 65.5919C414.911 72.8472 417.093 76.2971 424.029 80.603C424.965 81.1839 426.272 81.1666 427.407 81.4263C427.446 82.4121 427.485 83.3979 427.443 84.8763C426.241 85.9908 425.12 86.6127 423.771 87.5424Z" fill="#82B78A"/>
<path d="M428.344 90.1654C428.429 90.1133 428.259 90.2175 428.344 90.1654Z" fill="#599173"/>
<path d="M397.629 89.5757C402.299 95.6343 408.605 96.4453 415.845 96.4786C408.109 100.946 402.33 100.031 395.366 92.846C395.781 91.4878 396.468 90.5482 397.629 89.5757Z" fill="#99BC89"/>
<path d="M419.697 95.1385C419.912 94.6591 420.545 94.1888 421.602 93.7417C421.389 94.2258 420.752 94.6868 419.697 95.1385Z" fill="#6EB28B"/>
<path d="M416.828 96.5544C417.05 96.0873 417.705 95.5921 418.803 95.1235C418.585 95.6088 417.923 96.0675 416.828 96.5544Z" fill="#99BC89"/>
<path d="M422.384 93.6019C422.115 93.2294 422.352 92.8458 423.11 92.4692C423.349 92.8325 423.102 93.204 422.384 93.6019Z" fill="#6EB28B"/>
<path d="M427.856 81.0056C426.272 81.1664 424.965 81.1837 424.029 80.6029C417.093 76.2969 414.911 72.847 418.87 65.9985C425.439 63.6484 429.105 66.0311 429.16 72.3582C429.184 75.0978 428.608 77.8426 427.856 81.0056ZM424.346 68.6891C424.346 69.8978 424.346 71.1065 424.346 72.3152C424.858 72.2666 425.37 72.2179 425.881 72.1693C425.693 71.056 425.505 69.9426 424.346 68.6891Z" fill="#735D5A"/>
<path d="M683.397 316.944C683.445 317.025 683.348 316.863 683.397 316.944Z" fill="#99BC89"/>
<path d="M634.238 369.775C634.649 371.933 633.39 372.68 630.91 372.574C630.801 371.877 631.203 371.201 631.752 370.161C632.523 369.786 633.147 369.776 634.238 369.775Z" fill="#99BC89"/>
<path d="M572.995 358.245C572.769 355.974 572.511 353.267 573.271 350.886C574.931 345.688 573.746 340.917 570.913 336.863C567.594 332.114 563.839 327.438 559.424 323.745C553.947 319.163 546.614 319.023 540.01 319.752C522.082 321.729 511.223 339.256 515.793 357.462C517.851 365.663 522.853 372.093 527.703 379.173C523.632 379.518 521.723 376.154 519.719 373.538C515.118 367.533 511.908 360.769 512.132 352.937C512.271 348.072 512.074 343.04 513.249 338.392C517.116 323.092 529.198 312.844 546.841 312.033C548.04 312.029 548.652 312.089 550.079 312.503C559.466 314.461 565.716 320.292 572.674 324.833C572.674 324.833 572.717 324.729 572.749 325.216C573.699 326.817 574.617 327.931 575.536 329.046C579.848 339.049 578.207 348.618 572.995 358.245Z" fill="#4D8365"/>
<path d="M527.753 380.011C528.127 379.859 528.566 380.09 529.073 380.706C528.7 380.858 528.259 380.626 527.753 380.011Z" fill="#4D8365"/>
<path d="M529.284 381.458C529.596 381.304 530.115 381.57 530.931 382.175C530.649 382.302 530.07 382.09 529.284 381.458Z" fill="#4D8365"/>
<path d="M572.7 324.304C565.716 320.291 559.466 314.461 550.54 312.503C551.609 311.881 553.248 311.023 554.413 311.452C559.34 313.265 564.325 315.109 568.865 317.689C570.71 318.738 571.472 321.69 572.7 324.304Z" fill="#99BC89"/>
<path d="M575.545 328.534C574.617 327.931 573.699 326.817 572.715 325.263C574.838 324.782 575.605 326.031 575.545 328.534Z" fill="#99BC89"/>
<path d="M569.078 352.844C569.014 349.984 569.482 347.023 569.946 343.469C571.987 346.237 572.595 349.551 569.078 352.844Z" fill="#77AC87"/>
<path d="M562.91 366.423C562.275 366.745 561.655 366.611 561.034 366.478C561.419 365.799 561.803 365.121 562.562 364.292C562.932 364.75 562.929 365.359 562.91 366.423Z" fill="#ACC088"/>
<path d="M566.091 359.791C565.953 359.201 566.192 358.387 566.804 357.344C566.941 357.932 566.704 358.749 566.091 359.791Z" fill="#61A280"/>
<path d="M567.502 357.012C567.358 356.438 567.593 355.679 568.153 354.687C568.279 355.244 568.079 356.035 567.502 357.012Z" fill="#61A280"/>
<path d="M532.808 351.476L532.107 351.442C532.107 351.442 531.404 351.464 531.055 351.458C529.878 345.49 531.394 340.412 536.174 336.464C540.972 332.501 546.398 331.826 551.867 334.208C557.928 336.849 561.059 342.123 561.323 348.584C561.57 354.637 559.196 359.513 552.253 361.447C546.584 362.087 542.713 360.029 539.75 354.686C540.781 350.153 542.047 346.611 543.858 343.063C547.793 342.75 550.074 343.903 550.146 348.044C548.634 350.87 547.617 353.528 550.798 354.971C553.865 356.362 555.386 353.99 556.509 351.518C556.699 351.097 556.909 350.685 557.16 349.721C556.032 340.658 549.594 336.244 541.304 338.627C534.202 340.479 533.279 345.837 532.808 351.476Z" fill="#4D8365"/>
<path d="M543.313 343.07C542.047 346.611 540.781 350.153 539.422 354.197C538.063 356.271 536.796 357.841 534.628 360.53C533.997 357.135 533.567 354.828 532.973 351.998C533.279 345.837 534.201 340.479 541.415 339.083C542.475 340.719 542.894 341.894 543.313 343.07Z" fill="#F4EEE7"/>
<path d="M424.831 68.7593C425.505 69.9427 425.693 71.056 425.881 72.1694C425.37 72.218 424.858 72.2667 424.346 72.3153C424.346 71.1066 424.346 69.8979 424.831 68.7593Z" fill="#F4EEE7"/>
<path d="M543.858 343.063C542.894 341.895 542.475 340.72 541.945 339.089C549.593 336.245 556.032 340.658 556.792 349.419C554.384 348.983 552.397 348.3 550.41 347.618C550.074 343.904 547.793 342.75 543.858 343.063Z" fill="#61A280"/>
<path d="M550.146 348.043C552.397 348.3 554.385 348.982 556.74 349.967C556.909 350.685 556.699 351.097 556.509 351.518C555.386 353.99 553.865 356.362 550.798 354.971C547.617 353.528 548.634 350.87 550.146 348.043Z" fill="#D8DEA9"/>
</svg>
